<?xml version="1.0" standalone="no"?><!DOCTYPE svg PUBLIC "-//W3C//DTD SVG 1.1//EN" "http://www.w3.org/Graphics/SVG/1.1/DTD/svg11.dtd"><svg height="1024" node-id="1" sillyvg="true" template-height="1024" template-width="1024" version="1.1" viewBox="0 0 1024 1024" width="1024" xmlns="http://www.w3.org/2000/svg" xmlns:xlink="http://www.w3.org/1999/xlink"><defs node-id="30"></defs><g node-id="32"><path d="M 0.00 0.00 L 1024.00 0.00 L 1024.00 1024.00 L 0.00 1024.00 Z" fill="#ffffff" fill-opacity="0" fill-rule="evenodd" group-id="1" id="矩形" node-id="6" stroke="none" target-height="1024" target-width="1024" target-x="0" target-y="0"></path><g node-id="33"><path d="M 660.40 276.00 L 660.60 270.20 L 661.30 264.60 L 662.40 259.10 L 664.00 253.90 L 665.90 248.70 L 668.20 243.80 L 670.90 239.10 L 673.90 234.70 L 677.30 230.40 L 680.90 226.50 L 684.80 222.90 L 689.10 219.50 L 693.50 216.50 L 698.20 213.80 L 703.10 211.50 L 708.30 209.60 L 713.50 208.00 L 719.00 206.90 L 724.60 206.20 L 730.40 206.00 L 736.20 206.20 L 741.80 206.90 L 747.30 208.00 L 752.50 209.60 L 757.70 211.50 L 762.60 213.80 L 767.30 216.50 L 771.70 219.50 L 776.00 222.90 L 779.90 226.50 L 783.50 230.40 L 786.90 234.70 L 789.90 239.10 L 792.60 243.80 L 794.90 248.70 L 796.80 253.90 L 798.40 259.10 L 799.50 264.60 L 800.20 270.20 L 800.40 276.00 L 800.20 281.70 L 799.50 287.30 L 798.40 292.60 L 796.90 297.80 L 795.00 302.90 L 792.80 307.80 L 790.20 312.40 L 787.30 316.80 L 780.50 324.90 L 772.50 331.90 L 768.20 334.90 L 763.60 337.60 L 758.80 340.00 L 753.80 342.00 L 758.80 344.00 L 763.60 346.40 L 768.20 349.10 L 776.60 355.40 L 780.50 359.10 L 784.00 363.00 L 790.20 371.60 L 792.80 376.20 L 795.00 381.10 L 796.90 386.20 L 798.40 391.40 L 799.50 396.70 L 800.20 402.30 L 800.40 408.00 L 800.20 413.70 L 799.50 419.30 L 798.40 424.60 L 796.90 429.80 L 795.00 434.90 L 792.80 439.80 L 790.20 444.40 L 787.30 448.80 L 784.00 453.00 L 776.60 460.60 L 772.50 463.90 L 768.20 466.90 L 763.60 469.60 L 758.80 472.00 L 753.80 474.00 L 758.80 476.00 L 763.60 478.40 L 768.20 481.10 L 772.50 484.10 L 776.60 487.40 L 784.00 495.00 L 787.30 499.20 L 790.20 503.60 L 792.80 508.20 L 795.00 513.10 L 796.90 518.20 L 798.40 523.40 L 799.50 528.70 L 800.20 534.30 L 800.40 540.00 L 800.20 545.80 L 799.50 551.40 L 798.40 556.90 L 796.80 562.10 L 794.90 567.30 L 792.60 572.20 L 789.90 576.90 L 786.90 581.30 L 783.50 585.60 L 779.90 589.50 L 776.00 593.10 L 771.70 596.50 L 767.30 599.50 L 762.60 602.20 L 757.70 604.50 L 752.50 606.40 L 747.30 608.00 L 741.80 609.10 L 736.20 609.80 L 730.40 610.00 L 724.60 609.80 L 719.00 609.10 L 713.50 608.00 L 708.30 606.40 L 703.10 604.50 L 698.20 602.20 L 693.50 599.50 L 689.10 596.50 L 684.80 593.10 L 680.90 589.50 L 677.30 585.60 L 673.90 581.30 L 670.90 576.90 L 668.20 572.20 L 665.90 567.30 L 664.00 562.10 L 662.40 556.90 L 661.30 551.40 L 660.60 545.80 L 660.40 540.00 L 660.60 534.30 L 661.30 528.80 L 662.40 523.40 L 663.90 518.20 L 665.80 513.10 L 668.00 508.30 L 670.60 503.60 L 673.50 499.20 L 676.80 495.00 L 684.10 487.50 L 688.30 484.10 L 692.60 481.10 L 697.20 478.40 L 702.00 476.00 L 707.00 474.00 L 702.00 472.00 L 697.20 469.60 L 692.60 467.00 L 688.30 463.90 L 684.20 460.60 L 676.80 453.00 L 673.50 448.80 L 670.60 444.40 L 668.00 439.80 L 665.80 434.90 L 663.90 429.80 L 662.40 424.60 L 661.30 419.30 L 660.60 413.70 L 660.40 408.00 L 660.60 402.30 L 661.30 396.80 L 662.40 391.40 L 663.90 386.20 L 665.80 381.10 L 668.00 376.30 L 670.60 371.60 L 673.50 367.20 L 676.80 363.00 L 684.10 355.50 L 692.60 349.10 L 697.20 346.40 L 702.00 344.00 L 707.00 342.00 L 702.00 340.00 L 697.20 337.60 L 692.60 335.00 L 688.30 331.90 L 680.30 324.90 L 673.50 316.80 L 670.60 312.40 L 668.00 307.80 L 665.80 302.90 L 663.90 297.80 L 662.40 292.60 L 661.30 287.30 L 660.60 281.70 L 660.40 276.00 Z M 668.40 408.00 L 668.60 413.10 L 669.20 418.10 L 670.20 422.90 L 673.30 432.20 L 677.70 440.70 L 680.40 444.60 L 686.60 451.80 L 693.80 458.00 L 697.70 460.70 L 706.20 465.10 L 715.50 468.20 L 720.30 469.20 L 730.40 470.00 L 735.50 469.80 L 740.50 469.20 L 745.30 468.20 L 754.60 465.10 L 763.10 460.70 L 767.00 458.00 L 774.20 451.80 L 780.40 444.60 L 783.10 440.70 L 787.50 432.20 L 790.60 422.90 L 791.60 418.10 L 792.40 408.00 L 791.60 397.90 L 790.60 393.10 L 787.50 383.80 L 783.10 375.30 L 780.40 371.40 L 774.20 364.20 L 767.00 358.00 L 763.10 355.30 L 754.60 350.90 L 745.30 347.80 L 740.50 346.80 L 730.40 346.00 L 724.30 346.30 L 719.40 347.00 L 710.10 349.40 L 705.60 351.20 L 697.20 355.60 L 693.30 358.30 L 688.50 362.30 L 684.10 366.80 L 680.10 371.70 L 675.20 379.80 L 673.20 384.10 L 670.20 393.20 L 669.20 398.00 L 668.40 408.00 Z M 668.40 540.00 L 669.20 550.10 L 670.20 554.90 L 673.30 564.20 L 677.70 572.70 L 680.40 576.60 L 686.60 583.80 L 693.80 590.00 L 697.70 592.70 L 706.20 597.10 L 715.50 600.20 L 720.30 601.20 L 730.40 602.00 L 740.50 601.20 L 745.30 600.20 L 754.60 597.10 L 763.10 592.70 L 767.00 590.00 L 774.20 583.80 L 780.40 576.60 L 783.10 572.70 L 787.50 564.20 L 790.60 554.90 L 791.60 550.10 L 792.40 540.00 L 791.60 529.90 L 790.60 525.10 L 787.50 515.80 L 783.10 507.30 L 780.40 503.40 L 774.20 496.20 L 767.00 490.00 L 763.10 487.30 L 754.60 482.90 L 745.30 479.80 L 740.50 478.80 L 730.40 478.00 L 724.30 478.30 L 719.40 479.00 L 710.10 481.40 L 705.60 483.20 L 697.20 487.60 L 693.30 490.30 L 688.50 494.30 L 684.10 498.80 L 680.10 503.70 L 675.20 511.80 L 673.20 516.10 L 670.20 525.20 L 669.20 530.00 L 668.40 540.00 Z M 668.40 276.00 L 669.20 286.10 L 670.20 290.90 L 673.30 300.20 L 677.70 308.70 L 680.40 312.60 L 686.60 319.80 L 693.80 326.00 L 697.70 328.70 L 706.20 333.10 L 715.50 336.20 L 720.30 337.20 L 725.30 337.80 L 730.40 338.00 L 740.50 337.20 L 750.00 334.80 L 758.90 331.10 L 763.10 328.70 L 770.80 323.10 L 777.50 316.40 L 780.40 312.60 L 785.50 304.50 L 789.20 295.60 L 790.60 290.90 L 792.20 281.10 L 792.40 276.00 L 792.20 270.90 L 791.60 265.90 L 789.20 256.40 L 785.50 247.50 L 783.10 243.30 L 777.50 235.60 L 770.80 228.90 L 767.00 226.00 L 758.90 220.90 L 754.60 218.90 L 745.30 215.80 L 740.50 214.80 L 730.40 214.00 L 725.30 214.20 L 720.30 214.80 L 715.50 215.80 L 706.20 218.90 L 697.70 223.30 L 693.80 226.00 L 686.60 232.20 L 680.40 239.40 L 677.70 243.30 L 673.30 251.80 L 670.20 261.10 L 669.20 265.90 L 668.40 276.00 Z" fill="#dedaff" fill-rule="nonzero" group-id="1,2" id="形状结合" node-id="8" stroke="none" target-height="404" target-width="140" target-x="660.4" target-y="206"></path><path d="M 746.00 272.00 L 950.00 272.00 L 950.00 280.20 L 746.00 280.20 L 746.50 276.10 L 746.00 272.00 Z M 746.00 403.80 L 950.00 403.80 L 950.00 412.10 L 746.00 412.10 L 746.50 408.00 L 746.00 403.80 Z M 746.00 535.70 L 950.00 535.70 L 950.00 544.00 L 746.00 544.00 L 746.50 539.80 L 746.00 535.70 Z M 725.90 260.10 L 725.90 70.00 L 734.10 70.00 L 734.10 260.10 L 730.00 259.60 L 725.90 260.10 Z M 730.00 556.30 L 734.10 555.80 L 734.10 954.00 L 725.90 954.00 L 725.90 555.80 L 730.00 556.30 Z M 730.00 292.60 L 734.10 292.10 L 734.10 392.00 L 730.00 391.50 L 725.90 392.00 L 725.90 292.10 L 730.00 292.60 Z M 730.00 424.40 L 734.10 423.90 L 734.10 523.90 L 730.00 523.40 L 725.90 523.90 L 725.90 423.90 L 730.00 424.40 Z M 66.00 535.70 L 593.90 535.70 L 593.90 412.10 L 66.00 412.10 L 66.00 403.80 L 593.90 403.80 L 593.90 280.20 L 66.00 280.20 L 66.00 272.00 L 593.90 272.00 L 593.90 70.00 L 602.10 70.00 L 602.10 272.00 L 714.00 272.00 L 713.50 276.10 L 714.00 280.20 L 602.10 280.20 L 602.10 403.80 L 714.00 403.80 L 713.50 408.00 L 714.00 412.10 L 602.10 412.10 L 602.10 535.70 L 714.00 535.70 L 713.50 539.80 L 714.00 544.00 L 602.10 544.00 L 602.10 954.00 L 593.90 954.00 L 593.90 544.00 L 66.00 544.00 L 66.00 535.70 Z" fill="#f3f3f3" fill-rule="evenodd" group-id="1,2" id="形状结合" node-id="9" stroke="none" target-height="884" target-width="884" target-x="66" target-y="70"></path></g><g node-id="34"><path d="M 551.00 516.20 L 726.50 516.20 L 726.50 691.60 L 551.00 691.60 Z" fill="#eeeeff" fill-rule="nonzero" group-id="1,3" id="矩形" node-id="11" stroke="none" target-height="175.39996" target-width="175.5" target-x="551" target-y="516.2"></path><path d="M 593.90 572.30 L 803.60 572.30 L 803.60 774.40 L 593.90 774.40 Z" fill="#ffffff" fill-rule="nonzero" group-id="1,3" id="矩形" node-id="12" stroke="none" target-height="202.10004" target-width="209.69995" target-x="593.9" target-y="572.3"></path><path d="M 778.20 617.00 L 778.20 752.60 L 645.50 752.60 Z" fill="#eeeeff" fill-opacity="0.79939497" fill-rule="nonzero" group-id="1,3" id="路径" node-id="13" stroke="none" target-height="135.59998" target-width="132.70001" target-x="645.5" target-y="617"></path><path d="M 627.00 585.10 L 650.50 585.10 L 650.50 752.60 L 627.00 752.60 Z" fill="#eeeeff" fill-rule="nonzero" group-id="1,3" id="矩形" node-id="14" stroke="none" target-height="167.5" target-width="23.5" target-x="627" target-y="585.1"></path><path d="M 620.10 572.30 L 803.60 572.30 L 803.60 774.30 L 620.10 774.30 L 620.10 753.10 L 779.40 753.10 L 779.40 590.80 L 620.10 590.80 L 620.10 572.30 Z" fill="#806eff" fill-rule="nonzero" group-id="1,3" id="形状结合" node-id="15" stroke="none" target-height="202" target-width="183.5" target-x="620.1" target-y="572.3"></path><g node-id="35"><path d="M 240.60 598.70 L 627.00 598.70 L 627.00 774.40 L 240.60 774.40 Z" fill="#a199ff" fill-rule="nonzero" group-id="1,3,4" id="矩形" node-id="17" stroke="none" target-height="175.70001" target-width="386.4" target-x="240.6" target-y="598.7"></path><g node-id="36"><path d="M 363.50 686.60 L 363.30 689.80 L 362.70 692.80 L 361.70 695.70 L 360.30 698.40 L 356.70 703.10 L 352.00 706.80 L 349.20 708.20 L 346.40 709.20 L 343.30 709.80 L 340.10 710.00 L 336.90 709.80 L 333.90 709.20 L 331.00 708.20 L 325.80 705.10 L 321.60 700.90 L 319.90 698.40 L 317.50 692.80 L 316.90 689.80 L 316.70 686.60 L 316.90 683.40 L 317.50 680.30 L 318.50 677.50 L 321.60 672.30 L 325.80 668.00 L 331.00 665.00 L 333.90 664.00 L 336.90 663.40 L 340.10 663.10 L 343.30 663.40 L 346.40 664.00 L 349.20 665.00 L 352.00 666.40 L 356.70 670.00 L 360.30 674.70 L 361.70 677.50 L 362.70 680.30 L 363.30 683.40 L 363.50 686.60 Z" fill="#ffffff" fill-rule="evenodd" group-id="1,3,4,5" id="椭圆形" node-id="19" stroke="none" target-height="46.900024" target-width="46.799988" target-x="316.7" target-y="663.1"></path><path d="M 457.20 686.60 L 457.00 689.80 L 456.40 692.80 L 455.40 695.70 L 454.00 698.40 L 450.40 703.10 L 445.60 706.80 L 442.90 708.20 L 440.10 709.20 L 437.00 709.80 L 433.80 710.00 L 430.60 709.80 L 427.60 709.20 L 424.70 708.20 L 419.50 705.10 L 415.30 700.90 L 413.60 698.40 L 411.20 692.80 L 410.60 689.80 L 410.40 686.60 L 410.60 683.40 L 411.20 680.30 L 412.20 677.50 L 415.30 672.30 L 419.50 668.00 L 424.70 665.00 L 427.60 664.00 L 430.60 663.40 L 433.80 663.10 L 437.00 663.40 L 440.10 664.00 L 442.90 665.00 L 445.60 666.40 L 450.40 670.00 L 454.00 674.70 L 455.40 677.50 L 456.40 680.30 L 457.00 683.40 L 457.20 686.60 Z" fill="#ffffff" fill-rule="evenodd" group-id="1,3,4,5" id="椭圆形备份" node-id="20" stroke="none" target-height="46.900024" target-width="46.80002" target-x="410.4" target-y="663.1"></path><path d="M 550.90 686.60 L 550.70 689.80 L 550.10 692.80 L 549.10 695.70 L 547.70 698.40 L 544.10 703.10 L 539.30 706.80 L 536.60 708.20 L 533.70 709.20 L 530.70 709.80 L 527.50 710.00 L 524.30 709.80 L 521.20 709.20 L 518.40 708.20 L 515.70 706.80 L 510.90 703.10 L 507.30 698.40 L 505.90 695.70 L 504.90 692.80 L 504.30 689.80 L 504.10 686.60 L 504.30 683.40 L 504.90 680.30 L 505.90 677.50 L 507.30 674.70 L 510.90 670.00 L 515.70 666.40 L 518.40 665.00 L 521.20 664.00 L 524.30 663.40 L 527.50 663.10 L 530.70 663.40 L 533.70 664.00 L 536.60 665.00 L 539.30 666.40 L 544.10 670.00 L 547.70 674.70 L 549.10 677.50 L 550.10 680.30 L 550.70 683.40 L 550.90 686.60 Z" fill="#ffffff" fill-rule="evenodd" group-id="1,3,4,5" id="椭圆形备份-2" node-id="21" stroke="none" target-height="46.900024" target-width="46.80002" target-x="504.1" target-y="663.1"></path></g><path d="M 240.60 224.00 L 627.00 224.00 L 627.00 598.70 L 240.60 598.70 Z" fill="#beb9ff" fill-rule="nonzero" group-id="1,3,4" id="矩形" node-id="22" stroke="none" target-height="374.7" target-width="386.4" target-x="240.6" target-y="224"></path><path d="M 281.60 265.00 L 586.00 265.00 L 586.00 598.70 L 281.60 598.70 Z" fill="#ffffff" fill-rule="nonzero" group-id="1,3,4" id="矩形" node-id="23" stroke="none" target-height="333.7" target-width="304.4" target-x="281.6" target-y="265"></path><path d="M 322.60 517.20 L 386.80 517.20 L 386.80 540.60 L 322.60 540.60 Z" fill="#806eff" fill-rule="evenodd" group-id="1,3,4" id="矩形备份-8" node-id="24" stroke="none" target-height="23.399963" target-width="64.19998" target-x="322.6" target-y="517.2"></path><path d="M 322.60 446.90 L 386.80 446.90 L 386.80 470.40 L 322.60 470.40 Z" fill="#806eff" fill-rule="evenodd" group-id="1,3,4" id="矩形备份-2" node-id="25" stroke="none" target-height="23.5" target-width="64.19998" target-x="322.6" target-y="446.9"></path><path d="M 322.60 376.70 L 417.70 376.70 L 417.70 400.10 L 322.60 400.10 Z" fill="#806eff" fill-rule="evenodd" group-id="1,3,4" id="矩形备份" node-id="26" stroke="none" target-height="23.399994" target-width="95.100006" target-x="322.6" target-y="376.7"></path><path d="M 322.60 306.40 L 545.10 306.40 L 545.10 329.80 L 322.60 329.80 Z" fill="#806eff" fill-rule="evenodd" group-id="1,3,4" id="矩形" node-id="27" stroke="none" target-height="23.399994" target-width="222.49997" target-x="322.6" target-y="306.4"></path><path d="M 486.00 475.70 L 499.10 476.50 L 505.00 477.30 L 515.80 479.90 L 520.70 481.50 L 529.00 485.50 L 532.80 487.90 L 536.00 490.40 L 538.70 493.00 L 540.90 495.70 L 542.70 498.70 L 544.00 501.80 L 544.80 504.80 L 545.10 508.00 L 544.90 536.30 L 544.30 537.50 L 542.40 539.50 L 539.70 540.20 L 432.30 540.20 L 430.80 540.00 L 428.50 538.60 L 427.10 536.30 L 426.90 534.80 L 426.90 508.00 L 427.20 504.80 L 427.90 501.80 L 429.20 498.70 L 431.10 495.70 L 433.30 493.00 L 435.90 490.40 L 439.10 487.90 L 443.00 485.50 L 451.20 481.50 L 456.10 479.90 L 467.00 477.30 L 472.80 476.50 L 486.00 475.70 Z M 486.00 400.50 L 490.40 400.80 L 494.60 401.70 L 498.50 403.10 L 502.30 405.00 L 505.70 407.20 L 508.80 410.00 L 511.50 413.10 L 513.80 416.50 L 515.70 420.20 L 517.10 424.20 L 517.90 428.30 L 518.20 432.80 L 517.90 437.20 L 517.10 441.40 L 515.70 445.30 L 513.80 449.00 L 511.50 452.50 L 508.80 455.60 L 505.70 458.30 L 502.30 460.60 L 498.50 462.50 L 494.60 463.80 L 490.40 464.70 L 486.00 465.00 L 481.60 464.70 L 477.40 463.80 L 473.40 462.50 L 469.70 460.60 L 466.30 458.30 L 463.20 455.60 L 460.50 452.50 L 458.20 449.00 L 456.30 445.30 L 454.90 441.40 L 454.10 437.20 L 453.80 432.80 L 454.10 428.30 L 454.90 424.20 L 456.30 420.20 L 458.20 416.50 L 460.50 413.10 L 463.20 410.00 L 466.30 407.20 L 469.70 405.00 L 473.40 403.10 L 477.40 401.70 L 481.60 400.80 L 486.00 400.50 Z" fill="#806eff" fill-rule="evenodd" group-id="1,3,4" id="形状" node-id="28" stroke="none" target-height="139.70001" target-width="118.19998" target-x="426.9" target-y="400.5"></path></g></g></g></svg>