<?xml version="1.0" standalone="no"?><!DOCTYPE svg PUBLIC "-//W3C//DTD SVG 1.1//EN" "http://www.w3.org/Graphics/SVG/1.1/DTD/svg11.dtd"><svg height="1024" node-id="1" sillyvg="true" template-height="1024" template-width="1024" version="1.1" viewBox="0 0 1024 1024" width="1024" xmlns="http://www.w3.org/2000/svg" xmlns:xlink="http://www.w3.org/1999/xlink"><defs node-id="79"><linearGradient gradientUnits="objectBoundingBox" id="linearGradient1" node-id="81" spreadMethod="pad" x1="0.5" x2="0" y1="0.64746344" y2="0.40035838"><stop offset="0" stop-color="#a1c5fd"></stop><stop offset="1" stop-color="#639bff"></stop></linearGradient><linearGradient gradientUnits="objectBoundingBox" id="linearGradient-14" node-id="35" spreadMethod="pad" x1="0.5" x2="0" y1="0.6032789" y2="0.43021408"><stop offset="0" stop-color="#639bff"></stop><stop offset="1" stop-color="#a1c5fd"></stop></linearGradient><linearGradient gradientUnits="objectBoundingBox" id="linearGradient-16" node-id="40" spreadMethod="pad" x1="0.5" x2="0" y1="0.64746344" y2="0.40035838"><stop offset="0" stop-color="#639bff"></stop><stop offset="1" stop-color="#a1c5fd"></stop></linearGradient><linearGradient gradientUnits="objectBoundingBox" id="linearGradient-10" node-id="29" spreadMethod="pad" x1="0.5" x2="0" y1="0.64746344" y2="0.40035838"><stop offset="0" stop-color="#a1c5fd"></stop><stop offset="1" stop-color="#639bff"></stop></linearGradient><linearGradient gradientUnits="objectBoundingBox" id="linearGradient-17" node-id="43" spreadMethod="pad" x1="0.5" x2="0.5" y1="0" y2="1"><stop offset="0" stop-color="#9cbcfa" stop-opacity="0"></stop><stop offset="1" stop-color="#92abff"></stop></linearGradient><filter height="1032.192" id="filter-2" node-id="6" width="1032.192" x="-4.096" y="-4.096"><feGaussianBlur color-interpolation-filters="linearRGB" in="SourceAlpha" result="shadowBlurInner1" stdDeviation="4 4"></feGaussianBlur><feOffset color-interpolation-filters="linearRGB" dx="0" dy="0" in="shadowBlurInner1" result="shadowOffsetInner1"></feOffset><feComposite color-interpolation-filters="linearRGB" in="shadowOffsetInner1" in2="SourceAlpha" k1="0" k2="-1" k3="1" k4="0" operator="arithmetic" result="shadowInnerInner1"></feComposite><feColorMatrix color-interpolation-filters="linearRGB" in="shadowInnerInner1" result="result4" type="matrix" values="0 0 0 0 0.5349466 0 0 0 0 0.7029659 0 0 0 0 1 0 0 0 0.5 0"></feColorMatrix></filter><filter height="897.9018" id="filter-5" node-id="12" width="897.9018" x="63.487995" y="63.487995"><feGaussianBlur color-interpolation-filters="linearRGB" in="SourceAlpha" result="shadowBlurInner1" stdDeviation="8 8"></feGaussianBlur><feOffset color-interpolation-filters="linearRGB" dx="0" dy="4" in="shadowBlurInner1" result="shadowOffsetInner1"></feOffset><feComposite color-interpolation-filters="linearRGB" in="shadowOffsetInner1" in2="SourceAlpha" k1="0" k2="-1" k3="1" k4="0" operator="arithmetic" result="shadowInnerInner1"></feComposite><feColorMatrix color-interpolation-filters="linearRGB" in="shadowInnerInner1" result="result4" type="matrix" values="0 0 0 0 0.5349466 0 0 0 0 0.7029659 0 0 0 0 1 0 0 0 1 0"></feColorMatrix></filter><filter height="424.75516" id="filter-7" node-id="18" width="737.55304" x="138.34729" y="477.00845"><feMorphology color-interpolation-filters="linearRGB" in="SourceAlpha" operator="dilate" radius="0.5 0.5" result="shadowSpreadOuter1"></feMorphology><feOffset color-interpolation-filters="linearRGB" dx="0" dy="2" in="shadowSpreadOuter1" result="shadowOffsetOuter1"></feOffset><feGaussianBlur color-interpolation-filters="linearRGB" in="shadowOffsetOuter1" result="shadowBlurOuter1" stdDeviation="2 2"></feGaussianBlur><feComposite color-interpolation-filters="linearRGB" in="shadowBlurOuter1" in2="SourceAlpha" operator="out" result="shadowBlurOuter1"></feComposite><feColorMatrix color-interpolation-filters="linearRGB" in="shadowBlurOuter1" result="result5" type="matrix" values="0 0 0 0 0.7607843 0 0 0 0 0.85490197 0 0 0 0 0.99607843 0 0 0 0.4 0"></feColorMatrix></filter><filter height="328.15784" id="filter-9" node-id="25" width="573.78125" x="218.00278" y="493.32227"><feOffset color-interpolation-filters="linearRGB" dx="0" dy="2" in="SourceAlpha" result="shadowOffsetOuter1"></feOffset><feGaussianBlur color-interpolation-filters="linearRGB" in="shadowOffsetOuter1" result="shadowBlurOuter1" stdDeviation="2 2"></feGaussianBlur><feColorMatrix color-interpolation-filters="linearRGB" in="shadowBlurOuter1" result="result3" type="matrix" values="0 0 0 0 0.7607843 0 0 0 0 0.85490197 0 0 0 0 0.99607843 0 0 0 0.4 0"></feColorMatrix></filter><filter height="319.71063" id="filter-13" node-id="33" width="319.71066" x="33.261574" y="-129.06522"><feGaussianBlur color-interpolation-filters="linearRGB" in="SourceGraphic" result="result1" stdDeviation="25.13154 25.13154"></feGaussianBlur></filter><filter height="304.44977" id="filter-15" node-id="38" width="304.4497" x="98.70072" y="315.73846"><feGaussianBlur color-interpolation-filters="linearRGB" in="SourceGraphic" result="result1" stdDeviation="25.13154 25.13154"></feGaussianBlur></filter><mask height="491.52" id="mask-4" maskUnits="userSpaceOnUse" node-id="51" width="866.0115" x="74.118095" y="441.78287"><path d="M 950.90 512.00 L 950.60 526.60 L 949.90 541.10 L 948.70 555.50 L 947.00 569.70 L 944.90 583.90 L 942.30 598.00 L 939.30 612.10 L 935.80 625.90 L 931.90 639.70 L 927.50 653.20 L 922.70 666.70 L 917.50 679.90 L 911.80 693.10 L 905.70 705.90 L 899.20 718.60 L 892.20 731.10 L 884.90 743.40 L 877.10 755.50 L 869.00 767.30 L 860.40 778.80 L 851.50 790.10 L 842.20 801.10 L 832.50 811.80 L 822.30 822.30 L 811.80 832.50 L 801.10 842.20 L 790.10 851.50 L 778.80 860.40 L 767.30 869.00 L 755.50 877.10 L 743.40 884.90 L 731.10 892.20 L 718.60 899.20 L 705.90 905.70 L 693.10 911.80 L 679.90 917.50 L 666.70 922.70 L 653.20 927.50 L 639.70 931.90 L 625.90 935.80 L 612.10 939.30 L 598.00 942.30 L 583.90 944.90 L 569.70 947.00 L 555.50 948.70 L 541.10 949.90 L 526.60 950.60 L 512.00 950.90 L 497.40 950.60 L 482.90 949.90 L 468.50 948.70 L 454.30 947.00 L 440.10 944.90 L 426.00 942.30 L 411.90 939.30 L 398.10 935.80 L 384.30 931.90 L 370.80 927.50 L 357.30 922.70 L 344.10 917.50 L 330.90 911.80 L 318.10 905.70 L 305.40 899.20 L 292.90 892.20 L 280.60 884.90 L 268.50 877.10 L 256.70 869.00 L 245.20 860.40 L 233.90 851.50 L 222.90 842.20 L 212.20 832.50 L 201.70 822.30 L 191.50 811.80 L 181.80 801.10 L 172.50 790.10 L 163.60 778.80 L 155.00 767.30 L 146.90 755.50 L 139.10 743.40 L 131.80 731.10 L 124.80 718.60 L 118.30 705.90 L 112.20 693.10 L 106.50 679.90 L 101.30 666.70 L 96.50 653.20 L 92.10 639.70 L 88.20 625.90 L 84.70 612.10 L 81.70 598.00 L 79.10 583.90 L 77.00 569.70 L 75.30 555.50 L 74.10 541.10 L 73.40 526.60 L 73.10 512.00 L 73.40 497.40 L 74.10 482.90 L 75.30 468.50 L 77.00 454.30 L 79.10 440.10 L 81.70 426.00 L 84.70 411.90 L 88.20 398.10 L 92.10 384.30 L 96.50 370.80 L 101.30 357.30 L 106.50 344.10 L 112.20 330.90 L 118.30 318.10 L 124.80 305.40 L 131.80 292.90 L 139.10 280.60 L 146.90 268.50 L 155.00 256.70 L 163.60 245.20 L 172.50 233.90 L 181.80 222.90 L 191.50 212.20 L 201.70 201.70 L 212.20 191.50 L 222.90 181.80 L 233.90 172.50 L 245.20 163.60 L 256.70 155.00 L 268.50 146.90 L 280.60 139.10 L 292.90 131.80 L 305.40 124.80 L 318.10 118.30 L 330.90 112.20 L 344.10 106.50 L 357.30 101.30 L 370.80 96.50 L 384.30 92.10 L 398.10 88.20 L 411.90 84.70 L 426.00 81.70 L 440.10 79.10 L 454.30 77.00 L 468.50 75.30 L 482.90 74.10 L 497.40 73.40 L 512.00 73.10 L 526.60 73.40 L 541.10 74.10 L 555.50 75.30 L 569.70 77.00 L 583.90 79.10 L 598.00 81.70 L 612.10 84.70 L 625.90 88.20 L 639.70 92.10 L 653.20 96.50 L 666.70 101.30 L 679.90 106.50 L 693.10 112.20 L 705.90 118.30 L 718.60 124.80 L 731.10 131.80 L 743.40 139.10 L 755.50 146.90 L 767.30 155.00 L 778.80 163.60 L 790.10 172.50 L 801.10 181.80 L 811.80 191.50 L 822.30 201.70 L 832.50 212.20 L 842.20 222.90 L 851.50 233.90 L 860.40 245.20 L 869.00 256.70 L 877.10 268.50 L 884.90 280.60 L 892.20 292.90 L 899.20 305.40 L 905.70 318.10 L 911.80 330.90 L 917.50 344.10 L 922.70 357.30 L 927.50 370.80 L 931.90 384.30 L 935.80 398.10 L 939.30 411.90 L 942.30 426.00 L 944.90 440.10 L 947.00 454.30 L 948.70 468.50 L 949.90 482.90 L 950.60 497.40 L 950.90 512.00 Z" fill="#ffffff" fill-rule="evenodd" node-id="163" stroke="none" target-height="877.80005" target-width="877.80005" target-x="73.1" target-y="73.1"></path></mask><mask height="376.832" id="mask1" maskUnits="userSpaceOnUse" node-id="167" width="671.74396" x="169.30133" y="466.944"><path d="M 950.90 512.00 L 950.60 526.60 L 949.90 541.10 L 948.70 555.50 L 947.00 569.70 L 944.90 583.90 L 942.30 598.00 L 939.30 612.10 L 935.80 625.90 L 931.90 639.70 L 927.50 653.20 L 922.70 666.70 L 917.50 679.90 L 911.80 693.10 L 905.70 705.90 L 899.20 718.60 L 892.20 731.10 L 884.90 743.40 L 877.10 755.50 L 869.00 767.30 L 860.40 778.80 L 851.50 790.10 L 842.20 801.10 L 832.50 811.80 L 822.30 822.30 L 811.80 832.50 L 801.10 842.20 L 790.10 851.50 L 778.80 860.40 L 767.30 869.00 L 755.50 877.10 L 743.40 884.90 L 731.10 892.20 L 718.60 899.20 L 705.90 905.70 L 693.10 911.80 L 679.90 917.50 L 666.70 922.70 L 653.20 927.50 L 639.70 931.90 L 625.90 935.80 L 612.10 939.30 L 598.00 942.30 L 583.90 944.90 L 569.70 947.00 L 555.50 948.70 L 541.10 949.90 L 526.60 950.60 L 512.00 950.90 L 497.40 950.60 L 482.90 949.90 L 468.50 948.70 L 454.30 947.00 L 440.10 944.90 L 426.00 942.30 L 411.90 939.30 L 398.10 935.80 L 384.30 931.90 L 370.80 927.50 L 357.30 922.70 L 344.10 917.50 L 330.90 911.80 L 318.10 905.70 L 305.40 899.20 L 292.90 892.20 L 280.60 884.90 L 268.50 877.10 L 256.70 869.00 L 245.20 860.40 L 233.90 851.50 L 222.90 842.20 L 212.20 832.50 L 201.70 822.30 L 191.50 811.80 L 181.80 801.10 L 172.50 790.10 L 163.60 778.80 L 155.00 767.30 L 146.90 755.50 L 139.10 743.40 L 131.80 731.10 L 124.80 718.60 L 118.30 705.90 L 112.20 693.10 L 106.50 679.90 L 101.30 666.70 L 96.50 653.20 L 92.10 639.70 L 88.20 625.90 L 84.70 612.10 L 81.70 598.00 L 79.10 583.90 L 77.00 569.70 L 75.30 555.50 L 74.10 541.10 L 73.40 526.60 L 73.10 512.00 L 73.40 497.40 L 74.10 482.90 L 75.30 468.50 L 77.00 454.30 L 79.10 440.10 L 81.70 426.00 L 84.70 411.90 L 88.20 398.10 L 92.10 384.30 L 96.50 370.80 L 101.30 357.30 L 106.50 344.10 L 112.20 330.90 L 118.30 318.10 L 124.80 305.40 L 131.80 292.90 L 139.10 280.60 L 146.90 268.50 L 155.00 256.70 L 163.60 245.20 L 172.50 233.90 L 181.80 222.90 L 191.50 212.20 L 201.70 201.70 L 212.20 191.50 L 222.90 181.80 L 233.90 172.50 L 245.20 163.60 L 256.70 155.00 L 268.50 146.90 L 280.60 139.10 L 292.90 131.80 L 305.40 124.80 L 318.10 118.30 L 330.90 112.20 L 344.10 106.50 L 357.30 101.30 L 370.80 96.50 L 384.30 92.10 L 398.10 88.20 L 411.90 84.70 L 426.00 81.70 L 440.10 79.10 L 454.30 77.00 L 468.50 75.30 L 482.90 74.10 L 497.40 73.40 L 512.00 73.10 L 526.60 73.40 L 541.10 74.10 L 555.50 75.30 L 569.70 77.00 L 583.90 79.10 L 598.00 81.70 L 612.10 84.70 L 625.90 88.20 L 639.70 92.10 L 653.20 96.50 L 666.70 101.30 L 679.90 106.50 L 693.10 112.20 L 705.90 118.30 L 718.60 124.80 L 731.10 131.80 L 743.40 139.10 L 755.50 146.90 L 767.30 155.00 L 778.80 163.60 L 790.10 172.50 L 801.10 181.80 L 811.80 191.50 L 822.30 201.70 L 832.50 212.20 L 842.20 222.90 L 851.50 233.90 L 860.40 245.20 L 869.00 256.70 L 877.10 268.50 L 884.90 280.60 L 892.20 292.90 L 899.20 305.40 L 905.70 318.10 L 911.80 330.90 L 917.50 344.10 L 922.70 357.30 L 927.50 370.80 L 931.90 384.30 L 935.80 398.10 L 939.30 411.90 L 942.30 426.00 L 944.90 440.10 L 947.00 454.30 L 948.70 468.50 L 949.90 482.90 L 950.60 497.40 L 950.90 512.00 Z" fill="#ffffff" fill-rule="evenodd" node-id="171" stroke="none" target-height="877.80005" target-width="877.80005" target-x="73.1" target-y="73.1"></path></mask><mask height="718.3467" id="mask7" maskUnits="userSpaceOnUse" node-id="175" width="877.5337" x="2783.2153" y="2382.1807"><path d="M 3658.00 2773.70 L 3657.70 2788.30 L 3657.00 2802.80 L 3655.80 2817.20 L 3654.20 2831.50 L 3652.10 2845.60 L 3649.50 2859.70 L 3646.40 2873.80 L 3642.90 2887.70 L 3639.00 2901.40 L 3634.60 2915.00 L 3629.80 2928.40 L 3624.60 2941.70 L 3618.90 2954.80 L 3612.80 2967.70 L 3606.30 2980.40 L 3599.40 2992.80 L 3592.00 3005.10 L 3584.30 3017.20 L 3576.10 3029.00 L 3567.60 3040.50 L 3558.70 3051.80 L 3549.30 3062.80 L 3539.60 3073.50 L 3529.50 3084.00 L 3519.00 3094.20 L 3508.20 3103.90 L 3497.20 3113.20 L 3485.90 3122.20 L 3474.40 3130.70 L 3462.60 3138.80 L 3450.50 3146.60 L 3438.20 3154.00 L 3425.80 3160.90 L 3413.10 3167.40 L 3400.20 3173.50 L 3387.10 3179.20 L 3373.80 3184.40 L 3360.40 3189.20 L 3346.80 3193.60 L 3333.10 3197.50 L 3319.20 3201.00 L 3305.10 3204.10 L 3291.00 3206.70 L 3276.90 3208.80 L 3262.60 3210.40 L 3248.20 3211.60 L 3233.70 3212.30 L 3219.10 3212.60 L 3204.50 3212.30 L 3190.10 3211.60 L 3175.70 3210.40 L 3161.40 3208.80 L 3147.20 3206.70 L 3133.10 3204.10 L 3119.10 3201.00 L 3105.20 3197.50 L 3091.50 3193.60 L 3077.90 3189.20 L 3064.50 3184.40 L 3051.20 3179.20 L 3038.10 3173.50 L 3025.20 3167.40 L 3012.50 3160.90 L 3000.00 3154.00 L 2987.70 3146.60 L 2975.70 3138.80 L 2963.90 3130.70 L 2952.30 3122.20 L 2941.10 3113.20 L 2930.10 3103.90 L 2919.30 3094.20 L 2908.80 3084.00 L 2898.70 3073.50 L 2888.90 3062.80 L 2879.60 3051.80 L 2870.70 3040.50 L 2862.20 3029.00 L 2854.00 3017.20 L 2846.20 3005.10 L 2838.90 2992.80 L 2832.00 2980.40 L 2825.50 2967.70 L 2819.40 2954.80 L 2813.70 2941.70 L 2808.40 2928.40 L 2803.60 2915.00 L 2799.30 2901.40 L 2795.30 2887.70 L 2791.80 2873.80 L 2788.80 2859.70 L 2786.20 2845.60 L 2784.10 2831.50 L 2782.40 2817.20 L 2781.20 2802.80 L 2780.50 2788.30 L 2780.30 2773.70 L 2780.50 2759.10 L 2781.20 2744.60 L 2782.40 2730.30 L 2784.10 2716.00 L 2786.20 2701.80 L 2788.80 2687.70 L 2791.80 2673.70 L 2795.30 2659.80 L 2799.30 2646.10 L 2803.60 2632.50 L 2808.40 2619.10 L 2813.70 2605.80 L 2819.40 2592.70 L 2825.50 2579.80 L 2832.00 2567.10 L 2838.90 2554.60 L 2846.20 2542.30 L 2854.00 2530.20 L 2862.20 2518.40 L 2870.70 2506.90 L 2879.60 2495.70 L 2888.90 2484.70 L 2898.70 2473.90 L 2908.80 2463.40 L 2919.30 2453.30 L 2930.10 2443.50 L 2941.10 2434.20 L 2952.30 2425.30 L 2963.90 2416.70 L 2975.70 2408.60 L 2987.70 2400.80 L 3000.00 2393.50 L 3012.50 2386.60 L 3025.20 2380.10 L 3038.10 2374.00 L 3051.20 2368.30 L 3064.50 2363.00 L 3077.90 2358.20 L 3091.50 2353.80 L 3105.20 2349.90 L 3119.10 2346.40 L 3133.10 2343.40 L 3147.20 2340.80 L 3161.40 2338.70 L 3175.70 2337.00 L 3190.10 2335.80 L 3204.50 2335.10 L 3219.10 2334.90 L 3233.70 2335.10 L 3248.20 2335.80 L 3262.60 2337.00 L 3276.90 2338.70 L 3291.00 2340.80 L 3305.10 2343.40 L 3319.20 2346.40 L 3333.10 2349.90 L 3346.80 2353.80 L 3360.40 2358.20 L 3373.80 2363.00 L 3387.10 2368.30 L 3400.20 2374.00 L 3413.10 2380.10 L 3425.80 2386.60 L 3438.20 2393.50 L 3450.50 2400.80 L 3462.60 2408.60 L 3474.40 2416.70 L 3485.90 2425.30 L 3497.20 2434.20 L 3508.20 2443.50 L 3519.00 2453.30 L 3529.50 2463.40 L 3539.60 2473.90 L 3549.30 2484.70 L 3558.70 2495.70 L 3567.60 2506.90 L 3576.10 2518.40 L 3584.30 2530.20 L 3592.00 2542.30 L 3599.40 2554.60 L 3606.30 2567.10 L 3612.80 2579.80 L 3618.90 2592.70 L 3624.60 2605.80 L 3629.80 2619.10 L 3634.60 2632.50 L 3639.00 2646.10 L 3642.90 2659.80 L 3646.40 2673.70 L 3649.50 2687.70 L 3652.10 2701.80 L 3654.20 2716.00 L 3655.80 2730.30 L 3657.00 2744.60 L 3657.70 2759.10 L 3658.00 2773.70 Z" fill="#ffffff" fill-rule="evenodd" node-id="179" stroke="none" target-height="877.7002" target-width="877.69995" target-x="2780.3" target-y="2334.9"></path></mask><mask height="202.66919" id="mask-12" maskUnits="userSpaceOnUse" node-id="66" width="202.6692" x="91.69786" y="-70.628944"><path d="M 453.90 226.90 L 453.60 237.70 L 452.90 248.30 L 451.70 258.70 L 450.00 268.90 L 447.90 279.00 L 445.30 289.00 L 442.30 298.70 L 438.90 308.30 L 435.00 317.60 L 430.80 326.70 L 426.20 335.70 L 421.20 344.40 L 415.80 352.80 L 410.10 361.00 L 404.00 368.90 L 397.60 376.50 L 390.90 383.90 L 383.90 390.90 L 376.50 397.60 L 368.90 404.00 L 361.00 410.10 L 352.80 415.80 L 344.40 421.20 L 335.70 426.20 L 326.70 430.80 L 317.60 435.00 L 308.30 438.90 L 298.70 442.30 L 289.00 445.30 L 279.00 447.90 L 268.90 450.00 L 258.70 451.70 L 248.30 452.90 L 237.70 453.60 L 226.90 453.90 L 216.10 453.60 L 205.60 452.90 L 195.20 451.70 L 185.00 450.00 L 174.90 447.90 L 164.90 445.30 L 155.10 442.30 L 145.60 438.90 L 136.30 435.00 L 127.10 430.80 L 118.20 426.20 L 109.50 421.20 L 101.10 415.80 L 92.90 410.10 L 85.00 404.00 L 77.40 397.60 L 70.00 390.90 L 63.00 383.90 L 56.30 376.50 L 49.90 368.90 L 43.80 361.00 L 38.10 352.80 L 32.70 344.40 L 27.70 335.70 L 23.10 326.70 L 18.80 317.60 L 15.00 308.30 L 11.60 298.70 L 8.60 289.00 L 6.00 279.00 L 3.90 268.90 L 2.20 258.70 L 1.00 248.30 L 0.30 237.70 L 0.00 226.90 L 0.30 216.10 L 1.00 205.60 L 2.20 195.20 L 3.90 185.00 L 6.00 174.90 L 8.60 164.90 L 11.60 155.10 L 15.00 145.60 L 18.80 136.30 L 23.10 127.10 L 27.70 118.20 L 32.70 109.50 L 38.10 101.10 L 43.80 92.90 L 49.90 85.00 L 56.30 77.40 L 63.00 70.00 L 70.00 63.00 L 77.40 56.30 L 85.00 49.90 L 92.90 43.80 L 101.10 38.10 L 109.50 32.70 L 118.20 27.70 L 127.10 23.10 L 136.30 18.80 L 145.60 15.00 L 155.10 11.60 L 164.90 8.60 L 174.90 6.00 L 185.00 3.90 L 195.20 2.20 L 205.60 1.00 L 216.10 0.30 L 226.90 0.00 L 237.70 0.30 L 248.30 1.00 L 258.70 2.20 L 268.90 3.90 L 279.00 6.00 L 289.00 8.60 L 298.70 11.60 L 308.30 15.00 L 317.60 18.80 L 326.70 23.10 L 335.70 27.70 L 344.40 32.70 L 352.80 38.10 L 361.00 43.80 L 368.90 49.90 L 376.50 56.30 L 383.90 63.00 L 390.90 70.00 L 397.60 77.40 L 404.00 85.00 L 410.10 92.90 L 415.80 101.10 L 421.20 109.50 L 426.20 118.20 L 430.80 127.10 L 435.00 136.30 L 438.90 145.60 L 442.30 155.10 L 445.30 164.90 L 447.90 174.90 L 450.00 185.00 L 451.70 195.20 L 452.90 205.60 L 453.60 216.10 L 453.90 226.90 Z" fill="#ffffff" fill-rule="evenodd" node-id="186" stroke="none" target-height="453.9" target-width="453.9" target-x="0" target-y="0"></path></mask><mask height="508.2447" id="mask2" maskUnits="userSpaceOnUse" node-id="190" width="607.3085" x="-68.69032" y="67.53688"><path d="M 453.90 226.90 L 453.60 237.70 L 452.90 248.30 L 451.70 258.70 L 450.00 268.90 L 447.90 279.00 L 445.30 289.00 L 442.30 298.70 L 438.90 308.30 L 435.00 317.60 L 430.80 326.70 L 426.20 335.70 L 421.20 344.40 L 415.80 352.80 L 410.10 361.00 L 404.00 368.90 L 397.60 376.50 L 390.90 383.90 L 383.90 390.90 L 376.50 397.60 L 368.90 404.00 L 361.00 410.10 L 352.80 415.80 L 344.40 421.20 L 335.70 426.20 L 326.70 430.80 L 317.60 435.00 L 308.30 438.90 L 298.70 442.30 L 289.00 445.30 L 279.00 447.90 L 268.90 450.00 L 258.70 451.70 L 248.30 452.90 L 237.70 453.60 L 226.90 453.90 L 216.10 453.60 L 205.60 452.90 L 195.20 451.70 L 185.00 450.00 L 174.90 447.90 L 164.90 445.30 L 155.10 442.30 L 145.60 438.90 L 136.30 435.00 L 127.10 430.80 L 118.20 426.20 L 109.50 421.20 L 101.10 415.80 L 92.90 410.10 L 85.00 404.00 L 77.40 397.60 L 70.00 390.90 L 63.00 383.90 L 56.30 376.50 L 49.90 368.90 L 43.80 361.00 L 38.10 352.80 L 32.70 344.40 L 27.70 335.70 L 23.10 326.70 L 18.80 317.60 L 15.00 308.30 L 11.60 298.70 L 8.60 289.00 L 6.00 279.00 L 3.90 268.90 L 2.20 258.70 L 1.00 248.30 L 0.30 237.70 L 0.00 226.90 L 0.30 216.10 L 1.00 205.60 L 2.20 195.20 L 3.90 185.00 L 6.00 174.90 L 8.60 164.90 L 11.60 155.10 L 15.00 145.60 L 18.80 136.30 L 23.10 127.10 L 27.70 118.20 L 32.70 109.50 L 38.10 101.10 L 43.80 92.90 L 49.90 85.00 L 56.30 77.40 L 63.00 70.00 L 70.00 63.00 L 77.40 56.30 L 85.00 49.90 L 92.90 43.80 L 101.10 38.10 L 109.50 32.70 L 118.20 27.70 L 127.10 23.10 L 136.30 18.80 L 145.60 15.00 L 155.10 11.60 L 164.90 8.60 L 174.90 6.00 L 185.00 3.90 L 195.20 2.20 L 205.60 1.00 L 216.10 0.30 L 226.90 0.00 L 237.70 0.30 L 248.30 1.00 L 258.70 2.20 L 268.90 3.90 L 279.00 6.00 L 289.00 8.60 L 298.70 11.60 L 308.30 15.00 L 317.60 18.80 L 326.70 23.10 L 335.70 27.70 L 344.40 32.70 L 352.80 38.10 L 361.00 43.80 L 368.90 49.90 L 376.50 56.30 L 383.90 63.00 L 390.90 70.00 L 397.60 77.40 L 404.00 85.00 L 410.10 92.90 L 415.80 101.10 L 421.20 109.50 L 426.20 118.20 L 430.80 127.10 L 435.00 136.30 L 438.90 145.60 L 442.30 155.10 L 445.30 164.90 L 447.90 174.90 L 450.00 185.00 L 451.70 195.20 L 452.90 205.60 L 453.60 216.10 L 453.90 226.90 Z" fill="#ffffff" fill-rule="evenodd" node-id="194" stroke="none" target-height="453.9" target-width="453.9" target-x="0" target-y="0"></path></mask><mask height="184.42184" id="mask3" maskUnits="userSpaceOnUse" node-id="198" width="184.42184" x="158.7915" y="375.82925"><path d="M 453.90 226.90 L 453.60 237.70 L 452.90 248.30 L 451.70 258.70 L 450.00 268.90 L 447.90 279.00 L 445.30 289.00 L 442.30 298.70 L 438.90 308.30 L 435.00 317.60 L 430.80 326.70 L 426.20 335.70 L 421.20 344.40 L 415.80 352.80 L 410.10 361.00 L 404.00 368.90 L 397.60 376.50 L 390.90 383.90 L 383.90 390.90 L 376.50 397.60 L 368.90 404.00 L 361.00 410.10 L 352.80 415.80 L 344.40 421.20 L 335.70 426.20 L 326.70 430.80 L 317.60 435.00 L 308.30 438.90 L 298.70 442.30 L 289.00 445.30 L 279.00 447.90 L 268.90 450.00 L 258.70 451.70 L 248.30 452.90 L 237.70 453.60 L 226.90 453.90 L 216.10 453.60 L 205.60 452.90 L 195.20 451.70 L 185.00 450.00 L 174.90 447.90 L 164.90 445.30 L 155.10 442.30 L 145.60 438.90 L 136.30 435.00 L 127.10 430.80 L 118.20 426.20 L 109.50 421.20 L 101.10 415.80 L 92.90 410.10 L 85.00 404.00 L 77.40 397.60 L 70.00 390.90 L 63.00 383.90 L 56.30 376.50 L 49.90 368.90 L 43.80 361.00 L 38.10 352.80 L 32.70 344.40 L 27.70 335.70 L 23.10 326.70 L 18.80 317.60 L 15.00 308.30 L 11.60 298.70 L 8.60 289.00 L 6.00 279.00 L 3.90 268.90 L 2.20 258.70 L 1.00 248.30 L 0.30 237.70 L 0.00 226.90 L 0.30 216.10 L 1.00 205.60 L 2.20 195.20 L 3.90 185.00 L 6.00 174.90 L 8.60 164.90 L 11.60 155.10 L 15.00 145.60 L 18.80 136.30 L 23.10 127.10 L 27.70 118.20 L 32.70 109.50 L 38.10 101.10 L 43.80 92.90 L 49.90 85.00 L 56.30 77.40 L 63.00 70.00 L 70.00 63.00 L 77.40 56.30 L 85.00 49.90 L 92.90 43.80 L 101.10 38.10 L 109.50 32.70 L 118.20 27.70 L 127.10 23.10 L 136.30 18.80 L 145.60 15.00 L 155.10 11.60 L 164.90 8.60 L 174.90 6.00 L 185.00 3.90 L 195.20 2.20 L 205.60 1.00 L 216.10 0.30 L 226.90 0.00 L 237.70 0.30 L 248.30 1.00 L 258.70 2.20 L 268.90 3.90 L 279.00 6.00 L 289.00 8.60 L 298.70 11.60 L 308.30 15.00 L 317.60 18.80 L 326.70 23.10 L 335.70 27.70 L 344.40 32.70 L 352.80 38.10 L 361.00 43.80 L 368.90 49.90 L 376.50 56.30 L 383.90 63.00 L 390.90 70.00 L 397.60 77.40 L 404.00 85.00 L 410.10 92.90 L 415.80 101.10 L 421.20 109.50 L 426.20 118.20 L 430.80 127.10 L 435.00 136.30 L 438.90 145.60 L 442.30 155.10 L 445.30 164.90 L 447.90 174.90 L 450.00 185.00 L 451.70 195.20 L 452.90 205.60 L 453.60 216.10 L 453.90 226.90 Z" fill="#ffffff" fill-rule="evenodd" node-id="202" stroke="none" target-height="453.9" target-width="453.9" target-x="0" target-y="0"></path></mask><mask height="129.67847" id="mask4" maskUnits="userSpaceOnUse" node-id="206" width="129.6785" x="219.62885" y="105.21862"><path d="M 453.90 226.90 L 453.60 237.70 L 452.90 248.30 L 451.70 258.70 L 450.00 268.90 L 447.90 279.00 L 445.30 289.00 L 442.30 298.70 L 438.90 308.30 L 435.00 317.60 L 430.80 326.70 L 426.20 335.70 L 421.20 344.40 L 415.80 352.80 L 410.10 361.00 L 404.00 368.90 L 397.60 376.50 L 390.90 383.90 L 383.90 390.90 L 376.50 397.60 L 368.90 404.00 L 361.00 410.10 L 352.80 415.80 L 344.40 421.20 L 335.70 426.20 L 326.70 430.80 L 317.60 435.00 L 308.30 438.90 L 298.70 442.30 L 289.00 445.30 L 279.00 447.90 L 268.90 450.00 L 258.70 451.70 L 248.30 452.90 L 237.70 453.60 L 226.90 453.90 L 216.10 453.60 L 205.60 452.90 L 195.20 451.70 L 185.00 450.00 L 174.90 447.90 L 164.90 445.30 L 155.10 442.30 L 145.60 438.90 L 136.30 435.00 L 127.10 430.80 L 118.20 426.20 L 109.50 421.20 L 101.10 415.80 L 92.90 410.10 L 85.00 404.00 L 77.40 397.60 L 70.00 390.90 L 63.00 383.90 L 56.30 376.50 L 49.90 368.90 L 43.80 361.00 L 38.10 352.80 L 32.70 344.40 L 27.70 335.70 L 23.10 326.70 L 18.80 317.60 L 15.00 308.30 L 11.60 298.70 L 8.60 289.00 L 6.00 279.00 L 3.90 268.90 L 2.20 258.70 L 1.00 248.30 L 0.30 237.70 L 0.00 226.90 L 0.30 216.10 L 1.00 205.60 L 2.20 195.20 L 3.90 185.00 L 6.00 174.90 L 8.60 164.90 L 11.60 155.10 L 15.00 145.60 L 18.80 136.30 L 23.10 127.10 L 27.70 118.20 L 32.70 109.50 L 38.10 101.10 L 43.80 92.90 L 49.90 85.00 L 56.30 77.40 L 63.00 70.00 L 70.00 63.00 L 77.40 56.30 L 85.00 49.90 L 92.90 43.80 L 101.10 38.10 L 109.50 32.70 L 118.20 27.70 L 127.10 23.10 L 136.30 18.80 L 145.60 15.00 L 155.10 11.60 L 164.90 8.60 L 174.90 6.00 L 185.00 3.90 L 195.20 2.20 L 205.60 1.00 L 216.10 0.30 L 226.90 0.00 L 237.70 0.30 L 248.30 1.00 L 258.70 2.20 L 268.90 3.90 L 279.00 6.00 L 289.00 8.60 L 298.70 11.60 L 308.30 15.00 L 317.60 18.80 L 326.70 23.10 L 335.70 27.70 L 344.40 32.70 L 352.80 38.10 L 361.00 43.80 L 368.90 49.90 L 376.50 56.30 L 383.90 63.00 L 390.90 70.00 L 397.60 77.40 L 404.00 85.00 L 410.10 92.90 L 415.80 101.10 L 421.20 109.50 L 426.20 118.20 L 430.80 127.10 L 435.00 136.30 L 438.90 145.60 L 442.30 155.10 L 445.30 164.90 L 447.90 174.90 L 450.00 185.00 L 451.70 195.20 L 452.90 205.60 L 453.60 216.10 L 453.90 226.90 Z" fill="#ffffff" fill-rule="evenodd" node-id="210" stroke="none" target-height="453.9" target-width="453.9" target-x="0" target-y="0"></path></mask><mask height="129.6785" id="mask5" maskUnits="userSpaceOnUse" node-id="214" width="129.6785" x="226.4555" y="118.871956"><path d="M 453.90 226.90 L 453.60 237.70 L 452.90 248.30 L 451.70 258.70 L 450.00 268.90 L 447.90 279.00 L 445.30 289.00 L 442.30 298.70 L 438.90 308.30 L 435.00 317.60 L 430.80 326.70 L 426.20 335.70 L 421.20 344.40 L 415.80 352.80 L 410.10 361.00 L 404.00 368.90 L 397.60 376.50 L 390.90 383.90 L 383.90 390.90 L 376.50 397.60 L 368.90 404.00 L 361.00 410.10 L 352.80 415.80 L 344.40 421.20 L 335.70 426.20 L 326.70 430.80 L 317.60 435.00 L 308.30 438.90 L 298.70 442.30 L 289.00 445.30 L 279.00 447.90 L 268.90 450.00 L 258.70 451.70 L 248.30 452.90 L 237.70 453.60 L 226.90 453.90 L 216.10 453.60 L 205.60 452.90 L 195.20 451.70 L 185.00 450.00 L 174.90 447.90 L 164.90 445.30 L 155.10 442.30 L 145.60 438.90 L 136.30 435.00 L 127.10 430.80 L 118.20 426.20 L 109.50 421.20 L 101.10 415.80 L 92.90 410.10 L 85.00 404.00 L 77.40 397.60 L 70.00 390.90 L 63.00 383.90 L 56.30 376.50 L 49.90 368.90 L 43.80 361.00 L 38.10 352.80 L 32.70 344.40 L 27.70 335.70 L 23.10 326.70 L 18.80 317.60 L 15.00 308.30 L 11.60 298.70 L 8.60 289.00 L 6.00 279.00 L 3.90 268.90 L 2.20 258.70 L 1.00 248.30 L 0.30 237.70 L 0.00 226.90 L 0.30 216.10 L 1.00 205.60 L 2.20 195.20 L 3.90 185.00 L 6.00 174.90 L 8.60 164.90 L 11.60 155.10 L 15.00 145.60 L 18.80 136.30 L 23.10 127.10 L 27.70 118.20 L 32.70 109.50 L 38.10 101.10 L 43.80 92.90 L 49.90 85.00 L 56.30 77.40 L 63.00 70.00 L 70.00 63.00 L 77.40 56.30 L 85.00 49.90 L 92.90 43.80 L 101.10 38.10 L 109.50 32.70 L 118.20 27.70 L 127.10 23.10 L 136.30 18.80 L 145.60 15.00 L 155.10 11.60 L 164.90 8.60 L 174.90 6.00 L 185.00 3.90 L 195.20 2.20 L 205.60 1.00 L 216.10 0.30 L 226.90 0.00 L 237.70 0.30 L 248.30 1.00 L 258.70 2.20 L 268.90 3.90 L 279.00 6.00 L 289.00 8.60 L 298.70 11.60 L 308.30 15.00 L 317.60 18.80 L 326.70 23.10 L 335.70 27.70 L 344.40 32.70 L 352.80 38.10 L 361.00 43.80 L 368.90 49.90 L 376.50 56.30 L 383.90 63.00 L 390.90 70.00 L 397.60 77.40 L 404.00 85.00 L 410.10 92.90 L 415.80 101.10 L 421.20 109.50 L 426.20 118.20 L 430.80 127.10 L 435.00 136.30 L 438.90 145.60 L 442.30 155.10 L 445.30 164.90 L 447.90 174.90 L 450.00 185.00 L 451.70 195.20 L 452.90 205.60 L 453.60 216.10 L 453.90 226.90 Z" fill="#ffffff" fill-rule="evenodd" node-id="218" stroke="none" target-height="453.9" target-width="453.9" target-x="0" target-y="0"></path></mask><mask height="68.11034" id="mask6" maskUnits="userSpaceOnUse" node-id="222" width="68.11032" x="47.47996" y="232.71028"><path d="M 453.90 226.90 L 453.60 237.70 L 452.90 248.30 L 451.70 258.70 L 450.00 268.90 L 447.90 279.00 L 445.30 289.00 L 442.30 298.70 L 438.90 308.30 L 435.00 317.60 L 430.80 326.70 L 426.20 335.70 L 421.20 344.40 L 415.80 352.80 L 410.10 361.00 L 404.00 368.90 L 397.60 376.50 L 390.90 383.90 L 383.90 390.90 L 376.50 397.60 L 368.90 404.00 L 361.00 410.10 L 352.80 415.80 L 344.40 421.20 L 335.70 426.20 L 326.70 430.80 L 317.60 435.00 L 308.30 438.90 L 298.70 442.30 L 289.00 445.30 L 279.00 447.90 L 268.90 450.00 L 258.70 451.70 L 248.30 452.90 L 237.70 453.60 L 226.90 453.90 L 216.10 453.60 L 205.60 452.90 L 195.20 451.70 L 185.00 450.00 L 174.90 447.90 L 164.90 445.30 L 155.10 442.30 L 145.60 438.90 L 136.30 435.00 L 127.10 430.80 L 118.20 426.20 L 109.50 421.20 L 101.10 415.80 L 92.90 410.10 L 85.00 404.00 L 77.40 397.60 L 70.00 390.90 L 63.00 383.90 L 56.30 376.50 L 49.90 368.90 L 43.80 361.00 L 38.10 352.80 L 32.70 344.40 L 27.70 335.70 L 23.10 326.70 L 18.80 317.60 L 15.00 308.30 L 11.60 298.70 L 8.60 289.00 L 6.00 279.00 L 3.90 268.90 L 2.20 258.70 L 1.00 248.30 L 0.30 237.70 L 0.00 226.90 L 0.30 216.10 L 1.00 205.60 L 2.20 195.20 L 3.90 185.00 L 6.00 174.90 L 8.60 164.90 L 11.60 155.10 L 15.00 145.60 L 18.80 136.30 L 23.10 127.10 L 27.70 118.20 L 32.70 109.50 L 38.10 101.10 L 43.80 92.90 L 49.90 85.00 L 56.30 77.40 L 63.00 70.00 L 70.00 63.00 L 77.40 56.30 L 85.00 49.90 L 92.90 43.80 L 101.10 38.10 L 109.50 32.70 L 118.20 27.70 L 127.10 23.10 L 136.30 18.80 L 145.60 15.00 L 155.10 11.60 L 164.90 8.60 L 174.90 6.00 L 185.00 3.90 L 195.20 2.20 L 205.60 1.00 L 216.10 0.30 L 226.90 0.00 L 237.70 0.30 L 248.30 1.00 L 258.70 2.20 L 268.90 3.90 L 279.00 6.00 L 289.00 8.60 L 298.70 11.60 L 308.30 15.00 L 317.60 18.80 L 326.70 23.10 L 335.70 27.70 L 344.40 32.70 L 352.80 38.10 L 361.00 43.80 L 368.90 49.90 L 376.50 56.30 L 383.90 63.00 L 390.90 70.00 L 397.60 77.40 L 404.00 85.00 L 410.10 92.90 L 415.80 101.10 L 421.20 109.50 L 426.20 118.20 L 430.80 127.10 L 435.00 136.30 L 438.90 145.60 L 442.30 155.10 L 445.30 164.90 L 447.90 174.90 L 450.00 185.00 L 451.70 195.20 L 452.90 205.60 L 453.60 216.10 L 453.90 226.90 Z" fill="#ffffff" fill-rule="evenodd" node-id="226" stroke="none" target-height="453.9" target-width="453.9" target-x="0" target-y="0"></path></mask></defs><g node-id="318"><g node-id="319"><g node-id="324"><path d="M 1024.00 512.00 L 1023.70 528.30 L 1023.00 544.50 L 1021.70 560.60 L 1019.90 576.70 L 1017.60 592.60 L 1014.80 608.40 L 1011.60 624.20 L 1007.80 639.70 L 1003.60 655.20 L 998.90 670.40 L 993.70 685.60 L 988.00 700.50 L 981.90 715.30 L 975.30 729.80 L 968.30 744.20 L 960.80 758.40 L 952.90 772.30 L 944.60 785.90 L 935.80 799.40 L 926.50 812.60 L 916.90 825.40 L 906.80 838.00 L 896.30 850.30 L 885.40 862.30 L 874.00 874.00 L 862.30 885.40 L 850.30 896.30 L 838.00 906.80 L 825.40 916.90 L 812.60 926.50 L 799.40 935.80 L 785.90 944.60 L 772.30 952.90 L 758.40 960.80 L 744.20 968.30 L 729.80 975.30 L 715.30 981.90 L 700.50 988.00 L 685.60 993.70 L 670.40 998.90 L 655.20 1003.60 L 639.70 1007.80 L 624.20 1011.60 L 608.40 1014.80 L 592.60 1017.60 L 576.70 1019.90 L 560.60 1021.70 L 544.50 1023.00 L 528.30 1023.70 L 512.00 1024.00 L 495.70 1023.70 L 479.50 1023.00 L 463.40 1021.70 L 447.30 1019.90 L 431.40 1017.60 L 415.60 1014.80 L 399.80 1011.60 L 384.30 1007.80 L 368.80 1003.60 L 353.60 998.90 L 338.40 993.70 L 323.50 988.00 L 308.70 981.90 L 294.20 975.30 L 279.80 968.30 L 265.60 960.80 L 251.70 952.90 L 238.10 944.60 L 224.60 935.80 L 211.40 926.50 L 198.60 916.90 L 186.00 906.80 L 173.70 896.30 L 161.70 885.40 L 150.00 874.00 L 138.60 862.30 L 127.70 850.30 L 117.20 838.00 L 107.10 825.40 L 97.50 812.60 L 88.20 799.40 L 79.40 785.90 L 71.10 772.30 L 63.20 758.40 L 55.70 744.20 L 48.70 729.80 L 42.10 715.30 L 36.00 700.50 L 30.30 685.60 L 25.10 670.40 L 20.40 655.20 L 16.20 639.70 L 12.40 624.20 L 9.20 608.40 L 6.40 592.60 L 4.10 576.70 L 2.30 560.60 L 1.00 544.50 L 0.30 528.30 L 0.00 512.00 L 0.30 495.70 L 1.00 479.50 L 2.30 463.40 L 4.10 447.30 L 6.40 431.40 L 9.20 415.60 L 12.40 399.80 L 16.20 384.30 L 20.40 368.80 L 25.10 353.60 L 30.30 338.40 L 36.00 323.50 L 42.10 308.70 L 48.70 294.20 L 55.70 279.80 L 63.20 265.60 L 71.10 251.70 L 79.40 238.10 L 88.20 224.60 L 97.50 211.40 L 107.10 198.60 L 117.20 186.00 L 127.70 173.70 L 138.60 161.70 L 150.00 150.00 L 161.70 138.60 L 173.70 127.70 L 186.00 117.20 L 198.60 107.10 L 211.40 97.50 L 224.60 88.20 L 238.10 79.40 L 251.70 71.10 L 265.60 63.20 L 279.80 55.70 L 294.20 48.70 L 308.70 42.10 L 323.50 36.00 L 338.40 30.30 L 353.60 25.10 L 368.80 20.40 L 384.30 16.20 L 399.80 12.40 L 415.60 9.20 L 431.40 6.40 L 447.30 4.10 L 463.40 2.30 L 479.50 1.00 L 495.70 0.30 L 512.00 0.00 L 528.30 0.30 L 544.50 1.00 L 560.60 2.30 L 576.70 4.10 L 592.60 6.40 L 608.40 9.20 L 624.20 12.40 L 639.70 16.20 L 655.20 20.40 L 670.40 25.10 L 685.60 30.30 L 700.50 36.00 L 715.30 42.10 L 729.80 48.70 L 744.20 55.70 L 758.40 63.20 L 772.30 71.10 L 785.90 79.40 L 799.40 88.20 L 812.60 97.50 L 825.40 107.10 L 838.00 117.20 L 850.30 127.70 L 862.30 138.60 L 874.00 150.00 L 885.40 161.70 L 896.30 173.70 L 906.80 186.00 L 916.90 198.60 L 926.50 211.40 L 935.80 224.60 L 944.60 238.10 L 952.90 251.70 L 960.80 265.60 L 968.30 279.80 L 975.30 294.20 L 981.90 308.70 L 988.00 323.50 L 993.70 338.40 L 998.90 353.60 L 1003.60 368.80 L 1007.80 384.30 L 1011.60 399.80 L 1014.80 415.60 L 1017.60 431.40 L 1019.90 447.30 L 1021.70 463.40 L 1023.00 479.50 L 1023.70 495.70 L 1024.00 512.00 Z" fill="#ffffff" fill-rule="evenodd" group-id="1,2,7" node-id="236" stroke="none" target-height="1024" target-width="1024" target-x="0" target-y="0"></path></g><path d="M 1024.00 512.00 L 1023.70 528.30 L 1023.00 544.50 L 1021.70 560.60 L 1019.90 576.70 L 1017.60 592.60 L 1014.80 608.40 L 1011.60 624.20 L 1007.80 639.70 L 1003.60 655.20 L 998.90 670.40 L 993.70 685.60 L 988.00 700.50 L 981.90 715.30 L 975.30 729.80 L 968.30 744.20 L 960.80 758.40 L 952.90 772.30 L 944.60 785.90 L 935.80 799.40 L 926.50 812.60 L 916.90 825.40 L 906.80 838.00 L 896.30 850.30 L 885.40 862.30 L 874.00 874.00 L 862.30 885.40 L 850.30 896.30 L 838.00 906.80 L 825.40 916.90 L 812.60 926.50 L 799.40 935.80 L 785.90 944.60 L 772.30 952.90 L 758.40 960.80 L 744.20 968.30 L 729.80 975.30 L 715.30 981.90 L 700.50 988.00 L 685.60 993.70 L 670.40 998.90 L 655.20 1003.60 L 639.70 1007.80 L 624.20 1011.60 L 608.40 1014.80 L 592.60 1017.60 L 576.70 1019.90 L 560.60 1021.70 L 544.50 1023.00 L 528.30 1023.70 L 512.00 1024.00 L 495.70 1023.70 L 479.50 1023.00 L 463.40 1021.70 L 447.30 1019.90 L 431.40 1017.60 L 415.60 1014.80 L 399.80 1011.60 L 384.30 1007.80 L 368.80 1003.60 L 353.60 998.90 L 338.40 993.70 L 323.50 988.00 L 308.70 981.90 L 294.20 975.30 L 279.80 968.30 L 265.60 960.80 L 251.70 952.90 L 238.10 944.60 L 224.60 935.80 L 211.40 926.50 L 198.60 916.90 L 186.00 906.80 L 173.70 896.30 L 161.70 885.40 L 150.00 874.00 L 138.60 862.30 L 127.70 850.30 L 117.20 838.00 L 107.10 825.40 L 97.50 812.60 L 88.20 799.40 L 79.40 785.90 L 71.10 772.30 L 63.20 758.40 L 55.70 744.20 L 48.70 729.80 L 42.10 715.30 L 36.00 700.50 L 30.30 685.60 L 25.10 670.40 L 20.40 655.20 L 16.20 639.70 L 12.40 624.20 L 9.20 608.40 L 6.40 592.60 L 4.10 576.70 L 2.30 560.60 L 1.00 544.50 L 0.30 528.30 L 0.00 512.00 L 0.30 495.70 L 1.00 479.50 L 2.30 463.40 L 4.10 447.30 L 6.40 431.40 L 9.20 415.60 L 12.40 399.80 L 16.20 384.30 L 20.40 368.80 L 25.10 353.60 L 30.30 338.40 L 36.00 323.50 L 42.10 308.70 L 48.70 294.20 L 55.70 279.80 L 63.20 265.60 L 71.10 251.70 L 79.40 238.10 L 88.20 224.60 L 97.50 211.40 L 107.10 198.60 L 117.20 186.00 L 127.70 173.70 L 138.60 161.70 L 150.00 150.00 L 161.70 138.60 L 173.70 127.70 L 186.00 117.20 L 198.60 107.10 L 211.40 97.50 L 224.60 88.20 L 238.10 79.40 L 251.70 71.10 L 265.60 63.20 L 279.80 55.70 L 294.20 48.70 L 308.70 42.10 L 323.50 36.00 L 338.40 30.30 L 353.60 25.10 L 368.80 20.40 L 384.30 16.20 L 399.80 12.40 L 415.60 9.20 L 431.40 6.40 L 447.30 4.10 L 463.40 2.30 L 479.50 1.00 L 495.70 0.30 L 512.00 0.00 L 528.30 0.30 L 544.50 1.00 L 560.60 2.30 L 576.70 4.10 L 592.60 6.40 L 608.40 9.20 L 624.20 12.40 L 639.70 16.20 L 655.20 20.40 L 670.40 25.10 L 685.60 30.30 L 700.50 36.00 L 715.30 42.10 L 729.80 48.70 L 744.20 55.70 L 758.40 63.20 L 772.30 71.10 L 785.90 79.40 L 799.40 88.20 L 812.60 97.50 L 825.40 107.10 L 838.00 117.20 L 850.30 127.70 L 862.30 138.60 L 874.00 150.00 L 885.40 161.70 L 896.30 173.70 L 906.80 186.00 L 916.90 198.60 L 926.50 211.40 L 935.80 224.60 L 944.60 238.10 L 952.90 251.70 L 960.80 265.60 L 968.30 279.80 L 975.30 294.20 L 981.90 308.70 L 988.00 323.50 L 993.70 338.40 L 998.90 353.60 L 1003.60 368.80 L 1007.80 384.30 L 1011.60 399.80 L 1014.80 415.60 L 1017.60 431.40 L 1019.90 447.30 L 1021.70 463.40 L 1023.00 479.50 L 1023.70 495.70 L 1024.00 512.00 Z" fill="#000000" fill-rule="evenodd" filter="url(#filter-2)" group-id="1,2,8" node-id="241" stroke="none" target-height="1024" target-width="1024" target-x="0" target-y="0"></path></g><g node-id="320"><g node-id="326"><path d="M 950.90 512.00 L 950.60 526.60 L 949.90 541.10 L 948.70 555.50 L 947.00 569.70 L 944.90 583.90 L 942.30 598.00 L 939.30 612.10 L 935.80 625.90 L 931.90 639.70 L 927.50 653.20 L 922.70 666.70 L 917.50 679.90 L 911.80 693.10 L 905.70 705.90 L 899.20 718.60 L 892.20 731.10 L 884.90 743.40 L 877.10 755.50 L 869.00 767.30 L 860.40 778.80 L 851.50 790.10 L 842.20 801.10 L 832.50 811.80 L 822.30 822.30 L 811.80 832.50 L 801.10 842.20 L 790.10 851.50 L 778.80 860.40 L 767.30 869.00 L 755.50 877.10 L 743.40 884.90 L 731.10 892.20 L 718.60 899.20 L 705.90 905.70 L 693.10 911.80 L 679.90 917.50 L 666.70 922.70 L 653.20 927.50 L 639.70 931.90 L 625.90 935.80 L 612.10 939.30 L 598.00 942.30 L 583.90 944.90 L 569.70 947.00 L 555.50 948.70 L 541.10 949.90 L 526.60 950.60 L 512.00 950.90 L 497.40 950.60 L 482.90 949.90 L 468.50 948.70 L 454.30 947.00 L 440.10 944.90 L 426.00 942.30 L 411.90 939.30 L 398.10 935.80 L 384.30 931.90 L 370.80 927.50 L 357.30 922.70 L 344.10 917.50 L 330.90 911.80 L 318.10 905.70 L 305.40 899.20 L 292.90 892.20 L 280.60 884.90 L 268.50 877.10 L 256.70 869.00 L 245.20 860.40 L 233.90 851.50 L 222.90 842.20 L 212.20 832.50 L 201.70 822.30 L 191.50 811.80 L 181.80 801.10 L 172.50 790.10 L 163.60 778.80 L 155.00 767.30 L 146.90 755.50 L 139.10 743.40 L 131.80 731.10 L 124.80 718.60 L 118.30 705.90 L 112.20 693.10 L 106.50 679.90 L 101.30 666.70 L 96.50 653.20 L 92.10 639.70 L 88.20 625.90 L 84.70 612.10 L 81.70 598.00 L 79.10 583.90 L 77.00 569.70 L 75.30 555.50 L 74.10 541.10 L 73.40 526.60 L 73.10 512.00 L 73.40 497.40 L 74.10 482.90 L 75.30 468.50 L 77.00 454.30 L 79.10 440.10 L 81.70 426.00 L 84.70 411.90 L 88.20 398.10 L 92.10 384.30 L 96.50 370.80 L 101.30 357.30 L 106.50 344.10 L 112.20 330.90 L 118.30 318.10 L 124.80 305.40 L 131.80 292.90 L 139.10 280.60 L 146.90 268.50 L 155.00 256.70 L 163.60 245.20 L 172.50 233.90 L 181.80 222.90 L 191.50 212.20 L 201.70 201.70 L 212.20 191.50 L 222.90 181.80 L 233.90 172.50 L 245.20 163.60 L 256.70 155.00 L 268.50 146.90 L 280.60 139.10 L 292.90 131.80 L 305.40 124.80 L 318.10 118.30 L 330.90 112.20 L 344.10 106.50 L 357.30 101.30 L 370.80 96.50 L 384.30 92.10 L 398.10 88.20 L 411.90 84.70 L 426.00 81.70 L 440.10 79.10 L 454.30 77.00 L 468.50 75.30 L 482.90 74.10 L 497.40 73.40 L 512.00 73.10 L 526.60 73.40 L 541.10 74.10 L 555.50 75.30 L 569.70 77.00 L 583.90 79.10 L 598.00 81.70 L 612.10 84.70 L 625.90 88.20 L 639.70 92.10 L 653.20 96.50 L 666.70 101.30 L 679.90 106.50 L 693.10 112.20 L 705.90 118.30 L 718.60 124.80 L 731.10 131.80 L 743.40 139.10 L 755.50 146.90 L 767.30 155.00 L 778.80 163.60 L 790.10 172.50 L 801.10 181.80 L 811.80 191.50 L 822.30 201.70 L 832.50 212.20 L 842.20 222.90 L 851.50 233.90 L 860.40 245.20 L 869.00 256.70 L 877.10 268.50 L 884.90 280.60 L 892.20 292.90 L 899.20 305.40 L 905.70 318.10 L 911.80 330.90 L 917.50 344.10 L 922.70 357.30 L 927.50 370.80 L 931.90 384.30 L 935.80 398.10 L 939.30 411.90 L 942.30 426.00 L 944.90 440.10 L 947.00 454.30 L 948.70 468.50 L 949.90 482.90 L 950.60 497.40 L 950.90 512.00 Z" fill="#316cd4" fill-rule="evenodd" group-id="1,3,9" node-id="248" stroke="none" target-height="877.80005" target-width="877.80005" target-x="73.1" target-y="73.1"></path></g><path d="M 950.90 512.00 L 950.60 526.60 L 949.90 541.10 L 948.70 555.50 L 947.00 569.70 L 944.90 583.90 L 942.30 598.00 L 939.30 612.10 L 935.80 625.90 L 931.90 639.70 L 927.50 653.20 L 922.70 666.70 L 917.50 679.90 L 911.80 693.10 L 905.70 705.90 L 899.20 718.60 L 892.20 731.10 L 884.90 743.40 L 877.10 755.50 L 869.00 767.30 L 860.40 778.80 L 851.50 790.10 L 842.20 801.10 L 832.50 811.80 L 822.30 822.30 L 811.80 832.50 L 801.10 842.20 L 790.10 851.50 L 778.80 860.40 L 767.30 869.00 L 755.50 877.10 L 743.40 884.90 L 731.10 892.20 L 718.60 899.20 L 705.90 905.70 L 693.10 911.80 L 679.90 917.50 L 666.70 922.70 L 653.20 927.50 L 639.70 931.90 L 625.90 935.80 L 612.10 939.30 L 598.00 942.30 L 583.90 944.90 L 569.70 947.00 L 555.50 948.70 L 541.10 949.90 L 526.60 950.60 L 512.00 950.90 L 497.40 950.60 L 482.90 949.90 L 468.50 948.70 L 454.30 947.00 L 440.10 944.90 L 426.00 942.30 L 411.90 939.30 L 398.10 935.80 L 384.30 931.90 L 370.80 927.50 L 357.30 922.70 L 344.10 917.50 L 330.90 911.80 L 318.10 905.70 L 305.40 899.20 L 292.90 892.20 L 280.60 884.90 L 268.50 877.10 L 256.70 869.00 L 245.20 860.40 L 233.90 851.50 L 222.90 842.20 L 212.20 832.50 L 201.70 822.30 L 191.50 811.80 L 181.80 801.10 L 172.50 790.10 L 163.60 778.80 L 155.00 767.30 L 146.90 755.50 L 139.10 743.40 L 131.80 731.10 L 124.80 718.60 L 118.30 705.90 L 112.20 693.10 L 106.50 679.90 L 101.30 666.70 L 96.50 653.20 L 92.10 639.70 L 88.20 625.90 L 84.70 612.10 L 81.70 598.00 L 79.10 583.90 L 77.00 569.70 L 75.30 555.50 L 74.10 541.10 L 73.40 526.60 L 73.10 512.00 L 73.40 497.40 L 74.10 482.90 L 75.30 468.50 L 77.00 454.30 L 79.10 440.10 L 81.70 426.00 L 84.70 411.90 L 88.20 398.10 L 92.10 384.30 L 96.50 370.80 L 101.30 357.30 L 106.50 344.10 L 112.20 330.90 L 118.30 318.10 L 124.80 305.40 L 131.80 292.90 L 139.10 280.60 L 146.90 268.50 L 155.00 256.70 L 163.60 245.20 L 172.50 233.90 L 181.80 222.90 L 191.50 212.20 L 201.70 201.70 L 212.20 191.50 L 222.90 181.80 L 233.90 172.50 L 245.20 163.60 L 256.70 155.00 L 268.50 146.90 L 280.60 139.10 L 292.90 131.80 L 305.40 124.80 L 318.10 118.30 L 330.90 112.20 L 344.10 106.50 L 357.30 101.30 L 370.80 96.50 L 384.30 92.10 L 398.10 88.20 L 411.90 84.70 L 426.00 81.70 L 440.10 79.10 L 454.30 77.00 L 468.50 75.30 L 482.90 74.10 L 497.40 73.40 L 512.00 73.10 L 526.60 73.40 L 541.10 74.10 L 555.50 75.30 L 569.70 77.00 L 583.90 79.10 L 598.00 81.70 L 612.10 84.70 L 625.90 88.20 L 639.70 92.10 L 653.20 96.50 L 666.70 101.30 L 679.90 106.50 L 693.10 112.20 L 705.90 118.30 L 718.60 124.80 L 731.10 131.80 L 743.40 139.10 L 755.50 146.90 L 767.30 155.00 L 778.80 163.60 L 790.10 172.50 L 801.10 181.80 L 811.80 191.50 L 822.30 201.70 L 832.50 212.20 L 842.20 222.90 L 851.50 233.90 L 860.40 245.20 L 869.00 256.70 L 877.10 268.50 L 884.90 280.60 L 892.20 292.90 L 899.20 305.40 L 905.70 318.10 L 911.80 330.90 L 917.50 344.10 L 922.70 357.30 L 927.50 370.80 L 931.90 384.30 L 935.80 398.10 L 939.30 411.90 L 942.30 426.00 L 944.90 440.10 L 947.00 454.30 L 948.70 468.50 L 949.90 482.90 L 950.60 497.40 L 950.90 512.00 Z" fill="#000000" fill-rule="evenodd" filter="url(#filter-5)" group-id="1,3,10" node-id="253" stroke="none" target-height="877.80005" target-width="877.80005" target-x="73.1" target-y="73.1"></path></g><g node-id="321"><g node-id="328"><path d="M 146.30 690.20 L 511.00 482.70 L 868.00 690.20 L 507.10 892.30 Z" fill="#000000" fill-rule="evenodd" filter="url(#filter-7)" group-id="1,4,11" node-id="260" stroke="none" target-height="409.59998" target-width="721.7" target-x="146.3" target-y="482.7"></path></g><path d="M 146.30 690.20 L 511.00 482.70 L 868.00 690.20 L 507.10 892.30 Z" fill="#ffffff" fill-rule="evenodd" group-id="1,4,12" node-id="265" stroke="#c2dafe" stroke-linecap="butt" stroke-width="1" target-height="409.59998" target-width="721.7" target-x="146.3" target-y="482.7"></path></g><g node-id="322"><g node-id="330"><path d="M 225.30 657.40 L 508.20 498.30 L 785.10 657.40 L 505.20 812.40 Z" fill="#000000" fill-rule="evenodd" filter="url(#filter-9)" group-id="1,5,13" node-id="272" stroke="none" target-height="314.10004" target-width="559.8" target-x="225.3" target-y="498.3"></path></g><path d="M 225.30 657.40 L 508.20 498.30 L 785.10 657.40 L 505.20 812.40 Z" fill="#c2dafe" fill-rule="evenodd" group-id="1,5,14" node-id="277" stroke="none" target-height="314.10004" target-width="559.8" target-x="225.3" target-y="498.3"></path></g><g node-id="323"><g node-id="332"><g node-id="333"><g node-id="334"><g node-id="335"><path d="M 746.80 461.00 L 746.50 471.80 L 745.80 482.40 L 744.60 492.80 L 742.90 503.00 L 740.80 513.00 L 738.20 523.00 L 735.20 532.80 L 731.80 542.30 L 727.90 551.70 L 723.70 560.80 L 719.10 569.80 L 714.10 578.40 L 708.70 586.90 L 703.00 595.00 L 696.90 602.90 L 690.50 610.60 L 683.80 617.90 L 676.80 624.90 L 669.40 631.70 L 661.80 638.10 L 653.90 644.20 L 645.70 649.90 L 637.30 655.20 L 628.60 660.20 L 619.60 664.90 L 610.50 669.10 L 601.20 672.90 L 591.60 676.30 L 581.90 679.30 L 571.90 681.90 L 561.80 684.10 L 551.60 685.70 L 541.20 686.90 L 530.60 687.70 L 519.80 687.90 L 509.00 687.70 L 498.50 686.90 L 488.10 685.70 L 477.80 684.10 L 467.80 681.90 L 457.80 679.30 L 448.00 676.30 L 438.50 672.90 L 429.20 669.10 L 420.00 664.90 L 411.10 660.20 L 402.40 655.20 L 394.00 649.90 L 385.80 644.20 L 377.90 638.10 L 370.20 631.70 L 362.90 624.90 L 355.90 617.90 L 349.20 610.60 L 342.80 602.90 L 336.70 595.00 L 331.00 586.90 L 325.60 578.40 L 320.60 569.80 L 316.00 560.80 L 311.70 551.70 L 307.90 542.30 L 304.50 532.80 L 301.50 523.00 L 298.90 513.00 L 296.80 503.00 L 295.10 492.80 L 293.90 482.40 L 293.20 471.80 L 292.90 461.00 L 293.20 450.20 L 293.90 439.60 L 295.10 429.20 L 296.80 419.00 L 298.90 409.00 L 301.50 399.00 L 304.50 389.20 L 307.90 379.60 L 311.70 370.30 L 316.00 361.20 L 320.60 352.20 L 325.60 343.60 L 331.00 335.10 L 336.70 327.00 L 342.80 319.10 L 349.20 311.40 L 355.90 304.10 L 362.90 297.10 L 370.20 290.30 L 377.90 283.90 L 385.80 277.80 L 394.00 272.10 L 402.40 266.80 L 411.10 261.80 L 420.00 257.10 L 429.20 252.90 L 438.50 249.10 L 448.00 245.70 L 457.80 242.60 L 467.80 240.10 L 477.80 237.90 L 488.10 236.30 L 498.50 235.10 L 509.00 234.30 L 519.80 234.10 L 530.60 234.30 L 541.20 235.10 L 551.60 236.30 L 561.80 237.90 L 571.90 240.10 L 581.90 242.60 L 591.60 245.70 L 601.20 249.10 L 610.50 252.90 L 619.60 257.10 L 628.60 261.80 L 637.30 266.80 L 645.70 272.10 L 653.90 277.80 L 661.80 283.90 L 669.40 290.30 L 676.80 297.10 L 683.80 304.10 L 690.50 311.40 L 696.90 319.10 L 703.00 327.00 L 708.70 335.10 L 714.10 343.60 L 719.10 352.20 L 723.70 361.20 L 727.90 370.30 L 731.80 379.60 L 735.20 389.20 L 738.20 399.00 L 740.80 409.00 L 742.90 419.00 L 744.60 429.20 L 745.80 439.60 L 746.50 450.20 L 746.80 461.00 Z" fill="url(#linearGradient1)" fill-rule="evenodd" group-id="1,6,15,16,17,18" node-id="287" stroke="none" target-height="453.80002" target-width="453.9" target-x="292.9" target-y="234.1"></path></g><g node-id="336"><path d="M 570.40 264.80 L 570.10 271.80 L 569.30 278.50 L 567.90 285.10 L 566.10 291.50 L 563.70 297.70 L 560.90 303.60 L 557.70 309.20 L 554.10 314.60 L 550.00 319.70 L 545.60 324.50 L 540.90 328.90 L 535.80 332.90 L 530.40 336.60 L 524.80 339.80 L 518.80 342.50 L 512.60 344.90 L 506.30 346.80 L 499.70 348.10 L 492.90 348.90 L 485.90 349.20 L 478.90 348.90 L 472.10 348.10 L 465.60 346.80 L 459.20 344.90 L 453.00 342.50 L 447.10 339.80 L 441.40 336.60 L 436.10 332.90 L 431.00 328.90 L 426.20 324.50 L 421.80 319.70 L 417.80 314.60 L 414.10 309.20 L 410.90 303.60 L 408.10 297.70 L 405.80 291.50 L 403.90 285.10 L 402.60 278.50 L 401.80 271.80 L 401.50 264.80 L 401.80 257.70 L 402.60 251.00 L 403.90 244.40 L 405.80 238.10 L 408.10 231.90 L 410.90 225.90 L 414.10 220.30 L 417.80 214.90 L 421.80 209.80 L 426.20 205.10 L 431.00 200.70 L 436.10 196.60 L 441.40 193.00 L 447.10 189.80 L 453.00 187.00 L 459.20 184.60 L 465.60 182.80 L 472.10 181.40 L 478.90 180.60 L 485.90 180.30 L 492.90 180.60 L 499.70 181.40 L 506.30 182.80 L 512.60 184.60 L 518.80 187.00 L 524.80 189.80 L 530.40 193.00 L 535.80 196.60 L 540.90 200.70 L 545.60 205.10 L 550.00 209.80 L 554.10 214.90 L 557.70 220.30 L 560.90 225.90 L 563.70 231.90 L 566.10 238.10 L 567.90 244.40 L 569.30 251.00 L 570.10 257.70 L 570.40 264.80 Z" fill="#b8c9ff" fill-rule="evenodd" filter="url(#filter-13)" group-id="1,6,15,16,17,19" node-id="292" stroke="none" target-height="168.90001" target-width="168.90002" target-x="401.5" target-y="180.3"></path></g><g node-id="337"><path d="M 274.80 582.80 L 282.20 550.20 L 289.30 521.00 L 296.30 494.90 L 303.10 471.80 L 309.60 451.40 L 316.00 433.50 L 322.10 417.80 L 328.10 404.20 L 333.80 392.40 L 339.30 382.40 L 344.60 373.90 L 349.70 366.70 L 354.50 360.80 L 359.20 356.00 L 363.80 352.10 L 368.10 349.10 L 372.40 346.90 L 376.50 345.30 L 380.60 344.30 L 384.70 344.00 L 388.80 344.20 L 392.90 344.90 L 397.10 346.30 L 401.50 348.40 L 405.90 351.20 L 409.90 354.40 L 413.60 358.10 L 416.90 362.40 L 419.70 366.90 L 422.30 371.80 L 424.70 377.20 L 426.80 383.10 L 429.10 391.00 L 431.00 399.60 L 433.80 418.30 L 435.60 438.40 L 438.20 501.80 L 439.10 517.60 L 440.40 532.60 L 441.60 542.60 L 445.00 560.80 L 446.70 567.40 L 450.80 579.40 L 453.20 584.80 L 456.10 590.00 L 459.20 594.80 L 462.70 599.10 L 466.50 602.90 L 469.80 605.70 L 473.30 608.20 L 477.20 610.30 L 481.40 612.20 L 485.90 613.70 L 493.30 615.60 L 500.50 616.90 L 507.60 617.90 L 514.70 618.30 L 521.70 618.30 L 530.40 617.80 L 539.00 616.70 L 547.40 615.10 L 555.70 612.80 L 563.90 610.10 L 571.80 607.00 L 579.50 603.40 L 587.10 599.50 L 594.40 595.10 L 601.40 590.50 L 614.60 580.40 L 622.80 573.10 L 630.30 565.60 L 637.20 557.90 L 643.60 549.80 L 649.10 541.90 L 653.80 534.10 L 659.60 522.20 L 661.70 516.60 L 665.10 506.00 L 667.20 501.30 L 669.60 497.20 L 672.30 493.70 L 675.50 490.40 L 679.00 487.70 L 682.70 485.40 L 686.70 483.60 L 690.90 482.30 L 695.20 481.40 L 699.80 480.90 L 704.70 480.90 L 709.40 481.30 L 714.30 482.10 L 719.30 483.40 L 724.50 485.10 L 734.30 489.80 L 744.30 496.20 L 753.50 504.00 L 762.30 513.60 L 766.30 518.80 L 770.00 524.50 L 773.50 530.60 L 776.80 537.20 L 778.60 541.90 L 779.90 547.10 L 780.70 552.90 L 780.90 559.50 L 780.60 565.80 L 779.80 572.60 L 778.50 579.90 L 776.70 587.80 L 771.80 603.10 L 768.60 611.30 L 760.80 628.00 L 751.40 644.80 L 746.00 653.40 L 734.30 670.00 L 720.90 686.40 L 713.70 694.20 L 706.20 701.90 L 698.40 709.30 L 690.20 716.40 L 681.70 723.30 L 672.90 729.70 L 663.90 735.70 L 654.50 741.40 L 644.90 746.60 L 635.10 751.30 L 625.00 755.40 L 614.70 759.10 L 606.30 761.50 L 597.80 763.60 L 589.10 765.20 L 580.30 766.40 L 571.20 767.20 L 562.30 767.50 L 553.20 767.30 L 544.00 766.60 L 534.60 765.40 L 524.90 763.60 L 509.90 760.00 L 495.20 756.00 L 480.90 751.50 L 467.00 746.50 L 453.40 741.00 L 440.20 735.00 L 427.20 728.60 L 414.60 721.60 L 402.30 714.20 L 390.20 706.30 L 378.40 697.80 L 366.90 688.80 L 355.70 679.40 L 344.70 669.30 L 334.00 658.70 L 323.50 647.60 L 313.30 635.90 L 303.30 623.50 L 293.50 610.60 L 284.10 597.00 L 274.80 582.80 Z" fill="url(#linearGradient-14)" fill-rule="evenodd" group-id="1,6,15,16,17,20" id="-3" node-id="70" stroke="none" target-height="423.5" target-width="506.10004" target-x="274.8" target-y="344"></path></g><g node-id="338"><path d="M 620.70 702.10 L 620.40 708.90 L 619.60 715.50 L 618.10 722.00 L 616.10 728.40 L 613.60 734.50 L 610.50 740.50 L 606.90 746.10 L 602.80 751.40 L 598.20 756.40 L 593.20 761.00 L 587.90 765.10 L 582.30 768.70 L 576.30 771.80 L 570.20 774.30 L 563.80 776.30 L 557.30 777.80 L 550.70 778.60 L 543.90 778.90 L 537.50 778.70 L 531.40 777.90 L 525.40 776.70 L 519.60 775.00 L 514.00 772.90 L 508.60 770.30 L 503.40 767.40 L 498.50 764.10 L 493.90 760.40 L 489.60 756.40 L 485.60 752.10 L 481.90 747.50 L 478.60 742.60 L 475.60 737.40 L 473.10 732.00 L 471.00 726.40 L 469.30 720.60 L 468.10 714.60 L 467.30 708.50 L 467.10 702.10 L 467.30 695.70 L 468.10 689.60 L 469.30 683.60 L 471.00 677.80 L 473.10 672.10 L 475.60 666.80 L 478.60 661.60 L 481.90 656.70 L 485.60 652.10 L 489.60 647.80 L 493.90 643.80 L 498.50 640.10 L 503.40 636.80 L 508.60 633.80 L 514.00 631.30 L 519.60 629.20 L 525.40 627.50 L 531.40 626.30 L 537.50 625.50 L 543.90 625.30 L 550.70 625.60 L 557.30 626.40 L 563.80 627.90 L 570.20 629.90 L 576.30 632.40 L 582.30 635.50 L 587.90 639.10 L 593.20 643.20 L 598.20 647.80 L 602.80 652.80 L 606.90 658.10 L 610.50 663.70 L 613.60 669.70 L 616.10 675.80 L 618.10 682.20 L 619.60 688.70 L 620.40 695.30 L 620.70 702.10 Z" fill="#b8c9ff" fill-opacity="0.48999533" fill-rule="evenodd" filter="url(#filter-15)" group-id="1,6,15,16,17,21" node-id="301" stroke="none" target-height="153.60004" target-width="153.6" target-x="467.1" target-y="625.3"></path></g><g node-id="339"><path d="M 631.40 404.10 L 631.10 409.70 L 630.30 415.10 L 629.00 420.20 L 627.20 425.10 L 624.90 429.90 L 622.20 434.30 L 619.10 438.50 L 615.60 442.30 L 611.70 445.80 L 607.60 448.90 L 603.20 451.60 L 598.40 453.90 L 593.50 455.70 L 588.30 457.00 L 583.00 457.80 L 577.40 458.10 L 571.80 457.80 L 566.40 457.00 L 561.30 455.70 L 556.30 453.90 L 551.60 451.60 L 547.10 448.90 L 543.00 445.80 L 539.20 442.30 L 535.70 438.50 L 532.60 434.30 L 529.90 429.90 L 527.60 425.10 L 525.80 420.20 L 524.40 415.10 L 523.60 409.70 L 523.30 404.10 L 523.60 398.50 L 524.40 393.10 L 525.80 388.00 L 527.60 383.10 L 529.90 378.30 L 532.60 373.90 L 535.70 369.80 L 539.20 365.90 L 543.00 362.40 L 547.10 359.30 L 551.60 356.60 L 556.30 354.30 L 561.30 352.50 L 566.40 351.20 L 571.80 350.40 L 577.40 350.10 L 583.00 350.40 L 588.30 351.20 L 593.50 352.50 L 598.40 354.30 L 603.20 356.60 L 607.60 359.30 L 611.70 362.40 L 615.60 365.90 L 619.10 369.80 L 622.20 373.90 L 624.90 378.30 L 627.20 383.10 L 629.00 388.00 L 630.30 393.10 L 631.10 398.50 L 631.40 404.10 Z" fill="#ffffff" fill-rule="evenodd" group-id="1,6,15,16,17,22" node-id="306" stroke="none" target-height="108" target-width="108.10004" target-x="523.3" target-y="350.1"></path></g><g node-id="340"><path d="M 638.20 417.80 L 637.90 423.40 L 637.10 428.70 L 635.80 433.90 L 634.00 438.80 L 631.70 443.60 L 629.00 448.00 L 625.90 452.10 L 622.40 456.00 L 618.60 459.50 L 614.40 462.60 L 610.00 465.30 L 605.20 467.60 L 600.30 469.40 L 595.20 470.70 L 589.80 471.50 L 584.20 471.80 L 578.60 471.50 L 573.20 470.70 L 568.10 469.40 L 563.20 467.60 L 558.40 465.30 L 554.00 462.60 L 549.80 459.50 L 546.00 456.00 L 542.50 452.10 L 539.40 448.00 L 536.70 443.60 L 534.40 438.80 L 532.60 433.90 L 531.30 428.70 L 530.50 423.40 L 530.20 417.80 L 530.50 412.20 L 531.30 406.80 L 532.60 401.70 L 534.40 396.70 L 536.70 392.00 L 539.40 387.50 L 542.50 383.40 L 546.00 379.60 L 549.80 376.10 L 554.00 373.00 L 558.40 370.30 L 563.20 368.00 L 568.10 366.20 L 573.20 364.80 L 578.60 364.00 L 584.20 363.70 L 589.80 364.00 L 595.20 364.80 L 600.30 366.20 L 605.20 368.00 L 610.00 370.30 L 614.40 373.00 L 618.60 376.10 L 622.40 379.60 L 625.90 383.40 L 629.00 387.50 L 631.70 392.00 L 634.00 396.70 L 635.80 401.70 L 637.10 406.80 L 637.90 412.20 L 638.20 417.80 Z" fill="#46eff8" fill-rule="evenodd" group-id="1,6,15,16,17,23" node-id="311" stroke="none" target-height="108.099976" target-width="108" target-x="530.2" target-y="363.7"></path></g><path d="M 402.80 500.80 L 402.50 504.70 L 401.80 508.40 L 400.60 511.90 L 398.90 515.20 L 396.90 518.20 L 394.50 520.90 L 391.80 523.30 L 388.80 525.30 L 385.50 527.00 L 382.00 528.20 L 378.30 528.90 L 374.40 529.20 L 370.50 528.90 L 366.90 528.20 L 363.40 527.00 L 360.10 525.30 L 357.10 523.30 L 354.40 520.90 L 352.00 518.20 L 349.90 515.20 L 348.30 511.90 L 347.10 508.40 L 346.30 504.70 L 346.10 500.80 L 346.30 496.90 L 347.10 493.30 L 348.30 489.80 L 349.90 486.50 L 352.00 483.50 L 354.40 480.80 L 357.10 478.40 L 360.10 476.30 L 363.40 474.70 L 366.90 473.50 L 370.50 472.70 L 374.40 472.40 L 378.30 472.70 L 382.00 473.50 L 385.50 474.70 L 388.80 476.30 L 391.80 478.40 L 394.50 480.80 L 396.90 483.50 L 398.90 486.50 L 400.60 489.80 L 401.80 493.30 L 402.50 496.90 L 402.80 500.80 Z" fill="#46eff8" fill-rule="evenodd" group-id="1,6,15,16,17,24" node-id="316" stroke="none" target-height="56.80002" target-width="56.69998" target-x="346.1" target-y="472.4"></path></g><path d="M 270.60 461.10 L 270.30 464.90 L 269.60 468.50 L 268.40 471.90 L 266.80 475.20 L 264.80 478.10 L 262.40 480.80 L 259.70 483.20 L 256.80 485.20 L 253.50 486.80 L 250.10 488.00 L 246.50 488.70 L 242.70 489.00 L 238.80 488.70 L 235.20 488.00 L 231.80 486.80 L 228.50 485.20 L 225.60 483.20 L 222.90 480.80 L 220.50 478.10 L 218.60 475.20 L 216.90 471.90 L 215.70 468.50 L 215.00 464.90 L 214.70 461.10 L 215.00 457.20 L 215.70 453.60 L 216.90 450.20 L 218.60 446.90 L 220.50 444.00 L 222.90 441.30 L 225.60 438.90 L 228.50 437.00 L 231.80 435.30 L 235.20 434.10 L 238.80 433.40 L 242.70 433.10 L 246.50 433.40 L 250.10 434.10 L 253.50 435.30 L 256.80 437.00 L 259.70 438.90 L 262.40 441.30 L 264.80 444.00 L 266.80 446.90 L 268.40 450.20 L 269.60 453.60 L 270.30 457.20 L 270.60 461.10 Z" fill="url(#linearGradient-16)" fill-rule="evenodd" group-id="1,6,15,16" id="" node-id="75" stroke="none" target-height="55.899994" target-width="55.90001" target-x="214.7" target-y="433.1"></path><path d="M 810.40 233.10 L 809.60 240.90 L 807.30 248.00 L 805.10 252.50 L 802.40 256.50 L 799.10 260.20 L 795.40 263.50 L 791.40 266.20 L 786.90 268.50 L 779.70 270.70 L 771.90 271.50 L 764.10 270.70 L 757.00 268.50 L 752.50 266.20 L 748.50 263.50 L 744.80 260.20 L 741.50 256.50 L 738.80 252.50 L 736.50 248.00 L 734.30 240.90 L 733.70 237.00 L 733.50 233.10 L 733.70 229.10 L 735.20 221.60 L 736.50 218.10 L 738.80 213.60 L 741.50 209.60 L 744.80 205.90 L 748.50 202.60 L 752.50 199.90 L 757.00 197.70 L 764.10 195.40 L 771.90 194.60 L 779.70 195.40 L 786.90 197.70 L 791.40 199.90 L 795.40 202.60 L 799.10 205.90 L 802.40 209.60 L 805.10 213.60 L 807.30 218.10 L 809.60 225.30 L 810.40 233.10 Z" fill="url(#linearGradient-10)" fill-rule="evenodd" group-id="1,6,15,16" id="-2" node-id="76" stroke="none" target-height="76.899994" target-width="76.900024" target-x="733.5" target-y="194.6"></path></g><path d="M 351.70 346.20 L 333.50 349.10 L 299.90 355.70 L 284.50 359.30 L 268.80 363.40 L 254.30 367.60 L 240.90 372.00 L 228.60 376.50 L 216.00 381.60 L 204.70 386.70 L 194.70 391.80 L 185.90 397.00 L 178.70 401.70 L 172.50 406.40 L 167.10 411.10 L 162.60 415.60 L 158.70 420.20 L 155.70 424.50 L 153.40 428.70 L 151.50 432.90 L 150.30 437.00 L 149.50 441.20 L 149.20 445.40 L 149.50 449.70 L 150.30 453.90 L 151.60 458.10 L 153.40 462.30 L 155.80 466.60 L 158.90 470.90 L 162.80 475.40 L 167.40 480.10 L 172.80 484.70 L 179.10 489.40 L 186.40 494.20 L 195.30 499.40 L 205.40 504.60 L 216.80 509.70 L 229.50 514.80 L 242.10 519.30 L 255.60 523.60 L 270.30 527.90 L 286.20 532.00 L 301.80 535.60 L 335.70 542.10 L 354.10 545.10 L 391.10 549.80 L 410.60 551.80 L 451.20 554.70 L 471.80 555.60 L 514.90 556.30 L 536.60 556.10 L 557.90 555.60 L 598.70 553.40 L 619.10 551.80 L 657.50 547.60 L 694.00 542.10 L 711.50 538.90 L 743.50 532.00 L 759.40 527.90 L 774.10 523.60 L 787.60 519.30 L 800.20 514.80 L 812.90 509.70 L 824.30 504.60 L 834.40 499.40 L 843.30 494.20 L 850.60 489.40 L 856.90 484.70 L 862.30 480.10 L 866.90 475.40 L 870.80 470.90 L 873.90 466.60 L 876.30 462.30 L 878.10 458.10 L 879.40 453.90 L 880.20 449.70 L 880.50 445.40 L 880.20 440.90 L 879.30 436.40 L 877.80 431.80 L 875.60 427.30 L 872.80 422.70 L 869.60 418.50 L 865.90 414.40 L 861.60 410.10 L 856.50 405.90 L 850.70 401.50 L 843.40 396.80 L 835.30 392.00 L 826.10 387.20 L 815.80 382.40 L 805.60 378.20 L 782.50 369.90 L 756.80 362.30 L 728.90 355.50 L 713.60 352.40 L 693.50 348.70 L 672.20 345.30 L 649.60 342.30" fill="none" group-id="1,6,15" id="" node-id="77" stroke="url(#linearGradient-17)" stroke-linecap="round" stroke-width="2" target-height="214" target-width="731.3" target-x="149.2" target-y="342.3"></path></g></g></g></svg>