<?xml version="1.0" standalone="no"?><!DOCTYPE svg PUBLIC "-//W3C//DTD SVG 1.1//EN" "http://www.w3.org/Graphics/SVG/1.1/DTD/svg11.dtd"><svg height="1024" node-id="1" sillyvg="true" template-height="1024" template-width="1024" version="1.1" viewBox="0 0 1024 1024" width="1024" xmlns="http://www.w3.org/2000/svg" xmlns:xlink="http://www.w3.org/1999/xlink"><defs node-id="55"><mask height="64.48816" id="mask-2" maskUnits="userSpaceOnUse" node-id="48" width="64.48816" x="417.69965" y="653.6685"><path d="M 489.30 744.30 L 409.50 745.40 L 449.90 677.20 Z" fill="#ffffff" fill-rule="evenodd" node-id="60" stroke="none" target-height="68.20001" target-width="79.79999" target-x="409.5" target-y="677.2"></path></mask></defs><g node-id="62"><g node-id="63"><path d="M 0.00 0.00 L 1024.00 0.00 L 1024.00 1024.00 L 0.00 1024.00 Z" fill="#ffffff" fill-opacity="0" fill-rule="nonzero" group-id="1,2" id="矩形" node-id="8" stroke="none" target-height="1024" target-width="1024" target-x="0" target-y="0"></path></g><g node-id="64"><g node-id="65"><path d="M 640.00 700.00 L 645.60 700.20 L 651.10 700.90 L 656.40 702.00 L 661.50 703.50 L 666.50 705.40 L 671.30 707.60 L 675.80 710.20 L 680.20 713.10 L 688.10 719.90 L 694.90 727.80 L 697.80 732.20 L 700.40 736.70 L 702.60 741.50 L 704.50 746.50 L 706.00 751.60 L 707.10 756.90 L 707.80 762.40 L 708.00 768.00 L 707.80 773.60 L 707.10 779.10 L 706.00 784.40 L 704.50 789.50 L 702.60 794.50 L 700.40 799.30 L 697.80 803.80 L 694.90 808.20 L 691.60 812.30 L 684.30 819.60 L 680.20 822.90 L 671.30 828.40 L 666.50 830.60 L 661.50 832.50 L 656.40 834.00 L 651.10 835.10 L 645.60 835.80 L 640.00 836.00 L 634.40 835.80 L 628.90 835.10 L 623.60 834.00 L 618.50 832.50 L 613.50 830.60 L 608.70 828.40 L 604.20 825.80 L 599.80 822.90 L 595.70 819.60 L 591.90 816.10 L 588.40 812.30 L 585.10 808.20 L 582.20 803.80 L 579.60 799.30 L 577.40 794.50 L 575.50 789.50 L 574.00 784.40 L 572.90 779.10 L 572.20 773.60 L 572.00 768.00 L 572.20 762.40 L 572.90 756.90 L 574.00 751.60 L 575.50 746.50 L 577.40 741.50 L 579.60 736.70 L 582.20 732.20 L 585.10 727.80 L 591.90 719.90 L 599.80 713.10 L 604.20 710.20 L 608.70 707.60 L 613.50 705.40 L 618.50 703.50 L 623.60 702.00 L 628.90 700.90 L 634.40 700.20 L 640.00 700.00 Z M 640.00 708.00 L 630.20 708.80 L 625.60 709.70 L 616.60 712.70 L 608.40 717.00 L 604.60 719.60 L 599.80 723.50 L 595.50 727.80 L 591.60 732.60 L 586.70 740.40 L 584.70 744.60 L 581.70 753.60 L 580.80 758.20 L 580.00 768.00 L 580.80 777.80 L 581.70 782.40 L 584.70 791.40 L 589.00 799.60 L 591.60 803.40 L 595.50 808.20 L 599.80 812.50 L 604.60 816.40 L 612.40 821.30 L 616.60 823.30 L 625.60 826.30 L 630.20 827.20 L 640.00 828.00 L 649.80 827.20 L 654.40 826.30 L 663.40 823.30 L 671.60 819.00 L 675.40 816.40 L 680.20 812.50 L 684.50 808.20 L 688.40 803.40 L 693.30 795.60 L 695.30 791.40 L 698.30 782.40 L 699.20 777.80 L 700.00 768.00 L 699.20 758.20 L 698.30 753.60 L 695.30 744.60 L 691.00 736.40 L 688.40 732.60 L 684.50 727.80 L 680.20 723.50 L 675.40 719.60 L 667.60 714.70 L 663.40 712.70 L 654.40 709.70 L 649.80 708.80 L 640.00 708.00 Z" fill="#dedaff" fill-rule="nonzero" group-id="1,3,4" id="椭圆形" node-id="11" stroke="none" target-height="136" target-width="136" target-x="572" target-y="700"></path><path d="M 640.00 572.00 L 645.60 572.20 L 651.10 572.90 L 656.40 574.00 L 661.50 575.50 L 666.50 577.40 L 671.30 579.60 L 675.80 582.20 L 680.20 585.10 L 688.10 591.90 L 691.60 595.70 L 694.90 599.80 L 697.80 604.20 L 700.40 608.70 L 702.60 613.50 L 704.50 618.50 L 706.00 623.60 L 707.10 628.90 L 707.80 634.40 L 708.00 640.00 L 707.80 645.60 L 707.10 651.10 L 706.00 656.40 L 704.50 661.50 L 702.60 666.50 L 700.40 671.30 L 697.80 675.80 L 691.60 684.30 L 684.30 691.60 L 680.20 694.90 L 675.80 697.80 L 671.30 700.40 L 666.50 702.60 L 661.50 704.50 L 656.40 706.00 L 651.10 707.10 L 645.60 707.80 L 640.00 708.00 L 634.40 707.80 L 628.90 707.10 L 623.60 706.00 L 618.50 704.50 L 613.50 702.60 L 608.70 700.40 L 604.20 697.80 L 599.80 694.90 L 595.70 691.60 L 588.40 684.30 L 585.10 680.20 L 582.20 675.80 L 579.60 671.30 L 577.40 666.50 L 575.50 661.50 L 574.00 656.40 L 572.90 651.10 L 572.20 645.60 L 572.00 640.00 L 572.20 634.40 L 572.90 628.90 L 574.00 623.60 L 575.50 618.50 L 577.40 613.50 L 579.60 608.70 L 582.20 604.20 L 585.10 599.80 L 591.90 591.90 L 599.80 585.10 L 604.20 582.20 L 608.70 579.60 L 613.50 577.40 L 618.50 575.50 L 623.60 574.00 L 628.90 572.90 L 634.40 572.20 L 640.00 572.00 Z M 640.00 580.00 L 630.20 580.80 L 625.60 581.70 L 616.60 584.70 L 612.40 586.70 L 604.60 591.60 L 599.80 595.50 L 595.50 599.80 L 591.60 604.60 L 589.00 608.40 L 584.70 616.60 L 581.70 625.60 L 580.80 630.20 L 580.00 640.00 L 580.80 649.80 L 581.70 654.40 L 584.70 663.40 L 589.00 671.60 L 591.60 675.40 L 595.50 680.20 L 599.80 684.50 L 604.60 688.40 L 612.40 693.30 L 616.60 695.30 L 625.60 698.30 L 630.20 699.20 L 640.00 700.00 L 649.80 699.20 L 654.40 698.30 L 663.40 695.30 L 671.60 691.00 L 675.40 688.40 L 680.20 684.50 L 684.50 680.20 L 688.40 675.40 L 693.30 667.60 L 695.30 663.40 L 698.30 654.40 L 699.20 649.80 L 700.00 640.00 L 699.20 630.20 L 698.30 625.60 L 695.30 616.60 L 691.00 608.40 L 688.40 604.60 L 684.50 599.80 L 680.20 595.50 L 675.40 591.60 L 667.60 586.70 L 663.40 584.70 L 654.40 581.70 L 649.80 580.80 L 640.00 580.00 Z" fill="#dedaff" fill-rule="nonzero" group-id="1,3,4" id="椭圆形" node-id="12" stroke="none" target-height="136" target-width="136" target-x="572" target-y="572"></path><path d="M 768.00 572.00 L 773.60 572.20 L 779.10 572.90 L 784.40 574.00 L 789.50 575.50 L 794.50 577.40 L 799.30 579.60 L 803.80 582.20 L 808.20 585.10 L 816.10 591.90 L 822.90 599.80 L 825.80 604.20 L 828.40 608.70 L 830.60 613.50 L 832.50 618.50 L 834.00 623.60 L 835.10 628.90 L 835.80 634.40 L 836.00 640.00 L 835.80 645.60 L 835.10 651.10 L 834.00 656.40 L 832.50 661.50 L 830.60 666.50 L 828.40 671.30 L 825.80 675.80 L 819.60 684.30 L 816.10 688.10 L 812.30 691.60 L 808.20 694.90 L 803.80 697.80 L 799.30 700.40 L 794.50 702.60 L 789.50 704.50 L 784.40 706.00 L 779.10 707.10 L 773.60 707.80 L 768.00 708.00 L 762.40 707.80 L 756.90 707.10 L 751.60 706.00 L 746.50 704.50 L 741.50 702.60 L 736.70 700.40 L 732.20 697.80 L 727.80 694.90 L 723.70 691.60 L 716.40 684.30 L 713.10 680.20 L 710.20 675.80 L 707.60 671.30 L 705.40 666.50 L 703.50 661.50 L 702.00 656.40 L 700.90 651.10 L 700.20 645.60 L 700.00 640.00 L 700.20 634.40 L 700.90 628.90 L 702.00 623.60 L 703.50 618.50 L 705.40 613.50 L 707.60 608.70 L 710.20 604.20 L 713.10 599.80 L 719.90 591.90 L 727.80 585.10 L 732.20 582.20 L 736.70 579.60 L 741.50 577.40 L 746.50 575.50 L 751.60 574.00 L 756.90 572.90 L 762.40 572.20 L 768.00 572.00 Z M 768.00 580.00 L 758.20 580.80 L 753.60 581.70 L 744.60 584.70 L 736.40 589.00 L 732.60 591.60 L 727.80 595.50 L 723.50 599.80 L 719.60 604.60 L 714.70 612.40 L 712.70 616.60 L 709.70 625.60 L 708.80 630.20 L 708.00 640.00 L 708.80 649.80 L 709.70 654.40 L 712.70 663.40 L 717.00 671.60 L 719.60 675.40 L 723.50 680.20 L 727.80 684.50 L 732.60 688.40 L 740.40 693.30 L 749.00 696.90 L 753.60 698.30 L 763.00 699.80 L 768.00 700.00 L 773.00 699.80 L 777.80 699.20 L 787.00 696.90 L 791.40 695.30 L 799.60 691.00 L 803.40 688.40 L 808.20 684.50 L 812.50 680.20 L 816.40 675.40 L 821.30 667.60 L 823.30 663.40 L 826.30 654.40 L 827.20 649.80 L 828.00 640.00 L 827.20 630.20 L 826.30 625.60 L 823.30 616.60 L 819.00 608.40 L 816.40 604.60 L 812.50 599.80 L 808.20 595.50 L 803.40 591.60 L 795.60 586.70 L 791.40 584.70 L 782.40 581.70 L 777.80 580.80 L 768.00 580.00 Z" fill="#dedaff" fill-rule="nonzero" group-id="1,3,4" id="椭圆形" node-id="13" stroke="none" target-height="136" target-width="136" target-x="700" target-y="572"></path><path d="M 768.00 700.00 L 773.60 700.20 L 779.10 700.90 L 784.40 702.00 L 789.50 703.50 L 794.50 705.40 L 799.30 707.60 L 803.80 710.20 L 808.20 713.10 L 816.10 719.90 L 822.90 727.80 L 825.80 732.20 L 828.40 736.70 L 830.60 741.50 L 832.50 746.50 L 834.00 751.60 L 835.10 756.90 L 835.80 762.40 L 836.00 768.00 L 835.80 773.60 L 835.10 779.10 L 834.00 784.40 L 832.50 789.50 L 830.60 794.50 L 828.40 799.30 L 825.80 803.80 L 819.60 812.30 L 816.10 816.10 L 812.30 819.60 L 808.20 822.90 L 803.80 825.80 L 799.30 828.40 L 794.50 830.60 L 789.50 832.50 L 784.40 834.00 L 779.10 835.10 L 773.60 835.80 L 768.00 836.00 L 762.40 835.80 L 756.90 835.10 L 751.60 834.00 L 746.50 832.50 L 741.50 830.60 L 736.70 828.40 L 732.20 825.80 L 723.70 819.60 L 719.90 816.10 L 716.40 812.30 L 713.10 808.20 L 710.20 803.80 L 707.60 799.30 L 705.40 794.50 L 703.50 789.50 L 702.00 784.40 L 700.90 779.10 L 700.20 773.60 L 700.00 768.00 L 700.20 762.40 L 700.90 756.90 L 702.00 751.60 L 703.50 746.50 L 705.40 741.50 L 707.60 736.70 L 710.20 732.20 L 713.10 727.80 L 719.90 719.90 L 727.80 713.10 L 732.20 710.20 L 736.70 707.60 L 741.50 705.40 L 746.50 703.50 L 751.60 702.00 L 756.90 700.90 L 762.40 700.20 L 768.00 700.00 Z M 768.00 708.00 L 758.20 708.80 L 753.60 709.70 L 744.60 712.70 L 736.40 717.00 L 732.60 719.60 L 727.80 723.50 L 723.50 727.80 L 719.60 732.60 L 714.70 740.40 L 712.70 744.60 L 709.70 753.60 L 708.80 758.20 L 708.00 768.00 L 708.80 777.80 L 709.70 782.40 L 712.70 791.40 L 717.00 799.60 L 719.60 803.40 L 723.50 808.20 L 727.80 812.50 L 732.60 816.40 L 740.40 821.30 L 749.00 824.90 L 753.60 826.30 L 763.00 827.80 L 768.00 828.00 L 773.00 827.80 L 777.80 827.20 L 787.00 824.90 L 791.40 823.30 L 799.60 819.00 L 803.40 816.40 L 808.20 812.50 L 812.50 808.20 L 816.40 803.40 L 821.30 795.60 L 823.30 791.40 L 826.30 782.40 L 827.20 777.80 L 828.00 768.00 L 827.20 758.20 L 826.30 753.60 L 823.30 744.60 L 819.00 736.40 L 816.40 732.60 L 812.50 727.80 L 808.20 723.50 L 803.40 719.60 L 795.60 714.70 L 791.40 712.70 L 782.40 709.70 L 777.80 708.80 L 768.00 708.00 Z" fill="#dedaff" fill-rule="nonzero" group-id="1,3,4" id="椭圆形" node-id="14" stroke="none" target-height="136" target-width="136" target-x="700" target-y="700"></path><g node-id="68"><path d="M 644.00 128.00 L 644.00 896.00 L 636.00 896.00 L 636.00 128.00 Z" fill="#f7f7f7" fill-rule="nonzero" group-id="1,3,4,7" id="矩形" node-id="15" stroke="none" target-height="768" target-width="8" target-x="636" target-y="128"></path></g><g node-id="69"><path d="M 772.00 128.00 L 772.00 896.00 L 764.00 896.00 L 764.00 128.00 Z" fill="#f7f7f7" fill-rule="nonzero" group-id="1,3,4,8" id="矩形" node-id="16" stroke="none" target-height="768" target-width="8" target-x="764" target-y="128"></path></g><path d="M 64.00 764.00 L 960.00 764.00 L 960.00 772.00 L 64.00 772.00 Z" fill="#f7f7f7" fill-rule="nonzero" group-id="1,3,4" id="矩形" node-id="17" stroke="none" target-height="8" target-width="896" target-x="64" target-y="764"></path><path d="M 64.00 636.00 L 960.00 636.00 L 960.00 644.00 L 64.00 644.00 Z" fill="#f7f7f7" fill-rule="nonzero" group-id="1,3,4" id="矩形" node-id="18" stroke="none" target-height="8" target-width="896" target-x="64" target-y="636"></path><path d="M 656.00 640.00 L 655.70 642.90 L 655.00 645.60 L 653.80 648.10 L 652.20 650.30 L 650.30 652.20 L 648.10 653.80 L 645.60 655.00 L 642.90 655.70 L 640.00 656.00 L 637.10 655.70 L 634.40 655.00 L 631.90 653.80 L 629.70 652.20 L 627.80 650.30 L 626.20 648.10 L 625.00 645.60 L 624.30 642.90 L 624.00 640.00 L 624.30 637.10 L 625.00 634.40 L 626.20 631.90 L 627.80 629.70 L 629.70 627.80 L 631.90 626.20 L 634.40 625.00 L 637.10 624.30 L 640.00 624.00 L 642.90 624.30 L 645.60 625.00 L 648.10 626.20 L 650.30 627.80 L 652.20 629.70 L 653.80 631.90 L 655.00 634.40 L 655.70 637.10 L 656.00 640.00 Z" fill="#ffffff" fill-rule="nonzero" group-id="1,3,4" id="椭圆形" node-id="19" stroke="none" target-height="32" target-width="32" target-x="624" target-y="624"></path><path d="M 656.00 768.00 L 655.70 770.90 L 655.00 773.60 L 653.80 776.10 L 652.20 778.30 L 650.30 780.20 L 648.10 781.80 L 645.60 783.00 L 642.90 783.70 L 640.00 784.00 L 637.10 783.70 L 634.40 783.00 L 631.90 781.80 L 629.70 780.20 L 627.80 778.30 L 626.20 776.10 L 625.00 773.60 L 624.30 770.90 L 624.00 768.00 L 624.30 765.10 L 625.00 762.40 L 626.20 759.90 L 627.80 757.70 L 629.70 755.80 L 631.90 754.20 L 634.40 753.00 L 637.10 752.30 L 640.00 752.00 L 642.90 752.30 L 645.60 753.00 L 648.10 754.20 L 650.30 755.80 L 652.20 757.70 L 653.80 759.90 L 655.00 762.40 L 655.70 765.10 L 656.00 768.00 Z" fill="#ffffff" fill-rule="nonzero" group-id="1,3,4" id="椭圆形" node-id="20" stroke="none" target-height="32" target-width="32" target-x="624" target-y="752"></path><path d="M 784.00 768.00 L 783.70 770.90 L 783.00 773.60 L 781.80 776.10 L 780.20 778.30 L 778.30 780.20 L 776.10 781.80 L 773.60 783.00 L 770.90 783.70 L 768.00 784.00 L 765.10 783.70 L 762.40 783.00 L 759.90 781.80 L 757.70 780.20 L 755.80 778.30 L 754.20 776.10 L 753.00 773.60 L 752.30 770.90 L 752.00 768.00 L 752.30 765.10 L 753.00 762.40 L 754.20 759.90 L 755.80 757.70 L 757.70 755.80 L 759.90 754.20 L 762.40 753.00 L 765.10 752.30 L 768.00 752.00 L 770.90 752.30 L 773.60 753.00 L 776.10 754.20 L 778.30 755.80 L 780.20 757.70 L 781.80 759.90 L 783.00 762.40 L 783.70 765.10 L 784.00 768.00 Z" fill="#ffffff" fill-rule="nonzero" group-id="1,3,4" id="椭圆形" node-id="21" stroke="none" target-height="32" target-width="32" target-x="752" target-y="752"></path><path d="M 784.00 640.00 L 783.70 642.90 L 783.00 645.60 L 781.80 648.10 L 780.20 650.30 L 778.30 652.20 L 776.10 653.80 L 773.60 655.00 L 770.90 655.70 L 768.00 656.00 L 765.10 655.70 L 762.40 655.00 L 759.90 653.80 L 757.70 652.20 L 755.80 650.30 L 754.20 648.10 L 753.00 645.60 L 752.30 642.90 L 752.00 640.00 L 752.30 637.10 L 753.00 634.40 L 754.20 631.90 L 755.80 629.70 L 757.70 627.80 L 759.90 626.20 L 762.40 625.00 L 765.10 624.30 L 768.00 624.00 L 770.90 624.30 L 773.60 625.00 L 776.10 626.20 L 778.30 627.80 L 780.20 629.70 L 781.80 631.90 L 783.00 634.40 L 783.70 637.10 L 784.00 640.00 Z" fill="#ffffff" fill-rule="nonzero" group-id="1,3,4" id="椭圆形" node-id="22" stroke="none" target-height="32" target-width="32" target-x="752" target-y="624"></path></g><g node-id="66"><g node-id="70"><path d="M 376.00 732.00 L 336.00 768.00 L 296.00 732.00 L 376.00 732.00 Z M 296.00 732.00 L 256.00 768.00 L 256.00 732.00 L 296.00 732.00 Z M 456.00 732.00 L 416.00 768.00 L 376.00 732.00 L 456.00 732.00 Z M 576.00 732.00 L 576.00 768.00 L 536.00 732.00 L 576.00 732.00 Z M 456.00 732.00 L 536.00 732.00 L 496.00 768.00 L 456.00 732.00 Z" fill="#dedaff" fill-rule="evenodd" group-id="1,3,5,9" id="形状结合" node-id="25" stroke="none" target-height="36" target-width="320" target-x="256" target-y="732"></path><g node-id="79"><path d="M 376.00 292.00 L 336.00 256.00 L 296.00 292.00 L 376.00 292.00 Z M 296.00 292.00 L 256.00 256.00 L 256.00 292.00 L 296.00 292.00 Z M 456.00 292.00 L 416.00 256.00 L 376.00 292.00 L 456.00 292.00 Z M 576.00 292.00 L 576.00 256.00 L 536.00 292.00 L 576.00 292.00 Z M 456.00 292.00 L 536.00 292.00 L 496.00 256.00 L 456.00 292.00 Z" fill="#dedaff" fill-rule="evenodd" group-id="1,3,5,9,18" id="形状结合" node-id="26" stroke="none" target-height="36" target-width="320" target-x="256" target-y="256"></path></g><path d="M 256.00 292.00 L 576.00 292.00 L 576.00 732.00 L 256.00 732.00 Z" fill="#6448f4" fill-rule="nonzero" group-id="1,3,5,9" id="矩形" node-id="27" stroke="none" target-height="440" target-width="320" target-x="256" target-y="292"></path><path d="M 576.00 692.00 L 576.00 732.00 L 256.00 732.00 L 256.00 692.00 L 576.00 692.00 Z M 576.00 292.00 L 576.00 332.00 L 256.00 332.00 L 256.00 292.00 L 576.00 292.00 Z" fill="#beb9ff" fill-rule="evenodd" group-id="1,3,5,9" id="形状结合" node-id="28" stroke="none" target-height="440" target-width="320" target-x="256" target-y="292"></path></g><path d="M 269.00 690.00 L 270.20 690.30 L 271.10 690.90 L 271.80 691.90 L 272.00 693.20 L 271.80 694.50 L 271.10 695.50 L 270.20 696.10 L 269.00 696.40 L 265.80 696.10 L 264.90 695.50 L 264.20 694.50 L 264.00 693.20 L 264.20 691.90 L 264.90 690.90 L 265.80 690.30 L 269.00 690.00 Z M 289.00 690.00 L 290.20 690.30 L 291.10 690.90 L 291.80 691.90 L 292.00 693.20 L 291.80 694.50 L 291.10 695.50 L 290.20 696.10 L 289.00 696.40 L 285.80 696.10 L 284.90 695.50 L 284.20 694.50 L 284.00 693.20 L 284.20 691.90 L 284.90 690.90 L 285.80 690.30 L 289.00 690.00 Z M 309.00 690.00 L 310.20 690.30 L 311.10 690.90 L 311.80 691.90 L 312.00 693.20 L 311.80 694.50 L 311.10 695.50 L 310.20 696.10 L 309.00 696.40 L 305.80 696.10 L 304.90 695.50 L 304.20 694.50 L 304.00 693.20 L 304.20 691.90 L 304.90 690.90 L 305.80 690.30 L 309.00 690.00 Z M 329.00 690.00 L 330.20 690.30 L 331.10 690.90 L 331.80 691.90 L 332.00 693.20 L 331.80 694.50 L 331.10 695.50 L 330.20 696.10 L 329.00 696.40 L 325.80 696.10 L 324.90 695.50 L 324.20 694.50 L 324.00 693.20 L 324.20 691.90 L 324.90 690.90 L 325.80 690.30 L 329.00 690.00 Z M 349.00 690.00 L 350.20 690.30 L 351.10 690.90 L 351.80 691.90 L 352.00 693.20 L 351.80 694.50 L 351.10 695.50 L 350.20 696.10 L 349.00 696.40 L 345.80 696.10 L 344.90 695.50 L 344.20 694.50 L 344.00 693.20 L 344.20 691.90 L 344.90 690.90 L 345.80 690.30 L 349.00 690.00 Z M 369.00 690.00 L 370.20 690.30 L 371.10 690.90 L 371.80 691.90 L 372.00 693.20 L 371.80 694.50 L 371.10 695.50 L 370.20 696.10 L 369.00 696.40 L 365.80 696.10 L 364.90 695.50 L 364.20 694.50 L 364.00 693.20 L 364.20 691.90 L 364.90 690.90 L 365.80 690.30 L 369.00 690.00 Z M 389.00 690.00 L 390.20 690.30 L 391.10 690.90 L 391.80 691.90 L 392.00 693.20 L 391.80 694.50 L 391.10 695.50 L 390.20 696.10 L 389.00 696.40 L 385.80 696.10 L 384.90 695.50 L 384.20 694.50 L 384.00 693.20 L 384.20 691.90 L 384.90 690.90 L 385.80 690.30 L 389.00 690.00 Z M 409.00 690.00 L 410.20 690.30 L 411.10 690.90 L 411.80 691.90 L 412.00 693.20 L 411.80 694.50 L 411.10 695.50 L 410.20 696.10 L 409.00 696.40 L 405.80 696.10 L 404.90 695.50 L 404.20 694.50 L 404.00 693.20 L 404.20 691.90 L 404.90 690.90 L 405.80 690.30 L 409.00 690.00 Z M 429.00 690.00 L 430.20 690.30 L 431.10 690.90 L 431.80 691.90 L 432.00 693.20 L 431.80 694.50 L 431.10 695.50 L 430.20 696.10 L 429.00 696.40 L 425.80 696.10 L 424.90 695.50 L 424.20 694.50 L 424.00 693.20 L 424.20 691.90 L 424.90 690.90 L 425.80 690.30 L 429.00 690.00 Z M 449.00 690.00 L 450.20 690.30 L 451.10 690.90 L 451.80 691.90 L 452.00 693.20 L 451.80 694.50 L 451.10 695.50 L 450.20 696.10 L 449.00 696.40 L 445.80 696.10 L 444.90 695.50 L 444.20 694.50 L 444.00 693.20 L 444.20 691.90 L 444.90 690.90 L 445.80 690.30 L 449.00 690.00 Z M 469.00 690.00 L 470.20 690.30 L 471.10 690.90 L 471.80 691.90 L 472.00 693.20 L 471.80 694.50 L 471.10 695.50 L 470.20 696.10 L 469.00 696.40 L 465.80 696.10 L 464.90 695.50 L 464.20 694.50 L 464.00 693.20 L 464.20 691.90 L 464.90 690.90 L 465.80 690.30 L 469.00 690.00 Z M 489.00 690.00 L 490.20 690.30 L 491.10 690.90 L 491.80 691.90 L 492.00 693.20 L 491.80 694.50 L 491.10 695.50 L 490.20 696.10 L 489.00 696.40 L 485.80 696.10 L 484.90 695.50 L 484.20 694.50 L 484.00 693.20 L 484.20 691.90 L 484.90 690.90 L 485.80 690.30 L 489.00 690.00 Z M 509.00 690.00 L 510.20 690.30 L 511.10 690.90 L 511.80 691.90 L 512.00 693.20 L 511.80 694.50 L 511.10 695.50 L 510.20 696.10 L 509.00 696.40 L 505.80 696.10 L 504.90 695.50 L 504.20 694.50 L 504.00 693.20 L 504.20 691.90 L 504.90 690.90 L 505.80 690.30 L 509.00 690.00 Z M 529.00 690.00 L 530.20 690.30 L 531.10 690.90 L 531.80 691.90 L 532.00 693.20 L 531.80 694.50 L 531.10 695.50 L 530.20 696.10 L 529.00 696.40 L 525.80 696.10 L 524.90 695.50 L 524.20 694.50 L 524.00 693.20 L 524.20 691.90 L 524.90 690.90 L 525.80 690.30 L 529.00 690.00 Z M 549.00 690.00 L 550.20 690.30 L 551.10 690.90 L 551.80 691.90 L 552.00 693.20 L 551.80 694.50 L 551.10 695.50 L 550.20 696.10 L 549.00 696.40 L 545.80 696.10 L 544.90 695.50 L 544.20 694.50 L 544.00 693.20 L 544.20 691.90 L 544.90 690.90 L 545.80 690.30 L 549.00 690.00 Z" fill="#ffffff" fill-rule="nonzero" group-id="1,3,5" id="路径" node-id="29" stroke="none" target-height="6.4000244" target-width="288" target-x="264" target-y="690"></path><path d="M 269.00 328.00 L 270.20 328.30 L 271.10 328.90 L 271.80 329.90 L 272.00 331.20 L 271.80 332.50 L 271.10 333.50 L 270.20 334.10 L 269.00 334.40 L 265.80 334.10 L 264.90 333.50 L 264.20 332.50 L 264.00 331.20 L 264.20 329.90 L 264.90 328.90 L 265.80 328.30 L 269.00 328.00 Z M 289.00 328.00 L 290.20 328.30 L 291.10 328.90 L 291.80 329.90 L 292.00 331.20 L 291.80 332.50 L 291.10 333.50 L 290.20 334.10 L 289.00 334.40 L 285.80 334.10 L 284.90 333.50 L 284.20 332.50 L 284.00 331.20 L 284.20 329.90 L 284.90 328.90 L 285.80 328.30 L 289.00 328.00 Z M 309.00 328.00 L 310.20 328.30 L 311.10 328.90 L 311.80 329.90 L 312.00 331.20 L 311.80 332.50 L 311.10 333.50 L 310.20 334.10 L 309.00 334.40 L 305.80 334.10 L 304.90 333.50 L 304.20 332.50 L 304.00 331.20 L 304.20 329.90 L 304.90 328.90 L 305.80 328.30 L 309.00 328.00 Z M 329.00 328.00 L 330.20 328.30 L 331.10 328.90 L 331.80 329.90 L 332.00 331.20 L 331.80 332.50 L 331.10 333.50 L 330.20 334.10 L 329.00 334.40 L 325.80 334.10 L 324.90 333.50 L 324.20 332.50 L 324.00 331.20 L 324.20 329.90 L 324.90 328.90 L 325.80 328.30 L 329.00 328.00 Z M 349.00 328.00 L 350.20 328.30 L 351.10 328.90 L 351.80 329.90 L 352.00 331.20 L 351.80 332.50 L 351.10 333.50 L 350.20 334.10 L 349.00 334.40 L 345.80 334.10 L 344.90 333.50 L 344.20 332.50 L 344.00 331.20 L 344.20 329.90 L 344.90 328.90 L 345.80 328.30 L 349.00 328.00 Z M 369.00 328.00 L 370.20 328.30 L 371.10 328.90 L 371.80 329.90 L 372.00 331.20 L 371.80 332.50 L 371.10 333.50 L 370.20 334.10 L 369.00 334.40 L 365.80 334.10 L 364.90 333.50 L 364.20 332.50 L 364.00 331.20 L 364.20 329.90 L 364.90 328.90 L 365.80 328.30 L 369.00 328.00 Z M 389.00 328.00 L 390.20 328.30 L 391.10 328.90 L 391.80 329.90 L 392.00 331.20 L 391.80 332.50 L 391.10 333.50 L 390.20 334.10 L 389.00 334.40 L 385.80 334.10 L 384.90 333.50 L 384.20 332.50 L 384.00 331.20 L 384.20 329.90 L 384.90 328.90 L 385.80 328.30 L 389.00 328.00 Z M 409.00 328.00 L 410.20 328.30 L 411.10 328.90 L 411.80 329.90 L 412.00 331.20 L 411.80 332.50 L 411.10 333.50 L 410.20 334.10 L 409.00 334.40 L 405.80 334.10 L 404.90 333.50 L 404.20 332.50 L 404.00 331.20 L 404.20 329.90 L 404.90 328.90 L 405.80 328.30 L 409.00 328.00 Z M 429.00 328.00 L 430.20 328.30 L 431.10 328.90 L 431.80 329.90 L 432.00 331.20 L 431.80 332.50 L 431.10 333.50 L 430.20 334.10 L 429.00 334.40 L 425.80 334.10 L 424.90 333.50 L 424.20 332.50 L 424.00 331.20 L 424.20 329.90 L 424.90 328.90 L 425.80 328.30 L 429.00 328.00 Z M 449.00 328.00 L 450.20 328.30 L 451.10 328.90 L 451.80 329.90 L 452.00 331.20 L 451.80 332.50 L 451.10 333.50 L 450.20 334.10 L 449.00 334.40 L 445.80 334.10 L 444.90 333.50 L 444.20 332.50 L 444.00 331.20 L 444.20 329.90 L 444.90 328.90 L 445.80 328.30 L 449.00 328.00 Z M 469.00 328.00 L 470.20 328.30 L 471.10 328.90 L 471.80 329.90 L 472.00 331.20 L 471.80 332.50 L 471.10 333.50 L 470.20 334.10 L 469.00 334.40 L 465.80 334.10 L 464.90 333.50 L 464.20 332.50 L 464.00 331.20 L 464.20 329.90 L 464.90 328.90 L 465.80 328.30 L 469.00 328.00 Z M 489.00 328.00 L 490.20 328.30 L 491.10 328.90 L 491.80 329.90 L 492.00 331.20 L 491.80 332.50 L 491.10 333.50 L 490.20 334.10 L 489.00 334.40 L 485.80 334.10 L 484.90 333.50 L 484.20 332.50 L 484.00 331.20 L 484.20 329.90 L 484.90 328.90 L 485.80 328.30 L 489.00 328.00 Z M 509.00 328.00 L 510.20 328.30 L 511.10 328.90 L 511.80 329.90 L 512.00 331.20 L 511.80 332.50 L 511.10 333.50 L 510.20 334.10 L 509.00 334.40 L 505.80 334.10 L 504.90 333.50 L 504.20 332.50 L 504.00 331.20 L 504.20 329.90 L 504.90 328.90 L 505.80 328.30 L 509.00 328.00 Z M 529.00 328.00 L 530.20 328.30 L 531.10 328.90 L 531.80 329.90 L 532.00 331.20 L 531.80 332.50 L 531.10 333.50 L 530.20 334.10 L 529.00 334.40 L 525.80 334.10 L 524.90 333.50 L 524.20 332.50 L 524.00 331.20 L 524.20 329.90 L 524.90 328.90 L 525.80 328.30 L 529.00 328.00 Z M 549.00 328.00 L 550.20 328.30 L 551.10 328.90 L 551.80 329.90 L 552.00 331.20 L 551.80 332.50 L 551.10 333.50 L 550.20 334.10 L 549.00 334.40 L 545.80 334.10 L 544.90 333.50 L 544.20 332.50 L 544.00 331.20 L 544.20 329.90 L 544.90 328.90 L 545.80 328.30 L 549.00 328.00 Z" fill="#ffffff" fill-rule="nonzero" group-id="1,3,5" id="路径" node-id="30" stroke="none" target-height="6.399994" target-width="288" target-x="264" target-y="328"></path><path d="M 384.00 406.00 L 536.00 406.00 L 536.00 426.00 L 384.00 426.00 Z" fill="#ffffff" fill-rule="nonzero" group-id="1,3,5" id="矩形" node-id="31" stroke="none" target-height="20" target-width="152" target-x="384" target-y="406"></path><path d="M 390.00 486.00 L 536.00 486.00 L 536.00 506.00 L 390.00 506.00 Z" fill="#ffffff" fill-rule="nonzero" group-id="1,3,5" id="矩形" node-id="32" stroke="none" target-height="20" target-width="146" target-x="390" target-y="486"></path><path d="M 390.00 566.00 L 536.00 566.00 L 536.00 586.00 L 390.00 586.00 Z" fill="#ffffff" fill-rule="nonzero" group-id="1,3,5" id="矩形" node-id="33" stroke="none" target-height="20" target-width="146" target-x="390" target-y="566"></path><g node-id="71"><path d="M 360.00 576.00 L 359.70 580.40 L 358.90 584.50 L 357.50 588.50 L 355.60 592.20 L 353.30 595.60 L 350.60 598.60 L 347.60 601.30 L 344.20 603.60 L 340.50 605.50 L 336.50 606.90 L 332.40 607.70 L 328.00 608.00 L 323.60 607.70 L 319.50 606.90 L 315.50 605.50 L 311.80 603.60 L 308.40 601.30 L 305.40 598.60 L 302.70 595.60 L 300.40 592.20 L 298.50 588.50 L 297.10 584.50 L 296.30 580.40 L 296.00 576.00 L 296.30 571.60 L 297.10 567.50 L 298.50 563.50 L 300.40 559.80 L 302.70 556.40 L 305.40 553.40 L 308.40 550.70 L 311.80 548.40 L 315.50 546.50 L 319.50 545.10 L 323.60 544.30 L 328.00 544.00 L 332.40 544.30 L 336.50 545.10 L 340.50 546.50 L 344.20 548.40 L 347.60 550.70 L 350.60 553.40 L 353.30 556.40 L 355.60 559.80 L 357.50 563.50 L 358.90 567.50 L 359.70 571.60 L 360.00 576.00 Z" fill="#160a45" fill-rule="nonzero" group-id="1,3,5,10" id="椭圆形" node-id="35" stroke="none" target-height="64" target-width="64" target-x="296" target-y="544"></path><g node-id="80"><path d="M 307.70 581.40 L 314.80 574.20 L 321.90 581.40 L 343.20 559.90 L 350.30 567.10 L 321.90 595.80 Z" fill="#ffffff" fill-rule="nonzero" group-id="1,3,5,10,19" id="形状结合" node-id="36" stroke="none" target-height="35.899963" target-width="42.599976" target-x="307.7" target-y="559.9"></path></g></g><g node-id="72"><path d="M 360.00 496.00 L 359.70 500.40 L 358.90 504.50 L 357.50 508.50 L 355.60 512.20 L 353.30 515.60 L 350.60 518.60 L 347.60 521.30 L 344.20 523.60 L 340.50 525.50 L 336.50 526.90 L 332.40 527.70 L 328.00 528.00 L 323.60 527.70 L 319.50 526.90 L 315.50 525.50 L 311.80 523.60 L 308.40 521.30 L 305.40 518.60 L 302.70 515.60 L 300.40 512.20 L 298.50 508.50 L 297.10 504.50 L 296.30 500.40 L 296.00 496.00 L 296.30 491.60 L 297.10 487.50 L 298.50 483.50 L 300.40 479.80 L 302.70 476.40 L 305.40 473.40 L 308.40 470.70 L 311.80 468.40 L 315.50 466.50 L 319.50 465.10 L 323.60 464.30 L 328.00 464.00 L 332.40 464.30 L 336.50 465.10 L 340.50 466.50 L 344.20 468.40 L 347.60 470.70 L 350.60 473.40 L 353.30 476.40 L 355.60 479.80 L 357.50 483.50 L 358.90 487.50 L 359.70 491.60 L 360.00 496.00 Z" fill="#dedaff" fill-rule="evenodd" group-id="1,3,5,11" id="椭圆形" node-id="38" stroke="none" target-height="64" target-width="64" target-x="296" target-y="464"></path><g node-id="81"><path d="M 307.70 501.40 L 314.80 494.20 L 321.90 501.40 L 343.20 479.90 L 350.30 487.10 L 321.90 515.80 Z" fill="#ffffff" fill-rule="nonzero" group-id="1,3,5,11,20" id="形状结合" node-id="39" stroke="none" target-height="35.899994" target-width="42.599976" target-x="307.7" target-y="479.9"></path></g></g><g node-id="73"><path d="M 360.00 416.00 L 359.70 420.40 L 358.90 424.50 L 357.50 428.50 L 355.60 432.20 L 353.30 435.60 L 350.60 438.60 L 347.60 441.30 L 344.20 443.60 L 340.50 445.50 L 336.50 446.90 L 332.40 447.70 L 328.00 448.00 L 323.60 447.70 L 319.50 446.90 L 315.50 445.50 L 311.80 443.60 L 308.40 441.30 L 305.40 438.60 L 302.70 435.60 L 300.40 432.20 L 298.50 428.50 L 297.10 424.50 L 296.30 420.40 L 296.00 416.00 L 296.30 411.60 L 297.10 407.50 L 298.50 403.50 L 300.40 399.80 L 302.70 396.40 L 305.40 393.40 L 308.40 390.70 L 311.80 388.40 L 315.50 386.50 L 319.50 385.10 L 323.60 384.30 L 328.00 384.00 L 332.40 384.30 L 336.50 385.10 L 340.50 386.50 L 344.20 388.40 L 347.60 390.70 L 350.60 393.40 L 353.30 396.40 L 355.60 399.80 L 357.50 403.50 L 358.90 407.50 L 359.70 411.60 L 360.00 416.00 Z" fill="#beb9ff" fill-rule="evenodd" group-id="1,3,5,12" id="椭圆形" node-id="41" stroke="none" target-height="64" target-width="64" target-x="296" target-y="384"></path><g node-id="82"><path d="M 307.70 421.40 L 314.80 414.20 L 321.90 421.40 L 343.20 399.90 L 350.30 407.10 L 321.90 435.80 Z" fill="#ffffff" fill-rule="nonzero" group-id="1,3,5,12,21" id="形状结合" node-id="42" stroke="none" target-height="35.899994" target-width="42.599976" target-x="307.7" target-y="399.9"></path></g></g></g><g node-id="67"><g node-id="74"><path d="M 718.00 474.50 L 520.00 672.50 L 463.40 615.90 L 661.40 417.90 Z" fill="#eeeeff" fill-opacity="0.79939497" fill-rule="nonzero" group-id="1,3,6,13" id="矩形" node-id="44" stroke="none" target-height="254.6" target-width="254.6" target-x="463.4" target-y="417.9"></path></g><g node-id="75"><path d="M 519.60 672.10 L 443.80 692.10 L 464.00 616.80 Z" fill="#ffffff" fill-rule="nonzero" group-id="1,3,6,14" id="path-2" node-id="46" stroke="none" target-height="75.29999" target-width="75.79999" target-x="443.8" target-y="616.8"></path></g><g node-id="76"><g node-id="84"><path d="M 476.80 687.30 L 451.40 712.80 L 423.10 684.50 L 448.50 659.00 Z" fill="#160a45" fill-rule="nonzero" group-id="1,3,6,15,23" id="矩形" node-id="51" stroke="none" target-height="53.799988" target-width="53.69998" target-x="423.1" target-y="659"></path></g></g><g node-id="77"><path d="M 774.50 417.90 L 718.00 474.50 L 661.40 417.90 L 718.00 361.30 Z" fill="#dedaff" fill-rule="evenodd" group-id="1,3,6,16" id="矩形" node-id="52" stroke="none" target-height="113.20001" target-width="113.099976" target-x="661.4" target-y="361.3"></path></g><path d="M 732.10 460.30 L 718.00 474.50 L 661.40 417.90 L 675.50 403.80 Z" fill="#ffffff" fill-rule="nonzero" group-id="1,3,6,17" id="矩形" node-id="53" stroke="none" target-height="70.70001" target-width="70.69995" target-x="661.4" target-y="403.8"></path></g></g></g></svg>