<?xml version="1.0" standalone="no"?><!DOCTYPE svg PUBLIC "-//W3C//DTD SVG 1.1//EN" "http://www.w3.org/Graphics/SVG/1.1/DTD/svg11.dtd"><svg height="1024" node-id="1" sillyvg="true" template-height="1024" template-width="1024" version="1.1" viewBox="0 0 1024 1024" width="1024" xmlns="http://www.w3.org/2000/svg" xmlns:xlink="http://www.w3.org/1999/xlink"><defs node-id="29"></defs><g node-id="31"><g node-id="32"><path d="M 0.00 0.00 L 1024.00 0.00 L 1024.00 1024.00 L 0.00 1024.00 Z" fill="#ffffff" fill-opacity="0" fill-rule="evenodd" group-id="1,2" id="矩形" node-id="6" stroke="none" target-height="1024" target-width="1024" target-x="0" target-y="0"></path></g><g node-id="33"><g node-id="34"><path d="M 268.80 648.80 L 263.20 649.00 L 257.70 649.70 L 252.40 650.80 L 247.30 652.30 L 242.30 654.20 L 237.50 656.40 L 233.00 659.00 L 228.60 661.90 L 220.70 668.70 L 213.90 676.60 L 211.00 681.00 L 208.40 685.50 L 206.20 690.30 L 204.30 695.30 L 202.80 700.40 L 201.70 705.70 L 201.00 711.20 L 200.80 716.80 L 201.00 722.40 L 201.70 727.90 L 202.80 733.20 L 204.30 738.30 L 206.20 743.30 L 208.40 748.10 L 211.00 752.60 L 213.90 757.00 L 220.70 764.90 L 228.60 771.70 L 233.00 774.60 L 237.50 777.20 L 242.30 779.40 L 247.30 781.30 L 252.40 782.80 L 257.70 783.90 L 263.20 784.60 L 268.80 784.80 L 274.30 784.60 L 279.70 783.90 L 284.90 782.90 L 289.90 781.50 L 299.50 777.50 L 308.30 772.10 L 316.20 765.60 L 323.00 757.90 L 328.50 749.30 L 332.80 739.80 L 334.80 744.70 L 339.70 753.70 L 345.90 761.90 L 353.20 769.00 L 361.60 775.00 L 366.10 777.50 L 375.70 781.50 L 380.70 782.90 L 385.90 783.90 L 391.30 784.60 L 396.80 784.80 L 402.30 784.60 L 407.70 783.90 L 412.90 782.90 L 417.90 781.50 L 427.50 777.50 L 436.30 772.10 L 440.40 769.00 L 447.70 761.90 L 453.90 753.70 L 456.50 749.30 L 460.80 739.80 L 465.10 749.30 L 467.70 753.70 L 473.90 761.90 L 481.20 769.00 L 485.30 772.10 L 494.10 777.50 L 503.70 781.50 L 508.70 782.90 L 513.90 783.90 L 519.30 784.60 L 524.80 784.80 L 530.40 784.60 L 535.90 783.90 L 541.20 782.80 L 546.30 781.30 L 551.30 779.40 L 556.10 777.20 L 560.60 774.60 L 565.00 771.70 L 569.10 768.40 L 572.90 764.90 L 576.40 761.10 L 579.70 757.00 L 582.60 752.60 L 585.20 748.10 L 587.40 743.30 L 589.30 738.30 L 590.80 733.20 L 591.90 727.90 L 592.60 722.40 L 592.80 716.80 L 592.60 711.20 L 591.90 705.70 L 590.80 700.40 L 589.30 695.30 L 587.40 690.30 L 585.20 685.50 L 582.60 681.00 L 579.70 676.60 L 576.40 672.50 L 569.10 665.20 L 560.60 659.00 L 556.10 656.40 L 551.30 654.20 L 546.30 652.30 L 541.20 650.80 L 535.90 649.70 L 530.40 649.00 L 524.80 648.80 L 519.30 649.00 L 513.90 649.70 L 508.70 650.70 L 503.70 652.10 L 494.10 656.10 L 485.30 661.40 L 481.20 664.60 L 473.90 671.70 L 467.70 679.90 L 465.10 684.30 L 460.80 693.80 L 456.50 684.30 L 453.90 679.90 L 447.70 671.70 L 440.40 664.60 L 436.30 661.50 L 427.50 656.10 L 417.90 652.10 L 412.90 650.70 L 407.70 649.70 L 402.30 649.00 L 396.80 648.80 L 391.30 649.00 L 385.90 649.70 L 380.70 650.70 L 375.70 652.10 L 366.10 656.10 L 361.60 658.60 L 353.20 664.60 L 345.90 671.70 L 339.70 679.90 L 334.80 688.90 L 332.80 693.80 L 328.50 684.30 L 323.00 675.70 L 316.20 668.00 L 308.30 661.50 L 299.50 656.10 L 289.90 652.10 L 284.90 650.70 L 279.70 649.70 L 274.30 649.00 L 268.80 648.80 Z M 396.80 656.80 L 406.60 657.60 L 411.20 658.50 L 420.20 661.50 L 428.40 665.80 L 432.20 668.40 L 437.00 672.30 L 441.30 676.60 L 445.20 681.40 L 450.10 689.20 L 452.10 693.40 L 455.10 702.40 L 456.00 707.00 L 456.80 716.80 L 456.00 726.60 L 455.10 731.20 L 452.10 740.20 L 447.80 748.40 L 445.20 752.20 L 441.30 757.00 L 437.00 761.30 L 432.20 765.20 L 424.40 770.10 L 420.20 772.10 L 411.20 775.10 L 406.60 776.00 L 396.80 776.80 L 387.00 776.00 L 382.40 775.10 L 373.40 772.10 L 365.20 767.80 L 361.40 765.20 L 356.60 761.30 L 352.30 757.00 L 348.40 752.20 L 343.50 744.40 L 341.50 740.20 L 338.50 731.30 L 337.60 726.60 L 336.80 716.80 L 337.10 710.90 L 337.70 706.10 L 340.10 697.10 L 342.40 691.40 L 345.30 686.00 L 348.70 680.90 L 352.60 676.20 L 356.90 672.00 L 361.70 668.10 L 366.80 664.80 L 372.20 662.00 L 378.00 659.80 L 382.50 658.50 L 391.90 657.00 L 396.80 656.80 Z M 268.80 656.80 L 278.60 657.60 L 283.20 658.50 L 292.20 661.50 L 296.40 663.50 L 304.20 668.40 L 309.00 672.30 L 313.30 676.60 L 317.20 681.40 L 319.80 685.20 L 324.10 693.40 L 327.10 702.40 L 328.00 707.00 L 328.80 716.80 L 328.00 726.60 L 327.10 731.20 L 324.10 740.20 L 319.80 748.40 L 317.20 752.20 L 313.30 757.00 L 309.00 761.30 L 304.20 765.20 L 296.40 770.10 L 287.80 773.70 L 283.20 775.10 L 273.80 776.60 L 268.80 776.80 L 263.80 776.60 L 259.00 776.00 L 249.80 773.70 L 245.40 772.10 L 237.20 767.80 L 233.40 765.20 L 228.60 761.30 L 224.30 757.00 L 220.40 752.20 L 215.50 744.40 L 213.50 740.20 L 210.50 731.20 L 209.60 726.60 L 208.80 716.80 L 209.60 707.00 L 210.50 702.40 L 213.50 693.40 L 215.50 689.20 L 220.40 681.40 L 224.30 676.60 L 228.60 672.30 L 233.40 668.40 L 237.20 665.80 L 245.40 661.50 L 254.40 658.50 L 259.00 657.60 L 268.80 656.80 Z M 524.80 656.80 L 534.60 657.60 L 539.20 658.50 L 548.20 661.50 L 552.40 663.50 L 560.20 668.40 L 565.00 672.30 L 569.30 676.60 L 573.20 681.40 L 575.80 685.20 L 580.10 693.40 L 583.10 702.40 L 584.00 707.00 L 584.80 716.80 L 584.00 726.60 L 583.10 731.20 L 580.10 740.20 L 575.80 748.40 L 573.20 752.20 L 569.30 757.00 L 565.00 761.30 L 560.20 765.20 L 552.40 770.10 L 548.20 772.10 L 539.20 775.10 L 534.60 776.00 L 524.80 776.80 L 515.00 776.00 L 510.40 775.10 L 501.40 772.10 L 493.20 767.80 L 489.40 765.20 L 484.60 761.30 L 480.30 757.00 L 476.40 752.20 L 471.50 744.40 L 469.50 740.20 L 466.50 731.30 L 465.60 726.60 L 464.80 716.80 L 465.10 710.90 L 465.70 706.10 L 468.10 697.10 L 470.40 691.40 L 473.30 686.00 L 476.70 680.90 L 480.60 676.20 L 484.90 672.00 L 489.70 668.10 L 494.80 664.80 L 500.20 662.00 L 506.00 659.80 L 510.50 658.50 L 519.90 657.00 L 524.80 656.80 Z" fill="#dedaff" fill-rule="nonzero" group-id="1,3,4" id="形状结合" node-id="9" stroke="none" target-height="136" target-width="392" target-x="200.8" target-y="648.8"></path><path d="M 518.80 732.30 L 518.80 960.00 L 526.80 960.00 L 526.80 732.30 L 522.80 732.80 L 518.80 732.30 Z M 262.80 732.30 L 262.80 960.00 L 270.80 960.00 L 270.80 732.30 L 266.80 732.80 L 262.80 732.30 Z M 390.80 732.30 L 390.80 960.00 L 398.80 960.00 L 398.80 732.30 L 394.80 732.80 L 390.80 732.30 Z M 251.30 712.80 L 62.00 712.80 L 62.00 720.80 L 251.30 720.80 L 250.80 716.80 L 251.30 712.80 Z M 282.80 716.80 L 282.30 720.80 L 379.30 720.80 L 378.80 716.80 L 379.30 712.80 L 282.30 712.80 L 282.80 716.80 Z M 410.80 716.80 L 410.30 720.80 L 507.30 720.80 L 506.80 716.80 L 507.30 712.80 L 410.30 712.80 L 410.80 716.80 Z M 538.80 716.80 L 538.30 720.80 L 958.00 720.80 L 958.00 712.80 L 538.30 712.80 L 538.80 716.80 Z M 518.80 64.00 L 518.80 456.80 L 398.80 456.80 L 398.80 64.00 L 390.80 64.00 L 390.80 456.80 L 270.80 456.80 L 270.80 64.00 L 262.80 64.00 L 262.80 456.80 L 62.00 456.80 L 62.00 464.80 L 262.80 464.80 L 262.80 584.80 L 62.00 584.80 L 62.00 592.80 L 262.80 592.80 L 262.80 701.30 L 266.80 700.80 L 270.80 701.30 L 270.80 592.80 L 390.80 592.80 L 390.80 701.30 L 394.80 700.80 L 398.80 701.30 L 398.80 592.80 L 518.80 592.80 L 518.80 701.30 L 522.80 700.80 L 526.80 701.30 L 526.80 592.80 L 958.00 592.80 L 958.00 584.80 L 526.80 584.80 L 526.80 464.80 L 958.00 464.80 L 958.00 456.80 L 526.80 456.80 L 526.80 64.00 L 518.80 64.00 Z M 398.80 464.80 L 518.80 464.80 L 518.80 584.80 L 398.80 584.80 L 398.80 464.80 Z M 270.80 464.80 L 390.80 464.80 L 390.80 584.80 L 270.80 584.80 L 270.80 464.80 Z" fill="#f3f3f3" fill-rule="evenodd" group-id="1,3,4" id="形状结合" node-id="10" stroke="none" target-height="896" target-width="896" target-x="62" target-y="64"></path></g><g node-id="35"><g node-id="36"><g node-id="39"><path d="M 701.60 793.60 L 702.70 649.40 L 558.30 649.20" fill="#160a45" fill-rule="nonzero" group-id="1,3,5,6,9" id="路径" node-id="13" stroke="none" target-height="144.39996" target-width="144.40002" target-x="558.3" target-y="649.2"></path></g><g node-id="40"><path d="M 842.70 757.50 L 842.70 649.40 L 733.30 649.20" fill="#806eff" fill-rule="evenodd" group-id="1,3,5,6,10" id="路径" node-id="14" stroke="none" target-height="108.29999" target-width="109.400024" target-x="733.3" target-y="649.2"></path></g><path d="M 409.60 442.50 L 842.70 440.40 L 842.70 650.30 L 409.60 650.30 Z" fill="#dedaff" fill-rule="evenodd" group-id="1,3,5,6" id="矩形" node-id="15" stroke="none" target-height="209.9" target-width="433.1" target-x="409.6" target-y="440.4"></path><path d="M 422.70 440.40 L 735.50 440.40 L 735.50 650.30 L 422.70 646.60 Z" fill="#beb9ff" fill-rule="nonzero" group-id="1,3,5,6" id="矩形" node-id="16" stroke="none" target-height="209.9" target-width="312.8" target-x="422.7" target-y="440.4"></path></g><g node-id="37"><path d="M 212.70 370.40 L 702.70 370.40 L 702.70 650.30 L 212.70 650.30 Z" fill="#806eff" fill-rule="nonzero" group-id="1,3,5,7" id="矩形" node-id="18" stroke="none" target-height="279.9" target-width="490" target-x="212.7" target-y="370.4"></path><path d="M 645.50 463.40 L 645.50 482.60 L 282.90 482.60 L 282.90 463.40 Z" fill="#ffffff" fill-rule="nonzero" group-id="1,3,5,7" id="直线" node-id="19" stroke="none" target-height="19.200012" target-width="362.6" target-x="282.9" target-y="463.4"></path><path d="M 420.20 578.60 L 420.20 597.80 L 282.90 597.80 L 282.90 578.60 Z" fill="#ffffff" fill-rule="nonzero" group-id="1,3,5,7" id="直线" node-id="20" stroke="none" target-height="19.200012" target-width="137.30002" target-x="282.9" target-y="578.6"></path><path d="M 645.50 540.20 L 645.50 559.40 L 282.90 559.40 L 282.90 540.20 Z" fill="#ffffff" fill-rule="nonzero" group-id="1,3,5,7" id="直线" node-id="21" stroke="none" target-height="19.200012" target-width="362.6" target-x="282.9" target-y="540.2"></path><path d="M 645.50 501.80 L 645.50 521.00 L 282.90 521.00 L 282.90 501.80 Z" fill="#ffffff" fill-rule="nonzero" group-id="1,3,5,7" id="直线" node-id="22" stroke="none" target-height="19.200012" target-width="362.6" target-x="282.9" target-y="501.8"></path><path d="M 212.70 364.90 L 494.90 364.90 L 494.90 440.90 L 212.70 440.90 Z" fill="#6448f4" fill-rule="nonzero" group-id="1,3,5,7" id="矩形" node-id="23" stroke="none" target-height="76" target-width="282.2" target-x="212.7" target-y="364.9"></path><g node-id="41"><path d="M 249.90 370.90 L 529.90 370.90 L 529.90 650.90 L 249.90 650.90 Z" fill="#a199ff" fill-opacity="0.38069662" fill-rule="nonzero" group-id="1,3,5,7,11" id="矩形" node-id="24" stroke="none" target-height="280.00003" target-width="280.00003" target-x="249.9" target-y="370.9"></path></g></g><g node-id="38"><g node-id="42"><path d="M 494.90 440.40 L 494.90 230.40 L 233.90 230.40 L 228.10 230.60 L 222.50 231.30 L 217.00 232.30 L 211.70 233.70 L 206.50 235.50 L 200.10 238.30 L 194.00 241.50 L 188.10 245.30 L 182.50 249.70 L 177.20 254.50 L 172.30 259.70 L 167.70 265.30 L 163.40 271.40 L 159.50 277.80 L 156.10 284.50 L 153.00 291.60 L 150.40 299.10 L 148.30 306.60 L 146.70 314.50 L 145.60 322.60 L 144.90 331.00 L 144.90 440.40 L 494.90 440.40 Z" fill="#eeeeff" fill-opacity="0.79939497" fill-rule="nonzero" group-id="1,3,5,8,12" id="形状结合" node-id="26" stroke="none" target-height="210" target-width="350" target-x="144.9" target-y="230.4"></path></g><path d="M 494.90 530.00 L 494.90 440.40 L 409.60 440.40" fill="#eeeeff" fill-opacity="0.79939497" fill-rule="nonzero" group-id="1,3,5,8,13" id="路径" node-id="27" stroke="none" target-height="89.600006" target-width="85.29999" target-x="409.6" target-y="440.4"></path></g></g></g></g></svg>