<?xml version="1.0" standalone="no"?><!DOCTYPE svg PUBLIC "-//W3C//DTD SVG 1.1//EN" "http://www.w3.org/Graphics/SVG/1.1/DTD/svg11.dtd"><svg height="251" node-id="1" sillyvg="true" template-height="251" template-width="205" version="1.1" viewBox="0 0 205 251" width="205" xmlns="http://www.w3.org/2000/svg" xmlns:xlink="http://www.w3.org/1999/xlink"><defs node-id="107"></defs><g node-id="376"><path d="M 60.30 139.20 L 54.30 154.60 L 49.10 165.10 L 46.10 170.10 L 43.90 173.20 L 39.60 178.20 L 37.20 180.20 L 34.80 181.50 L 32.60 182.20 L 29.70 182.40 L 26.70 182.20 L 23.60 181.50 L 17.60 179.20 L 11.90 175.70 L 6.90 171.30 L 4.80 168.80 L 1.70 163.50 L 0.60 160.70 L 0.10 157.90 L 0.00 155.20 L 0.30 153.50 L 2.40 149.70 L 4.80 146.90 L 8.00 143.80 L 15.90 137.80 L 24.90 132.00 L 38.40 124.50 L 50.10 118.70 Z" fill="#948dc4" fill-rule="nonzero" group-id="1" node-id="111" stroke="none" target-height="63.699997" target-width="60.3" target-x="0" target-y="118.7"></path><g node-id="377"><path d="M 24.90 132.00 L 23.80 138.10 L 22.80 140.80 L 6.20 148.00 L 5.30 149.20 L 5.50 150.70 L 6.00 151.20 L 7.40 151.60 L 23.40 144.80 L 25.30 143.70 L 26.50 142.10 L 27.40 140.00 L 29.10 129.60 L 24.90 132.00 Z M 22.50 140.90 L 22.70 140.80 Z" fill="#302c4b" fill-opacity="0.14" fill-rule="nonzero" group-id="1,2" node-id="115" stroke="none" target-height="22" target-width="23.8" target-x="5.3" target-y="129.6"></path></g><g node-id="378"><path d="M 34.40 126.60 L 33.40 137.60 L 32.40 142.40 L 31.50 144.90 L 14.90 152.30 L 14.00 153.50 L 14.20 155.00 L 14.70 155.50 L 16.10 155.90 L 32.10 149.10 L 33.90 148.00 L 35.10 146.40 L 36.00 144.40 L 37.60 134.60 L 38.40 124.50 L 34.40 126.60 Z M 31.20 145.20 L 31.30 145.10 Z" fill="#302c4b" fill-opacity="0.14" fill-rule="nonzero" group-id="1,3" node-id="120" stroke="none" target-height="31.399994" target-width="24.400002" target-x="14" target-y="124.5"></path></g><path d="M 158.70 52.40 L 158.60 83.00 L 157.90 87.90 L 156.80 92.70 L 155.20 97.30 L 153.30 101.80 L 150.90 106.00 L 148.10 110.00 L 144.90 113.70 L 141.40 117.10 L 137.50 120.20 L 133.10 123.10 L 128.40 125.40 L 123.60 127.30 L 118.50 128.70 L 113.30 129.50 L 108.30 129.80 L 99.70 129.70 L 95.80 129.20 L 90.80 128.20 L 86.00 126.70 L 81.30 124.70 L 74.10 120.40 L 67.60 114.90 L 64.20 111.10 L 61.20 107.00 L 58.60 102.60 L 56.40 98.00 L 54.70 93.20 L 53.50 88.20 L 52.70 80.70 L 52.70 49.10 L 53.10 44.20 L 54.00 39.40 L 55.30 34.70 L 57.10 30.10 L 61.60 22.10 L 66.30 16.30 L 70.50 12.30 L 77.90 7.00 L 81.80 4.90 L 90.30 1.80 L 99.10 0.20 L 103.70 0.00 L 111.30 0.20 L 116.10 0.90 L 120.80 2.10 L 125.40 3.60 L 129.90 5.60 L 134.10 8.00 L 138.10 10.80 L 141.90 14.00 L 146.70 19.10 L 150.50 24.30 L 153.70 30.00 L 156.20 36.40 L 157.50 41.10 L 158.30 46.00 L 158.70 52.40 Z" fill="#aea6d2" fill-rule="nonzero" group-id="1" node-id="123" stroke="none" target-height="129.8" target-width="106" target-x="52.7" target-y="0"></path><g node-id="379"><path d="M 97.30 75.90 L 101.40 77.20 L 107.50 78.20 L 112.90 77.70 L 116.80 75.90 L 114.80 78.40 L 113.10 79.80 L 111.30 80.90 L 109.00 81.70 L 107.40 81.90 L 103.60 81.10 L 101.70 80.10 L 99.60 78.40 L 97.30 75.90 Z" fill="#302c4b" fill-opacity="0.28" fill-rule="nonzero" group-id="1,4" node-id="127" stroke="none" target-height="6" target-width="19.5" target-x="97.3" target-y="75.9"></path></g><path d="M 88.00 97.90 L 92.00 100.20 L 96.20 102.00 L 100.70 103.20 L 104.20 103.70 L 111.10 103.50 L 117.80 101.70 L 121.00 100.30 L 126.80 96.30 L 127.30 95.50 L 127.20 94.70 L 126.80 94.00 L 125.30 93.50 L 119.00 97.50 L 116.20 98.80 L 110.00 100.30 L 103.70 100.20 L 100.50 99.70 L 96.70 98.60 L 93.10 97.00 L 88.80 94.70 L 88.10 94.90 L 87.30 96.30 L 87.40 97.10 L 88.00 97.90 Z" fill="#302c4b" fill-rule="nonzero" group-id="1" node-id="130" stroke="none" target-height="10.199997" target-width="40" target-x="87.3" target-y="93.5"></path><g node-id="380"><path d="M 85.90 58.00 L 75.20 51.20 L 73.10 48.20 L 71.80 44.80 L 69.20 34.60 L 66.20 15.80 L 70.00 11.80 L 70.70 12.70 L 71.00 13.80 L 74.10 33.70 L 75.30 38.70 L 77.30 45.10 L 78.60 47.40 L 88.50 53.60 L 89.60 55.10 L 89.30 57.10 L 88.40 58.00 L 86.90 58.40 L 85.90 58.00 Z" fill="#302c4b" fill-opacity="0.1" fill-rule="nonzero" group-id="1,5" node-id="134" stroke="none" target-height="46.600002" target-width="23.400002" target-x="66.2" target-y="11.8"></path></g><g node-id="381"><path d="M 146.70 19.10 L 144.10 35.40 L 142.90 40.70 L 141.20 45.80 L 139.70 49.20 L 138.60 50.70 L 137.20 51.90 L 127.50 58.00 L 125.70 58.30 L 124.10 57.10 L 123.70 55.90 L 124.20 54.30 L 134.80 47.50 L 135.80 45.80 L 137.00 42.50 L 139.40 32.80 L 142.30 14.40 L 146.70 19.10 Z" fill="#302c4b" fill-opacity="0.1" fill-rule="nonzero" group-id="1,6" node-id="139" stroke="none" target-height="43.9" target-width="23" target-x="123.7" target-y="14.4"></path></g><path d="M 55.10 48.90 L 55.10 80.90 L 51.90 80.50 L 49.80 79.70 L 47.90 78.40 L 46.20 76.80 L 43.50 72.70 L 42.60 70.30 L 41.80 64.90 L 42.10 61.70 L 42.80 58.80 L 44.00 56.20 L 45.50 53.80 L 47.40 51.90 L 49.50 50.40 L 51.70 49.50 L 55.10 48.90 Z" fill="#a39bcc" fill-rule="nonzero" group-id="1" node-id="142" stroke="none" target-height="32" target-width="13.299999" target-x="41.8" target-y="48.9"></path><path d="M 171.90 64.90 L 171.10 70.30 L 170.20 72.70 L 167.50 76.90 L 165.80 78.40 L 163.80 79.70 L 161.70 80.50 L 158.70 80.90 L 158.70 48.90 L 160.90 49.10 L 163.40 49.90 L 165.60 51.20 L 167.40 52.80 L 170.20 57.00 L 171.10 59.40 L 171.90 64.90 Z" fill="#a39bcc" fill-rule="nonzero" group-id="1" node-id="144" stroke="none" target-height="32" target-width="13.199997" target-x="158.7" target-y="48.9"></path><path d="M 72.50 58.70 L 74.60 59.10 L 79.40 61.30 L 91.80 67.80 L 89.80 70.30 L 86.60 73.00 L 83.50 74.30 L 80.80 73.80 L 77.50 71.60 L 76.00 70.00 L 74.20 67.40 L 72.90 64.50 L 72.40 62.50 L 72.50 58.70 Z" fill="#302c4b" fill-rule="nonzero" group-id="1" node-id="146" stroke="none" target-height="15.600002" target-width="19.400002" target-x="72.4" target-y="58.7"></path><path d="M 139.40 58.70 L 137.30 59.10 L 132.50 61.30 L 120.10 67.80 L 122.10 70.30 L 125.20 73.00 L 128.40 74.30 L 131.00 73.80 L 134.40 71.60 L 135.90 70.00 L 137.70 67.40 L 139.00 64.50 L 139.50 62.50 L 139.40 58.70 Z" fill="#302c4b" fill-rule="nonzero" group-id="1" node-id="148" stroke="none" target-height="15.600002" target-width="19.400002" target-x="120.1" target-y="58.7"></path><g node-id="382"><path d="M 75.10 61.80 L 73.40 62.50 L 72.40 62.40 L 71.50 61.80 L 65.50 53.60 L 62.40 47.60 L 61.20 44.30 L 60.20 40.30 L 58.50 28.10 L 61.60 22.10 L 62.40 22.70 L 62.70 23.60 L 64.80 37.30 L 65.80 41.80 L 66.80 44.90 L 69.60 50.50 L 75.50 58.80 L 75.70 60.80 L 75.10 61.80 Z" fill="#302c4b" fill-opacity="0.1" fill-rule="nonzero" group-id="1,7" node-id="152" stroke="none" target-height="40.4" target-width="17.199997" target-x="58.5" target-y="22.1"></path></g><g node-id="383"><path d="M 68.90 84.50 L 61.30 77.80 L 58.90 75.30 L 56.90 72.60 L 54.00 67.60 L 52.00 62.20 L 49.50 50.40 L 51.70 49.50 L 54.00 49.00 L 54.00 47.70 L 56.20 58.70 L 58.70 65.80 L 60.40 68.80 L 62.40 71.60 L 64.70 74.10 L 73.10 81.80 L 73.20 83.30 L 72.60 84.30 L 70.70 85.20 L 68.90 84.50 Z" fill="#302c4b" fill-opacity="0.1" fill-rule="nonzero" group-id="1,8" node-id="157" stroke="none" target-height="37.499996" target-width="23.699997" target-x="49.5" target-y="47.7"></path></g><g node-id="384"><path d="M 89.80 106.00 L 89.40 108.20 L 88.60 110.20 L 84.30 118.20 L 82.60 122.60 L 78.10 120.10 L 79.60 116.30 L 83.80 108.60 L 85.50 104.40 L 87.50 103.60 L 88.60 103.90 L 89.70 105.00 L 89.80 106.00 Z" fill="#302c4b" fill-opacity="0.19" fill-rule="nonzero" group-id="1,9" node-id="162" stroke="none" target-height="19" target-width="11.700005" target-x="78.1" target-y="103.6"></path></g><g node-id="385"><path d="M 99.10 118.50 L 97.10 127.10 L 92.20 126.10 L 92.90 122.40 L 94.70 115.80 L 95.00 111.90 L 95.80 110.50 L 97.00 109.90 L 98.20 109.80 L 99.40 110.70 L 99.80 111.60 L 99.90 114.00 L 99.10 118.50 Z" fill="#302c4b" fill-opacity="0.19" fill-rule="nonzero" group-id="1,10" node-id="167" stroke="none" target-height="17.299995" target-width="7.7000046" target-x="92.2" target-y="109.8"></path></g><g node-id="386"><path d="M 114.90 118.50 L 114.70 127.40 L 109.70 127.70 L 109.50 123.40 L 110.10 115.90 L 109.60 111.80 L 110.60 110.20 L 111.50 109.70 L 112.50 109.70 L 114.10 110.60 L 115.00 113.20 L 114.90 118.50 Z" fill="#302c4b" fill-opacity="0.19" fill-rule="nonzero" group-id="1,11" node-id="172" stroke="none" target-height="18" target-width="5.5" target-x="109.5" target-y="109.7"></path></g><g node-id="387"><path d="M 129.70 123.40 L 124.90 125.20 L 123.80 114.50 L 123.00 110.10 L 123.70 108.70 L 124.70 108.10 L 126.80 108.30 L 128.00 109.70 L 128.70 113.30 L 129.70 123.40 Z" fill="#302c4b" fill-opacity="0.19" fill-rule="nonzero" group-id="1,12" node-id="177" stroke="none" target-height="17.099998" target-width="6.699997" target-x="123" target-y="108.1"></path></g><g node-id="388"><path d="M 144.10 111.60 L 144.00 113.90 L 138.80 118.10 L 139.30 109.20 L 138.80 104.80 L 139.70 103.20 L 140.60 102.70 L 141.60 102.70 L 143.30 103.60 L 144.20 106.20 L 144.10 111.60 Z" fill="#302c4b" fill-opacity="0.19" fill-rule="nonzero" group-id="1,13" node-id="182" stroke="none" target-height="15.400002" target-width="5.399994" target-x="138.8" target-y="102.7"></path></g><g node-id="389"><path d="M 166.00 51.30 L 164.10 60.80 L 162.90 64.60 L 160.10 70.70 L 156.40 75.60 L 153.40 78.70 L 146.70 84.50 L 145.80 85.00 L 144.20 85.00 L 143.10 84.30 L 142.40 83.30 L 142.50 81.80 L 150.90 74.10 L 153.20 71.50 L 155.30 68.80 L 157.00 65.70 L 159.10 59.70 L 161.30 49.10 L 163.80 49.90 L 166.00 51.30 Z" fill="#302c4b" fill-opacity="0.1" fill-rule="nonzero" group-id="1,14" node-id="187" stroke="none" target-height="35.9" target-width="23.600006" target-x="142.4" target-y="49.1"></path></g><g node-id="390"><path d="M 154.40 31.70 L 153.60 38.10 L 152.20 44.30 L 149.60 50.70 L 145.00 57.70 L 141.90 61.80 L 140.40 62.60 L 139.50 62.50 L 138.30 61.80 L 137.80 61.20 L 137.60 59.60 L 137.90 58.90 L 143.90 50.50 L 146.60 44.90 L 147.70 41.90 L 148.60 37.50 L 150.50 24.30 L 154.40 31.70 Z" fill="#302c4b" fill-opacity="0.1" fill-rule="nonzero" group-id="1,15" node-id="192" stroke="none" target-height="38.3" target-width="16.799988" target-x="137.6" target-y="24.3"></path></g><g node-id="391"><path d="M 99.20 53.50 L 99.20 62.80 L 100.40 60.70 L 93.30 64.30 L 92.50 64.90 L 92.00 66.40 L 92.40 67.50 L 93.20 68.50 L 94.80 68.90 L 103.00 65.00 L 104.10 63.70 L 104.00 52.50 L 102.90 51.40 L 101.70 51.10 L 99.80 51.80 L 99.20 53.50 Z" fill="#302c4b" fill-opacity="0.1" fill-rule="nonzero" group-id="1,16" node-id="197" stroke="none" target-height="17.800003" target-width="12.099998" target-x="92" target-y="51.1"></path></g><g node-id="392"><path d="M 105.70 53.60 L 105.70 62.90 L 106.30 64.50 L 114.20 68.70 L 115.20 68.90 L 116.80 68.50 L 117.60 67.60 L 117.90 65.60 L 116.70 64.30 L 109.50 60.70 L 110.80 62.90 L 110.50 52.60 L 109.50 51.40 L 108.20 51.10 L 106.40 51.90 L 105.70 53.60 Z" fill="#302c4b" fill-opacity="0.1" fill-rule="nonzero" group-id="1,17" node-id="202" stroke="none" target-height="17.800003" target-width="12.200005" target-x="105.7" target-y="51.1"></path></g><path d="M 93.80 221.90 L 88.50 238.50 L 84.40 249.60 L 82.90 250.40 L 80.70 250.80 L 72.50 251.10 L 55.40 250.10 L 43.30 248.50 L 32.70 246.20 L 28.70 244.90 L 24.50 242.80 L 23.10 241.10 L 22.80 238.00 L 23.80 231.10 L 26.20 221.90 Z" fill="#4c4c4c" fill-rule="nonzero" group-id="1" node-id="205" stroke="none" target-height="29.200012" target-width="71" target-x="22.8" target-y="221.9"></path><path d="M 106.90 203.70 L 106.90 214.40 L 96.40 213.30 L 93.80 221.90 L 26.20 221.90 L 32.10 203.60 L 38.50 186.10 Z" fill="#84594e" fill-rule="nonzero" group-id="1" node-id="207" stroke="none" target-height="35.799988" target-width="80.7" target-x="26.2" target-y="186.1"></path><path d="M 106.90 128.60 L 106.90 203.60 L 38.50 186.10 L 52.20 149.10 L 51.70 144.20 L 49.50 136.40 L 41.10 112.00 L 41.50 110.70 L 43.10 108.60 L 46.50 106.50 L 51.00 105.30 L 55.70 105.40 L 58.00 105.90 L 60.00 106.80 L 63.60 109.60 L 67.10 111.70 L 76.10 116.00 L 86.50 120.60 L 106.90 128.60 Z" fill="#3a64af" fill-rule="nonzero" group-id="1" node-id="209" stroke="none" target-height="98.3" target-width="68.4" target-x="38.5" target-y="105.3"></path><path d="M 106.90 129.30 L 106.90 180.10 L 94.90 180.10 L 88.70 158.00 L 43.10 108.70 L 46.50 106.50 L 51.00 105.30 L 55.70 105.40 L 57.90 105.90 L 59.90 106.90 L 63.60 109.70 L 67.10 111.80 L 76.10 116.30 L 86.50 121.00 L 106.90 129.30 Z" fill="#fdb617" fill-rule="nonzero" group-id="1" node-id="211" stroke="none" target-height="74.8" target-width="63.800003" target-x="43.1" target-y="105.3"></path><path d="M 98.50 175.00 L 95.10 177.70 L 46.70 127.50 L 43.70 119.20 L 44.20 118.80 Z" fill="#fdb617" fill-rule="nonzero" group-id="1" node-id="213" stroke="none" target-height="58.899994" target-width="54.8" target-x="43.7" target-y="118.8"></path><path d="M 84.40 195.30 L 77.40 175.20 L 51.00 152.90 L 52.00 149.90 L 80.30 173.60 L 87.50 194.50 L 84.40 195.30 Z" fill="#1b4fa2" fill-rule="nonzero" group-id="1" node-id="215" stroke="none" target-height="45.40001" target-width="36.5" target-x="51" target-y="149.9"></path><path d="M 53.60 184.30 L 49.20 171.70 L 45.20 168.30 L 46.50 165.30 L 52.00 170.10 L 57.30 185.20 L 53.60 184.30 Z" fill="#1b4fa2" fill-rule="nonzero" group-id="1" node-id="217" stroke="none" target-height="19.899994" target-width="12.099998" target-x="45.2" target-y="165.3"></path><path d="M 106.90 197.60 L 106.90 205.60 L 37.80 187.90 L 40.50 180.50 Z" fill="#e9982b" fill-rule="nonzero" group-id="1" node-id="219" stroke="none" target-height="25.100006" target-width="69.100006" target-x="37.8" target-y="180.5"></path><path d="M 106.90 199.50 L 106.90 203.70 L 38.50 186.10 L 39.90 182.30 Z" fill="#374457" fill-rule="nonzero" group-id="1" node-id="221" stroke="none" target-height="21.399994" target-width="68.4" target-x="38.5" target-y="182.3"></path><path d="M 94.80 218.60 L 93.80 221.90 L 26.20 221.90 L 27.20 218.60 Z" fill="#4c4c4c" fill-rule="nonzero" group-id="1" node-id="223" stroke="none" target-height="3.2999878" target-width="68.600006" target-x="26.2" target-y="218.6"></path><path d="M 58.40 217.40 L 56.50 217.00 L 62.20 194.20 L 64.00 194.50 L 58.40 217.40 Z" fill="#7c3d33" fill-rule="nonzero" group-id="1" node-id="225" stroke="none" target-height="23.199997" target-width="7.5" target-x="56.5" target-y="194.2"></path><path d="M 62.90 218.30 L 61.00 217.90 L 66.60 195.30 L 68.50 195.70 L 62.90 218.30 Z" fill="#7c3d33" fill-rule="nonzero" group-id="1" node-id="227" stroke="none" target-height="23" target-width="7.5" target-x="61" target-y="195.3"></path><path d="M 48.30 213.30 L 52.80 229.60 L 67.20 230.50 L 71.60 214.60 L 65.50 214.20 L 64.20 216.40 L 63.10 217.40 L 61.30 218.20 L 60.10 218.20 L 56.80 216.70 L 53.60 213.60 Z" fill="#fdb617" fill-rule="nonzero" group-id="1" node-id="229" stroke="none" target-height="17.199997" target-width="23.3" target-x="48.3" target-y="213.3"></path><path d="M 60.60 227.40 L 47.80 221.00 L 48.70 219.50 L 60.60 225.40 L 71.90 219.50 L 72.80 221.00 L 60.60 227.40 Z" fill="#4c4c4c" fill-rule="nonzero" group-id="1" node-id="231" stroke="none" target-height="7.899994" target-width="25.000004" target-x="47.8" target-y="219.5"></path><path d="M 96.20 125.00 L 104.00 157.80 L 106.90 157.80 L 106.90 129.30 L 96.20 125.00 Z" fill="#f9a01a" fill-rule="nonzero" group-id="1" node-id="233" stroke="none" target-height="32.800003" target-width="10.700005" target-x="96.2" target-y="125"></path><path d="M 118.90 221.90 L 124.20 238.50 L 128.30 249.60 L 129.90 250.40 L 132.00 250.80 L 140.30 251.10 L 157.30 250.10 L 169.40 248.50 L 180.10 246.20 L 184.10 244.90 L 188.20 242.80 L 189.60 241.10 L 189.90 238.00 L 188.90 231.10 L 186.50 221.90 Z" fill="#4c4c4c" fill-rule="nonzero" group-id="1" node-id="235" stroke="none" target-height="29.200012" target-width="70.99999" target-x="118.9" target-y="221.9"></path><path d="M 105.80 203.70 L 105.80 214.40 L 116.30 213.30 L 118.90 221.90 L 186.50 221.90 L 180.60 203.60 L 174.20 186.10 Z" fill="#84594e" fill-rule="nonzero" group-id="1" node-id="237" stroke="none" target-height="35.799988" target-width="80.7" target-x="105.8" target-y="186.1"></path><path d="M 105.80 128.60 L 105.80 203.60 L 174.30 186.10 L 160.50 149.10 L 161.10 144.20 L 163.20 136.40 L 171.60 112.00 L 170.60 109.60 L 169.60 108.60 L 166.20 106.50 L 161.70 105.30 L 157.00 105.30 L 154.80 105.90 L 152.80 106.80 L 149.10 109.60 L 145.60 111.70 L 136.60 116.00 L 126.20 120.60 L 105.80 128.60 Z" fill="#3a64af" fill-rule="nonzero" group-id="1" node-id="239" stroke="none" target-height="98.3" target-width="68.5" target-x="105.8" target-y="105.3"></path><path d="M 105.80 129.30 L 105.80 180.10 L 117.80 180.10 L 124.00 158.00 L 169.70 108.70 L 166.30 106.50 L 161.70 105.30 L 157.10 105.30 L 154.80 105.90 L 152.80 106.80 L 149.10 109.70 L 145.60 111.80 L 136.60 116.30 L 126.20 121.00 L 105.80 129.30 Z" fill="#fdb617" fill-rule="nonzero" group-id="1" node-id="241" stroke="none" target-height="74.8" target-width="63.899994" target-x="105.8" target-y="105.3"></path><path d="M 114.30 175.00 L 117.70 177.70 L 166.10 127.50 L 169.00 119.20 L 168.50 118.80 Z" fill="#fdb617" fill-rule="nonzero" group-id="1" node-id="243" stroke="none" target-height="58.899994" target-width="54.699997" target-x="114.3" target-y="118.8"></path><path d="M 128.30 195.30 L 135.30 175.20 L 161.70 152.90 L 160.70 149.90 L 132.50 173.60 L 125.30 194.50 L 128.30 195.30 Z" fill="#1b4fa2" fill-rule="nonzero" group-id="1" node-id="245" stroke="none" target-height="45.40001" target-width="36.399994" target-x="125.3" target-y="149.9"></path><path d="M 159.10 184.30 L 163.50 171.70 L 167.50 168.30 L 166.20 165.30 L 160.70 170.10 L 155.40 185.20 L 159.10 184.30 Z" fill="#1b4fa2" fill-rule="nonzero" group-id="1" node-id="247" stroke="none" target-height="19.899994" target-width="12.100006" target-x="155.4" target-y="165.3"></path><path d="M 105.80 197.60 L 105.80 205.60 L 174.90 187.80 L 172.20 180.50 Z" fill="#e9982b" fill-rule="nonzero" group-id="1" node-id="249" stroke="none" target-height="25.100006" target-width="69.09999" target-x="105.8" target-y="180.5"></path><path d="M 105.80 199.50 L 105.80 203.70 L 174.30 186.10 L 172.80 182.30 Z" fill="#374457" fill-rule="nonzero" group-id="1" node-id="251" stroke="none" target-height="21.399994" target-width="68.5" target-x="105.8" target-y="182.3"></path><path d="M 117.90 218.60 L 118.90 221.90 L 186.50 221.90 L 185.50 218.60 Z" fill="#4c4c4c" fill-rule="nonzero" group-id="1" node-id="253" stroke="none" target-height="3.2999878" target-width="68.6" target-x="117.9" target-y="218.6"></path><path d="M 154.30 217.40 L 156.20 217.00 L 150.60 194.20 L 148.70 194.50 L 154.30 217.40 Z" fill="#7c3d33" fill-rule="nonzero" group-id="1" node-id="255" stroke="none" target-height="23.199997" target-width="7.5" target-x="148.7" target-y="194.2"></path><path d="M 149.80 218.30 L 151.70 217.90 L 146.10 195.30 L 144.20 195.70 L 149.80 218.30 Z" fill="#7c3d33" fill-rule="nonzero" group-id="1" node-id="257" stroke="none" target-height="23" target-width="7.5" target-x="144.2" target-y="195.3"></path><path d="M 164.40 213.30 L 160.00 229.60 L 145.50 230.50 L 141.10 214.60 L 147.30 214.20 L 148.60 216.40 L 149.70 217.40 L 151.50 218.20 L 152.70 218.20 L 155.90 216.70 L 159.20 213.60 Z" fill="#fdb617" fill-rule="nonzero" group-id="1" node-id="259" stroke="none" target-height="17.199997" target-width="23.299988" target-x="141.1" target-y="213.3"></path><path d="M 152.10 227.40 L 164.90 221.00 L 164.00 219.50 L 152.10 225.40 L 140.90 219.50 L 139.90 221.00 L 152.10 227.40 Z" fill="#4c4c4c" fill-rule="nonzero" group-id="1" node-id="261" stroke="none" target-height="7.899994" target-width="25" target-x="139.9" target-y="219.5"></path><path d="M 116.50 125.00 L 108.80 157.80 L 105.80 157.80 L 105.80 129.30 L 116.50 125.00 Z" fill="#f9a01a" fill-rule="nonzero" group-id="1" node-id="263" stroke="none" target-height="32.800003" target-width="10.699997" target-x="105.8" target-y="125"></path><path d="M 176.50 111.30 L 170.60 112.10 L 168.40 111.20 L 166.80 109.30 L 164.50 96.60 L 163.10 86.50 L 163.30 85.30 L 164.80 83.20 L 167.10 82.20 L 172.90 81.40 L 175.20 82.30 L 176.80 84.20 L 180.60 107.00 L 179.70 109.40 L 178.80 110.30 L 176.50 111.30 Z" fill="#fdba15" fill-rule="nonzero" group-id="1" node-id="265" stroke="none" target-height="30.699997" target-width="17.5" target-x="163.1" target-y="81.4"></path><path d="M 160.50 113.80 L 154.70 114.50 L 152.40 113.70 L 150.80 111.80 L 147.00 88.90 L 147.30 87.70 L 148.70 85.70 L 151.10 84.60 L 156.90 83.90 L 159.20 84.70 L 160.70 86.60 L 164.50 109.50 L 164.20 110.70 L 162.80 112.70 L 160.50 113.80 Z" fill="#fdba15" fill-rule="nonzero" group-id="1" node-id="267" stroke="none" target-height="30.599998" target-width="17.5" target-x="147" target-y="83.9"></path><path d="M 145.10 119.20 L 139.30 120.00 L 137.00 119.10 L 135.40 117.20 L 131.70 94.30 L 131.90 93.10 L 133.40 91.10 L 135.70 90.10 L 141.50 89.30 L 143.80 90.20 L 145.40 92.10 L 149.20 114.80 L 148.30 117.20 L 146.40 118.80 L 145.10 119.20 Z" fill="#fdba15" fill-rule="nonzero" group-id="1" node-id="269" stroke="none" target-height="30.699997" target-width="17.5" target-x="131.7" target-y="89.3"></path><path d="M 204.80 153.90 L 202.70 158.70 L 198.50 166.20 L 196.40 169.10 L 193.00 172.70 L 189.60 175.40 L 186.30 177.50 L 182.60 179.00 L 179.00 180.10 L 175.30 180.60 L 168.00 180.40 L 164.50 179.80 L 159.30 178.50 L 150.10 174.60 L 146.40 172.60 L 138.80 167.70 L 134.50 110.70 L 139.40 107.10 L 142.40 105.70 L 147.10 104.10 L 152.10 102.80 L 162.30 101.50 L 171.50 101.30 L 180.60 101.70 L 203.00 150.00 Z" fill="#fdb617" fill-rule="nonzero" group-id="1" node-id="271" stroke="none" target-height="79.3" target-width="70.3" target-x="134.5" target-y="101.3"></path><path d="M 203.00 150.00 L 200.60 154.80 L 197.90 159.10 L 194.90 163.10 L 192.30 165.90 L 189.50 168.30 L 183.30 172.10 L 179.90 173.50 L 176.30 174.40 L 172.40 174.90 L 168.10 174.90 L 162.90 174.30 L 157.70 173.10 L 152.70 171.50 L 147.70 169.30 L 138.50 164.10 L 138.20 160.10 L 138.70 160.10 L 147.60 165.30 L 152.10 167.40 L 156.70 169.10 L 161.40 170.40 L 169.40 171.40 L 172.60 171.30 L 178.80 170.10 L 184.60 167.60 L 188.20 165.10 L 191.30 162.20 L 194.10 158.80 L 196.50 155.20 L 200.30 147.40 L 201.30 146.40 Z" fill="#f9a01a" fill-rule="nonzero" group-id="1" node-id="273" stroke="none" target-height="28.5" target-width="64.8" target-x="138.2" target-y="146.4"></path><path d="M 190.90 140.70 L 180.70 146.60 L 175.90 142.80 L 160.30 145.50 L 158.30 151.20 L 137.50 150.60 L 137.40 149.20 L 157.30 149.70 L 159.30 144.20 L 176.30 141.20 L 180.90 144.80 L 189.30 140.00 L 187.80 130.90 L 187.60 127.90 L 188.20 122.20 L 189.10 120.00 L 189.90 121.60 L 189.30 124.00 L 189.10 130.00 L 190.80 140.10 Z" fill="#e18d25" fill-rule="nonzero" group-id="1" node-id="275" stroke="none" target-height="31.199997" target-width="53.5" target-x="137.4" target-y="120"></path><path d="M 138.30 162.40 L 148.30 165.40 L 150.20 165.40 L 150.20 155.90 L 137.60 155.90 Z" fill="#fba819" fill-rule="nonzero" group-id="1" node-id="277" stroke="none" target-height="9.5" target-width="12.599991" target-x="137.6" target-y="155.9"></path><path d="M 201.70 146.60 L 198.10 151.60 L 194.30 155.90 L 193.90 156.00 L 188.30 148.30 L 198.50 140.90 Z" fill="#fba819" fill-rule="nonzero" group-id="1" node-id="279" stroke="none" target-height="15.100006" target-width="13.399994" target-x="188.3" target-y="140.9"></path><path d="M 196.70 144.90 L 191.90 146.50 L 187.40 148.70 L 181.50 152.40 L 180.00 152.70 L 178.50 152.50 L 177.20 151.90 L 174.90 149.60 L 164.10 151.60 L 163.00 154.60 L 162.10 155.80 L 160.70 156.60 L 158.80 157.00 L 145.30 156.60 L 137.90 155.90 L 137.60 152.20 L 147.00 153.10 L 158.50 153.50 L 159.50 153.20 L 159.90 152.80 L 161.10 149.30 L 162.30 148.30 L 175.90 145.80 L 176.90 146.20 L 178.80 148.60 L 180.20 148.80 L 186.50 145.00 L 193.70 142.10 L 191.50 136.40 L 190.70 133.40 L 190.40 130.30 L 190.50 127.30 L 191.20 124.60 L 193.90 130.40 L 194.40 133.60 L 195.30 136.70 L 198.00 143.00 L 197.40 144.50 L 196.70 144.90 Z" fill="#f9a01a" fill-rule="nonzero" group-id="1" node-id="281" stroke="none" target-height="32.4" target-width="60.399994" target-x="137.6" target-y="124.6"></path><g node-id="393"><path d="M 137.60 120.10 L 140.50 119.90 L 140.80 120.20 L 142.00 138.40 L 141.70 138.70 L 138.70 138.90 L 138.40 138.70 L 137.30 120.40 L 137.60 120.10 Z" fill="#fed10e" fill-rule="nonzero" group-id="1,18" node-id="285" stroke="none" target-height="18.999992" target-width="4.699997" target-x="137.3" target-y="119.9"></path></g><g node-id="394"><path d="M 138.80 140.10 L 141.80 139.90 L 142.10 140.20 L 142.30 144.70 L 142.10 145.00 L 139.10 145.20 L 138.80 144.90 L 138.50 140.40 L 138.80 140.10 Z" fill="#fed10e" fill-rule="nonzero" group-id="1,19" node-id="290" stroke="none" target-height="5.300003" target-width="3.800003" target-x="138.5" target-y="139.9"></path></g><g node-id="395"><path d="M 173.80 127.50 L 174.00 130.20 L 173.60 132.80 L 172.60 135.10 L 171.20 136.90 L 168.80 138.60 L 165.80 139.00 L 162.90 138.20 L 161.00 136.90 L 159.40 135.10 L 158.20 132.80 L 157.50 130.10 L 157.30 127.30 L 157.70 124.80 L 158.70 122.50 L 160.10 120.60 L 162.50 119.00 L 164.00 118.60 L 167.00 118.70 L 168.40 119.30 L 170.30 120.60 L 171.90 122.50 L 173.10 124.80 L 173.80 127.50 Z" fill="#fed214" fill-rule="nonzero" group-id="1,20" node-id="295" stroke="none" target-height="20.400002" target-width="16.699997" target-x="157.3" target-y="118.6"></path></g><g node-id="396"><path d="M 149.70 112.30 L 149.70 113.70 L 149.20 114.90 L 148.40 115.80 L 147.40 116.30 L 146.30 116.20 L 145.20 115.60 L 144.40 114.60 L 144.00 113.20 L 144.00 111.80 L 144.40 110.60 L 145.20 109.70 L 146.20 109.20 L 147.40 109.30 L 148.40 109.90 L 149.20 111.00 L 149.70 112.30 Z" fill="#f6893f" fill-rule="nonzero" group-id="1,21" node-id="300" stroke="none" target-height="7.100006" target-width="5.699997" target-x="144" target-y="109.2"></path></g><g node-id="397"><path d="M 166.50 108.00 L 166.50 109.40 L 166.00 110.60 L 165.20 111.50 L 164.20 112.00 L 163.10 111.90 L 162.00 111.30 L 161.20 110.20 L 160.80 108.90 L 160.80 107.50 L 161.20 106.30 L 162.00 105.30 L 163.00 104.90 L 164.20 105.00 L 165.20 105.60 L 166.00 106.60 L 166.50 108.00 Z" fill="#30b5e9" fill-rule="nonzero" group-id="1,22" node-id="305" stroke="none" target-height="7.0999985" target-width="5.699997" target-x="160.8" target-y="104.9"></path></g><g node-id="398"><path d="M 175.30 107.00 L 175.30 108.40 L 174.90 109.60 L 174.00 110.60 L 173.00 111.00 L 171.90 110.90 L 170.80 110.30 L 170.00 109.30 L 169.60 107.90 L 169.60 106.50 L 170.00 105.30 L 170.80 104.40 L 171.90 103.90 L 173.00 104.00 L 174.00 104.60 L 174.80 105.70 L 175.30 107.00 Z" fill="#8c72b3" fill-rule="nonzero" group-id="1,23" node-id="310" stroke="none" target-height="7.0999985" target-width="5.699997" target-x="169.6" target-y="103.9"></path></g><g node-id="399"><path d="M 157.60 109.60 L 157.60 111.00 L 157.10 112.30 L 156.30 113.20 L 155.30 113.60 L 154.20 113.50 L 153.10 112.90 L 152.30 111.90 L 151.90 110.60 L 151.90 109.20 L 152.30 107.90 L 153.10 107.00 L 154.10 106.60 L 155.30 106.60 L 156.30 107.30 L 157.10 108.30 L 157.60 109.60 Z" fill="#f1625c" fill-rule="nonzero" group-id="1,24" node-id="315" stroke="none" target-height="7" target-width="5.700012" target-x="151.9" target-y="106.6"></path></g><g node-id="400"><path d="M 170.40 127.00 L 170.20 130.20 L 168.80 132.70 L 167.70 133.50 L 166.50 133.90 L 163.90 133.50 L 161.80 131.60 L 161.10 130.30 L 160.60 128.70 L 160.80 125.50 L 162.20 123.00 L 163.20 122.20 L 164.50 121.80 L 167.00 122.20 L 169.20 124.10 L 170.40 127.00 Z" fill="#fee33a" fill-rule="nonzero" group-id="1,25" node-id="320" stroke="none" target-height="12.099991" target-width="9.799988" target-x="160.6" target-y="121.8"></path></g><g node-id="401"><path d="M 165.10 125.90 L 165.00 126.60 L 164.30 127.70 L 163.10 127.70 L 162.30 126.80 L 162.20 125.40 L 162.90 124.30 L 164.10 124.30 L 164.90 125.20 L 165.10 125.90 Z" fill="#fef3a0" fill-rule="nonzero" group-id="1,26" node-id="325" stroke="none" target-height="3.399994" target-width="2.9000092" target-x="162.2" target-y="124.3"></path></g><g node-id="402"><path d="M 172.40 106.20 L 172.30 107.00 L 171.70 107.50 L 171.00 107.20 L 170.60 106.50 L 170.70 105.60 L 171.30 105.20 L 172.00 105.40 L 172.40 106.20 Z" fill="#9c87bf" fill-rule="nonzero" group-id="1,27" node-id="330" stroke="none" target-height="2.300003" target-width="1.7999878" target-x="170.6" target-y="105.2"></path></g><g node-id="403"><path d="M 163.40 107.30 L 163.10 108.40 L 162.00 108.40 L 161.60 107.60 L 162.00 106.50 L 162.70 106.30 L 163.40 107.30 Z" fill="#5ecbf2" fill-rule="nonzero" group-id="1,28" node-id="335" stroke="none" target-height="2.0999985" target-width="1.7999878" target-x="161.6" target-y="106.3"></path></g><g node-id="404"><path d="M 154.70 109.00 L 154.30 110.20 L 153.30 110.10 L 152.90 109.30 L 153.30 108.20 L 154.00 108.10 L 154.70 109.00 Z" fill="#f37771" fill-rule="nonzero" group-id="1,29" node-id="340" stroke="none" target-height="2.0999985" target-width="1.800003" target-x="152.9" target-y="108.1"></path></g><g node-id="405"><path d="M 146.80 111.80 L 146.40 112.90 L 145.40 112.80 L 145.00 112.10 L 145.40 110.90 L 146.10 110.80 L 146.80 111.80 Z" fill="#fbba8d" fill-rule="nonzero" group-id="1,30" node-id="345" stroke="none" target-height="2.0999985" target-width="1.800003" target-x="145" target-y="110.8"></path></g><g node-id="406"><path d="M 132.50 100.50 L 146.60 98.10 L 147.00 100.50 L 132.90 102.90 Z" fill="#f9a01a" fill-rule="nonzero" group-id="1,31" node-id="350" stroke="none" target-height="4.800003" target-width="14.5" target-x="132.5" target-y="98.1"></path></g><path d="M 162.60 96.70 L 148.50 99.00 L 148.10 96.60 L 162.20 94.30 L 162.60 96.70 Z" fill="#f9a01a" fill-rule="nonzero" group-id="1" node-id="353" stroke="none" target-height="4.699997" target-width="14.5" target-x="148.1" target-y="94.3"></path><g node-id="407"><path d="M 164.10 94.20 L 178.20 91.80 L 178.60 94.20 L 164.50 96.60 Z" fill="#f9a01a" fill-rule="nonzero" group-id="1,32" node-id="357" stroke="none" target-height="4.7999954" target-width="14.5" target-x="164.1" target-y="91.8"></path></g><path d="M 188.60 124.40 L 183.00 122.70 L 181.20 121.00 L 180.60 118.60 L 185.90 97.40 L 187.20 95.20 L 189.30 94.00 L 190.50 93.80 L 197.40 95.70 L 199.10 97.40 L 199.80 99.70 L 197.50 109.60 L 194.00 122.10 L 193.30 123.10 L 191.10 124.40 L 188.60 124.40 Z" fill="#fdba15" fill-rule="nonzero" group-id="1" node-id="360" stroke="none" target-height="30.599998" target-width="19.199997" target-x="180.6" target-y="93.8"></path><g node-id="408"><path d="M 183.60 106.00 L 184.30 103.70 L 198.10 107.30 L 197.50 109.60 Z" fill="#f9a01a" fill-rule="nonzero" group-id="1,33" node-id="364" stroke="none" target-height="5.9000015" target-width="14.5" target-x="183.6" target-y="103.7"></path></g><g node-id="409"><path d="M 195.60 109.20 L 196.70 109.70 L 197.40 110.60 L 197.80 111.80 L 197.80 113.20 L 197.30 114.60 L 196.50 115.60 L 195.50 116.20 L 194.30 116.20 L 193.30 115.80 L 192.50 114.80 L 192.10 113.60 L 192.20 112.20 L 192.60 110.80 L 193.40 109.90 L 194.50 109.30 L 195.60 109.20 Z" fill="#349968" fill-rule="nonzero" group-id="1,34" node-id="369" stroke="none" target-height="7" target-width="5.699997" target-x="192.1" target-y="109.2"></path></g><path d="M 194.70 110.20 L 195.30 110.60 L 195.40 111.50 L 195.00 112.20 L 194.30 112.50 L 193.70 112.00 L 193.60 111.20 L 194.00 110.40 L 194.70 110.20 Z" fill="#5bbe84" fill-rule="nonzero" group-id="1,35" node-id="374" stroke="none" target-height="2.300003" target-width="1.7999878" target-x="193.6" target-y="110.2"></path></g></svg>