<?xml version="1.0" standalone="no"?><!DOCTYPE svg PUBLIC "-//W3C//DTD SVG 1.1//EN" "http://www.w3.org/Graphics/SVG/1.1/DTD/svg11.dtd"><svg height="1024" node-id="1" sillyvg="true" template-height="1024" template-width="1024" version="1.1" viewBox="0 0 1024 1024" width="1024" xmlns="http://www.w3.org/2000/svg" xmlns:xlink="http://www.w3.org/1999/xlink"><defs node-id="92"><linearGradient gradientUnits="objectBoundingBox" id="linearGradient-10" node-id="29" spreadMethod="pad" x1="0.5" x2="0.5" y1="1" y2="-0.12231409"><stop offset="0" stop-color="#639bff"></stop><stop offset="1" stop-color="#e0eaff"></stop></linearGradient><linearGradient gradientUnits="objectBoundingBox" id="linearGradient-11" node-id="32" spreadMethod="pad" x1="0.5" x2="0.5" y1="1" y2="0"><stop offset="0" stop-color="#e0eaff"></stop><stop offset="1" stop-color="#639bff"></stop></linearGradient><linearGradient gradientUnits="objectBoundingBox" id="linearGradient-12" node-id="35" spreadMethod="pad" x1="0.5" x2="0.5" y1="1" y2="0"><stop offset="0" stop-color="#639bff"></stop><stop offset="1" stop-color="#e0eaff"></stop></linearGradient><linearGradient gradientUnits="objectBoundingBox" id="linearGradient-13" node-id="38" spreadMethod="pad" x1="0.5" x2="0.5" y1="1" y2="0"><stop offset="0" stop-color="#639bff"></stop><stop offset="1" stop-color="#e0eaff"></stop></linearGradient><linearGradient gradientUnits="objectBoundingBox" id="linearGradient-14" node-id="41" spreadMethod="pad" x1="0.5" x2="0.5" y1="1" y2="0"><stop offset="0" stop-color="#e0eaff"></stop><stop offset="1" stop-color="#639bff"></stop></linearGradient><linearGradient gradientUnits="objectBoundingBox" id="linearGradient-15" node-id="44" spreadMethod="pad" x1="0.5" x2="0.5" y1="0.0065832604" y2="1"><stop offset="0" stop-color="#ffffff" stop-opacity="0"></stop><stop offset="1" stop-color="#46eff8"></stop></linearGradient><linearGradient gradientUnits="objectBoundingBox" id="linearGradient-18" node-id="53" spreadMethod="pad" x1="0.5" x2="0.5" y1="0" y2="1"><stop offset="0" stop-color="#9cbcfa" stop-opacity="0"></stop><stop offset="1" stop-color="#92abff"></stop></linearGradient><filter height="1032.192" id="filter-2" node-id="6" width="1032.192" x="-4.096" y="-4.096"><feGaussianBlur color-interpolation-filters="linearRGB" in="SourceAlpha" result="shadowBlurInner1" stdDeviation="4 4"></feGaussianBlur><feOffset color-interpolation-filters="linearRGB" dx="0" dy="0" in="shadowBlurInner1" result="shadowOffsetInner1"></feOffset><feComposite color-interpolation-filters="linearRGB" in="shadowOffsetInner1" in2="SourceAlpha" k1="0" k2="-1" k3="1" k4="0" operator="arithmetic" result="shadowInnerInner1"></feComposite><feColorMatrix color-interpolation-filters="linearRGB" in="shadowInnerInner1" result="result4" type="matrix" values="0 0 0 0 0.5349466 0 0 0 0 0.7029659 0 0 0 0 1 0 0 0 0.5 0"></feColorMatrix></filter><filter height="897.9017" id="filter-5" node-id="12" width="897.9017" x="65.4385" y="65.4385"><feGaussianBlur color-interpolation-filters="linearRGB" in="SourceAlpha" result="shadowBlurInner1" stdDeviation="8 8"></feGaussianBlur><feOffset color-interpolation-filters="linearRGB" dx="0" dy="4" in="shadowBlurInner1" result="shadowOffsetInner1"></feOffset><feComposite color-interpolation-filters="linearRGB" in="shadowOffsetInner1" in2="SourceAlpha" k1="0" k2="-1" k3="1" k4="0" operator="arithmetic" result="shadowInnerInner1"></feComposite><feColorMatrix color-interpolation-filters="linearRGB" in="shadowInnerInner1" result="result4" type="matrix" values="0 0 0 0 0.5349466 0 0 0 0 0.7029659 0 0 0 0 1 0 0 0 0.60145324 0"></feColorMatrix></filter><filter height="424.7552" id="filter-7" node-id="18" width="737.55304" x="-7.9384384" y="-5.7344"><feMorphology color-interpolation-filters="linearRGB" in="SourceAlpha" operator="dilate" radius="0.5 0.5" result="shadowSpreadOuter1"></feMorphology><feOffset color-interpolation-filters="linearRGB" dx="0" dy="2" in="shadowSpreadOuter1" result="shadowOffsetOuter1"></feOffset><feGaussianBlur color-interpolation-filters="linearRGB" in="shadowOffsetOuter1" result="shadowBlurOuter1" stdDeviation="2 2"></feGaussianBlur><feComposite color-interpolation-filters="linearRGB" in="shadowBlurOuter1" in2="SourceAlpha" operator="out" result="shadowBlurOuter1"></feComposite><feColorMatrix color-interpolation-filters="linearRGB" in="shadowBlurOuter1" result="result5" type="matrix" values="0 0 0 0 0.7607843 0 0 0 0 0.85490197 0 0 0 0 0.99607843 0 0 0 0.4 0"></feColorMatrix></filter><filter height="328.15787" id="filter-9" node-id="25" width="573.7813" x="80.4942" y="12.529858"><feOffset color-interpolation-filters="linearRGB" dx="0" dy="2" in="SourceAlpha" result="shadowOffsetOuter1"></feOffset><feGaussianBlur color-interpolation-filters="linearRGB" in="shadowOffsetOuter1" result="shadowBlurOuter1" stdDeviation="2 2"></feGaussianBlur><feColorMatrix color-interpolation-filters="linearRGB" in="shadowBlurOuter1" result="result3" type="matrix" values="0 0 0 0 0.7607843 0 0 0 0 0.85490197 0 0 0 0 0.99607843 0 0 0 0.4 0"></feColorMatrix></filter><filter height="101.725395" id="filter-17" node-id="48" width="245.98318" x="153.64163" y="-4.543796"><feGaussianBlur color-interpolation-filters="linearRGB" in="SourceAlpha" result="shadowBlurInner1" stdDeviation="3 3"></feGaussianBlur><feOffset color-interpolation-filters="linearRGB" dx="0" dy="2" in="shadowBlurInner1" result="shadowOffsetInner1"></feOffset><feComposite color-interpolation-filters="linearRGB" in="shadowOffsetInner1" in2="SourceAlpha" k1="0" k2="-1" k3="1" k4="0" operator="arithmetic" result="shadowInnerInner1"></feComposite><feColorMatrix color-interpolation-filters="linearRGB" in="shadowInnerInner1" result="result4" type="matrix" values="0 0 0 0 0.5491917 0 0 0 0 0.96470946 0 0 0 0 0.9868376 0 0 0 1 0"></feColorMatrix></filter><mask height="491.52002" id="mask-4" maskUnits="userSpaceOnUse" node-id="61" width="866.0115" x="1129.3256" y="3635.2212"><path d="M 2004.10 3730.60 L 2003.90 3745.20 L 2003.10 3759.70 L 2002.00 3774.10 L 2000.30 3788.30 L 1998.20 3802.50 L 1995.60 3816.60 L 1992.60 3830.70 L 1989.10 3844.50 L 1985.10 3858.30 L 1980.80 3871.80 L 1976.00 3885.30 L 1970.70 3898.60 L 1965.00 3911.70 L 1958.90 3924.60 L 1952.40 3937.20 L 1945.50 3949.70 L 1938.20 3962.00 L 1930.40 3974.10 L 1922.20 3985.90 L 1913.70 3997.40 L 1904.80 4008.70 L 1895.50 4019.70 L 1885.70 4030.40 L 1875.60 4040.90 L 1865.10 4051.10 L 1854.30 4060.80 L 1843.30 4070.10 L 1832.10 4079.10 L 1820.50 4087.60 L 1808.70 4095.70 L 1796.60 4103.50 L 1784.40 4110.90 L 1771.90 4117.80 L 1759.20 4124.30 L 1746.30 4130.40 L 1733.20 4136.10 L 1719.90 4141.30 L 1706.50 4146.10 L 1692.90 4150.50 L 1679.20 4154.40 L 1665.30 4157.90 L 1651.30 4161.00 L 1637.20 4163.50 L 1623.00 4165.70 L 1608.70 4167.30 L 1594.30 4168.50 L 1579.90 4169.20 L 1565.30 4169.50 L 1550.70 4169.20 L 1536.20 4168.50 L 1521.80 4167.30 L 1507.50 4165.70 L 1493.30 4163.50 L 1479.20 4161.00 L 1465.20 4157.90 L 1451.30 4154.40 L 1437.60 4150.50 L 1424.00 4146.10 L 1410.60 4141.30 L 1397.30 4136.10 L 1384.20 4130.40 L 1371.30 4124.30 L 1358.60 4117.80 L 1346.10 4110.90 L 1333.90 4103.50 L 1321.80 4095.70 L 1310.00 4087.60 L 1298.50 4079.10 L 1287.20 4070.10 L 1276.20 4060.80 L 1265.40 4051.10 L 1254.90 4040.90 L 1244.80 4030.40 L 1235.10 4019.70 L 1225.70 4008.70 L 1216.80 3997.40 L 1208.30 3985.90 L 1200.10 3974.10 L 1192.40 3962.00 L 1185.00 3949.70 L 1178.10 3937.20 L 1171.60 3924.60 L 1165.50 3911.70 L 1159.80 3898.60 L 1154.60 3885.30 L 1149.70 3871.80 L 1145.40 3858.30 L 1141.40 3844.50 L 1138.00 3830.70 L 1134.90 3816.60 L 1132.30 3802.50 L 1130.20 3788.30 L 1128.60 3774.10 L 1127.40 3759.70 L 1126.60 3745.20 L 1126.40 3730.60 L 1126.60 3716.00 L 1127.40 3701.50 L 1128.60 3687.20 L 1130.20 3672.90 L 1132.30 3658.70 L 1134.90 3644.60 L 1138.00 3630.50 L 1141.40 3616.70 L 1145.40 3603.00 L 1149.70 3589.40 L 1154.60 3576.00 L 1159.80 3562.70 L 1165.50 3549.60 L 1171.60 3536.70 L 1178.10 3524.00 L 1185.00 3511.50 L 1192.40 3499.20 L 1200.10 3487.10 L 1208.30 3475.30 L 1216.80 3463.80 L 1225.70 3452.50 L 1235.10 3441.50 L 1244.80 3430.80 L 1254.90 3420.30 L 1265.40 3410.10 L 1276.20 3400.40 L 1287.20 3391.10 L 1298.50 3382.20 L 1310.00 3373.60 L 1321.80 3365.50 L 1333.90 3357.70 L 1346.10 3350.40 L 1358.60 3343.40 L 1371.30 3336.90 L 1384.20 3330.80 L 1397.30 3325.20 L 1410.60 3319.90 L 1424.00 3315.10 L 1437.60 3310.70 L 1451.30 3306.80 L 1465.20 3303.30 L 1479.20 3300.30 L 1493.30 3297.70 L 1507.50 3295.60 L 1521.80 3293.90 L 1536.20 3292.70 L 1550.70 3292.00 L 1565.30 3291.80 L 1579.90 3292.00 L 1594.30 3292.70 L 1608.70 3293.90 L 1623.00 3295.60 L 1637.20 3297.70 L 1651.30 3300.30 L 1665.30 3303.30 L 1679.20 3306.80 L 1692.90 3310.70 L 1706.50 3315.10 L 1719.90 3319.90 L 1733.20 3325.20 L 1746.30 3330.80 L 1759.20 3336.90 L 1771.90 3343.40 L 1784.40 3350.40 L 1796.60 3357.70 L 1808.70 3365.50 L 1820.50 3373.60 L 1832.10 3382.20 L 1843.30 3391.10 L 1854.30 3400.40 L 1865.10 3410.10 L 1875.60 3420.30 L 1885.70 3430.80 L 1895.50 3441.50 L 1904.80 3452.50 L 1913.70 3463.80 L 1922.20 3475.30 L 1930.40 3487.10 L 1938.20 3499.20 L 1945.50 3511.50 L 1952.40 3524.00 L 1958.90 3536.70 L 1965.00 3549.60 L 1970.70 3562.70 L 1976.00 3576.00 L 1980.80 3589.40 L 1985.10 3603.00 L 1989.10 3616.70 L 1992.60 3630.50 L 1995.60 3644.60 L 1998.20 3658.70 L 2000.30 3672.90 L 2002.00 3687.20 L 2003.10 3701.50 L 2003.90 3716.00 L 2004.10 3730.60 Z" fill="#ffffff" fill-rule="evenodd" node-id="189" stroke="none" target-height="877.69995" target-width="877.69995" target-x="1126.4" target-y="3291.8"></path></mask><mask height="609.67737" id="mask1" maskUnits="userSpaceOnUse" node-id="193" width="655.3601" x="2139.9297" y="1944.421"><path d="M 2903.50 2304.40 L 2903.30 2319.00 L 2902.50 2333.50 L 2901.40 2347.80 L 2899.70 2362.10 L 2897.60 2376.30 L 2895.00 2390.40 L 2892.00 2404.40 L 2888.50 2418.30 L 2884.50 2432.00 L 2880.20 2445.60 L 2875.40 2459.00 L 2870.10 2472.30 L 2864.40 2485.40 L 2858.30 2498.30 L 2851.80 2511.00 L 2844.90 2523.50 L 2837.60 2535.80 L 2829.80 2547.90 L 2821.60 2559.70 L 2813.10 2571.20 L 2804.20 2582.40 L 2794.80 2593.50 L 2785.10 2604.20 L 2775.00 2614.70 L 2764.50 2624.80 L 2753.70 2634.60 L 2742.70 2643.90 L 2731.50 2652.80 L 2719.90 2661.40 L 2708.10 2669.50 L 2696.00 2677.30 L 2683.80 2684.60 L 2671.30 2691.50 L 2658.60 2698.10 L 2645.70 2704.10 L 2632.60 2709.80 L 2619.30 2715.10 L 2605.90 2719.90 L 2592.30 2724.30 L 2578.60 2728.20 L 2564.70 2731.70 L 2550.70 2734.70 L 2536.60 2737.30 L 2522.40 2739.40 L 2508.10 2741.10 L 2493.70 2742.30 L 2479.30 2743.00 L 2464.70 2743.20 L 2450.10 2743.00 L 2435.60 2742.30 L 2421.20 2741.10 L 2406.90 2739.40 L 2392.70 2737.30 L 2378.60 2734.70 L 2364.60 2731.70 L 2350.70 2728.20 L 2337.00 2724.30 L 2323.40 2719.90 L 2310.00 2715.10 L 2296.70 2709.80 L 2283.60 2704.10 L 2270.70 2698.10 L 2258.00 2691.50 L 2245.50 2684.60 L 2233.30 2677.30 L 2221.20 2669.50 L 2209.40 2661.40 L 2197.80 2652.80 L 2186.60 2643.90 L 2175.60 2634.60 L 2164.80 2624.80 L 2154.30 2614.70 L 2144.20 2604.20 L 2134.50 2593.50 L 2125.10 2582.40 L 2116.20 2571.20 L 2107.70 2559.70 L 2099.50 2547.90 L 2091.80 2535.80 L 2084.40 2523.50 L 2077.50 2511.00 L 2071.00 2498.30 L 2064.90 2485.40 L 2059.20 2472.30 L 2054.00 2459.00 L 2049.10 2445.60 L 2044.80 2432.00 L 2040.80 2418.30 L 2037.40 2404.40 L 2034.30 2390.40 L 2031.70 2376.30 L 2029.60 2362.10 L 2028.00 2347.80 L 2026.80 2333.50 L 2026.00 2319.00 L 2025.80 2304.40 L 2026.00 2289.80 L 2026.80 2275.30 L 2028.00 2260.90 L 2029.60 2246.70 L 2031.70 2232.50 L 2034.30 2218.40 L 2037.40 2204.30 L 2040.80 2190.40 L 2044.80 2176.70 L 2049.10 2163.20 L 2054.00 2149.70 L 2059.20 2136.40 L 2064.90 2123.30 L 2071.00 2110.40 L 2077.50 2097.70 L 2084.40 2085.30 L 2091.80 2073.00 L 2099.50 2060.90 L 2107.70 2049.10 L 2116.20 2037.60 L 2125.10 2026.30 L 2134.50 2015.30 L 2144.20 2004.60 L 2154.30 1994.10 L 2164.80 1983.90 L 2175.60 1974.20 L 2186.60 1964.90 L 2197.80 1955.90 L 2209.40 1947.40 L 2221.20 1939.30 L 2233.30 1931.50 L 2245.50 1924.10 L 2258.00 1917.20 L 2270.70 1910.70 L 2283.60 1904.60 L 2296.70 1898.90 L 2310.00 1893.70 L 2323.40 1888.90 L 2337.00 1884.50 L 2350.70 1880.60 L 2364.60 1877.10 L 2378.60 1874.00 L 2392.70 1871.40 L 2406.90 1869.30 L 2421.20 1867.70 L 2435.60 1866.50 L 2450.10 1865.80 L 2464.70 1865.50 L 2479.30 1865.80 L 2493.70 1866.50 L 2508.10 1867.70 L 2522.40 1869.30 L 2536.60 1871.40 L 2550.70 1874.00 L 2564.70 1877.10 L 2578.60 1880.60 L 2592.30 1884.50 L 2605.90 1888.90 L 2619.30 1893.70 L 2632.60 1898.90 L 2645.70 1904.60 L 2658.60 1910.70 L 2671.30 1917.20 L 2683.80 1924.10 L 2696.00 1931.50 L 2708.10 1939.30 L 2719.90 1947.40 L 2731.50 1955.90 L 2742.70 1964.90 L 2753.70 1974.20 L 2764.50 1983.90 L 2775.00 1994.10 L 2785.10 2004.60 L 2794.80 2015.30 L 2804.20 2026.30 L 2813.10 2037.60 L 2821.60 2049.10 L 2829.80 2060.90 L 2837.60 2073.00 L 2844.90 2085.30 L 2851.80 2097.70 L 2858.30 2110.40 L 2864.40 2123.30 L 2870.10 2136.40 L 2875.40 2149.70 L 2880.20 2163.20 L 2884.50 2176.70 L 2888.50 2190.40 L 2892.00 2204.30 L 2895.00 2218.40 L 2897.60 2232.50 L 2899.70 2246.70 L 2901.40 2260.90 L 2902.50 2275.30 L 2903.30 2289.80 L 2903.50 2304.40 Z" fill="#ffffff" fill-rule="evenodd" node-id="197" stroke="none" target-height="877.69995" target-width="877.69995" target-x="2025.8" target-y="1865.5"></path></mask><mask height="475.1623" id="mask2" maskUnits="userSpaceOnUse" node-id="201" width="914.09436" x="49.39177" y="215.01465"><path d="M 921.70 627.40 L 917.70 641.40 L 913.30 655.20 L 908.40 668.80 L 903.10 682.20 L 897.40 695.30 L 891.20 708.30 L 884.70 721.00 L 877.70 733.50 L 870.30 745.80 L 862.60 757.80 L 854.50 769.50 L 846.00 781.00 L 837.10 792.20 L 827.90 803.00 L 818.30 813.60 L 808.40 823.90 L 798.10 833.80 L 787.50 843.50 L 776.60 852.80 L 765.30 861.70 L 753.80 870.30 L 741.90 878.50 L 729.80 886.40 L 717.20 893.90 L 704.50 900.90 L 691.60 907.60 L 678.50 913.70 L 665.30 919.40 L 652.00 924.70 L 638.50 929.50 L 624.80 933.90 L 611.00 937.80 L 597.20 941.30 L 583.30 944.30 L 569.20 946.80 L 555.10 948.90 L 540.90 950.50 L 526.70 951.70 L 512.40 952.40 L 498.20 952.70 L 483.90 952.40 L 469.50 951.70 L 455.20 950.60 L 441.00 949.00 L 426.80 946.90 L 412.60 944.30 L 398.40 941.20 L 384.20 937.70 L 370.20 933.70 L 356.40 929.20 L 342.80 924.40 L 329.50 919.10 L 316.30 913.40 L 303.30 907.20 L 290.60 900.60 L 278.10 893.70 L 265.80 886.30 L 253.90 878.60 L 242.10 870.50 L 230.70 862.00 L 219.50 853.10 L 208.60 843.90 L 198.00 834.30 L 187.80 824.40 L 177.80 814.10 L 168.10 803.50 L 158.80 792.50 L 149.90 781.30 L 141.30 769.80 L 133.10 757.90 L 125.30 745.70 L 117.80 733.20 L 110.70 720.50 L 104.10 707.60 L 97.90 694.50 L 92.20 681.30 L 86.90 668.00 L 82.10 654.50 L 77.70 640.80 L 73.80 627.00 L 70.40 613.20 L 67.40 599.30 L 64.80 585.20 L 62.70 571.10 L 61.10 556.90 L 59.90 542.70 L 59.20 528.40 L 59.00 514.20 L 59.20 499.90 L 59.90 485.50 L 61.00 471.20 L 62.60 457.00 L 64.70 442.70 L 67.30 428.60 L 70.40 414.40 L 73.90 400.20 L 77.90 386.20 L 82.40 372.40 L 87.20 358.80 L 92.50 345.40 L 98.20 332.30 L 104.40 319.30 L 111.00 306.60 L 117.90 294.10 L 125.30 281.80 L 133.00 269.80 L 141.10 258.10 L 149.60 246.60 L 158.50 235.40 L 167.80 224.60 L 177.30 214.00 L 187.20 203.70 L 197.50 193.80 L 208.10 184.10 L 219.10 174.80 L 230.30 165.90 L 241.80 157.30 L 253.70 149.10 L 265.90 141.30 L 278.40 133.70 L 291.20 126.70 L 304.10 120.00 L 317.10 113.90 L 330.30 108.20 L 343.60 102.90 L 357.10 98.10 L 370.80 93.70 L 384.60 89.80 L 398.40 86.30 L 412.40 83.30 L 426.40 80.80 L 440.50 78.70 L 454.70 77.10 L 468.90 75.90 L 483.20 75.20 L 497.40 74.90 L 511.80 75.20 L 526.10 75.90 L 540.40 77.00 L 554.70 78.60 L 568.90 80.70 L 583.10 83.30 L 597.20 86.40 L 611.40 89.90 L 625.40 93.90 L 639.20 98.40 L 652.80 103.20 L 666.20 108.50 L 679.30 114.20 L 692.30 120.40 L 705.10 127.00 L 717.60 133.90 L 729.80 141.30 L 741.80 149.00 L 753.50 157.10 L 765.00 165.60 L 776.20 174.50 L 787.00 183.70 L 797.60 193.30 L 807.90 203.20 L 817.80 213.50 L 827.50 224.10 L 836.80 235.10 L 845.70 246.30 L 854.30 257.80 L 862.50 269.70 L 870.40 281.90 L 877.90 294.40 L 885.00 307.10 L 891.60 320.00 L 897.70 333.10 L 903.40 346.30 L 908.70 359.60 L 913.50 373.10 L 917.90 386.80 L 921.80 400.60 L 925.30 414.40 L 928.30 428.40 L 930.80 442.40 L 932.90 456.50 L 934.60 470.70 L 935.70 484.90 L 936.40 499.20 L 936.70 513.40 L 936.40 527.70 L 935.80 542.10 L 934.60 556.40 L 933.00 570.60 L 930.90 584.90 L 928.30 599.10 L 925.30 613.20 L 921.70 627.40 Z" fill="#ffffff" fill-rule="evenodd" node-id="205" stroke="none" target-height="877.8" target-width="877.7" target-x="59" target-y="74.9"></path></mask></defs><g node-id="301"><g node-id="302"><g node-id="307"><path d="M 1024.00 512.00 L 1023.70 528.30 L 1023.00 544.50 L 1021.70 560.60 L 1019.90 576.70 L 1017.60 592.60 L 1014.80 608.40 L 1011.60 624.20 L 1007.80 639.70 L 1003.60 655.20 L 998.90 670.40 L 993.70 685.60 L 988.00 700.50 L 981.90 715.30 L 975.30 729.80 L 968.30 744.20 L 960.80 758.40 L 952.90 772.30 L 944.60 785.90 L 935.80 799.40 L 926.50 812.60 L 916.90 825.40 L 906.80 838.00 L 896.30 850.30 L 885.40 862.30 L 874.00 874.00 L 862.30 885.40 L 850.30 896.30 L 838.00 906.80 L 825.40 916.90 L 812.60 926.50 L 799.40 935.80 L 785.90 944.60 L 772.30 952.90 L 758.40 960.80 L 744.20 968.30 L 729.80 975.30 L 715.30 981.90 L 700.50 988.00 L 685.60 993.70 L 670.40 998.90 L 655.20 1003.60 L 639.70 1007.80 L 624.20 1011.60 L 608.40 1014.80 L 592.60 1017.60 L 576.70 1019.90 L 560.60 1021.70 L 544.50 1023.00 L 528.30 1023.70 L 512.00 1024.00 L 495.70 1023.70 L 479.50 1023.00 L 463.40 1021.70 L 447.30 1019.90 L 431.40 1017.60 L 415.60 1014.80 L 399.80 1011.60 L 384.30 1007.80 L 368.80 1003.60 L 353.60 998.90 L 338.40 993.70 L 323.50 988.00 L 308.70 981.90 L 294.20 975.30 L 279.80 968.30 L 265.60 960.80 L 251.70 952.90 L 238.10 944.60 L 224.60 935.80 L 211.40 926.50 L 198.60 916.90 L 186.00 906.80 L 173.70 896.30 L 161.70 885.40 L 150.00 874.00 L 138.60 862.30 L 127.70 850.30 L 117.20 838.00 L 107.10 825.40 L 97.50 812.60 L 88.20 799.40 L 79.40 785.90 L 71.10 772.30 L 63.20 758.40 L 55.70 744.20 L 48.70 729.80 L 42.10 715.30 L 36.00 700.50 L 30.30 685.60 L 25.10 670.40 L 20.40 655.20 L 16.20 639.70 L 12.40 624.20 L 9.20 608.40 L 6.40 592.60 L 4.10 576.70 L 2.30 560.60 L 1.00 544.50 L 0.30 528.30 L 0.00 512.00 L 0.30 495.70 L 1.00 479.50 L 2.30 463.40 L 4.10 447.30 L 6.40 431.40 L 9.20 415.60 L 12.40 399.80 L 16.20 384.30 L 20.40 368.80 L 25.10 353.60 L 30.30 338.40 L 36.00 323.50 L 42.10 308.70 L 48.70 294.20 L 55.70 279.80 L 63.20 265.60 L 71.10 251.70 L 79.40 238.10 L 88.20 224.60 L 97.50 211.40 L 107.10 198.60 L 117.20 186.00 L 127.70 173.70 L 138.60 161.70 L 150.00 150.00 L 161.70 138.60 L 173.70 127.70 L 186.00 117.20 L 198.60 107.10 L 211.40 97.50 L 224.60 88.20 L 238.10 79.40 L 251.70 71.10 L 265.60 63.20 L 279.80 55.70 L 294.20 48.70 L 308.70 42.10 L 323.50 36.00 L 338.40 30.30 L 353.60 25.10 L 368.80 20.40 L 384.30 16.20 L 399.80 12.40 L 415.60 9.20 L 431.40 6.40 L 447.30 4.10 L 463.40 2.30 L 479.50 1.00 L 495.70 0.30 L 512.00 0.00 L 528.30 0.30 L 544.50 1.00 L 560.60 2.30 L 576.70 4.10 L 592.60 6.40 L 608.40 9.20 L 624.20 12.40 L 639.70 16.20 L 655.20 20.40 L 670.40 25.10 L 685.60 30.30 L 700.50 36.00 L 715.30 42.10 L 729.80 48.70 L 744.20 55.70 L 758.40 63.20 L 772.30 71.10 L 785.90 79.40 L 799.40 88.20 L 812.60 97.50 L 825.40 107.10 L 838.00 117.20 L 850.30 127.70 L 862.30 138.60 L 874.00 150.00 L 885.40 161.70 L 896.30 173.70 L 906.80 186.00 L 916.90 198.60 L 926.50 211.40 L 935.80 224.60 L 944.60 238.10 L 952.90 251.70 L 960.80 265.60 L 968.30 279.80 L 975.30 294.20 L 981.90 308.70 L 988.00 323.50 L 993.70 338.40 L 998.90 353.60 L 1003.60 368.80 L 1007.80 384.30 L 1011.60 399.80 L 1014.80 415.60 L 1017.60 431.40 L 1019.90 447.30 L 1021.70 463.40 L 1023.00 479.50 L 1023.70 495.70 L 1024.00 512.00 Z" fill="#ffffff" fill-rule="evenodd" group-id="1,2,7" node-id="215" stroke="none" target-height="1024" target-width="1024" target-x="0" target-y="0"></path></g><path d="M 1024.00 512.00 L 1023.70 528.30 L 1023.00 544.50 L 1021.70 560.60 L 1019.90 576.70 L 1017.60 592.60 L 1014.80 608.40 L 1011.60 624.20 L 1007.80 639.70 L 1003.60 655.20 L 998.90 670.40 L 993.70 685.60 L 988.00 700.50 L 981.90 715.30 L 975.30 729.80 L 968.30 744.20 L 960.80 758.40 L 952.90 772.30 L 944.60 785.90 L 935.80 799.40 L 926.50 812.60 L 916.90 825.40 L 906.80 838.00 L 896.30 850.30 L 885.40 862.30 L 874.00 874.00 L 862.30 885.40 L 850.30 896.30 L 838.00 906.80 L 825.40 916.90 L 812.60 926.50 L 799.40 935.80 L 785.90 944.60 L 772.30 952.90 L 758.40 960.80 L 744.20 968.30 L 729.80 975.30 L 715.30 981.90 L 700.50 988.00 L 685.60 993.70 L 670.40 998.90 L 655.20 1003.60 L 639.70 1007.80 L 624.20 1011.60 L 608.40 1014.80 L 592.60 1017.60 L 576.70 1019.90 L 560.60 1021.70 L 544.50 1023.00 L 528.30 1023.70 L 512.00 1024.00 L 495.70 1023.70 L 479.50 1023.00 L 463.40 1021.70 L 447.30 1019.90 L 431.40 1017.60 L 415.60 1014.80 L 399.80 1011.60 L 384.30 1007.80 L 368.80 1003.60 L 353.60 998.90 L 338.40 993.70 L 323.50 988.00 L 308.70 981.90 L 294.20 975.30 L 279.80 968.30 L 265.60 960.80 L 251.70 952.90 L 238.10 944.60 L 224.60 935.80 L 211.40 926.50 L 198.60 916.90 L 186.00 906.80 L 173.70 896.30 L 161.70 885.40 L 150.00 874.00 L 138.60 862.30 L 127.70 850.30 L 117.20 838.00 L 107.10 825.40 L 97.50 812.60 L 88.20 799.40 L 79.40 785.90 L 71.10 772.30 L 63.20 758.40 L 55.70 744.20 L 48.70 729.80 L 42.10 715.30 L 36.00 700.50 L 30.30 685.60 L 25.10 670.40 L 20.40 655.20 L 16.20 639.70 L 12.40 624.20 L 9.20 608.40 L 6.40 592.60 L 4.10 576.70 L 2.30 560.60 L 1.00 544.50 L 0.30 528.30 L 0.00 512.00 L 0.30 495.70 L 1.00 479.50 L 2.30 463.40 L 4.10 447.30 L 6.40 431.40 L 9.20 415.60 L 12.40 399.80 L 16.20 384.30 L 20.40 368.80 L 25.10 353.60 L 30.30 338.40 L 36.00 323.50 L 42.10 308.70 L 48.70 294.20 L 55.70 279.80 L 63.20 265.60 L 71.10 251.70 L 79.40 238.10 L 88.20 224.60 L 97.50 211.40 L 107.10 198.60 L 117.20 186.00 L 127.70 173.70 L 138.60 161.70 L 150.00 150.00 L 161.70 138.60 L 173.70 127.70 L 186.00 117.20 L 198.60 107.10 L 211.40 97.50 L 224.60 88.20 L 238.10 79.40 L 251.70 71.10 L 265.60 63.20 L 279.80 55.70 L 294.20 48.70 L 308.70 42.10 L 323.50 36.00 L 338.40 30.30 L 353.60 25.10 L 368.80 20.40 L 384.30 16.20 L 399.80 12.40 L 415.60 9.20 L 431.40 6.40 L 447.30 4.10 L 463.40 2.30 L 479.50 1.00 L 495.70 0.30 L 512.00 0.00 L 528.30 0.30 L 544.50 1.00 L 560.60 2.30 L 576.70 4.10 L 592.60 6.40 L 608.40 9.20 L 624.20 12.40 L 639.70 16.20 L 655.20 20.40 L 670.40 25.10 L 685.60 30.30 L 700.50 36.00 L 715.30 42.10 L 729.80 48.70 L 744.20 55.70 L 758.40 63.20 L 772.30 71.10 L 785.90 79.40 L 799.40 88.20 L 812.60 97.50 L 825.40 107.10 L 838.00 117.20 L 850.30 127.70 L 862.30 138.60 L 874.00 150.00 L 885.40 161.70 L 896.30 173.70 L 906.80 186.00 L 916.90 198.60 L 926.50 211.40 L 935.80 224.60 L 944.60 238.10 L 952.90 251.70 L 960.80 265.60 L 968.30 279.80 L 975.30 294.20 L 981.90 308.70 L 988.00 323.50 L 993.70 338.40 L 998.90 353.60 L 1003.60 368.80 L 1007.80 384.30 L 1011.60 399.80 L 1014.80 415.60 L 1017.60 431.40 L 1019.90 447.30 L 1021.70 463.40 L 1023.00 479.50 L 1023.70 495.70 L 1024.00 512.00 Z" fill="#000000" fill-rule="evenodd" filter="url(#filter-2)" group-id="1,2,8" node-id="220" stroke="none" target-height="1024" target-width="1024" target-x="0" target-y="0"></path></g><g node-id="303"><g node-id="309"><path d="M 952.80 514.00 L 952.60 528.50 L 951.80 543.00 L 950.70 557.40 L 949.00 571.70 L 946.90 585.90 L 944.30 600.00 L 941.20 614.00 L 937.80 627.90 L 933.80 641.60 L 929.50 655.20 L 924.70 668.60 L 919.40 681.90 L 913.70 695.00 L 907.60 707.90 L 901.10 720.60 L 894.20 733.10 L 886.80 745.30 L 879.10 757.40 L 870.90 769.20 L 862.40 780.80 L 853.50 792.00 L 844.10 803.00 L 834.40 813.80 L 824.30 824.30 L 813.80 834.40 L 803.00 844.10 L 792.00 853.50 L 780.80 862.40 L 769.20 870.90 L 757.40 879.10 L 745.30 886.80 L 733.10 894.20 L 720.60 901.10 L 707.90 907.60 L 695.00 913.70 L 681.90 919.40 L 668.60 924.70 L 655.20 929.50 L 641.60 933.80 L 627.90 937.80 L 614.00 941.20 L 600.00 944.30 L 585.90 946.90 L 571.70 949.00 L 557.40 950.70 L 543.00 951.80 L 528.50 952.60 L 514.00 952.80 L 499.40 952.60 L 484.90 951.80 L 470.50 950.70 L 456.20 949.00 L 442.00 946.90 L 427.90 944.30 L 413.90 941.20 L 400.00 937.80 L 386.30 933.80 L 372.70 929.50 L 359.30 924.70 L 346.00 919.40 L 332.90 913.70 L 320.00 907.60 L 307.30 901.10 L 294.80 894.20 L 282.60 886.80 L 270.50 879.10 L 258.70 870.90 L 247.10 862.40 L 235.90 853.50 L 224.90 844.10 L 214.10 834.40 L 203.60 824.30 L 193.50 813.80 L 183.80 803.00 L 174.40 792.00 L 165.50 780.80 L 157.00 769.20 L 148.80 757.40 L 141.10 745.30 L 133.70 733.10 L 126.80 720.60 L 120.30 707.90 L 114.20 695.00 L 108.50 681.90 L 103.20 668.60 L 98.40 655.20 L 94.10 641.60 L 90.10 627.90 L 86.70 614.00 L 83.60 600.00 L 81.00 585.90 L 78.90 571.70 L 77.20 557.40 L 76.10 543.00 L 75.30 528.50 L 75.10 514.00 L 75.30 499.40 L 76.10 484.90 L 77.20 470.50 L 78.90 456.20 L 81.00 442.00 L 83.60 427.90 L 86.70 413.90 L 90.10 400.00 L 94.10 386.30 L 98.40 372.70 L 103.20 359.30 L 108.50 346.00 L 114.20 332.90 L 120.30 320.00 L 126.80 307.30 L 133.70 294.80 L 141.10 282.60 L 148.80 270.50 L 157.00 258.70 L 165.50 247.10 L 174.40 235.90 L 183.80 224.90 L 193.50 214.10 L 203.60 203.60 L 214.10 193.50 L 224.90 183.80 L 235.90 174.40 L 247.10 165.50 L 258.70 157.00 L 270.50 148.80 L 282.60 141.10 L 294.80 133.70 L 307.30 126.80 L 320.00 120.30 L 332.90 114.20 L 346.00 108.50 L 359.30 103.20 L 372.70 98.40 L 386.30 94.10 L 400.00 90.10 L 413.90 86.70 L 427.90 83.60 L 442.00 81.00 L 456.20 78.90 L 470.50 77.20 L 484.90 76.10 L 499.40 75.30 L 514.00 75.10 L 528.50 75.30 L 543.00 76.10 L 557.40 77.20 L 571.70 78.90 L 585.90 81.00 L 600.00 83.60 L 614.00 86.70 L 627.90 90.10 L 641.60 94.10 L 655.20 98.40 L 668.60 103.20 L 681.90 108.50 L 695.00 114.20 L 707.90 120.30 L 720.60 126.80 L 733.10 133.70 L 745.30 141.10 L 757.40 148.80 L 769.20 157.00 L 780.80 165.50 L 792.00 174.40 L 803.00 183.80 L 813.80 193.50 L 824.30 203.60 L 834.40 214.10 L 844.10 224.90 L 853.50 235.90 L 862.40 247.10 L 870.90 258.70 L 879.10 270.50 L 886.80 282.60 L 894.20 294.80 L 901.10 307.30 L 907.60 320.00 L 913.70 332.90 L 919.40 346.00 L 924.70 359.30 L 929.50 372.70 L 933.80 386.30 L 937.80 400.00 L 941.20 413.90 L 944.30 427.90 L 946.90 442.00 L 949.00 456.20 L 950.70 470.50 L 951.80 484.90 L 952.60 499.40 L 952.80 514.00 Z" fill="#316cd4" fill-rule="evenodd" group-id="1,3,9" node-id="227" stroke="none" target-height="877.7" target-width="877.7" target-x="75.1" target-y="75.1"></path></g><path d="M 952.80 514.00 L 952.60 528.50 L 951.80 543.00 L 950.70 557.40 L 949.00 571.70 L 946.90 585.90 L 944.30 600.00 L 941.20 614.00 L 937.80 627.90 L 933.80 641.60 L 929.50 655.20 L 924.70 668.60 L 919.40 681.90 L 913.70 695.00 L 907.60 707.90 L 901.10 720.60 L 894.20 733.10 L 886.80 745.30 L 879.10 757.40 L 870.90 769.20 L 862.40 780.80 L 853.50 792.00 L 844.10 803.00 L 834.40 813.80 L 824.30 824.30 L 813.80 834.40 L 803.00 844.10 L 792.00 853.50 L 780.80 862.40 L 769.20 870.90 L 757.40 879.10 L 745.30 886.80 L 733.10 894.20 L 720.60 901.10 L 707.90 907.60 L 695.00 913.70 L 681.90 919.40 L 668.60 924.70 L 655.20 929.50 L 641.60 933.80 L 627.90 937.80 L 614.00 941.20 L 600.00 944.30 L 585.90 946.90 L 571.70 949.00 L 557.40 950.70 L 543.00 951.80 L 528.50 952.60 L 514.00 952.80 L 499.40 952.60 L 484.90 951.80 L 470.50 950.70 L 456.20 949.00 L 442.00 946.90 L 427.90 944.30 L 413.90 941.20 L 400.00 937.80 L 386.30 933.80 L 372.70 929.50 L 359.30 924.70 L 346.00 919.40 L 332.90 913.70 L 320.00 907.60 L 307.30 901.10 L 294.80 894.20 L 282.60 886.80 L 270.50 879.10 L 258.70 870.90 L 247.10 862.40 L 235.90 853.50 L 224.90 844.10 L 214.10 834.40 L 203.60 824.30 L 193.50 813.80 L 183.80 803.00 L 174.40 792.00 L 165.50 780.80 L 157.00 769.20 L 148.80 757.40 L 141.10 745.30 L 133.70 733.10 L 126.80 720.60 L 120.30 707.90 L 114.20 695.00 L 108.50 681.90 L 103.20 668.60 L 98.40 655.20 L 94.10 641.60 L 90.10 627.90 L 86.70 614.00 L 83.60 600.00 L 81.00 585.90 L 78.90 571.70 L 77.20 557.40 L 76.10 543.00 L 75.30 528.50 L 75.10 514.00 L 75.30 499.40 L 76.10 484.90 L 77.20 470.50 L 78.90 456.20 L 81.00 442.00 L 83.60 427.90 L 86.70 413.90 L 90.10 400.00 L 94.10 386.30 L 98.40 372.70 L 103.20 359.30 L 108.50 346.00 L 114.20 332.90 L 120.30 320.00 L 126.80 307.30 L 133.70 294.80 L 141.10 282.60 L 148.80 270.50 L 157.00 258.70 L 165.50 247.10 L 174.40 235.90 L 183.80 224.90 L 193.50 214.10 L 203.60 203.60 L 214.10 193.50 L 224.90 183.80 L 235.90 174.40 L 247.10 165.50 L 258.70 157.00 L 270.50 148.80 L 282.60 141.10 L 294.80 133.70 L 307.30 126.80 L 320.00 120.30 L 332.90 114.20 L 346.00 108.50 L 359.30 103.20 L 372.70 98.40 L 386.30 94.10 L 400.00 90.10 L 413.90 86.70 L 427.90 83.60 L 442.00 81.00 L 456.20 78.90 L 470.50 77.20 L 484.90 76.10 L 499.40 75.30 L 514.00 75.10 L 528.50 75.30 L 543.00 76.10 L 557.40 77.20 L 571.70 78.90 L 585.90 81.00 L 600.00 83.60 L 614.00 86.70 L 627.90 90.10 L 641.60 94.10 L 655.20 98.40 L 668.60 103.20 L 681.90 108.50 L 695.00 114.20 L 707.90 120.30 L 720.60 126.80 L 733.10 133.70 L 745.30 141.10 L 757.40 148.80 L 769.20 157.00 L 780.80 165.50 L 792.00 174.40 L 803.00 183.80 L 813.80 193.50 L 824.30 203.60 L 834.40 214.10 L 844.10 224.90 L 853.50 235.90 L 862.40 247.10 L 870.90 258.70 L 879.10 270.50 L 886.80 282.60 L 894.20 294.80 L 901.10 307.30 L 907.60 320.00 L 913.70 332.90 L 919.40 346.00 L 924.70 359.30 L 929.50 372.70 L 933.80 386.30 L 937.80 400.00 L 941.20 413.90 L 944.30 427.90 L 946.90 442.00 L 949.00 456.20 L 950.70 470.50 L 951.80 484.90 L 952.60 499.40 L 952.80 514.00 Z" fill="#000000" fill-rule="evenodd" filter="url(#filter-5)" group-id="1,3,10" node-id="232" stroke="none" target-height="877.7" target-width="877.7" target-x="75.1" target-y="75.1"></path></g><g node-id="304"><g node-id="311"><g node-id="313"><g node-id="319"><path d="M 150.20 667.00 L 514.90 459.50 L 871.90 667.00 L 511.00 869.10 Z" fill="#000000" fill-rule="evenodd" filter="url(#filter-7)" group-id="1,4,11,13,19" node-id="242" stroke="none" target-height="409.59998" target-width="721.7" target-x="150.2" target-y="459.5"></path></g><path d="M 150.20 667.00 L 514.90 459.50 L 871.90 667.00 L 511.00 869.10 Z" fill="#ffffff" fill-rule="evenodd" group-id="1,4,11,13,20" node-id="247" stroke="#c2dafe" stroke-linecap="butt" stroke-width="1" target-height="409.59998" target-width="721.7" target-x="150.2" target-y="459.5"></path></g><g node-id="314"><g node-id="321"><path d="M 238.00 636.10 L 520.90 477.10 L 797.70 636.10 L 517.90 791.10 Z" fill="#000000" fill-rule="evenodd" filter="url(#filter-9)" group-id="1,4,11,14,21" node-id="255" stroke="none" target-height="313.99997" target-width="559.7" target-x="238" target-y="477.1"></path></g><path d="M 238.00 636.10 L 520.90 477.10 L 797.70 636.10 L 517.90 791.10 Z" fill="#c2dafe" fill-rule="evenodd" group-id="1,4,11,14,22" node-id="260" stroke="none" target-height="313.99997" target-width="559.7" target-x="238" target-y="477.1"></path></g></g></g><g node-id="305"><g node-id="312"><g node-id="315"><path d="M 516.90 399.60 L 790.00 513.80 L 790.00 553.50 L 789.40 555.50 L 788.00 557.00 L 518.90 712.30 L 516.90 712.90 L 514.90 712.30 L 245.80 557.00 L 244.40 555.50 L 243.80 553.50 L 243.80 513.80 L 516.90 399.60 Z" fill="url(#linearGradient-10)" fill-rule="evenodd" group-id="1,5,12,15" id="多边形" node-id="77" stroke="none" target-height="313.30002" target-width="546.2" target-x="243.8" target-y="399.6"></path><path d="M 518.90 358.00 L 783.90 509.60 L 785.10 510.60 L 785.80 512.00 L 785.90 513.50 L 785.40 515.00 L 783.90 516.50 L 518.90 669.50 L 517.90 669.90 L 515.90 669.90 L 249.90 516.50 L 248.70 515.40 L 248.00 514.10 L 247.90 512.60 L 248.40 511.00 L 249.90 509.60 L 514.90 358.00 L 516.90 357.40 L 518.90 358.00 Z" fill="url(#linearGradient-11)" fill-rule="evenodd" group-id="1,5,12,15" id="多边形备份" node-id="78" stroke="none" target-height="312.50003" target-width="538" target-x="247.9" target-y="357.4"></path><path d="M 518.90 407.90 L 697.00 509.80 L 698.20 510.90 L 698.90 512.20 L 699.00 513.70 L 698.50 515.30 L 697.10 516.70 L 518.90 619.60 L 517.90 620.00 L 515.90 620.00 L 336.80 516.70 L 335.60 515.70 L 334.90 514.30 L 334.80 512.80 L 335.30 511.30 L 336.80 509.80 L 514.90 407.90 L 516.90 407.40 L 518.90 407.90 Z" fill="url(#linearGradient-12)" fill-rule="evenodd" group-id="1,5,12,15" id="多边形备份" node-id="79" stroke="none" target-height="212.6" target-width="364.2" target-x="334.8" target-y="407.4"></path></g><g node-id="316"><path d="M 595.40 354.60 L 595.40 532.90 L 590.90 532.90 L 587.90 535.80 L 584.20 538.70 L 579.50 541.50 L 574.60 543.90 L 569.00 546.20 L 562.60 548.30 L 549.00 551.50 L 541.30 552.70 L 525.40 554.10 L 516.90 554.30 L 508.40 554.10 L 492.50 552.70 L 484.80 551.50 L 471.20 548.30 L 464.80 546.20 L 459.20 543.90 L 454.30 541.50 L 449.60 538.70 L 445.90 535.80 L 442.90 532.90 L 438.40 532.90 L 438.40 354.60 L 595.40 354.60 Z" fill="#46eff8" fill-opacity="0.5" fill-rule="evenodd" group-id="1,5,12,16" id="形状结合" node-id="80" stroke="none" target-height="199.69998" target-width="157.00003" target-x="438.4" target-y="354.6"></path></g><path d="M 705.20 385.40 L 705.20 326.20 L 704.40 325.90 L 700.30 326.00 L 696.20 326.70 L 656.80 336.30 L 650.20 337.30 L 649.20 338.10 L 648.60 339.50 L 643.80 355.90 L 642.80 357.70 L 642.20 358.30 L 604.30 364.00 L 594.50 361.70 L 584.50 359.70 L 578.80 344.70 L 578.00 343.40 L 576.70 342.20 L 572.60 339.90 L 566.80 338.30 L 561.90 337.60 L 556.30 337.30 L 484.60 337.30 L 479.00 337.60 L 474.10 338.30 L 469.50 339.50 L 466.10 340.90 L 464.20 342.10 L 462.90 343.40 L 462.10 344.60 L 456.70 359.70 L 437.00 364.00 L 398.80 358.10 L 399.00 356.10 L 400.80 351.10 L 408.10 333.40 L 408.30 332.20 L 408.00 331.50 L 401.50 330.70 L 347.80 320.50 L 337.50 319.10 L 333.90 319.00 L 332.60 319.30 L 335.70 385.40 L 334.10 387.70 L 332.50 394.00 L 331.90 399.00 L 331.40 410.10 L 331.90 421.10 L 332.50 426.20 L 334.10 432.50 L 335.70 434.90 L 371.30 458.20 L 373.50 459.40 L 379.60 461.40 L 387.00 462.40 L 394.90 462.50 L 436.60 456.30 L 446.40 458.70 L 456.40 460.60 L 462.80 476.80 L 464.00 478.10 L 466.00 479.30 L 470.80 481.20 L 474.00 482.00 L 478.90 482.70 L 484.60 483.00 L 556.30 483.00 L 561.90 482.70 L 566.80 482.00 L 571.40 480.90 L 574.80 479.40 L 576.70 478.20 L 578.00 477.00 L 578.80 475.70 L 584.50 460.60 L 604.30 456.30 L 646.20 462.50 L 654.20 462.40 L 661.60 461.40 L 667.60 459.50 L 669.60 458.30 L 705.50 434.70 L 707.00 432.50 L 708.50 426.20 L 709.10 421.20 L 709.50 410.10 L 709.00 399.10 L 708.40 394.10 L 706.80 387.80 L 705.20 385.40 Z" fill="url(#linearGradient-13)" fill-rule="evenodd" group-id="1,5,12" id="路径" node-id="81" stroke="none" target-height="164" target-width="378.1" target-x="331.4" target-y="319"></path><path d="M 700.90 357.90 L 668.80 348.30 L 669.50 343.90 L 668.80 339.50 L 700.90 329.90 L 704.30 328.60 L 706.60 327.30 L 708.10 326.00 L 709.00 324.70 L 709.40 323.20 L 709.20 321.80 L 708.20 320.20 L 706.30 318.50 L 668.30 293.30 L 665.40 292.10 L 658.50 290.60 L 654.70 290.10 L 646.80 290.10 L 604.80 296.40 L 595.00 294.00 L 584.90 292.00 L 579.10 276.60 L 578.30 275.30 L 577.00 274.00 L 575.10 272.70 L 570.30 270.80 L 567.10 270.00 L 562.20 269.30 L 556.50 269.00 L 484.30 269.00 L 478.70 269.30 L 473.80 270.00 L 468.00 271.70 L 463.80 273.90 L 462.50 275.20 L 461.70 276.50 L 456.30 292.00 L 436.40 296.40 L 394.30 290.10 L 386.20 290.10 L 378.70 291.20 L 372.70 293.20 L 370.70 294.40 L 334.60 318.50 L 332.80 319.90 L 331.90 321.20 L 331.50 322.50 L 331.60 323.80 L 332.20 325.20 L 333.40 326.50 L 337.10 328.80 L 372.00 339.50 L 371.30 343.90 L 371.40 346.00 L 372.00 348.30 L 340.00 357.90 L 336.60 359.20 L 334.20 360.50 L 332.70 361.80 L 331.80 363.10 L 331.40 364.60 L 331.70 366.00 L 332.60 367.60 L 334.60 369.30 L 370.30 393.20 L 375.50 395.70 L 382.40 397.20 L 386.20 397.70 L 394.10 397.70 L 436.10 391.40 L 445.90 393.80 L 456.00 395.80 L 462.40 412.50 L 463.70 413.70 L 465.60 415.00 L 470.50 417.00 L 473.70 417.80 L 478.70 418.50 L 484.30 418.80 L 556.50 418.80 L 562.20 418.50 L 567.10 417.80 L 572.90 416.10 L 577.00 413.90 L 578.30 412.60 L 579.10 411.30 L 584.90 395.80 L 604.80 391.40 L 646.90 397.70 L 655.00 397.70 L 658.80 397.30 L 665.60 395.80 L 668.50 394.60 L 706.60 369.20 L 708.40 367.50 L 709.30 366.00 L 709.50 364.60 L 709.10 363.10 L 708.20 361.80 L 706.60 360.50 L 704.30 359.20 L 700.90 357.90 Z M 602.30 346.70 L 602.00 349.30 L 601.30 351.90 L 600.00 354.50 L 598.10 357.20 L 596.00 359.50 L 590.20 364.00 L 586.40 366.30 L 581.30 368.90 L 575.50 371.30 L 568.70 373.50 L 561.90 375.40 L 546.30 378.30 L 529.50 379.80 L 520.50 380.00 L 511.40 379.80 L 494.70 378.30 L 479.10 375.40 L 472.20 373.50 L 465.50 371.30 L 459.60 368.90 L 454.50 366.30 L 450.80 364.00 L 445.00 359.50 L 442.80 357.20 L 441.00 354.50 L 439.70 351.90 L 438.90 349.30 L 438.70 346.70 L 438.90 344.00 L 439.70 341.40 L 441.00 338.80 L 442.80 336.20 L 445.00 333.90 L 450.80 329.30 L 454.50 327.00 L 459.60 324.50 L 465.50 322.10 L 472.20 319.80 L 479.10 318.00 L 494.70 315.10 L 511.40 313.60 L 520.50 313.40 L 529.50 313.60 L 546.30 315.10 L 561.90 318.00 L 568.70 319.80 L 575.50 322.10 L 581.30 324.50 L 586.40 327.00 L 590.20 329.30 L 596.00 333.90 L 598.10 336.20 L 600.00 338.80 L 601.30 341.40 L 602.00 344.00 L 602.30 346.70 Z" fill="url(#linearGradient-14)" fill-rule="evenodd" group-id="1,5,12" id="形状" node-id="82" stroke="none" target-height="149.79999" target-width="378.1" target-x="331.4" target-y="269"></path><g node-id="317"><path d="M 593.90 252.60 L 593.90 361.80 L 589.40 361.80 L 582.80 365.40 L 578.10 367.30 L 567.60 370.30 L 561.10 371.60 L 551.10 373.20 L 539.80 374.40 L 528.10 375.20 L 515.40 375.50 L 502.80 375.20 L 491.00 374.40 L 479.70 373.20 L 469.70 371.60 L 463.30 370.30 L 452.80 367.30 L 448.00 365.40 L 441.40 361.80 L 436.90 361.80 L 436.90 252.60 L 593.90 252.60 Z" fill="url(#linearGradient-15)" fill-opacity="0.5" fill-rule="evenodd" group-id="1,5,12,17" id="形状结合备份" node-id="83" stroke="none" target-height="122.899994" target-width="157.00003" target-x="436.9" target-y="252.6"></path></g><path d="M 602.50 351.00 L 602.20 353.60 L 601.50 356.10 L 600.20 358.60 L 598.30 361.10 L 595.30 364.10 L 591.50 367.00 L 586.60 370.00 L 581.50 372.40 L 575.60 374.70 L 568.80 376.90 L 562.00 378.70 L 546.30 381.50 L 529.50 382.90 L 520.50 383.10 L 511.40 382.90 L 494.60 381.50 L 479.00 378.70 L 472.10 376.90 L 465.30 374.70 L 459.40 372.40 L 454.30 370.00 L 449.40 367.00 L 445.60 364.10 L 442.60 361.10 L 440.80 358.60 L 439.50 356.10 L 438.70 353.60 L 438.40 351.00 L 438.70 348.50 L 439.50 346.00 L 440.80 343.40 L 442.60 340.90 L 445.60 338.00 L 449.40 335.00 L 454.30 332.10 L 459.40 329.60 L 465.30 327.30 L 472.10 325.10 L 486.50 321.80 L 502.80 319.70 L 520.50 318.90 L 529.50 319.10 L 546.30 320.60 L 562.00 323.40 L 568.80 325.10 L 575.60 327.30 L 581.50 329.60 L 586.60 332.10 L 591.50 335.00 L 595.30 338.00 L 598.30 340.90 L 600.20 343.40 L 601.50 346.00 L 602.20 348.50 L 602.50 351.00 Z" fill="#ffffff" fill-rule="evenodd" group-id="1,5,12" id="路径" node-id="84" stroke="none" target-height="64.20001" target-width="164.1" target-x="438.4" target-y="318.9"></path><path d="M 602.50 343.90 L 602.20 346.50 L 601.50 349.00 L 600.20 351.50 L 598.30 354.00 L 595.30 357.00 L 591.50 359.90 L 586.60 362.80 L 581.50 365.30 L 575.60 367.60 L 568.80 369.80 L 562.00 371.60 L 546.30 374.40 L 529.50 375.80 L 520.50 376.00 L 511.40 375.80 L 494.60 374.40 L 479.00 371.60 L 472.10 369.80 L 465.30 367.60 L 459.40 365.30 L 454.30 362.80 L 449.40 359.90 L 445.60 357.00 L 442.60 354.00 L 440.80 351.50 L 439.50 349.00 L 438.70 346.50 L 438.40 343.90 L 438.70 341.30 L 439.50 338.80 L 440.80 336.30 L 442.60 333.80 L 445.60 330.80 L 449.40 327.90 L 454.30 325.00 L 459.40 322.50 L 465.30 320.20 L 472.10 318.00 L 486.50 314.70 L 502.80 312.50 L 520.50 311.80 L 529.50 312.00 L 546.30 313.40 L 562.00 316.20 L 568.80 318.00 L 575.60 320.20 L 581.50 322.50 L 586.60 325.00 L 591.50 327.90 L 595.30 330.80 L 598.30 333.80 L 600.20 336.30 L 601.50 338.80 L 602.20 341.30 L 602.50 343.90 Z" fill="#46eff8" fill-rule="evenodd" group-id="1,5,12" id="路径" node-id="85" stroke="none" target-height="64.20001" target-width="164.1" target-x="438.4" target-y="311.8"></path><g node-id="318"><g node-id="323"><path d="M 639.00 251.20 L 638.70 254.10 L 638.00 257.00 L 636.80 259.90 L 635.10 262.80 L 632.90 265.80 L 629.80 269.00 L 626.00 272.20 L 621.50 275.40 L 616.00 278.50 L 604.50 283.80 L 590.30 288.60 L 580.40 291.10 L 569.60 293.30 L 557.80 295.20 L 546.00 296.40 L 533.60 297.20 L 520.50 297.50 L 507.40 297.20 L 495.00 296.40 L 483.10 295.20 L 471.30 293.30 L 460.50 291.10 L 450.60 288.60 L 436.40 283.80 L 424.90 278.50 L 419.50 275.40 L 414.90 272.20 L 411.10 269.00 L 408.00 265.80 L 405.80 262.80 L 404.10 259.90 L 402.90 257.00 L 402.20 254.10 L 402.00 251.20 L 402.20 248.20 L 402.90 245.30 L 404.10 242.40 L 405.80 239.50 L 408.00 236.60 L 411.10 233.30 L 414.90 230.20 L 419.50 227.00 L 424.90 223.80 L 436.40 218.60 L 450.60 213.80 L 460.50 211.20 L 471.30 209.00 L 483.10 207.20 L 495.00 205.90 L 507.40 205.10 L 520.50 204.80 L 533.60 205.10 L 546.00 205.90 L 557.80 207.20 L 569.60 209.00 L 580.40 211.20 L 590.30 213.80 L 604.50 218.60 L 616.00 223.80 L 621.50 227.00 L 626.00 230.20 L 629.80 233.30 L 632.90 236.60 L 635.10 239.50 L 636.80 242.40 L 638.00 245.30 L 638.70 248.20 L 639.00 251.20 Z" fill="#46eff8" fill-opacity="0.18067315" fill-rule="nonzero" group-id="1,5,12,18,23" node-id="289" stroke="none" target-height="92.7" target-width="237" target-x="402" target-y="204.8"></path></g><g node-id="324"><path d="M 639.00 251.20 L 638.70 254.10 L 638.00 257.00 L 636.80 259.90 L 635.10 262.80 L 632.90 265.80 L 629.80 269.00 L 626.00 272.20 L 621.50 275.40 L 616.00 278.50 L 604.50 283.80 L 590.30 288.60 L 580.40 291.10 L 569.60 293.30 L 557.80 295.20 L 546.00 296.40 L 533.60 297.20 L 520.50 297.50 L 507.40 297.20 L 495.00 296.40 L 483.10 295.20 L 471.30 293.30 L 460.50 291.10 L 450.60 288.60 L 436.40 283.80 L 424.90 278.50 L 419.50 275.40 L 414.90 272.20 L 411.10 269.00 L 408.00 265.80 L 405.80 262.80 L 404.10 259.90 L 402.90 257.00 L 402.20 254.10 L 402.00 251.20 L 402.20 248.20 L 402.90 245.30 L 404.10 242.40 L 405.80 239.50 L 408.00 236.60 L 411.10 233.30 L 414.90 230.20 L 419.50 227.00 L 424.90 223.80 L 436.40 218.60 L 450.60 213.80 L 460.50 211.20 L 471.30 209.00 L 483.10 207.20 L 495.00 205.90 L 507.40 205.10 L 520.50 204.80 L 533.60 205.10 L 546.00 205.90 L 557.80 207.20 L 569.60 209.00 L 580.40 211.20 L 590.30 213.80 L 604.50 218.60 L 616.00 223.80 L 621.50 227.00 L 626.00 230.20 L 629.80 233.30 L 632.90 236.60 L 635.10 239.50 L 636.80 242.40 L 638.00 245.30 L 638.70 248.20 L 639.00 251.20 Z" fill="#000000" fill-opacity="0.60224384" fill-rule="nonzero" filter="url(#filter-17)" group-id="1,5,12,18,24" node-id="294" stroke="none" target-height="92.7" target-width="237" target-x="402" target-y="204.8"></path></g><path d="M 639.00 251.20 L 638.70 254.10 L 638.00 257.00 L 636.80 259.90 L 635.10 262.80 L 632.90 265.80 L 629.80 269.00 L 626.00 272.20 L 621.50 275.40 L 616.00 278.50 L 604.50 283.80 L 590.30 288.60 L 580.40 291.10 L 569.60 293.30 L 557.80 295.20 L 546.00 296.40 L 533.60 297.20 L 520.50 297.50 L 507.40 297.20 L 495.00 296.40 L 483.10 295.20 L 471.30 293.30 L 460.50 291.10 L 450.60 288.60 L 436.40 283.80 L 424.90 278.50 L 419.50 275.40 L 414.90 272.20 L 411.10 269.00 L 408.00 265.80 L 405.80 262.80 L 404.10 259.90 L 402.90 257.00 L 402.20 254.10 L 402.00 251.20 L 402.20 248.20 L 402.90 245.30 L 404.10 242.40 L 405.80 239.50 L 408.00 236.60 L 411.10 233.30 L 414.90 230.20 L 419.50 227.00 L 424.90 223.80 L 436.40 218.60 L 450.60 213.80 L 460.50 211.20 L 471.30 209.00 L 483.10 207.20 L 495.00 205.90 L 507.40 205.10 L 520.50 204.80 L 533.60 205.10 L 546.00 205.90 L 557.80 207.20 L 569.60 209.00 L 580.40 211.20 L 590.30 213.80 L 604.50 218.60 L 616.00 223.80 L 621.50 227.00 L 626.00 230.20 L 629.80 233.30 L 632.90 236.60 L 635.10 239.50 L 636.80 242.40 L 638.00 245.30 L 638.70 248.20 L 639.00 251.20 Z" fill="none" group-id="1,5,12,18,25" node-id="299" stroke="#90f6fb" stroke-linecap="butt" stroke-opacity="0.60224384" stroke-width="1" target-height="92.7" target-width="237" target-x="402" target-y="204.8"></path></g></g></g><path d="M 375.50 310.70 L 357.20 308.90 L 323.10 306.60 L 307.30 306.00 L 291.10 305.90 L 275.90 306.30 L 261.90 307.00 L 248.80 308.10 L 235.30 309.80 L 223.10 311.80 L 212.10 314.20 L 202.30 316.90 L 194.10 319.60 L 186.90 322.50 L 180.50 325.60 L 174.90 328.90 L 170.00 332.30 L 166.00 335.60 L 162.60 339.10 L 159.80 342.70 L 157.50 346.40 L 155.60 350.20 L 154.30 354.20 L 153.40 358.40 L 153.10 362.70 L 153.30 367.00 L 153.90 371.60 L 155.20 376.30 L 157.00 381.30 L 159.60 386.70 L 162.90 392.30 L 166.90 398.20 L 171.80 404.40 L 177.50 410.90 L 184.80 418.20 L 193.30 425.90 L 202.90 433.80 L 213.90 442.00 L 224.80 449.60 L 236.80 457.30 L 249.90 465.20 L 264.20 473.20 L 278.30 480.70 L 309.30 495.80 L 326.30 503.40 L 360.90 517.60 L 379.30 524.60 L 417.70 537.80 L 437.40 544.10 L 478.70 555.90 L 499.80 561.40 L 520.50 566.30 L 560.50 574.80 L 580.60 578.50 L 618.80 584.40 L 655.50 588.60 L 673.20 590.00 L 705.90 591.60 L 722.30 591.80 L 737.60 591.50 L 751.80 590.80 L 765.10 589.70 L 778.70 588.00 L 791.00 586.00 L 802.10 583.60 L 812.10 581.00 L 820.40 578.20 L 827.70 575.30 L 834.10 572.20 L 839.80 568.90 L 844.70 565.50 L 848.80 562.20 L 852.20 558.70 L 855.10 555.10 L 857.40 551.40 L 859.30 547.50 L 860.60 543.50 L 861.50 539.00 L 861.80 534.40 L 861.50 529.60 L 860.60 524.70 L 859.10 519.50 L 857.10 514.70 L 854.60 509.70 L 851.50 504.50 L 847.70 499.00 L 843.20 493.30 L 837.40 486.90 L 830.80 480.10 L 823.10 473.10 L 814.40 465.90 L 805.70 459.10 L 785.60 445.20 L 762.70 431.20 L 737.40 417.40 L 723.60 410.40 L 705.00 401.60 L 685.30 392.80 L 664.30 384.10" fill="none" group-id="1,6" id="路径" node-id="90" stroke="url(#linearGradient-18)" stroke-linecap="round" stroke-width="1.9999999" target-height="285.9" target-width="708.69995" target-x="153.1" target-y="305.9"></path></g></svg>