<?xml version="1.0" standalone="no"?><!DOCTYPE svg PUBLIC "-//W3C//DTD SVG 1.1//EN" "http://www.w3.org/Graphics/SVG/1.1/DTD/svg11.dtd"><svg height="1024" node-id="1" sillyvg="true" template-height="1024" template-width="1024" version="1.1" viewBox="0 0 1024 1024" width="1024" xmlns="http://www.w3.org/2000/svg" xmlns:xlink="http://www.w3.org/1999/xlink"><defs node-id="38"></defs><g node-id="40"><g node-id="41"><path d="M 0.00 0.00 L 1024.00 0.00 L 1024.00 1024.00 L 0.00 1024.00 Z" fill="none" group-id="1,2" id="矩形" node-id="6" stroke="none" target-height="1024" target-width="1024" target-x="0" target-y="0"></path></g><g node-id="42"><path d="M 992.00 317.10 L 32.00 317.10 L 32.00 323.90 L 992.00 323.90 Z" fill="#f7f7f7" fill-rule="nonzero" group-id="1,3" id="Stroke-14" node-id="8" stroke="none" target-height="6.799988" target-width="960" target-x="32" target-y="317.1"></path><path d="M 992.00 447.90 L 32.00 447.90 L 32.00 454.70 L 992.00 454.70 Z" fill="#f7f7f7" fill-rule="nonzero" group-id="1,3" id="Stroke-14备份" node-id="9" stroke="none" target-height="6.8000183" target-width="960" target-x="32" target-y="447.9"></path><path d="M 298.80 97.30 L 298.80 926.70 L 305.60 926.70 L 305.60 97.30 Z" fill="#f7f7f7" fill-rule="nonzero" group-id="1,3" id="Stroke-14备份-4" node-id="10" stroke="none" target-height="829.4" target-width="6.8000183" target-x="298.8" target-y="97.3"></path><path d="M 220.30 97.30 L 220.30 926.70 L 227.10 926.70 L 227.10 97.30 Z" fill="#f7f7f7" fill-rule="nonzero" group-id="1,3" id="Stroke-14备份-6" node-id="11" stroke="none" target-height="829.4" target-width="6.800003" target-x="220.3" target-y="97.3"></path></g><g node-id="43"><path d="M 301.40 267.40 L 798.40 267.40 L 798.40 607.50 L 301.40 607.50 Z" fill="#eeeeff" fill-rule="nonzero" group-id="1,4" id="矩形" node-id="13" stroke="none" target-height="340.1" target-width="497.00003" target-x="301.4" target-y="267.4"></path><path d="M 301.40 241.30 L 798.40 241.30 L 798.40 319.70 L 301.40 319.70 Z" fill="#6448f4" fill-rule="nonzero" group-id="1,4" id="矩形" node-id="14" stroke="none" target-height="78.40001" target-width="497.00003" target-x="301.4" target-y="241.3"></path><path d="M 406.10 372.10 L 693.80 372.10 L 693.80 398.20 L 406.10 398.20 Z" fill="#ffffff" fill-rule="nonzero" group-id="1,4" id="矩形" node-id="15" stroke="none" target-height="26.100006" target-width="287.69998" target-x="406.1" target-y="372.1"></path><path d="M 406.10 424.40 L 693.80 424.40 L 693.80 450.50 L 406.10 450.50 Z" fill="#dedaff" fill-rule="nonzero" group-id="1,4" id="矩形" node-id="16" stroke="none" target-height="26.100006" target-width="287.69998" target-x="406.1" target-y="424.4"></path><path d="M 406.10 476.70 L 693.80 476.70 L 693.80 502.80 L 406.10 502.80 Z" fill="#dedaff" fill-rule="nonzero" group-id="1,4" id="矩形" node-id="17" stroke="none" target-height="26.099976" target-width="287.69998" target-x="406.1" target-y="476.7"></path><path d="M 406.10 529.00 L 693.80 529.00 L 693.80 555.20 L 406.10 555.20 Z" fill="#dedaff" fill-rule="nonzero" group-id="1,4" id="矩形" node-id="18" stroke="none" target-height="26.200012" target-width="287.69998" target-x="406.1" target-y="529"></path></g><g node-id="44"><path d="M 589.20 633.60 L 824.60 633.60 L 824.60 738.30 L 589.20 738.30 Z" fill="#f7f7f7" fill-rule="nonzero" group-id="1,5" id="矩形" node-id="20" stroke="none" target-height="104.70001" target-width="235.39996" target-x="589.2" target-y="633.6"></path><path d="M 798.40 633.60 L 850.70 633.60 L 850.70 738.30 L 798.40 738.30 Z" fill="#eeeeff" fill-rule="nonzero" group-id="1,5" id="矩形" node-id="21" stroke="none" target-height="104.70001" target-width="52.299988" target-x="798.4" target-y="633.6"></path><path d="M 589.20 633.60 L 850.70 633.60 L 850.70 659.80 L 589.20 659.80 Z" fill="#806eff" fill-rule="evenodd" group-id="1,5" id="矩形" node-id="22" stroke="none" target-height="26.200012" target-width="261.5" target-x="589.2" target-y="633.6"></path><path d="M 798.40 633.60 L 850.70 633.60 L 850.70 659.80 L 798.40 659.80 Z" fill="#beb9ff" fill-rule="nonzero" group-id="1,5" id="矩形" node-id="23" stroke="none" target-height="26.200012" target-width="52.299988" target-x="798.4" target-y="633.6"></path><path d="M 589.20 738.30 L 589.20 790.60 L 641.50 738.30 Z" fill="#dedaff" fill-rule="nonzero" group-id="1,5" id="路径" node-id="24" stroke="none" target-height="52.299988" target-width="52.299988" target-x="589.2" target-y="738.3"></path></g><g node-id="45"><path d="M 223.00 450.50 L 563.00 450.50 L 563.00 607.50 L 223.00 607.50 Z" fill="#ffffff" fill-opacity="0.8" fill-rule="evenodd" group-id="1,6" id="矩形" node-id="26" stroke="none" target-height="157" target-width="340" target-x="223" target-y="450.5"></path><path d="M 223.00 450.50 L 301.40 450.50 L 301.40 607.50 L 223.00 607.50 Z" fill="#eeeeff" fill-rule="nonzero" group-id="1,6" id="矩形" node-id="27" stroke="none" target-height="157" target-width="78.399994" target-x="223" target-y="450.5"></path><path d="M 223.00 450.50 L 563.00 450.50 L 563.00 476.70 L 223.00 476.70 Z" fill="#beb9ff" fill-rule="nonzero" group-id="1,6" id="矩形" node-id="28" stroke="none" target-height="26.200012" target-width="340" target-x="223" target-y="450.5"></path><path d="M 223.00 450.50 L 301.40 450.50 L 301.40 476.70 L 223.00 476.70 Z" fill="#806eff" fill-rule="evenodd" group-id="1,6" id="矩形" node-id="29" stroke="none" target-height="26.200012" target-width="78.399994" target-x="223" target-y="450.5"></path><path d="M 223.00 607.50 L 223.00 686.00 L 301.40 607.50 Z" fill="#dedaff" fill-rule="nonzero" group-id="1,6" id="路径" node-id="30" stroke="none" target-height="78.5" target-width="78.399994" target-x="223" target-y="607.5"></path></g><g node-id="46"><path d="M 379.90 319.70 L 379.60 326.30 L 378.90 332.50 L 377.60 338.60 L 375.90 344.50 L 373.70 350.30 L 371.10 355.80 L 368.10 361.10 L 364.80 366.10 L 361.00 370.80 L 356.90 375.20 L 352.50 379.30 L 347.80 383.10 L 342.80 386.50 L 337.50 389.40 L 332.00 392.00 L 326.20 394.20 L 320.30 395.90 L 314.20 397.20 L 307.90 397.90 L 301.40 398.20 L 294.90 397.90 L 288.60 397.20 L 282.50 395.90 L 276.60 394.20 L 270.80 392.00 L 265.30 389.40 L 260.10 386.50 L 255.10 383.10 L 250.30 379.30 L 245.90 375.20 L 241.90 370.80 L 238.10 366.10 L 234.70 361.10 L 231.70 355.80 L 229.10 350.30 L 227.00 344.50 L 225.20 338.60 L 224.00 332.50 L 223.20 326.30 L 223.00 319.70 L 223.20 313.20 L 224.00 306.90 L 225.20 300.80 L 227.00 294.90 L 229.10 289.20 L 231.70 283.60 L 234.70 278.40 L 238.10 273.40 L 241.90 268.70 L 245.90 264.20 L 250.30 260.20 L 255.10 256.40 L 260.10 253.00 L 265.30 250.00 L 270.80 247.50 L 276.60 245.30 L 282.50 243.50 L 288.60 242.30 L 294.90 241.50 L 301.40 241.30 L 307.90 241.50 L 314.20 242.30 L 320.30 243.50 L 326.20 245.30 L 332.00 247.50 L 337.50 250.00 L 342.80 253.00 L 347.80 256.40 L 352.50 260.20 L 356.90 264.20 L 361.00 268.70 L 364.80 273.40 L 368.10 278.40 L 371.10 283.60 L 373.70 289.20 L 375.90 294.90 L 377.60 300.80 L 378.90 306.90 L 379.60 313.20 L 379.90 319.70 Z" fill="#dedaff" fill-rule="evenodd" group-id="1,7" id="椭圆形" node-id="32" stroke="none" target-height="156.90001" target-width="156.9" target-x="223" target-y="241.3"></path><path d="M 301.40 398.20 L 307.90 397.90 L 314.20 397.20 L 320.30 395.90 L 326.20 394.20 L 332.00 392.00 L 337.50 389.40 L 342.80 386.50 L 347.80 383.10 L 352.50 379.30 L 356.90 375.20 L 361.00 370.80 L 364.80 366.10 L 368.10 361.10 L 371.10 355.80 L 373.70 350.30 L 375.90 344.50 L 377.60 338.60 L 378.90 332.50 L 379.60 326.30 L 379.90 319.70 L 379.60 313.20 L 378.90 306.90 L 377.60 300.80 L 375.90 294.90 L 373.70 289.20 L 371.10 283.60 L 368.10 278.40 L 364.80 273.40 L 361.00 268.70 L 356.90 264.20 L 352.50 260.20 L 347.80 256.40 L 342.80 253.00 L 337.50 250.00 L 332.00 247.50 L 326.20 245.30 L 320.30 243.50 L 314.20 242.30 L 307.90 241.50 L 301.40 241.30 L 301.40 398.20 Z" fill="#160a45" fill-rule="nonzero" group-id="1,7" id="椭圆形" node-id="33" stroke="none" target-height="156.90001" target-width="78.5" target-x="301.4" target-y="241.3"></path><path d="M 353.70 319.70 L 353.50 325.20 L 352.70 330.40 L 351.40 335.30 L 349.60 340.10 L 347.40 344.70 L 344.80 349.00 L 341.80 353.00 L 338.40 356.70 L 334.70 360.10 L 330.70 363.10 L 326.40 365.70 L 321.80 367.90 L 317.00 369.70 L 312.00 371.00 L 306.90 371.80 L 301.40 372.10 L 296.00 371.80 L 290.80 371.00 L 285.80 369.70 L 281.10 367.90 L 276.50 365.70 L 272.20 363.10 L 268.20 360.10 L 264.40 356.70 L 261.00 353.00 L 258.10 349.00 L 255.50 344.70 L 253.20 340.10 L 251.50 335.30 L 250.20 330.40 L 249.40 325.20 L 249.10 319.70 L 249.40 314.30 L 250.20 309.10 L 251.50 304.20 L 253.20 299.40 L 255.50 294.80 L 258.10 290.50 L 261.00 286.50 L 264.40 282.70 L 268.20 279.40 L 272.20 276.40 L 276.50 273.80 L 281.10 271.50 L 285.80 269.80 L 290.80 268.50 L 296.00 267.70 L 301.40 267.40 L 306.90 267.70 L 312.00 268.50 L 317.00 269.80 L 321.80 271.50 L 326.40 273.80 L 330.70 276.40 L 334.70 279.40 L 338.40 282.70 L 341.80 286.50 L 344.80 290.50 L 347.40 294.80 L 349.60 299.40 L 351.40 304.20 L 352.70 309.10 L 353.50 314.30 L 353.70 319.70 Z" fill="#ffffff" fill-rule="nonzero" group-id="1,7" id="椭圆形" node-id="34" stroke="none" target-height="104.70001" target-width="104.600006" target-x="249.1" target-y="267.4"></path><path d="M 294.90 280.50 L 308.00 280.50 L 308.00 319.70 L 294.90 319.70 Z" fill="#beb9ff" fill-rule="nonzero" group-id="1,7" id="矩形" node-id="35" stroke="none" target-height="39.200012" target-width="13.100006" target-x="294.9" target-y="280.5"></path><g node-id="47"><path d="M 334.10 313.20 L 334.10 326.30 L 294.90 326.30 L 294.90 313.20 Z" fill="#4e33d6" fill-rule="evenodd" group-id="1,7,8" id="矩形" node-id="36" stroke="none" target-height="13.099976" target-width="39.200012" target-x="294.9" target-y="313.2"></path></g></g></g></svg>