<?xml version="1.0" standalone="no"?><!DOCTYPE svg PUBLIC "-//W3C//DTD SVG 1.1//EN" "http://www.w3.org/Graphics/SVG/1.1/DTD/svg11.dtd"><svg height="194" node-id="1" sillyvg="true" template-height="194" template-width="113" version="1.1" viewBox="0 0 113 194" width="113" xmlns="http://www.w3.org/2000/svg" xmlns:xlink="http://www.w3.org/1999/xlink"><defs node-id="61"></defs><g node-id="167"><path d="M 49.50 177.40 L 50.00 188.10 L 49.50 189.20 L 48.40 190.10 L 46.70 191.20 L 42.60 192.60 L 35.00 193.70 L 30.20 193.60 L 26.80 192.90 L 25.50 191.10 L 25.10 189.50 L 25.00 184.60 L 25.70 180.00 L 27.60 171.70 L 32.70 155.30 L 36.10 146.30 L 47.10 142.70 L 50.30 157.40 L 49.50 177.40 Z" fill="#e39946" fill-rule="nonzero" group-id="1" node-id="65" stroke="none" target-height="51" target-width="25.3" target-x="25" target-y="142.7"></path><path d="M 30.10 193.60 L 27.90 193.30 L 29.30 184.20 L 30.30 180.40 L 30.40 184.70 L 30.10 193.60 Z" fill="#dc7326" fill-rule="nonzero" group-id="1" node-id="67" stroke="none" target-height="13.200012" target-width="2.5" target-x="27.9" target-y="180.4"></path><path d="M 38.70 193.40 L 36.40 193.70 L 38.00 179.30 L 38.80 175.40 L 39.00 179.00 L 38.70 193.40 Z" fill="#dc7326" fill-rule="nonzero" group-id="1" node-id="69" stroke="none" target-height="18.300003" target-width="2.5999985" target-x="36.4" target-y="175.4"></path><path d="M 46.80 191.20 L 44.40 192.10 L 45.40 177.10 L 46.00 172.70 L 46.40 176.50 L 46.80 191.20 Z" fill="#dc7326" fill-rule="nonzero" group-id="1" node-id="71" stroke="none" target-height="19.40001" target-width="2.3999977" target-x="44.4" target-y="172.7"></path><path d="M 71.30 175.80 L 71.30 181.60 L 70.90 186.50 L 71.40 187.50 L 72.40 188.50 L 74.10 189.50 L 78.30 191.00 L 82.20 191.70 L 88.30 192.10 L 93.00 191.70 L 94.80 190.60 L 95.40 189.50 L 95.90 185.70 L 95.20 178.40 L 93.30 170.10 L 88.10 153.70 L 84.80 144.80 L 73.80 141.10 L 70.60 155.80 L 71.40 175.40 Z" fill="#e39946" fill-rule="nonzero" group-id="1" node-id="73" stroke="none" target-height="51" target-width="25.300003" target-x="70.6" target-y="141.1"></path><path d="M 90.70 192.00 L 92.90 191.70 L 91.50 182.60 L 90.60 178.80 L 90.40 183.10 L 90.70 192.00 Z" fill="#dc7326" fill-rule="nonzero" group-id="1" node-id="75" stroke="none" target-height="13.199997" target-width="2.5" target-x="90.4" target-y="178.8"></path><path d="M 82.20 191.80 L 84.50 192.00 L 82.80 177.70 L 82.10 173.80 L 81.90 177.40 L 82.20 191.80 Z" fill="#dc7326" fill-rule="nonzero" group-id="1" node-id="77" stroke="none" target-height="18.199997" target-width="2.5999985" target-x="81.9" target-y="173.8"></path><path d="M 74.10 189.60 L 76.40 190.50 L 75.40 175.50 L 74.80 171.10 L 74.40 174.90 L 74.10 189.60 Z" fill="#dc7326" fill-rule="nonzero" group-id="1" node-id="79" stroke="none" target-height="19.399994" target-width="2.300003" target-x="74.1" target-y="171.1"></path><path d="M 71.00 104.00 L 80.70 115.30 L 95.30 127.30 L 102.90 134.40 L 104.00 134.70 L 105.40 134.40 L 106.70 133.60 L 109.50 130.50 L 112.00 125.50 L 112.60 122.90 L 112.60 121.80 L 112.00 120.40 L 110.70 118.80 L 108.20 116.50 L 104.60 113.90 L 97.20 109.30 L 84.00 102.40 L 76.60 99.00 Z" fill="#e39946" fill-rule="nonzero" group-id="1" node-id="81" stroke="none" target-height="35.699997" target-width="41.6" target-x="71" target-y="99"></path><path d="M 78.70 113.00 L 80.70 115.30 L 81.70 115.60 L 86.00 113.30 L 97.40 109.40 L 78.70 113.00 Z" fill="#dc7326" fill-rule="nonzero" group-id="1" node-id="83" stroke="none" target-height="6.199997" target-width="18.700005" target-x="78.7" target-y="109.4"></path><path d="M 108.10 132.30 L 108.30 132.10 L 104.00 122.50 L 104.70 113.90 L 103.70 113.20 L 102.90 122.80 Z" fill="#dc7326" fill-rule="nonzero" group-id="1" node-id="85" stroke="none" target-height="19.100006" target-width="5.4000015" target-x="102.9" target-y="113.2"></path><path d="M 93.30 110.10 L 100.20 118.50 L 103.80 121.40 L 99.50 118.80 L 92.30 110.30 L 93.30 110.10 Z" fill="#dc7326" fill-rule="nonzero" group-id="1" node-id="87" stroke="none" target-height="11.300003" target-width="11.5" target-x="92.3" target-y="110.1"></path><path d="M 94.90 127.00 L 94.10 125.30 L 94.90 120.30 L 89.60 111.50 L 90.50 111.50 L 95.60 120.50 L 94.90 125.50 L 95.30 127.30 L 94.90 127.00 Z" fill="#dc7326" fill-rule="nonzero" group-id="1" node-id="89" stroke="none" target-height="15.800003" target-width="6" target-x="89.6" target-y="111.5"></path><path d="M 87.00 112.30 L 89.90 116.90 L 86.30 112.80 L 87.00 112.30 Z" fill="#dc7326" fill-rule="nonzero" group-id="1" node-id="91" stroke="none" target-height="4.5999985" target-width="3.5999985" target-x="86.3" target-y="112.3"></path><path d="M 92.00 106.50 L 86.20 106.90 L 91.20 106.00 L 92.00 106.50 Z" fill="#dc7326" fill-rule="nonzero" group-id="1" node-id="93" stroke="none" target-height="0.9000015" target-width="5.800003" target-x="86.2" target-y="106"></path><path d="M 110.50 128.80 L 111.00 128.00 L 110.10 124.50 L 109.10 122.00 L 109.50 124.80 Z" fill="#dc7326" fill-rule="nonzero" group-id="1" node-id="95" stroke="none" target-height="6.800003" target-width="1.9000015" target-x="109.1" target-y="122"></path><path d="M 102.00 133.70 L 102.80 134.40 L 102.00 131.00 L 101.00 128.60 L 101.40 131.40 Z" fill="#dc7326" fill-rule="nonzero" group-id="1" node-id="97" stroke="none" target-height="5.799988" target-width="1.800003" target-x="101" target-y="128.6"></path><path d="M 86.20 106.90 L 86.80 104.30 L 89.00 101.40 L 92.60 99.00 L 94.40 98.40 L 95.00 98.60 L 95.30 99.10 L 95.00 100.20 L 93.60 102.70 L 91.20 106.00 Z" fill="#dc7326" fill-rule="nonzero" group-id="1" node-id="99" stroke="none" target-height="8.5" target-width="9.100006" target-x="86.2" target-y="98.4"></path><path d="M 96.10 114.00 L 96.70 112.00 L 97.60 110.60 L 99.00 109.40 L 102.90 107.60 L 103.70 107.80 L 103.70 108.50 L 103.10 109.80 L 100.40 113.30 Z" fill="#dc7326" fill-rule="nonzero" group-id="1" node-id="101" stroke="none" target-height="6.4000015" target-width="7.5999985" target-x="96.1" target-y="107.6"></path><path d="M 30.50 109.00 L 24.20 97.00 L 20.20 88.80 L 19.80 88.70 L 18.80 89.30 L 18.30 89.80 L 20.70 95.90 L 13.10 95.20 L 12.30 95.90 L 12.30 96.80 L 13.10 97.30 L 20.70 99.00 L 24.70 104.60 L 28.70 110.80 Z" fill="#dc7326" fill-rule="nonzero" group-id="1" node-id="103" stroke="none" target-height="22.100006" target-width="18.2" target-x="12.3" target-y="88.7"></path><path d="M 41.70 106.20 L 32.00 117.50 L 17.40 129.50 L 9.80 136.50 L 8.70 136.80 L 7.30 136.50 L 6.00 135.80 L 3.20 132.70 L 0.70 127.70 L 0.00 125.10 L 0.10 124.00 L 0.70 122.60 L 2.00 121.00 L 4.50 118.70 L 8.00 116.10 L 15.50 111.50 L 28.70 104.60 L 36.00 101.20 Z" fill="#e39946" fill-rule="nonzero" group-id="1" node-id="105" stroke="none" target-height="35.600006" target-width="41.7" target-x="0" target-y="101.2"></path><path d="M 34.00 115.20 L 32.00 117.50 L 31.00 117.70 L 26.70 115.40 L 15.40 111.50 L 34.00 115.20 Z" fill="#dc7326" fill-rule="nonzero" group-id="1" node-id="107" stroke="none" target-height="6.199997" target-width="18.6" target-x="15.4" target-y="111.5"></path><path d="M 4.60 134.50 L 4.40 134.30 L 8.70 124.70 L 8.00 116.00 L 9.00 115.40 L 9.80 125.00 Z" fill="#dc7326" fill-rule="nonzero" group-id="1" node-id="109" stroke="none" target-height="19.099998" target-width="5.4" target-x="4.4" target-y="115.4"></path><path d="M 19.40 112.30 L 12.50 120.70 L 8.90 123.60 L 13.20 120.90 L 20.40 112.50 L 19.40 112.30 Z" fill="#dc7326" fill-rule="nonzero" group-id="1" node-id="111" stroke="none" target-height="11.299995" target-width="11.5" target-x="8.9" target-y="112.3"></path><path d="M 17.80 129.20 L 18.60 127.50 L 17.80 122.50 L 23.10 113.70 L 22.20 113.70 L 17.10 122.60 L 17.80 127.70 L 17.40 129.50 L 17.80 129.20 Z" fill="#dc7326" fill-rule="nonzero" group-id="1" node-id="113" stroke="none" target-height="15.800003" target-width="6" target-x="17.1" target-y="113.7"></path><path d="M 25.70 114.50 L 22.70 119.10 L 26.40 115.00 L 25.70 114.50 Z" fill="#dc7326" fill-rule="nonzero" group-id="1" node-id="115" stroke="none" target-height="4.5999985" target-width="3.6999989" target-x="22.7" target-y="114.5"></path><path d="M 20.70 108.60 L 26.50 109.10 L 21.50 108.20 L 20.70 108.60 Z" fill="#dc7326" fill-rule="nonzero" group-id="1" node-id="117" stroke="none" target-height="0.9000015" target-width="5.799999" target-x="20.7" target-y="108.2"></path><path d="M 2.10 131.00 L 1.70 130.10 L 3.00 125.40 L 3.60 124.20 L 3.20 127.00 Z" fill="#dc7326" fill-rule="nonzero" group-id="1" node-id="119" stroke="none" target-height="6.800003" target-width="1.8999999" target-x="1.7" target-y="124.2"></path><path d="M 10.60 135.80 L 9.80 136.50 L 10.70 133.20 L 11.70 130.70 L 11.20 133.50 Z" fill="#dc7326" fill-rule="nonzero" group-id="1" node-id="121" stroke="none" target-height="5.800003" target-width="1.8999996" target-x="9.8" target-y="130.7"></path><path d="M 14.50 116.90 L 14.00 114.90 L 13.10 113.50 L 11.60 112.30 L 7.80 110.50 L 7.00 110.80 L 7.00 111.50 L 7.60 112.70 L 10.30 116.30 Z" fill="#dc7326" fill-rule="nonzero" group-id="1" node-id="123" stroke="none" target-height="6.4000015" target-width="7.5" target-x="7" target-y="110.5"></path><path d="M 92.70 162.30 L 73.10 163.60 L 60.70 163.90 L 46.30 163.50 L 39.40 163.00 L 29.60 161.30 L 23.90 159.40 L 21.70 158.00 L 20.20 156.60 L 19.50 155.00 L 19.20 152.50 L 19.40 148.90 L 19.90 145.00 L 22.10 135.50 L 26.80 120.10 L 35.20 97.30 L 79.30 97.50 L 83.20 106.00 L 89.80 121.90 L 94.20 134.20 L 97.20 146.00 L 97.90 150.90 L 97.80 156.80 L 96.50 160.20 L 95.50 161.30 L 94.30 161.90 L 92.70 162.30 Z" fill="#e58d31" fill-rule="nonzero" group-id="1" node-id="125" stroke="none" target-height="66.59999" target-width="78.7" target-x="19.2" target-y="97.3"></path><path d="M 83.20 106.00 L 79.70 107.50 L 76.00 108.60 L 72.20 109.20 L 66.40 109.70 L 60.60 109.50 L 49.50 107.70 L 40.00 105.10 L 33.20 102.60 L 35.20 97.30 L 79.30 97.50 L 83.20 106.00 Z" fill="#c06b28" fill-rule="nonzero" group-id="1" node-id="127" stroke="none" target-height="12.399994" target-width="49.999996" target-x="33.2" target-y="97.3"></path><path d="M 29.20 117.70 L 34.20 120.10 L 42.60 123.10 L 48.00 124.50 L 53.70 125.50 L 60.20 126.00 L 69.10 125.50 L 73.80 124.70 L 78.50 123.50 L 83.20 121.80 L 88.00 119.40 L 84.00 122.80 L 80.60 124.90 L 76.80 126.80 L 71.90 128.60 L 68.40 129.40 L 64.50 129.90 L 60.20 130.10 L 55.90 129.70 L 51.10 128.80 L 45.90 127.20 L 38.10 123.60 L 29.20 117.70 Z" fill="#dc7326" fill-rule="nonzero" group-id="1" node-id="129" stroke="none" target-height="12.400009" target-width="58.8" target-x="29.2" target-y="117.7"></path><path d="M 55.90 126.20 L 55.70 121.10 L 56.00 118.80 L 57.40 113.40 L 58.70 110.80 L 57.90 120.60 L 58.40 125.00 L 59.70 127.60 L 55.90 126.20 Z" fill="#dc7326" fill-rule="nonzero" group-id="1" node-id="131" stroke="none" target-height="16.799995" target-width="4" target-x="55.7" target-y="110.8"></path><path d="M 85.50 34.80 L 102.00 20.80 L 109.90 14.80 L 109.90 14.20 L 108.80 13.00 L 107.90 12.50 L 100.40 17.60 L 99.20 7.00 L 97.90 6.10 L 97.20 6.10 L 96.70 6.40 L 96.30 7.60 L 96.10 18.60 L 89.70 25.60 L 82.40 32.70 Z" fill="#dc7326" fill-rule="nonzero" group-id="1" node-id="133" stroke="none" target-height="28.699999" target-width="27.5" target-x="82.4" target-y="6.1"></path><path d="M 102.40 50.00 L 100.70 55.10 L 95.10 76.10 L 93.20 82.10 L 89.60 91.30 L 86.20 96.90 L 84.20 99.10 L 81.80 100.90 L 79.00 102.30 L 72.70 104.20 L 69.10 104.70 L 63.70 104.90 L 58.00 104.80 L 47.10 103.60 L 37.80 102.00 L 32.80 100.40 L 30.60 99.10 L 27.00 95.90 L 24.90 93.20 L 23.30 90.30 L 21.00 84.90 L 18.50 77.00 L 14.20 55.90 L 14.20 38.20 L 21.80 22.80 L 29.10 31.90 L 30.60 17.50 L 31.10 7.90 L 31.80 6.90 L 35.50 5.30 L 40.60 3.70 L 56.30 0.00 L 58.80 26.50 L 63.80 15.40 L 73.80 11.20 L 76.80 10.20 L 78.70 10.60 L 84.40 13.20 L 88.60 15.70 L 93.40 36.60 L 97.00 33.90 L 98.40 33.40 L 99.30 33.40 L 100.70 35.90 L 102.30 40.70 L 102.90 43.50 L 103.00 48.40 L 102.40 50.00 Z" fill="#e39946" fill-rule="nonzero" group-id="1" node-id="135" stroke="none" target-height="104.9" target-width="88.8" target-x="14.2" target-y="0"></path><path d="M 40.50 3.70 L 40.50 26.40 L 38.60 4.30 Z" fill="#dc7326" fill-rule="nonzero" group-id="1" node-id="137" stroke="none" target-height="22.699999" target-width="1.9000015" target-x="38.6" target-y="3.7"></path><path d="M 21.30 23.80 L 21.30 44.90 L 19.80 27.00 L 21.30 23.80 Z" fill="#dc7326" fill-rule="nonzero" group-id="1" node-id="139" stroke="none" target-height="21.100002" target-width="1.5" target-x="19.8" target-y="23.8"></path><path d="M 48.60 1.70 L 48.60 38.60 L 45.60 2.40 L 48.60 1.70 Z" fill="#dc7326" fill-rule="nonzero" group-id="1" node-id="141" stroke="none" target-height="36.899998" target-width="3" target-x="45.6" target-y="1.7"></path><path d="M 48.60 27.50 L 51.20 32.50 L 52.70 42.20 L 52.20 31.70 L 48.60 25.60 L 48.60 27.50 Z" fill="#dc7326" fill-rule="nonzero" group-id="1" node-id="143" stroke="none" target-height="16.6" target-width="4.1000023" target-x="48.6" target-y="25.6"></path><path d="M 76.30 10.40 L 74.30 22.50 L 73.70 28.50 L 73.70 32.50 L 78.40 10.50 Z" fill="#dc7326" fill-rule="nonzero" group-id="1" node-id="145" stroke="none" target-height="22.1" target-width="4.7000046" target-x="73.7" target-y="10.4"></path><path d="M 45.60 65.80 L 45.00 69.10 L 44.30 70.50 L 42.80 72.40 L 40.90 73.90 L 39.50 74.60 L 36.20 75.20 L 32.90 74.60 L 31.40 73.90 L 29.50 72.40 L 28.00 70.50 L 26.90 67.50 L 26.70 65.80 L 27.30 62.50 L 28.00 61.00 L 29.50 59.10 L 31.40 57.60 L 32.90 56.90 L 36.20 56.40 L 39.50 56.90 L 40.90 57.60 L 42.80 59.10 L 44.30 61.00 L 45.00 62.50 L 45.60 65.80 Z" fill="#59362b" fill-rule="nonzero" group-id="1" node-id="147" stroke="none" target-height="18.799995" target-width="18.899998" target-x="26.7" target-y="56.4"></path><path d="M 45.00 64.90 L 44.90 66.50 L 43.60 69.50 L 41.30 71.80 L 38.30 73.10 L 35.00 73.10 L 32.10 71.80 L 29.70 69.50 L 28.50 66.50 L 28.30 64.90 L 28.60 62.70 L 29.50 60.70 L 30.80 59.00 L 32.50 57.70 L 34.40 56.90 L 36.70 56.60 L 38.90 56.90 L 40.90 57.70 L 42.60 59.00 L 43.90 60.70 L 44.70 62.70 L 45.00 64.90 Z" fill="#63473d" fill-rule="nonzero" group-id="1" node-id="149" stroke="none" target-height="16.5" target-width="16.7" target-x="28.3" target-y="56.6"></path><path d="M 85.40 64.90 L 84.80 68.20 L 84.10 69.70 L 82.70 71.60 L 80.80 73.00 L 79.30 73.70 L 76.00 74.30 L 72.70 73.70 L 71.20 73.00 L 69.30 71.60 L 67.90 69.70 L 67.20 68.20 L 66.60 64.90 L 67.20 61.60 L 67.90 60.10 L 69.30 58.20 L 71.20 56.80 L 72.70 56.10 L 76.00 55.50 L 79.30 56.10 L 80.80 56.80 L 82.70 58.20 L 84.10 60.10 L 84.80 61.60 L 85.40 64.90 Z" fill="#59362b" fill-rule="nonzero" group-id="1" node-id="151" stroke="none" target-height="18.800003" target-width="18.800003" target-x="66.6" target-y="55.5"></path><path d="M 86.60 15.20 L 83.60 29.20 L 83.60 25.60 L 85.00 14.30 Z" fill="#dc7326" fill-rule="nonzero" group-id="1" node-id="153" stroke="none" target-height="14.900001" target-width="3" target-x="83.6" target-y="14.3"></path><path d="M 45.80 87.10 L 48.10 88.70 L 50.50 89.90 L 53.10 90.80 L 56.10 91.40 L 58.90 91.40 L 61.70 91.00 L 64.40 90.10 L 67.00 88.80 L 69.40 87.20 L 69.60 86.20 L 69.30 85.90 L 68.80 86.00 L 64.00 88.90 L 61.40 89.70 L 58.70 90.10 L 56.00 90.00 L 53.20 89.50 L 50.90 88.70 L 46.30 86.00 L 45.60 86.60 L 45.80 87.10 Z" fill="#c06b28" fill-rule="nonzero" group-id="1" node-id="155" stroke="none" target-height="5.5" target-width="24" target-x="45.6" target-y="85.9"></path><path d="M 83.30 64.90 L 83.10 66.50 L 81.90 69.50 L 79.60 71.80 L 76.60 73.10 L 73.30 73.10 L 70.30 71.80 L 68.00 69.50 L 66.80 66.50 L 66.80 63.30 L 68.00 60.30 L 70.30 58.00 L 73.30 56.70 L 76.60 56.70 L 79.60 58.00 L 81.90 60.30 L 83.10 63.30 L 83.30 64.90 Z" fill="#63473d" fill-rule="nonzero" group-id="1" node-id="157" stroke="none" target-height="16.399998" target-width="16.5" target-x="66.8" target-y="56.7"></path><path d="M 37.50 62.70 L 37.30 63.90 L 36.60 64.90 L 35.60 65.50 L 34.40 65.80 L 33.20 65.50 L 32.20 64.90 L 31.60 63.90 L 31.30 62.70 L 31.60 61.50 L 32.20 60.50 L 33.20 59.80 L 34.40 59.60 L 35.60 59.80 L 36.60 60.50 L 37.30 61.50 L 37.50 62.70 Z" fill="#ffffff" fill-rule="nonzero" group-id="1" node-id="159" stroke="none" target-height="6.2000046" target-width="6.200001" target-x="31.3" target-y="59.6"></path><path d="M 39.70 70.80 L 39.40 71.40 L 38.70 71.70 L 38.10 71.40 L 37.80 70.80 L 38.10 70.10 L 38.70 69.80 L 39.40 70.10 L 39.70 70.80 Z" fill="#d1d3d4" fill-rule="nonzero" group-id="1" node-id="161" stroke="none" target-height="1.8999939" target-width="1.9000015" target-x="37.8" target-y="69.8"></path><path d="M 80.50 62.50 L 80.20 63.70 L 79.60 64.70 L 78.60 65.30 L 77.40 65.60 L 76.20 65.30 L 75.20 64.70 L 74.50 63.70 L 74.30 62.50 L 74.50 61.30 L 75.20 60.30 L 76.20 59.60 L 77.40 59.40 L 78.60 59.60 L 79.60 60.30 L 80.20 61.30 L 80.50 62.50 Z" fill="#ffffff" fill-rule="nonzero" group-id="1" node-id="163" stroke="none" target-height="6.199997" target-width="6.199997" target-x="74.3" target-y="59.4"></path><path d="M 73.70 70.80 L 73.40 71.40 L 72.80 71.70 L 72.10 71.40 L 71.80 70.80 L 72.10 70.10 L 72.80 69.80 L 73.40 70.10 L 73.70 70.80 Z" fill="#d1d3d4" fill-rule="nonzero" group-id="1" node-id="165" stroke="none" target-height="1.8999939" target-width="1.8999939" target-x="71.8" target-y="69.8"></path></g></svg>