<?xml version="1.0" standalone="no"?><!DOCTYPE svg PUBLIC "-//W3C//DTD SVG 1.1//EN" "http://www.w3.org/Graphics/SVG/1.1/DTD/svg11.dtd"><svg height="1024" node-id="1" sillyvg="true" template-height="1024" template-width="1024" version="1.1" viewBox="0 0 1024 1024" width="1024" xmlns="http://www.w3.org/2000/svg" xmlns:xlink="http://www.w3.org/1999/xlink"><defs node-id="85"><linearGradient gradientUnits="objectBoundingBox" id="linearGradient-10" node-id="29" spreadMethod="pad" x1="0.41008884" x2="0.56238997" y1="0.9462583" y2="0.000000000000014210855"><stop offset="0" stop-color="#e0eaff"></stop><stop offset="1" stop-color="#679eff"></stop></linearGradient><linearGradient gradientUnits="objectBoundingBox" id="linearGradient-11" node-id="32" spreadMethod="pad" x1="0.4212576" x2="0.5787424" y1="0.11733865" y2="0.023547072"><stop offset="0" stop-color="#e0eaff"></stop><stop offset="1" stop-color="#639bff"></stop></linearGradient><linearGradient gradientUnits="objectBoundingBox" id="linearGradient-12" node-id="35" spreadMethod="pad" x1="0" x2="1" y1="0.46021807" y2="0.46021807"><stop offset="0" stop-color="#e0eaff"></stop><stop offset="1" stop-color="#679eff"></stop></linearGradient><linearGradient gradientUnits="objectBoundingBox" id="linearGradient-13" node-id="38" spreadMethod="pad" x1="0.42775553" x2="0.57224447" y1="0.5" y2="0.4661782"><stop offset="0" stop-color="#639bff"></stop><stop offset="1" stop-color="#e0eaff"></stop></linearGradient><linearGradient gradientUnits="objectBoundingBox" id="linearGradient-14" node-id="41" spreadMethod="pad" x1="0.91771996" x2="0" y1="0.5401043" y2="0.47485343"><stop offset="0" stop-color="#e0eaff"></stop><stop offset="0.9999999" stop-color="#639bff"></stop><stop offset="1" stop-color="#639bff"></stop></linearGradient><linearGradient gradientUnits="objectBoundingBox" id="linearGradient-15" node-id="45" spreadMethod="pad" x1="0" x2="1" y1="0.46133012" y2="0.46133012"><stop offset="0" stop-color="#e0eaff"></stop><stop offset="1" stop-color="#639bff"></stop></linearGradient><linearGradient gradientUnits="objectBoundingBox" id="linearGradient-16" node-id="48" spreadMethod="pad" x1="0.5" x2="0.5" y1="0" y2="1"><stop offset="0" stop-color="#9cbcfa" stop-opacity="0"></stop><stop offset="1" stop-color="#92abff"></stop></linearGradient><filter height="1032.192" id="filter-2" node-id="6" width="1032.192" x="-4.096" y="-4.096"><feGaussianBlur color-interpolation-filters="linearRGB" in="SourceAlpha" result="shadowBlurInner1" stdDeviation="4 4"></feGaussianBlur><feOffset color-interpolation-filters="linearRGB" dx="0" dy="0" in="shadowBlurInner1" result="shadowOffsetInner1"></feOffset><feComposite color-interpolation-filters="linearRGB" in="shadowOffsetInner1" in2="SourceAlpha" k1="0" k2="-1" k3="1" k4="0" operator="arithmetic" result="shadowInnerInner1"></feComposite><feColorMatrix color-interpolation-filters="linearRGB" in="shadowInnerInner1" result="result4" type="matrix" values="0 0 0 0 0.5349466 0 0 0 0 0.7029659 0 0 0 0 1 0 0 0 0.5 0"></feColorMatrix></filter><filter height="897.9017" id="filter-5" node-id="12" width="897.9017" x="65.4385" y="65.4385"><feGaussianBlur color-interpolation-filters="linearRGB" in="SourceAlpha" result="shadowBlurInner1" stdDeviation="8 8"></feGaussianBlur><feOffset color-interpolation-filters="linearRGB" dx="0" dy="4" in="shadowBlurInner1" result="shadowOffsetInner1"></feOffset><feComposite color-interpolation-filters="linearRGB" in="shadowOffsetInner1" in2="SourceAlpha" k1="0" k2="-1" k3="1" k4="0" operator="arithmetic" result="shadowInnerInner1"></feComposite><feColorMatrix color-interpolation-filters="linearRGB" in="shadowInnerInner1" result="result4" type="matrix" values="0 0 0 0 0.5349466 0 0 0 0 0.7029659 0 0 0 0 1 0 0 0 0.60145324 0"></feColorMatrix></filter><filter height="424.75516" id="filter-7" node-id="18" width="737.55304" x="-7.9384384" y="288.238"><feMorphology color-interpolation-filters="linearRGB" in="SourceAlpha" operator="dilate" radius="0.5 0.5" result="shadowSpreadOuter1"></feMorphology><feOffset color-interpolation-filters="linearRGB" dx="0" dy="2" in="shadowSpreadOuter1" result="shadowOffsetOuter1"></feOffset><feGaussianBlur color-interpolation-filters="linearRGB" in="shadowOffsetOuter1" result="shadowBlurOuter1" stdDeviation="2 2"></feGaussianBlur><feComposite color-interpolation-filters="linearRGB" in="shadowBlurOuter1" in2="SourceAlpha" operator="out" result="shadowBlurOuter1"></feComposite><feColorMatrix color-interpolation-filters="linearRGB" in="shadowBlurOuter1" result="result5" type="matrix" values="0 0 0 0 0.7607843 0 0 0 0 0.85490197 0 0 0 0 0.99607843 0 0 0 0.4 0"></feColorMatrix></filter><filter height="328.15787" id="filter-9" node-id="25" width="573.7813" x="80.4942" y="306.5023"><feOffset color-interpolation-filters="linearRGB" dx="0" dy="2" in="SourceAlpha" result="shadowOffsetOuter1"></feOffset><feGaussianBlur color-interpolation-filters="linearRGB" in="shadowOffsetOuter1" result="shadowBlurOuter1" stdDeviation="2 2"></feGaussianBlur><feColorMatrix color-interpolation-filters="linearRGB" in="shadowBlurOuter1" result="result3" type="matrix" values="0 0 0 0 0.7607843 0 0 0 0 0.85490197 0 0 0 0 0.99607843 0 0 0 0.4 0"></feColorMatrix></filter><mask height="2508.3877" id="mask-4" maskUnits="userSpaceOnUse" node-id="56" width="2513.3403" x="196.70844" y="2044.9009"><path d="M 1812.80 3556.00 L 1804.00 3567.70 L 1794.90 3579.00 L 1785.50 3589.90 L 1775.80 3600.50 L 1765.70 3610.70 L 1755.30 3620.60 L 1744.60 3630.20 L 1733.60 3639.40 L 1722.40 3648.20 L 1710.90 3656.60 L 1699.10 3664.60 L 1687.00 3672.30 L 1674.70 3679.50 L 1662.20 3686.40 L 1649.50 3692.80 L 1636.60 3698.80 L 1623.40 3704.50 L 1610.00 3709.70 L 1596.50 3714.40 L 1582.80 3718.70 L 1569.00 3722.60 L 1555.00 3726.00 L 1540.80 3729.00 L 1526.40 3731.50 L 1511.90 3733.60 L 1497.50 3735.10 L 1483.10 3736.20 L 1468.80 3736.80 L 1454.40 3736.90 L 1440.10 3736.60 L 1425.80 3735.80 L 1411.50 3734.50 L 1397.30 3732.80 L 1383.20 3730.60 L 1369.20 3727.90 L 1355.30 3724.80 L 1341.40 3721.20 L 1327.80 3717.20 L 1314.20 3712.80 L 1300.80 3707.90 L 1287.50 3702.60 L 1274.40 3696.80 L 1261.40 3690.60 L 1248.70 3684.00 L 1236.20 3676.90 L 1223.90 3669.40 L 1211.70 3661.50 L 1199.80 3653.10 L 1188.10 3644.30 L 1176.80 3635.20 L 1165.90 3625.80 L 1155.30 3616.10 L 1145.10 3606.10 L 1135.20 3595.70 L 1125.60 3585.00 L 1116.50 3574.00 L 1107.70 3562.70 L 1099.20 3551.20 L 1091.20 3539.40 L 1083.50 3527.40 L 1076.30 3515.10 L 1069.40 3502.60 L 1063.00 3489.80 L 1057.00 3476.90 L 1051.40 3463.70 L 1046.10 3450.40 L 1041.40 3436.80 L 1037.10 3423.10 L 1033.20 3409.30 L 1029.80 3395.30 L 1026.80 3381.10 L 1024.30 3366.70 L 1022.20 3352.30 L 1020.70 3337.90 L 1019.60 3323.50 L 1019.00 3309.10 L 1018.90 3294.80 L 1019.20 3280.40 L 1020.00 3266.10 L 1021.30 3251.80 L 1023.10 3237.70 L 1025.20 3223.60 L 1027.90 3209.60 L 1031.00 3195.60 L 1034.60 3181.80 L 1038.60 3168.10 L 1043.00 3154.60 L 1047.90 3141.10 L 1053.20 3127.90 L 1059.00 3114.70 L 1065.20 3101.80 L 1071.80 3089.10 L 1078.90 3076.50 L 1086.40 3064.20 L 1094.30 3052.10 L 1102.70 3040.10 L 1111.50 3028.50 L 1120.60 3017.20 L 1130.00 3006.20 L 1139.70 2995.70 L 1149.80 2985.40 L 1160.10 2975.50 L 1170.90 2966.00 L 1181.80 2956.80 L 1193.10 2948.00 L 1204.60 2939.60 L 1216.40 2931.60 L 1228.40 2923.90 L 1240.70 2916.60 L 1253.20 2909.80 L 1266.00 2903.30 L 1278.90 2897.30 L 1292.10 2891.70 L 1305.50 2886.50 L 1319.00 2881.70 L 1332.70 2877.40 L 1346.50 2873.50 L 1360.50 2870.10 L 1374.70 2867.20 L 1389.10 2864.60 L 1403.50 2862.60 L 1418.00 2861.00 L 1432.30 2860.00 L 1446.70 2859.40 L 1461.00 2859.20 L 1475.40 2859.60 L 1489.70 2860.40 L 1504.00 2861.70 L 1518.10 2863.40 L 1532.20 2865.60 L 1546.20 2868.20 L 1560.20 2871.30 L 1574.00 2874.90 L 1587.70 2878.90 L 1601.30 2883.30 L 1614.70 2888.20 L 1627.90 2893.60 L 1641.10 2899.40 L 1654.00 2905.60 L 1666.70 2912.20 L 1679.30 2919.20 L 1691.60 2926.70 L 1703.70 2934.70 L 1715.70 2943.00 L 1727.40 2951.80 L 1738.60 2960.90 L 1749.60 2970.30 L 1760.20 2980.00 L 1770.40 2990.10 L 1780.30 3000.50 L 1789.80 3011.20 L 1799.00 3022.20 L 1807.80 3033.40 L 1816.20 3044.90 L 1824.30 3056.70 L 1831.90 3068.80 L 1839.20 3081.10 L 1846.00 3093.60 L 1852.50 3106.30 L 1858.50 3119.20 L 1864.10 3132.40 L 1869.30 3145.80 L 1874.10 3159.30 L 1878.40 3173.00 L 1882.30 3186.80 L 1885.70 3200.90 L 1888.70 3215.00 L 1891.20 3229.40 L 1893.20 3243.90 L 1894.80 3258.30 L 1895.90 3272.70 L 1896.50 3287.00 L 1896.60 3301.40 L 1896.20 3315.70 L 1895.40 3330.10 L 1894.20 3344.30 L 1892.40 3358.50 L 1890.20 3372.60 L 1887.60 3386.60 L 1884.50 3400.50 L 1880.90 3414.40 L 1876.90 3428.10 L 1872.50 3441.60 L 1867.60 3455.00 L 1862.20 3468.30 L 1856.50 3481.40 L 1850.30 3494.40 L 1843.60 3507.10 L 1836.60 3519.60 L 1829.10 3531.90 L 1821.20 3544.10 L 1812.80 3556.00 Z" fill="#ffffff" fill-rule="evenodd" node-id="174" stroke="none" target-height="877.69995" target-width="877.69995" target-x="1018.9" target-y="2859.2"></path></mask><mask height="475.1623" id="mask1" maskUnits="userSpaceOnUse" node-id="178" width="914.0943" x="39.913597" y="241.12321"><path d="M 946.40 394.80 L 949.90 408.90 L 953.00 423.10 L 955.60 437.30 L 957.70 451.50 L 959.30 465.80 L 960.40 480.10 L 961.10 494.40 L 961.30 508.70 L 961.10 523.00 L 960.40 537.20 L 959.20 551.40 L 957.60 565.60 L 955.50 579.80 L 953.00 593.80 L 949.90 607.70 L 946.50 621.60 L 942.60 635.30 L 938.20 649.00 L 933.40 662.50 L 928.10 675.90 L 922.40 689.10 L 916.30 702.10 L 909.60 715.00 L 902.60 727.80 L 895.00 740.30 L 887.20 752.50 L 879.00 764.30 L 870.40 775.90 L 861.50 787.10 L 852.20 798.00 L 842.50 808.70 L 832.60 818.90 L 822.30 828.80 L 811.70 838.40 L 800.80 847.60 L 789.70 856.50 L 778.20 865.00 L 766.50 873.20 L 754.50 880.90 L 742.20 888.20 L 729.70 895.20 L 717.00 901.80 L 704.00 907.90 L 690.90 913.60 L 677.50 918.90 L 663.90 923.80 L 650.10 928.20 L 636.10 932.30 L 621.90 935.80 L 607.70 938.80 L 593.60 941.40 L 579.30 943.50 L 565.10 945.10 L 550.80 946.30 L 536.40 947.00 L 522.10 947.20 L 507.90 947.00 L 493.60 946.30 L 479.40 945.10 L 465.20 943.50 L 451.10 941.40 L 437.00 938.80 L 423.10 935.80 L 409.30 932.30 L 395.50 928.40 L 381.80 924.10 L 368.30 919.20 L 355.00 914.00 L 341.80 908.30 L 328.70 902.10 L 315.80 895.50 L 303.10 888.40 L 290.60 880.90 L 278.40 873.00 L 266.50 864.80 L 255.00 856.30 L 243.70 847.30 L 232.80 838.00 L 222.20 828.40 L 211.90 818.40 L 202.00 808.20 L 192.40 797.60 L 183.20 786.70 L 174.30 775.50 L 165.80 764.00 L 157.70 752.30 L 150.00 740.30 L 142.60 728.10 L 135.70 715.60 L 129.10 702.80 L 122.90 689.90 L 117.20 676.70 L 111.90 663.30 L 107.10 649.80 L 102.60 636.00 L 98.60 621.90 L 95.10 607.80 L 92.00 593.60 L 89.40 579.40 L 87.30 565.20 L 85.70 550.90 L 84.50 536.60 L 83.90 522.30 L 83.60 508.00 L 83.90 493.70 L 84.60 479.50 L 85.80 465.30 L 87.40 451.10 L 89.50 436.90 L 92.00 422.90 L 95.00 409.00 L 98.50 395.10 L 102.40 381.40 L 106.80 367.70 L 111.60 354.20 L 116.90 340.80 L 122.60 327.60 L 128.70 314.60 L 135.40 301.70 L 142.40 288.90 L 149.90 276.40 L 157.80 264.20 L 166.00 252.40 L 174.60 240.80 L 183.50 229.60 L 192.80 218.70 L 202.50 208.00 L 212.40 197.80 L 222.70 187.90 L 233.30 178.30 L 244.10 169.10 L 255.30 160.20 L 266.80 151.70 L 278.50 143.50 L 290.50 135.80 L 302.70 128.50 L 315.30 121.50 L 328.00 114.90 L 341.00 108.80 L 354.10 103.10 L 367.50 97.80 L 381.10 92.90 L 394.90 88.50 L 408.90 84.40 L 423.10 80.90 L 437.20 77.90 L 451.40 75.30 L 465.70 73.20 L 479.90 71.60 L 494.20 70.40 L 508.60 69.70 L 522.90 69.50 L 537.10 69.70 L 551.40 70.40 L 565.60 71.60 L 579.80 73.20 L 593.90 75.30 L 607.90 77.90 L 621.90 80.90 L 635.70 84.40 L 649.50 88.30 L 663.20 92.70 L 676.70 97.50 L 690.00 102.70 L 703.20 108.40 L 716.30 114.60 L 729.20 121.20 L 741.90 128.30 L 754.40 135.80 L 766.60 143.70 L 778.50 151.90 L 790.00 160.50 L 801.20 169.40 L 812.20 178.70 L 822.80 188.30 L 833.10 198.30 L 843.00 208.60 L 852.60 219.10 L 861.80 230.00 L 870.70 241.20 L 879.20 252.70 L 887.30 264.40 L 895.00 276.40 L 902.40 288.60 L 909.30 301.10 L 915.90 313.90 L 922.10 326.80 L 927.80 340.00 L 933.10 353.40 L 937.90 366.90 L 942.40 380.70 L 946.40 394.80 Z" fill="#ffffff" fill-rule="evenodd" node-id="182" stroke="none" target-height="877.7" target-width="877.7" target-x="83.6" target-y="69.5"></path></mask></defs><g node-id="238"><g node-id="239"><g node-id="243"><path d="M 1024.00 512.00 L 1023.70 528.30 L 1023.00 544.50 L 1021.70 560.60 L 1019.90 576.70 L 1017.60 592.60 L 1014.80 608.40 L 1011.60 624.20 L 1007.80 639.70 L 1003.60 655.20 L 998.90 670.40 L 993.70 685.60 L 988.00 700.50 L 981.90 715.30 L 975.30 729.80 L 968.30 744.20 L 960.80 758.40 L 952.90 772.30 L 944.60 785.90 L 935.80 799.40 L 926.50 812.60 L 916.90 825.40 L 906.80 838.00 L 896.30 850.30 L 885.40 862.30 L 874.00 874.00 L 862.30 885.40 L 850.30 896.30 L 838.00 906.80 L 825.40 916.90 L 812.60 926.50 L 799.40 935.80 L 785.90 944.60 L 772.30 952.90 L 758.40 960.80 L 744.20 968.30 L 729.80 975.30 L 715.30 981.90 L 700.50 988.00 L 685.60 993.70 L 670.40 998.90 L 655.20 1003.60 L 639.70 1007.80 L 624.20 1011.60 L 608.40 1014.80 L 592.60 1017.60 L 576.70 1019.90 L 560.60 1021.70 L 544.50 1023.00 L 528.30 1023.70 L 512.00 1024.00 L 495.70 1023.70 L 479.50 1023.00 L 463.40 1021.70 L 447.30 1019.90 L 431.40 1017.60 L 415.60 1014.80 L 399.80 1011.60 L 384.30 1007.80 L 368.80 1003.60 L 353.60 998.90 L 338.40 993.70 L 323.50 988.00 L 308.70 981.90 L 294.20 975.30 L 279.80 968.30 L 265.60 960.80 L 251.70 952.90 L 238.10 944.60 L 224.60 935.80 L 211.40 926.50 L 198.60 916.90 L 186.00 906.80 L 173.70 896.30 L 161.70 885.40 L 150.00 874.00 L 138.60 862.30 L 127.70 850.30 L 117.20 838.00 L 107.10 825.40 L 97.50 812.60 L 88.20 799.40 L 79.40 785.90 L 71.10 772.30 L 63.20 758.40 L 55.70 744.20 L 48.70 729.80 L 42.10 715.30 L 36.00 700.50 L 30.30 685.60 L 25.10 670.40 L 20.40 655.20 L 16.20 639.70 L 12.40 624.20 L 9.20 608.40 L 6.40 592.60 L 4.10 576.70 L 2.30 560.60 L 1.00 544.50 L 0.30 528.30 L 0.00 512.00 L 0.30 495.70 L 1.00 479.50 L 2.30 463.40 L 4.10 447.30 L 6.40 431.40 L 9.20 415.60 L 12.40 399.80 L 16.20 384.30 L 20.40 368.80 L 25.10 353.60 L 30.30 338.40 L 36.00 323.50 L 42.10 308.70 L 48.70 294.20 L 55.70 279.80 L 63.20 265.60 L 71.10 251.70 L 79.40 238.10 L 88.20 224.60 L 97.50 211.40 L 107.10 198.60 L 117.20 186.00 L 127.70 173.70 L 138.60 161.70 L 150.00 150.00 L 161.70 138.60 L 173.70 127.70 L 186.00 117.20 L 198.60 107.10 L 211.40 97.50 L 224.60 88.20 L 238.10 79.40 L 251.70 71.10 L 265.60 63.20 L 279.80 55.70 L 294.20 48.70 L 308.70 42.10 L 323.50 36.00 L 338.40 30.30 L 353.60 25.10 L 368.80 20.40 L 384.30 16.20 L 399.80 12.40 L 415.60 9.20 L 431.40 6.40 L 447.30 4.10 L 463.40 2.30 L 479.50 1.00 L 495.70 0.30 L 512.00 0.00 L 528.30 0.30 L 544.50 1.00 L 560.60 2.30 L 576.70 4.10 L 592.60 6.40 L 608.40 9.20 L 624.20 12.40 L 639.70 16.20 L 655.20 20.40 L 670.40 25.10 L 685.60 30.30 L 700.50 36.00 L 715.30 42.10 L 729.80 48.70 L 744.20 55.70 L 758.40 63.20 L 772.30 71.10 L 785.90 79.40 L 799.40 88.20 L 812.60 97.50 L 825.40 107.10 L 838.00 117.20 L 850.30 127.70 L 862.30 138.60 L 874.00 150.00 L 885.40 161.70 L 896.30 173.70 L 906.80 186.00 L 916.90 198.60 L 926.50 211.40 L 935.80 224.60 L 944.60 238.10 L 952.90 251.70 L 960.80 265.60 L 968.30 279.80 L 975.30 294.20 L 981.90 308.70 L 988.00 323.50 L 993.70 338.40 L 998.90 353.60 L 1003.60 368.80 L 1007.80 384.30 L 1011.60 399.80 L 1014.80 415.60 L 1017.60 431.40 L 1019.90 447.30 L 1021.70 463.40 L 1023.00 479.50 L 1023.70 495.70 L 1024.00 512.00 Z" fill="#ffffff" fill-rule="evenodd" group-id="1,2,6" node-id="192" stroke="none" target-height="1024" target-width="1024" target-x="0" target-y="0"></path></g><path d="M 1024.00 512.00 L 1023.70 528.30 L 1023.00 544.50 L 1021.70 560.60 L 1019.90 576.70 L 1017.60 592.60 L 1014.80 608.40 L 1011.60 624.20 L 1007.80 639.70 L 1003.60 655.20 L 998.90 670.40 L 993.70 685.60 L 988.00 700.50 L 981.90 715.30 L 975.30 729.80 L 968.30 744.20 L 960.80 758.40 L 952.90 772.30 L 944.60 785.90 L 935.80 799.40 L 926.50 812.60 L 916.90 825.40 L 906.80 838.00 L 896.30 850.30 L 885.40 862.30 L 874.00 874.00 L 862.30 885.40 L 850.30 896.30 L 838.00 906.80 L 825.40 916.90 L 812.60 926.50 L 799.40 935.80 L 785.90 944.60 L 772.30 952.90 L 758.40 960.80 L 744.20 968.30 L 729.80 975.30 L 715.30 981.90 L 700.50 988.00 L 685.60 993.70 L 670.40 998.90 L 655.20 1003.60 L 639.70 1007.80 L 624.20 1011.60 L 608.40 1014.80 L 592.60 1017.60 L 576.70 1019.90 L 560.60 1021.70 L 544.50 1023.00 L 528.30 1023.70 L 512.00 1024.00 L 495.70 1023.70 L 479.50 1023.00 L 463.40 1021.70 L 447.30 1019.90 L 431.40 1017.60 L 415.60 1014.80 L 399.80 1011.60 L 384.30 1007.80 L 368.80 1003.60 L 353.60 998.90 L 338.40 993.70 L 323.50 988.00 L 308.70 981.90 L 294.20 975.30 L 279.80 968.30 L 265.60 960.80 L 251.70 952.90 L 238.10 944.60 L 224.60 935.80 L 211.40 926.50 L 198.60 916.90 L 186.00 906.80 L 173.70 896.30 L 161.70 885.40 L 150.00 874.00 L 138.60 862.30 L 127.70 850.30 L 117.20 838.00 L 107.10 825.40 L 97.50 812.60 L 88.20 799.40 L 79.40 785.90 L 71.10 772.30 L 63.20 758.40 L 55.70 744.20 L 48.70 729.80 L 42.10 715.30 L 36.00 700.50 L 30.30 685.60 L 25.10 670.40 L 20.40 655.20 L 16.20 639.70 L 12.40 624.20 L 9.20 608.40 L 6.40 592.60 L 4.10 576.70 L 2.30 560.60 L 1.00 544.50 L 0.30 528.30 L 0.00 512.00 L 0.30 495.70 L 1.00 479.50 L 2.30 463.40 L 4.10 447.30 L 6.40 431.40 L 9.20 415.60 L 12.40 399.80 L 16.20 384.30 L 20.40 368.80 L 25.10 353.60 L 30.30 338.40 L 36.00 323.50 L 42.10 308.70 L 48.70 294.20 L 55.70 279.80 L 63.20 265.60 L 71.10 251.70 L 79.40 238.10 L 88.20 224.60 L 97.50 211.40 L 107.10 198.60 L 117.20 186.00 L 127.70 173.70 L 138.60 161.70 L 150.00 150.00 L 161.70 138.60 L 173.70 127.70 L 186.00 117.20 L 198.60 107.10 L 211.40 97.50 L 224.60 88.20 L 238.10 79.40 L 251.70 71.10 L 265.60 63.20 L 279.80 55.70 L 294.20 48.70 L 308.70 42.10 L 323.50 36.00 L 338.40 30.30 L 353.60 25.10 L 368.80 20.40 L 384.30 16.20 L 399.80 12.40 L 415.60 9.20 L 431.40 6.40 L 447.30 4.10 L 463.40 2.30 L 479.50 1.00 L 495.70 0.30 L 512.00 0.00 L 528.30 0.30 L 544.50 1.00 L 560.60 2.30 L 576.70 4.10 L 592.60 6.40 L 608.40 9.20 L 624.20 12.40 L 639.70 16.20 L 655.20 20.40 L 670.40 25.10 L 685.60 30.30 L 700.50 36.00 L 715.30 42.10 L 729.80 48.70 L 744.20 55.70 L 758.40 63.20 L 772.30 71.10 L 785.90 79.40 L 799.40 88.20 L 812.60 97.50 L 825.40 107.10 L 838.00 117.20 L 850.30 127.70 L 862.30 138.60 L 874.00 150.00 L 885.40 161.70 L 896.30 173.70 L 906.80 186.00 L 916.90 198.60 L 926.50 211.40 L 935.80 224.60 L 944.60 238.10 L 952.90 251.70 L 960.80 265.60 L 968.30 279.80 L 975.30 294.20 L 981.90 308.70 L 988.00 323.50 L 993.70 338.40 L 998.90 353.60 L 1003.60 368.80 L 1007.80 384.30 L 1011.60 399.80 L 1014.80 415.60 L 1017.60 431.40 L 1019.90 447.30 L 1021.70 463.40 L 1023.00 479.50 L 1023.70 495.70 L 1024.00 512.00 Z" fill="#000000" fill-rule="evenodd" filter="url(#filter-2)" group-id="1,2,7" node-id="197" stroke="none" target-height="1024" target-width="1024" target-x="0" target-y="0"></path></g><g node-id="240"><g node-id="245"><path d="M 952.80 514.00 L 952.60 528.50 L 951.80 543.00 L 950.70 557.40 L 949.00 571.70 L 946.90 585.90 L 944.30 600.00 L 941.20 614.00 L 937.80 627.90 L 933.80 641.60 L 929.50 655.20 L 924.70 668.60 L 919.40 681.90 L 913.70 695.00 L 907.60 707.90 L 901.10 720.60 L 894.20 733.10 L 886.80 745.30 L 879.10 757.40 L 870.90 769.20 L 862.40 780.80 L 853.50 792.00 L 844.10 803.00 L 834.40 813.80 L 824.30 824.30 L 813.80 834.40 L 803.00 844.10 L 792.00 853.50 L 780.80 862.40 L 769.20 870.90 L 757.40 879.10 L 745.30 886.80 L 733.10 894.20 L 720.60 901.10 L 707.90 907.60 L 695.00 913.70 L 681.90 919.40 L 668.60 924.70 L 655.20 929.50 L 641.60 933.80 L 627.90 937.80 L 614.00 941.20 L 600.00 944.30 L 585.90 946.90 L 571.70 949.00 L 557.40 950.70 L 543.00 951.80 L 528.50 952.60 L 514.00 952.80 L 499.40 952.60 L 484.90 951.80 L 470.50 950.70 L 456.20 949.00 L 442.00 946.90 L 427.90 944.30 L 413.90 941.20 L 400.00 937.80 L 386.30 933.80 L 372.70 929.50 L 359.30 924.70 L 346.00 919.40 L 332.90 913.70 L 320.00 907.60 L 307.30 901.10 L 294.80 894.20 L 282.60 886.80 L 270.50 879.10 L 258.70 870.90 L 247.10 862.40 L 235.90 853.50 L 224.90 844.10 L 214.10 834.40 L 203.60 824.30 L 193.50 813.80 L 183.80 803.00 L 174.40 792.00 L 165.50 780.80 L 157.00 769.20 L 148.80 757.40 L 141.10 745.30 L 133.70 733.10 L 126.80 720.60 L 120.30 707.90 L 114.20 695.00 L 108.50 681.90 L 103.20 668.60 L 98.40 655.20 L 94.10 641.60 L 90.10 627.90 L 86.70 614.00 L 83.60 600.00 L 81.00 585.90 L 78.90 571.70 L 77.20 557.40 L 76.10 543.00 L 75.30 528.50 L 75.10 514.00 L 75.30 499.40 L 76.10 484.90 L 77.20 470.50 L 78.90 456.20 L 81.00 442.00 L 83.60 427.90 L 86.70 413.90 L 90.10 400.00 L 94.10 386.30 L 98.40 372.70 L 103.20 359.30 L 108.50 346.00 L 114.20 332.90 L 120.30 320.00 L 126.80 307.30 L 133.70 294.80 L 141.10 282.60 L 148.80 270.50 L 157.00 258.70 L 165.50 247.10 L 174.40 235.90 L 183.80 224.90 L 193.50 214.10 L 203.60 203.60 L 214.10 193.50 L 224.90 183.80 L 235.90 174.40 L 247.10 165.50 L 258.70 157.00 L 270.50 148.80 L 282.60 141.10 L 294.80 133.70 L 307.30 126.80 L 320.00 120.30 L 332.90 114.20 L 346.00 108.50 L 359.30 103.20 L 372.70 98.40 L 386.30 94.10 L 400.00 90.10 L 413.90 86.70 L 427.90 83.60 L 442.00 81.00 L 456.20 78.90 L 470.50 77.20 L 484.90 76.10 L 499.40 75.30 L 514.00 75.10 L 528.50 75.30 L 543.00 76.10 L 557.40 77.20 L 571.70 78.90 L 585.90 81.00 L 600.00 83.60 L 614.00 86.70 L 627.90 90.10 L 641.60 94.10 L 655.20 98.40 L 668.60 103.20 L 681.90 108.50 L 695.00 114.20 L 707.90 120.30 L 720.60 126.80 L 733.10 133.70 L 745.30 141.10 L 757.40 148.80 L 769.20 157.00 L 780.80 165.50 L 792.00 174.40 L 803.00 183.80 L 813.80 193.50 L 824.30 203.60 L 834.40 214.10 L 844.10 224.90 L 853.50 235.90 L 862.40 247.10 L 870.90 258.70 L 879.10 270.50 L 886.80 282.60 L 894.20 294.80 L 901.10 307.30 L 907.60 320.00 L 913.70 332.90 L 919.40 346.00 L 924.70 359.30 L 929.50 372.70 L 933.80 386.30 L 937.80 400.00 L 941.20 413.90 L 944.30 427.90 L 946.90 442.00 L 949.00 456.20 L 950.70 470.50 L 951.80 484.90 L 952.60 499.40 L 952.80 514.00 Z" fill="#316cd4" fill-rule="evenodd" group-id="1,3,8" node-id="204" stroke="none" target-height="877.7" target-width="877.7" target-x="75.1" target-y="75.1"></path></g><path d="M 952.80 514.00 L 952.60 528.50 L 951.80 543.00 L 950.70 557.40 L 949.00 571.70 L 946.90 585.90 L 944.30 600.00 L 941.20 614.00 L 937.80 627.90 L 933.80 641.60 L 929.50 655.20 L 924.70 668.60 L 919.40 681.90 L 913.70 695.00 L 907.60 707.90 L 901.10 720.60 L 894.20 733.10 L 886.80 745.30 L 879.10 757.40 L 870.90 769.20 L 862.40 780.80 L 853.50 792.00 L 844.10 803.00 L 834.40 813.80 L 824.30 824.30 L 813.80 834.40 L 803.00 844.10 L 792.00 853.50 L 780.80 862.40 L 769.20 870.90 L 757.40 879.10 L 745.30 886.80 L 733.10 894.20 L 720.60 901.10 L 707.90 907.60 L 695.00 913.70 L 681.90 919.40 L 668.60 924.70 L 655.20 929.50 L 641.60 933.80 L 627.90 937.80 L 614.00 941.20 L 600.00 944.30 L 585.90 946.90 L 571.70 949.00 L 557.40 950.70 L 543.00 951.80 L 528.50 952.60 L 514.00 952.80 L 499.40 952.60 L 484.90 951.80 L 470.50 950.70 L 456.20 949.00 L 442.00 946.90 L 427.90 944.30 L 413.90 941.20 L 400.00 937.80 L 386.30 933.80 L 372.70 929.50 L 359.30 924.70 L 346.00 919.40 L 332.90 913.70 L 320.00 907.60 L 307.30 901.10 L 294.80 894.20 L 282.60 886.80 L 270.50 879.10 L 258.70 870.90 L 247.10 862.40 L 235.90 853.50 L 224.90 844.10 L 214.10 834.40 L 203.60 824.30 L 193.50 813.80 L 183.80 803.00 L 174.40 792.00 L 165.50 780.80 L 157.00 769.20 L 148.80 757.40 L 141.10 745.30 L 133.70 733.10 L 126.80 720.60 L 120.30 707.90 L 114.20 695.00 L 108.50 681.90 L 103.20 668.60 L 98.40 655.20 L 94.10 641.60 L 90.10 627.90 L 86.70 614.00 L 83.60 600.00 L 81.00 585.90 L 78.90 571.70 L 77.20 557.40 L 76.10 543.00 L 75.30 528.50 L 75.10 514.00 L 75.30 499.40 L 76.10 484.90 L 77.20 470.50 L 78.90 456.20 L 81.00 442.00 L 83.60 427.90 L 86.70 413.90 L 90.10 400.00 L 94.10 386.30 L 98.40 372.70 L 103.20 359.30 L 108.50 346.00 L 114.20 332.90 L 120.30 320.00 L 126.80 307.30 L 133.70 294.80 L 141.10 282.60 L 148.80 270.50 L 157.00 258.70 L 165.50 247.10 L 174.40 235.90 L 183.80 224.90 L 193.50 214.10 L 203.60 203.60 L 214.10 193.50 L 224.90 183.80 L 235.90 174.40 L 247.10 165.50 L 258.70 157.00 L 270.50 148.80 L 282.60 141.10 L 294.80 133.70 L 307.30 126.80 L 320.00 120.30 L 332.90 114.20 L 346.00 108.50 L 359.30 103.20 L 372.70 98.40 L 386.30 94.10 L 400.00 90.10 L 413.90 86.70 L 427.90 83.60 L 442.00 81.00 L 456.20 78.90 L 470.50 77.20 L 484.90 76.10 L 499.40 75.30 L 514.00 75.10 L 528.50 75.30 L 543.00 76.10 L 557.40 77.20 L 571.70 78.90 L 585.90 81.00 L 600.00 83.60 L 614.00 86.70 L 627.90 90.10 L 641.60 94.10 L 655.20 98.40 L 668.60 103.20 L 681.90 108.50 L 695.00 114.20 L 707.90 120.30 L 720.60 126.80 L 733.10 133.70 L 745.30 141.10 L 757.40 148.80 L 769.20 157.00 L 780.80 165.50 L 792.00 174.40 L 803.00 183.80 L 813.80 193.50 L 824.30 203.60 L 834.40 214.10 L 844.10 224.90 L 853.50 235.90 L 862.40 247.10 L 870.90 258.70 L 879.10 270.50 L 886.80 282.60 L 894.20 294.80 L 901.10 307.30 L 907.60 320.00 L 913.70 332.90 L 919.40 346.00 L 924.70 359.30 L 929.50 372.70 L 933.80 386.30 L 937.80 400.00 L 941.20 413.90 L 944.30 427.90 L 946.90 442.00 L 949.00 456.20 L 950.70 470.50 L 951.80 484.90 L 952.60 499.40 L 952.80 514.00 Z" fill="#000000" fill-rule="evenodd" filter="url(#filter-5)" group-id="1,3,9" node-id="209" stroke="none" target-height="877.7" target-width="877.7" target-x="75.1" target-y="75.1"></path></g><g node-id="241"><g node-id="247"><g node-id="248"><g node-id="252"><path d="M 150.20 667.00 L 514.90 459.50 L 871.90 667.00 L 511.00 869.10 Z" fill="#000000" fill-rule="evenodd" filter="url(#filter-7)" group-id="1,4,10,11,15" node-id="219" stroke="none" target-height="409.59998" target-width="721.7" target-x="150.2" target-y="459.5"></path></g><path d="M 150.20 667.00 L 514.90 459.50 L 871.90 667.00 L 511.00 869.10 Z" fill="#ffffff" fill-rule="evenodd" group-id="1,4,10,11,16" node-id="224" stroke="#c2dafe" stroke-linecap="butt" stroke-width="1" target-height="409.59998" target-width="721.7" target-x="150.2" target-y="459.5"></path></g><g node-id="249"><g node-id="254"><path d="M 238.00 636.10 L 520.90 477.10 L 797.70 636.10 L 517.90 791.10 Z" fill="#000000" fill-rule="evenodd" filter="url(#filter-9)" group-id="1,4,10,12,17" node-id="231" stroke="none" target-height="313.99997" target-width="559.7" target-x="238" target-y="477.1"></path></g><path d="M 238.00 636.10 L 520.90 477.10 L 797.70 636.10 L 517.90 791.10 Z" fill="#c2dafe" fill-rule="evenodd" group-id="1,4,10,12,18" node-id="236" stroke="none" target-height="313.99997" target-width="559.7" target-x="238" target-y="477.1"></path></g><g node-id="250"><g node-id="256"><path d="M 370.20 169.80 L 710.40 224.80 L 725.20 395.00 L 692.50 398.30 L 688.70 247.90 L 339.00 192.50 Z" fill="url(#linearGradient-10)" fill-rule="evenodd" group-id="1,4,10,13,19" id="路径" node-id="70" stroke="none" target-height="228.49998" target-width="386.2" target-x="339" target-y="169.8"></path></g><g node-id="257"><path d="M 326.40 490.00 L 670.00 544.60 L 675.70 667.20 L 659.20 692.50 L 338.50 641.70 Z" fill="url(#linearGradient-11)" fill-rule="evenodd" group-id="1,4,10,13,20" id="路径备份-5" node-id="71" stroke="none" target-height="202.5" target-width="349.30002" target-x="326.4" target-y="490"></path></g><g node-id="258"><path d="M 339.00 192.50 L 688.70 247.90 L 700.20 399.50 L 351.00 344.20 Z" fill="url(#linearGradient-12)" fill-rule="evenodd" group-id="1,4,10,13,21" id="路径" node-id="72" stroke="none" target-height="207" target-width="361.2" target-x="339" target-y="192.5"></path></g><g node-id="259"><path d="M 292.70 484.70 L 642.40 540.10 L 653.90 691.70 L 304.70 636.40 Z" fill="url(#linearGradient-13)" fill-rule="evenodd" group-id="1,4,10,13,22" id="路径备份-5" node-id="73" stroke="none" target-height="207" target-width="361.2" target-x="292.7" target-y="484.7"></path></g><g node-id="260"><path d="M 725.20 395.00 L 698.10 399.20 L 639.00 537.70 L 671.40 544.70 Z" fill="url(#linearGradient-14)" fill-rule="evenodd" group-id="1,4,10,13,23" id="路径备份-4" node-id="74" stroke="none" target-height="149.70001" target-width="86.20001" target-x="639" target-y="395"></path></g><path d="M 700.20 399.50 L 350.50 344.10 L 292.70 484.70 L 641.80 540.00 Z" fill="url(#linearGradient-15)" fill-rule="evenodd" group-id="1,4,10,13,24" id="路径备份-4" node-id="75" stroke="none" target-height="195.9" target-width="407.5" target-x="292.7" target-y="344.1"></path></g><g node-id="251"><path d="M 374.00 257.40 L 652.90 302.60 L 659.70 345.60 L 380.80 300.40 Z" fill="#ffffff" fill-rule="evenodd" group-id="1,4,10,14" id="矩形" node-id="77" stroke="none" target-height="88.20001" target-width="285.7" target-x="374" target-y="257.4"></path><path d="M 373.00 250.70 L 651.90 295.80 L 658.70 338.80 L 379.80 293.70 Z" fill="#53eaf8" fill-rule="evenodd" group-id="1,4,10,14" id="矩形" node-id="78" stroke="none" target-height="88.09999" target-width="285.7" target-x="373" target-y="250.7"></path><path d="M 376.60 388.10 L 533.60 409.40 L 531.50 429.50 L 374.50 408.20 Z" fill="#6da1ff" fill-rule="evenodd" group-id="1,4,10,14" id="矩形备份-5" node-id="79" stroke="none" target-height="41.399994" target-width="159.09998" target-x="374.5" target-y="388.1"></path><path d="M 360.50 439.30 L 607.10 481.50 L 601.90 500.80 L 355.30 458.60 Z" fill="#6da1ff" fill-rule="evenodd" group-id="1,4,10,14" id="矩形备份-6" node-id="80" stroke="none" target-height="61.5" target-width="251.79999" target-x="355.3" target-y="439.3"></path><path d="M 355.20 535.40 L 600.10 567.40 L 595.00 587.00 L 350.10 555.00 Z" fill="#6da1ff" fill-rule="evenodd" group-id="1,4,10,14" id="矩形备份-11" node-id="81" stroke="none" target-height="51.599976" target-width="249.99997" target-x="350.1" target-y="535.4"></path><path d="M 360.00 589.80 L 604.90 621.80 L 599.80 641.50 L 354.80 609.50 Z" fill="#6da1ff" fill-rule="evenodd" group-id="1,4,10,14" id="矩形备份-12" node-id="82" stroke="none" target-height="51.700012" target-width="250.10004" target-x="354.8" target-y="589.8"></path></g></g></g><path d="M 312.60 421.30 L 295.80 428.90 L 265.10 443.90 L 251.20 451.40 L 237.10 459.40 L 224.20 467.20 L 212.40 474.90 L 201.60 482.40 L 190.70 490.60 L 181.20 498.40 L 172.90 506.00 L 165.70 513.30 L 160.00 519.70 L 155.20 525.90 L 151.20 531.70 L 148.00 537.30 L 145.40 542.70 L 143.60 547.60 L 142.40 552.30 L 141.80 556.80 L 141.60 561.20 L 141.90 565.40 L 142.80 569.60 L 144.10 573.60 L 146.00 577.50 L 148.30 581.20 L 151.20 584.80 L 154.60 588.30 L 158.70 591.60 L 163.60 595.10 L 169.30 598.30 L 175.70 601.40 L 183.00 604.30 L 191.30 607.10 L 201.30 609.80 L 212.40 612.10 L 224.70 614.10 L 238.30 615.80 L 251.60 616.90 L 265.80 617.60 L 281.10 617.90 L 297.50 617.70 L 313.40 617.10 L 347.90 614.70 L 366.40 612.80 L 403.40 607.80 L 422.80 604.60 L 462.70 596.90 L 482.90 592.50 L 524.70 582.10 L 545.60 576.20 L 566.00 570.20 L 604.90 557.50 L 624.10 550.70 L 660.20 536.70 L 694.10 522.00 L 710.10 514.40 L 739.20 499.30 L 753.50 491.30 L 766.60 483.40 L 778.60 475.70 L 789.50 468.10 L 800.50 459.90 L 810.10 452.00 L 818.60 444.40 L 825.90 437.00 L 831.60 430.50 L 836.50 424.40 L 840.50 418.40 L 843.80 412.80 L 846.40 407.40 L 848.20 402.40 L 849.50 397.70 L 850.10 393.20 L 850.30 388.80 L 850.00 384.50 L 849.10 380.30 L 847.60 376.00 L 845.60 371.80 L 843.00 367.90 L 839.70 364.00 L 835.80 360.30 L 831.70 357.10 L 827.00 354.10 L 821.70 351.10 L 815.70 348.30 L 809.00 345.60 L 800.80 342.90 L 791.60 340.40 L 781.50 338.20 L 770.30 336.20 L 759.40 334.70 L 735.00 332.70 L 708.10 332.00 L 679.40 332.70 L 663.90 333.60 L 643.50 335.20 L 622.00 337.50 L 599.40 340.50" fill="none" group-id="1,5" id="路径" node-id="83" stroke="url(#linearGradient-16)" stroke-linecap="round" stroke-width="1.9999999" target-height="285.90002" target-width="708.69995" target-x="141.6" target-y="332"></path></g></svg>