<?xml version="1.0" standalone="no"?><!DOCTYPE svg PUBLIC "-//W3C//DTD SVG 1.1//EN" "http://www.w3.org/Graphics/SVG/1.1/DTD/svg11.dtd"><svg height="214" node-id="1" sillyvg="true" template-height="214" template-width="145" version="1.1" viewBox="0 0 145 214" width="145" xmlns="http://www.w3.org/2000/svg" xmlns:xlink="http://www.w3.org/1999/xlink"><defs node-id="82"><radialGradient cx="117.76" cy="127.84" fx="117.76" fy="127.84" gradientUnits="objectBoundingBox" id="radial-gradient" node-id="5" r="7.45" rev="3" spreadMethod="pad"><stop offset="0" stop-color="#ffffff"></stop><stop offset="1" stop-color="#abe1f8"></stop></radialGradient><radialGradient cx="50.8" cy="81.57" fx="50.8" fy="81.57" gradientUnits="objectBoundingBox" id="radial-gradient-2" node-id="8" r="8.68" rev="2" spreadMethod="pad"><stop offset="0" stop-color="#ffffff"></stop><stop offset="1" stop-color="#abe1f8"></stop></radialGradient><radialGradient cx="2190.13" cy="81.57" fx="2190.13" fy="81.57" gradientUnits="objectBoundingBox" id="radial-gradient-3" node-id="9" r="8.68" rev="1" spreadMethod="pad"><stop offset="0" stop-color="#ffffff"></stop><stop offset="1" stop-color="#abe1f8"></stop></radialGradient></defs><g node-id="239"><path d="M 36.00 170.40 L 39.70 193.50 L 49.30 197.20 L 42.60 170.70 L 39.30 170.30 L 36.00 170.40 Z" fill="#fed1a4" fill-rule="nonzero" group-id="1" node-id="105" stroke="none" target-height="26.899994" target-width="13.299999" target-x="36" target-y="170.3"></path><path d="M 63.30 179.50 L 62.20 199.50 L 65.70 199.40 L 69.10 199.00 L 72.50 198.10 L 73.60 186.50 L 63.30 179.50 Z" fill="#f7934f" fill-rule="nonzero" group-id="1" node-id="107" stroke="none" target-height="20" target-width="11.399998" target-x="62.2" target-y="179.5"></path><path d="M 42.70 170.70 L 49.40 197.20 L 53.60 198.30 L 62.20 199.50 L 63.30 179.50 L 53.40 174.20 L 46.20 171.60 L 42.70 170.70 Z" fill="#f89c5b" fill-rule="nonzero" group-id="1" node-id="109" stroke="none" target-height="28.800003" target-width="20.599998" target-x="42.7" target-y="170.7"></path><path d="M 39.30 192.00 L 41.00 202.50 L 37.60 205.90 L 35.80 209.00 L 35.90 211.00 L 36.40 211.90 L 37.50 212.60 L 40.00 213.30 L 46.60 214.00 L 54.50 214.10 L 70.40 213.70 L 72.10 196.50 L 66.40 197.80 L 58.90 197.70 L 50.10 195.90 L 39.30 192.00 Z" fill="#eb1945" fill-rule="nonzero" group-id="1" node-id="111" stroke="none" target-height="22.100006" target-width="36.3" target-x="35.8" target-y="192"></path><path d="M 56.40 186.90 L 53.70 186.90 L 51.40 174.80 L 57.30 175.20 L 56.40 186.90 Z" fill="#fed1a4" fill-rule="nonzero" group-id="1" node-id="113" stroke="none" target-height="12.099991" target-width="5.8999977" target-x="51.4" target-y="174.8"></path><path d="M 57.90 192.40 L 52.00 191.80 L 48.60 196.60 L 51.00 202.00 L 56.80 202.60 L 60.30 197.80 L 57.90 192.40 Z" fill="#ce1f33" fill-rule="nonzero" group-id="1" node-id="115" stroke="none" target-height="10.800003" target-width="11.700001" target-x="48.6" target-y="191.8"></path><path d="M 110.80 169.90 L 107.10 193.00 L 97.40 196.60 L 104.10 170.20 L 107.40 169.80 L 110.80 169.90 Z" fill="#fed1a4" fill-rule="nonzero" group-id="1" node-id="117" stroke="none" target-height="26.800003" target-width="13.400002" target-x="97.4" target-y="169.8"></path><path d="M 83.50 179.00 L 84.60 199.00 L 81.10 199.00 L 77.70 198.50 L 74.30 197.60 L 73.20 186.00 L 83.50 179.00 Z" fill="#f7934f" fill-rule="nonzero" group-id="1" node-id="119" stroke="none" target-height="20" target-width="11.400002" target-x="73.2" target-y="179"></path><path d="M 104.10 170.20 L 97.40 196.70 L 93.20 197.80 L 84.60 199.00 L 83.50 179.00 L 93.30 173.70 L 100.60 171.10 L 104.10 170.20 Z" fill="#f89c5b" fill-rule="nonzero" group-id="1" node-id="121" stroke="none" target-height="28.800003" target-width="20.599998" target-x="83.5" target-y="170.2"></path><path d="M 107.50 191.40 L 105.80 202.00 L 109.20 205.40 L 111.00 208.50 L 110.90 210.50 L 110.40 211.40 L 109.30 212.10 L 106.80 212.80 L 100.20 213.40 L 92.30 213.60 L 76.40 213.20 L 74.70 196.00 L 80.40 197.20 L 87.90 197.20 L 96.70 195.40 L 107.50 191.40 Z" fill="#eb1945" fill-rule="nonzero" group-id="1" node-id="123" stroke="none" target-height="22.200012" target-width="36.300003" target-x="74.7" target-y="191.4"></path><path d="M 90.40 186.40 L 93.10 186.40 L 95.40 174.30 L 89.50 174.70 L 90.40 186.40 Z" fill="#fed1a4" fill-rule="nonzero" group-id="1" node-id="125" stroke="none" target-height="12.099991" target-width="5.9000015" target-x="89.5" target-y="174.3"></path><path d="M 88.90 191.90 L 94.80 191.30 L 98.20 196.10 L 95.80 201.50 L 90.00 202.00 L 86.50 197.30 L 88.90 191.90 Z" fill="#ce1f33" fill-rule="nonzero" group-id="1" node-id="127" stroke="none" target-height="10.699997" target-width="11.699997" target-x="86.5" target-y="191.3"></path><path d="M 123.10 118.00 L 121.70 117.60" fill="none" group-id="1" node-id="129" stroke="none" target-height="0.40000153" target-width="1.4000015" target-x="121.7" target-y="117.6"></path><path d="M 118.30 122.10 L 114.00 121.00 L 115.40 116.20 L 121.70 117.70 L 121.30 118.30 Z" fill="#f5b978" fill-rule="nonzero" group-id="1" node-id="131" stroke="none" target-height="5.9000015" target-width="7.699997" target-x="114" target-y="116.2"></path><path d="M 122.90 118.70 L 123.10 118.00 L 125.90 118.90 L 124.90 134.10 L 118.30 137.50 L 115.60 135.60 L 118.00 133.10 L 119.10 131.20 L 121.50 124.80 L 122.90 118.70 Z" fill="#f09951" fill-rule="nonzero" group-id="1" node-id="133" stroke="none" target-height="19.5" target-width="10.300003" target-x="115.6" target-y="118"></path><path d="M 114.00 121.00 L 118.30 122.10 L 121.70 117.70 L 123.10 118.10 L 120.40 128.20 L 118.00 133.20 L 115.60 135.60 L 108.00 130.10 L 109.90 128.50 L 111.60 126.30 L 114.00 121.00 Z" fill="#f6a673" fill-rule="nonzero" group-id="1" node-id="135" stroke="none" target-height="17.90001" target-width="15.099998" target-x="108" target-y="117.7"></path><path d="M 124.10 134.00 L 117.60 137.40 L 129.50 145.10 L 131.20 146.10 L 133.20 146.70 L 135.40 145.80 L 136.80 144.70 L 140.90 140.20 L 144.20 135.10 L 145.10 132.70 L 145.20 131.20 L 142.20 127.70 L 137.40 124.20 L 130.00 120.60 L 125.10 118.80 Z" fill="#ee2244" fill-rule="nonzero" group-id="1" node-id="137" stroke="none" target-height="27.899994" target-width="27.599998" target-x="117.6" target-y="118.8"></path><path d="M 94.50 120.60 L 107.20 130.00 L 109.00 128.50 L 110.60 126.30 L 113.00 121.20 L 114.50 116.00 L 105.50 114.40 L 98.50 113.40 Z" fill="#ee2244" fill-rule="nonzero" group-id="1" node-id="139" stroke="none" target-height="16.599998" target-width="20" target-x="94.5" target-y="113.4"></path><path d="M 99.50 124.70 L 99.20 124.10 L 98.60 123.80 L 101.60 118.80 L 105.10 114.00 L 106.10 114.80 L 102.70 119.40 L 99.60 124.60 Z" fill="#df1e25" fill-rule="nonzero" group-id="1" node-id="141" stroke="none" target-height="10.699997" target-width="7.5" target-x="98.6" target-y="114"></path><path d="M 129.80 145.70 L 129.10 144.70 L 132.00 142.00 L 134.60 139.10 L 138.80 132.80 L 141.70 127.50 L 142.90 128.00 L 138.00 136.60 L 132.90 143.00 L 129.80 145.70 Z" fill="#df1e25" fill-rule="nonzero" group-id="1" node-id="143" stroke="none" target-height="18.199997" target-width="13.799988" target-x="129.1" target-y="127.5"></path><path d="M 23.60 117.60 L 22.20 118.00" fill="none" group-id="1" node-id="145" stroke="none" target-height="0.40000153" target-width="1.3999996" target-x="22.2" target-y="117.6"></path><path d="M 27.00 122.10 L 31.30 121.00 L 29.90 116.20 L 23.60 117.70 L 24.00 118.30 Z" fill="#f5b978" fill-rule="nonzero" group-id="1" node-id="147" stroke="none" target-height="5.9000015" target-width="7.699999" target-x="23.6" target-y="116.2"></path><path d="M 22.30 118.70 L 22.20 118.00 L 19.30 118.90 L 20.40 134.10 L 26.90 137.50 L 29.70 135.60 L 27.30 133.10 L 26.20 131.20 L 23.80 124.80 L 22.30 118.70 Z" fill="#f09951" fill-rule="nonzero" group-id="1" node-id="149" stroke="none" target-height="19.5" target-width="10.400002" target-x="19.3" target-y="118"></path><path d="M 31.30 121.00 L 27.00 122.10 L 23.60 117.60 L 22.20 118.00 L 24.80 128.10 L 27.20 133.10 L 29.60 135.60 L 37.20 130.10 L 35.40 128.50 L 33.70 126.20 L 31.30 121.00 Z" fill="#f89c5b" fill-rule="nonzero" group-id="1" node-id="151" stroke="none" target-height="18.000008" target-width="15" target-x="22.2" target-y="117.6"></path><path d="M 21.20 134.00 L 27.70 137.40 L 15.80 145.10 L 14.00 146.10 L 12.10 146.70 L 9.90 145.80 L 8.40 144.70 L 4.30 140.20 L 1.10 135.10 L 0.20 132.70 L 0.10 131.20 L 3.10 127.70 L 7.80 124.20 L 15.30 120.60 L 20.20 118.80 Z" fill="#ee2244" fill-rule="nonzero" group-id="1" node-id="153" stroke="none" target-height="27.899994" target-width="27.6" target-x="0.1" target-y="118.8"></path><path d="M 50.80 120.60 L 38.10 130.00 L 36.20 128.50 L 34.60 126.30 L 32.20 121.20 L 30.70 116.00 L 39.70 114.40 L 46.70 113.40 Z" fill="#ee2244" fill-rule="nonzero" group-id="1" node-id="155" stroke="none" target-height="16.599998" target-width="20.099998" target-x="30.7" target-y="113.4"></path><path d="M 45.80 124.70 L 42.60 119.40 L 39.20 114.80 L 40.20 114.00 L 43.60 118.70 L 46.70 123.80 L 46.10 124.10 Z" fill="#df1e25" fill-rule="nonzero" group-id="1" node-id="157" stroke="none" target-height="10.699997" target-width="7.5" target-x="39.2" target-y="114"></path><path d="M 15.40 145.70 L 12.40 143.00 L 9.70 139.90 L 5.30 133.50 L 2.40 128.00 L 3.60 127.50 L 6.40 132.80 L 10.70 139.00 L 13.30 142.00 L 16.20 144.60 Z" fill="#df1e25" fill-rule="nonzero" group-id="1" node-id="159" stroke="none" target-height="18.199997" target-width="13.800001" target-x="2.4" target-y="127.5"></path><path d="M 73.60 179.60 L 73.40 183.00 L 72.90 184.40 L 72.40 184.80 L 71.50 184.80 L 65.40 181.90 L 56.20 178.30 L 51.40 176.90 L 40.00 174.60 L 38.70 173.90 L 36.50 171.80 L 35.90 170.40 L 35.60 168.80 L 35.30 159.60 L 40.90 159.90 L 44.00 160.50 L 47.00 161.70 L 48.80 162.90 L 50.40 164.30 L 53.90 169.10 L 56.50 171.60 L 59.40 173.70 L 65.60 177.00 L 73.60 179.60 Z" fill="#eb1945" fill-rule="nonzero" group-id="1" node-id="161" stroke="none" target-height="25.199997" target-width="38.3" target-x="35.3" target-y="159.6"></path><path d="M 72.90 134.90 L 60.20 122.80 L 72.50 122.40 L 72.80 130.80 Z" fill="#cc1e37" fill-rule="nonzero" group-id="1" node-id="163" stroke="none" target-height="12.499992" target-width="12.700001" target-x="60.2" target-y="122.4"></path><path d="M 111.30 155.50 L 110.40 147.30 L 108.40 137.80 L 105.60 129.20 L 101.80 120.20 L 88.80 130.20 L 83.90 135.30 L 82.60 137.30 L 79.60 137.70 L 73.60 139.50 L 73.50 144.10 L 73.20 144.10 L 73.10 140.00 L 70.20 138.90 L 64.10 137.80 L 62.80 135.80 L 57.90 130.70 L 45.00 120.70 L 41.10 129.80 L 38.40 138.30 L 36.40 147.80 L 35.30 159.60 L 40.90 159.90 L 44.00 160.60 L 47.00 161.80 L 48.80 162.90 L 50.40 164.40 L 53.90 169.10 L 56.50 171.60 L 59.40 173.70 L 65.60 177.00 L 73.50 179.60 L 73.50 179.00 L 81.40 176.30 L 87.50 173.10 L 90.30 170.90 L 92.80 168.50 L 96.30 163.80 L 97.80 162.30 L 99.70 161.20 L 102.70 160.00 L 105.70 159.30 L 111.40 159.10 L 111.30 155.50 Z M 73.40 149.10 L 73.40 149.10 Z" fill="#ee2244" fill-rule="nonzero" group-id="1" node-id="165" stroke="none" target-height="59.40001" target-width="76.100006" target-x="35.3" target-y="120.2"></path><path d="M 73.60 168.00 L 73.60 170.20 L 69.60 170.30 L 66.10 168.90 L 64.60 167.70 L 63.00 165.70 L 61.60 163.20 L 60.50 159.90 L 59.80 155.60 L 59.50 146.40 L 60.10 139.50 L 59.20 138.20 L 55.50 134.50 L 49.90 129.80 L 43.20 124.80 L 45.10 120.80 L 55.00 128.20 L 60.60 133.30 L 62.90 135.90 L 64.20 137.90 L 64.70 139.30 L 63.90 148.20 L 64.00 153.50 L 65.10 159.90 L 66.70 163.30 L 68.70 165.30 L 71.40 166.00 L 73.20 165.90 Z" fill="#db1d3a" fill-rule="nonzero" group-id="1" node-id="167" stroke="none" target-height="49.5" target-width="30.399998" target-x="43.2" target-y="120.8"></path><path d="M 55.40 144.10 L 51.10 145.10 L 50.00 143.50 L 46.40 139.80 L 39.60 134.20 L 41.10 129.80 L 45.80 133.50 L 51.90 139.00 L 54.10 141.70 L 55.40 144.10 Z" fill="#db1d3a" fill-rule="nonzero" group-id="1" node-id="169" stroke="none" target-height="15.300003" target-width="15.800003" target-x="39.6" target-y="129.8"></path><path d="M 73.60 179.60 L 65.60 177.00 L 59.40 173.70 L 56.50 171.60 L 54.00 169.10 L 50.50 164.40 L 48.90 162.90 L 47.10 161.70 L 44.10 160.60 L 41.00 159.90 L 35.40 159.60 L 35.50 156.10 L 42.10 156.50 L 46.80 157.80 L 49.20 158.90 L 51.30 160.30 L 53.20 162.10 L 56.40 166.50 L 60.30 170.10 L 63.80 172.20 L 67.30 173.80 L 73.50 176.00 L 73.60 179.60 Z" fill="#db1d3a" fill-rule="nonzero" group-id="1" node-id="171" stroke="none" target-height="23.5" target-width="38.199997" target-x="35.4" target-y="156.1"></path><path d="M 73.30 179.10 L 73.40 182.50 L 73.90 183.90 L 74.40 184.30 L 75.30 184.30 L 81.30 181.40 L 90.60 177.70 L 95.40 176.40 L 106.80 174.10 L 108.10 173.40 L 110.30 171.30 L 110.90 169.90 L 111.50 163.70 L 111.50 159.10 L 105.80 159.40 L 102.70 160.00 L 99.70 161.20 L 97.90 162.40 L 96.30 163.80 L 92.90 168.60 L 90.30 171.10 L 87.40 173.20 L 81.20 176.50 L 73.30 179.10 Z" fill="#eb1945" fill-rule="nonzero" group-id="1" node-id="173" stroke="none" target-height="25.199997" target-width="38.199997" target-x="73.3" target-y="159.1"></path><path d="M 73.90 134.30 L 86.60 122.30 L 74.30 121.90 L 74.00 130.20 Z" fill="#cc1e37" fill-rule="nonzero" group-id="1" node-id="175" stroke="none" target-height="12.400002" target-width="12.699997" target-x="73.9" target-y="121.9"></path><path d="M 73.20 167.50 L 73.20 169.70 L 77.20 169.70 L 80.70 168.30 L 82.20 167.10 L 83.80 165.20 L 85.20 162.70 L 86.20 159.30 L 87.00 155.10 L 87.30 145.80 L 86.70 139.00 L 87.60 137.70 L 91.30 133.90 L 96.90 129.30 L 103.60 124.30 L 101.70 120.20 L 91.80 127.70 L 86.20 132.80 L 83.90 135.30 L 82.60 137.40 L 82.10 138.70 L 82.90 147.70 L 82.80 152.90 L 81.70 159.30 L 81.00 161.20 L 79.10 164.00 L 76.50 165.40 L 73.60 165.30 Z" fill="#db1d3a" fill-rule="nonzero" group-id="1" node-id="177" stroke="none" target-height="49.5" target-width="30.400002" target-x="73.2" target-y="120.2"></path><path d="M 91.40 143.60 L 95.70 144.60 L 96.80 142.90 L 100.40 139.20 L 107.20 133.60 L 105.60 129.20 L 101.00 132.90 L 94.90 138.40 L 92.60 141.10 L 91.40 143.60 Z" fill="#db1d3a" fill-rule="nonzero" group-id="1" node-id="179" stroke="none" target-height="15.400009" target-width="15.799995" target-x="91.4" target-y="129.2"></path><path d="M 73.30 179.10 L 81.20 176.50 L 87.40 173.20 L 90.30 171.10 L 92.80 168.60 L 96.30 163.80 L 97.90 162.40 L 99.70 161.20 L 102.70 160.00 L 105.80 159.40 L 111.50 159.10 L 111.30 155.50 L 104.70 155.90 L 100.00 157.20 L 97.60 158.30 L 95.50 159.70 L 93.60 161.60 L 90.40 166.00 L 86.50 169.50 L 83.00 171.60 L 79.50 173.30 L 73.30 175.40 L 73.30 179.10 Z" fill="#db1d3a" fill-rule="nonzero" group-id="1" node-id="181" stroke="none" target-height="23.600006" target-width="38.199997" target-x="73.3" target-y="155.5"></path><path d="M 92.80 105.50 L 74.90 109.60 L 74.90 110.60 L 71.90 110.80 L 71.90 110.20 L 54.00 106.00 L 50.70 110.70 L 47.70 115.60 L 45.00 120.70 L 57.90 130.70 L 62.80 135.80 L 64.20 137.80 L 70.20 138.90 L 73.20 140.00 L 73.70 139.00 L 73.70 139.40 L 76.60 138.40 L 82.70 137.30 L 84.00 135.30 L 88.90 130.20 L 101.80 120.20 L 99.20 115.10 L 96.10 110.20 L 92.80 105.50 Z" fill="#ee2244" fill-rule="nonzero" group-id="1" node-id="183" stroke="none" target-height="34.5" target-width="56.800003" target-x="45" target-y="105.5"></path><path d="M 109.50 142.30 L 105.20 145.30 L 103.60 146.00 L 100.20 146.40 L 97.10 145.40 L 94.10 142.90 L 90.80 139.00 L 89.40 138.10 L 87.60 137.60 L 82.60 137.30 L 78.70 137.90 L 74.90 139.00 L 71.60 139.40 L 67.90 138.40 L 64.20 137.90 L 61.40 137.90 L 57.40 138.70 L 56.00 139.70 L 51.00 145.00 L 49.60 146.00 L 46.50 147.00 L 43.10 146.60 L 41.50 145.90 L 37.30 142.90 L 36.40 147.90 L 38.50 149.30 L 40.80 150.40 L 43.20 151.20 L 47.00 151.40 L 49.30 150.90 L 51.60 150.00 L 53.80 148.50 L 56.10 146.30 L 58.30 143.50 L 59.70 142.60 L 61.90 142.30 L 66.90 142.80 L 72.20 144.60 L 79.70 142.30 L 84.70 141.70 L 87.80 142.30 L 90.60 145.70 L 92.90 147.80 L 95.10 149.30 L 97.40 150.30 L 100.90 150.90 L 103.50 150.50 L 105.90 149.80 L 108.20 148.70 L 110.30 147.20 Z" fill="#db1d3a" fill-rule="nonzero" group-id="1" node-id="185" stroke="none" target-height="14.099991" target-width="73.9" target-x="36.4" target-y="137.3"></path><path d="M 83.70 147.30 L 80.90 149.20 L 78.20 150.30 L 76.60 150.50 L 74.20 150.00 L 70.60 150.70 L 67.40 150.10 L 63.20 147.60 L 60.20 150.80 L 62.10 152.20 L 66.10 154.30 L 70.50 155.10 L 73.60 154.50 L 76.50 154.90 L 80.80 154.10 L 84.90 152.00 L 86.70 150.60 Z" fill="#db1d3a" fill-rule="nonzero" group-id="1" node-id="187" stroke="none" target-height="7.800003" target-width="26.499996" target-x="60.2" target-y="147.3"></path><path d="M 62.20 123.80 L 82.30 123.30 L 72.30 132.40 L 62.20 123.80 Z" fill="url(#radial-gradient)" fill-rule="nonzero" group-id="1" node-id="189" stroke="none" target-height="9.099991" target-width="20.100002" target-x="62.2" target-y="123.3"></path><path d="M 40.10 75.50 L 24.90 85.10 L 24.20 80.60 L 24.00 68.70 L 31.30 62.60 Z" fill="#f9a86f" fill-rule="nonzero" group-id="1" node-id="191" stroke="none" target-height="22.5" target-width="16.099998" target-x="24" target-y="62.6"></path><path d="M 61.50 116.40 L 60.20 119.50 L 55.80 118.50 L 51.70 117.10 L 47.70 115.20 L 44.00 113.10 L 40.50 110.50 L 37.30 107.70 L 34.40 104.60 L 31.80 101.10 L 29.50 97.50 L 27.60 93.60 L 26.10 89.50 L 24.90 85.10 L 36.10 92.30 L 40.30 95.70 L 44.30 99.40 L 48.00 103.60 L 50.20 106.60 L 53.60 113.40 Z" fill="#ee2244" fill-rule="nonzero" group-id="1" node-id="193" stroke="none" target-height="34.4" target-width="36.6" target-x="24.9" target-y="85.1"></path><path d="M 74.30 79.90 L 74.30 106.50 L 66.50 106.00 L 63.10 99.90 L 54.80 87.50 L 61.50 79.00 L 67.90 79.70 L 74.30 79.90 Z" fill="#fed1a4" fill-rule="nonzero" group-id="1" node-id="195" stroke="none" target-height="27.5" target-width="19.500004" target-x="54.8" target-y="79"></path><path d="M 74.30 106.50 L 74.30 120.30 L 64.10 120.10 L 60.20 119.50 L 65.70 106.00 L 66.50 106.00 Z" fill="#eb1945" fill-rule="nonzero" group-id="1" node-id="197" stroke="none" target-height="14.300003" target-width="14.100002" target-x="60.2" target-y="106"></path><path d="M 74.30 74.50 L 74.30 79.90 L 67.90 79.70 L 61.50 79.10 L 40.10 75.50 L 31.20 62.60 L 31.30 39.00 L 37.10 35.70 L 37.40 42.70 L 39.10 51.30 L 40.60 55.60 L 42.80 60.00 L 46.80 65.20 L 49.40 67.60 L 52.20 69.60 L 55.60 71.40 L 59.60 72.90 L 63.70 73.90 L 68.60 74.40 L 74.30 74.50 Z" fill="#faaf7b" fill-rule="nonzero" group-id="1" node-id="199" stroke="none" target-height="44.2" target-width="43.100002" target-x="31.2" target-y="35.7"></path><path d="M 74.30 0.00 L 74.30 7.70 L 64.50 9.20 L 60.00 10.40 L 55.40 12.10 L 50.80 14.30 L 47.90 16.20 L 42.70 20.90 L 40.60 23.60 L 38.80 26.90 L 37.50 30.60 L 37.10 35.70 L 31.30 39.00 L 31.30 62.60 L 24.00 68.70 L 24.00 44.20 L 24.30 39.60 L 24.90 35.30 L 26.00 31.10 L 27.50 27.00 L 29.40 23.20 L 31.60 19.50 L 34.10 16.20 L 37.00 13.00 L 40.10 10.10 L 43.50 7.60 L 47.10 5.40 L 51.00 3.50 L 55.00 2.00 L 59.20 0.90 L 63.60 0.30 L 68.20 0.00 Z" fill="#ee2244" fill-rule="nonzero" group-id="1" node-id="201" stroke="none" target-height="68.7" target-width="50.300003" target-x="24" target-y="0"></path><path d="M 74.30 20.30 L 61.60 22.10 L 57.00 23.70 L 55.60 24.60 L 63.50 53.50 L 66.40 56.20 L 68.70 57.60 L 72.20 58.90 L 74.30 59.20 L 74.30 64.30 L 62.00 60.10 L 49.10 28.90 L 37.10 35.70 L 37.40 30.60 L 38.80 26.90 L 40.60 23.60 L 42.70 20.90 L 47.90 16.20 L 50.80 14.30 L 55.40 12.10 L 60.00 10.40 L 68.40 8.40 L 74.30 7.70 Z" fill="#f05479" fill-rule="nonzero" group-id="1" node-id="203" stroke="none" target-height="56.600002" target-width="37.200005" target-x="37.1" target-y="7.7"></path><path d="M 74.30 20.30 L 74.30 59.20 L 72.20 58.90 L 68.70 57.60 L 66.40 56.20 L 63.50 53.50 L 55.60 24.60 L 57.00 23.70 L 61.60 22.10 L 74.30 20.30 Z" fill="#ee2244" fill-rule="nonzero" group-id="1" node-id="205" stroke="none" target-height="38.9" target-width="18.700005" target-x="55.6" target-y="20.3"></path><path d="M 74.30 64.30 L 74.30 74.50 L 68.60 74.40 L 63.70 73.90 L 59.60 72.90 L 55.60 71.40 L 52.20 69.60 L 49.40 67.60 L 44.60 62.70 L 42.80 60.00 L 40.60 55.60 L 39.10 51.30 L 37.40 42.70 L 37.10 35.70 L 49.10 28.90 L 62.00 60.10 Z" fill="#fed1a4" fill-rule="nonzero" group-id="1" node-id="207" stroke="none" target-height="45.6" target-width="37.200005" target-x="37.1" target-y="28.9"></path><path d="M 66.50 106.00 L 65.70 106.00 L 61.50 116.40 L 53.60 113.40 L 50.20 106.60 L 48.00 103.60 L 44.30 99.40 L 40.30 95.70 L 36.10 92.40 L 24.90 85.10 L 40.10 75.50 L 54.80 87.60 L 63.10 100.00 L 66.50 106.00 Z" fill="#f89c5b" fill-rule="nonzero" group-id="1" node-id="209" stroke="none" target-height="40.9" target-width="41.6" target-x="24.9" target-y="75.5"></path><path d="M 61.50 79.10 L 54.80 87.60 L 40.10 75.50 L 61.50 79.10 Z" fill="url(#radial-gradient-2)" fill-rule="nonzero" group-id="1" node-id="211" stroke="none" target-height="12.099998" target-width="21.400002" target-x="40.1" target-y="75.5"></path><path d="M 62.00 78.50 L 61.50 79.10" fill="none" group-id="1" node-id="213" stroke="none" target-height="0.5999985" target-width="0.5" target-x="61.5" target-y="78.5"></path><path d="M 107.10 75.50 L 122.30 85.10 L 123.10 80.60 L 123.30 68.70 L 116.00 62.60 Z" fill="#f9a86f" fill-rule="nonzero" group-id="1" node-id="215" stroke="none" target-height="22.5" target-width="16.200005" target-x="107.1" target-y="62.6"></path><path d="M 85.70 116.40 L 87.00 119.50 L 91.40 118.50 L 95.50 117.00 L 99.40 115.20 L 103.20 113.00 L 106.70 110.50 L 109.90 107.70 L 112.80 104.60 L 115.40 101.10 L 117.70 97.50 L 119.60 93.60 L 121.10 89.50 L 122.30 85.10 L 111.10 92.40 L 106.90 95.70 L 102.90 99.40 L 99.20 103.60 L 97.00 106.60 L 93.60 113.40 Z" fill="#ee2244" fill-rule="nonzero" group-id="1" node-id="217" stroke="none" target-height="34.4" target-width="36.600006" target-x="85.7" target-y="85.1"></path><path d="M 73.00 79.90 L 73.00 106.50 L 80.80 106.00 L 84.10 100.00 L 92.40 87.50 L 85.80 79.10 L 79.40 79.70 L 73.00 79.90 Z" fill="#fed1a4" fill-rule="nonzero" group-id="1" node-id="219" stroke="none" target-height="27.400002" target-width="19.400002" target-x="73" target-y="79.1"></path><path d="M 73.00 106.50 L 73.00 120.20 L 83.10 120.10 L 87.10 119.50 L 81.50 106.00 L 80.70 106.00 Z" fill="#eb1945" fill-rule="nonzero" group-id="1" node-id="221" stroke="none" target-height="14.199997" target-width="14.099998" target-x="73" target-y="106"></path><path d="M 73.00 74.50 L 73.00 79.90 L 79.40 79.70 L 85.80 79.10 L 107.10 75.50 L 116.00 62.60 L 116.00 39.00 L 110.20 35.70 L 109.80 42.70 L 108.20 51.30 L 106.60 55.60 L 104.50 60.00 L 100.50 65.20 L 97.90 67.60 L 95.00 69.60 L 91.60 71.40 L 87.60 72.90 L 83.50 73.90 L 78.70 74.40 L 73.00 74.50 Z" fill="#faaf7b" fill-rule="nonzero" group-id="1" node-id="223" stroke="none" target-height="44.2" target-width="43" target-x="73" target-y="35.7"></path><path d="M 73.00 0.00 L 73.00 7.70 L 82.70 9.20 L 87.30 10.40 L 91.80 12.10 L 96.40 14.30 L 99.30 16.20 L 104.50 20.80 L 106.70 23.60 L 108.40 26.90 L 109.80 30.60 L 110.10 35.70 L 115.90 39.00 L 115.90 62.60 L 123.20 68.70 L 123.20 44.20 L 123.00 39.60 L 122.30 35.30 L 121.20 31.10 L 119.70 27.00 L 117.80 23.20 L 115.60 19.50 L 113.10 16.20 L 110.20 13.00 L 107.10 10.10 L 103.70 7.60 L 100.10 5.40 L 96.20 3.50 L 92.20 2.00 L 88.00 0.90 L 83.60 0.30 L 79.10 0.00 Z" fill="#ee2244" fill-rule="nonzero" group-id="1" node-id="225" stroke="none" target-height="68.7" target-width="50.199997" target-x="73" target-y="0"></path><path d="M 73.00 20.30 L 85.60 22.10 L 90.30 23.70 L 91.70 24.60 L 83.80 53.50 L 80.80 56.20 L 78.60 57.60 L 75.10 58.90 L 73.00 59.20 L 73.00 64.30 L 85.30 60.10 L 98.10 28.90 L 110.10 35.70 L 109.80 30.60 L 108.40 26.90 L 106.60 23.60 L 104.50 20.80 L 99.30 16.20 L 96.40 14.30 L 91.80 12.10 L 87.20 10.40 L 78.80 8.40 L 73.00 7.70 Z" fill="#f05479" fill-rule="nonzero" group-id="1" node-id="227" stroke="none" target-height="56.600002" target-width="37.1" target-x="73" target-y="7.7"></path><path d="M 73.00 20.30 L 73.00 59.20 L 75.10 58.90 L 78.60 57.60 L 80.80 56.20 L 83.80 53.50 L 91.70 24.60 L 90.30 23.70 L 85.60 22.10 L 73.00 20.30 Z" fill="#ee2244" fill-rule="nonzero" group-id="1" node-id="229" stroke="none" target-height="38.9" target-width="18.699997" target-x="73" target-y="20.3"></path><path d="M 73.00 64.30 L 73.00 74.50 L 78.70 74.40 L 83.50 73.90 L 87.70 72.90 L 91.60 71.40 L 95.00 69.60 L 97.90 67.60 L 102.70 62.70 L 104.50 60.00 L 106.70 55.60 L 108.20 51.20 L 109.80 42.70 L 110.10 35.70 L 98.10 28.90 L 85.30 60.10 Z" fill="#fed1a4" fill-rule="nonzero" group-id="1" node-id="231" stroke="none" target-height="45.6" target-width="37.1" target-x="73" target-y="28.9"></path><path d="M 80.70 106.00 L 81.50 106.00 L 85.70 116.40 L 93.60 113.40 L 97.00 106.60 L 99.20 103.60 L 102.90 99.40 L 106.90 95.70 L 111.10 92.40 L 122.30 85.10 L 107.10 75.50 L 92.40 87.50 L 84.10 100.00 L 80.70 106.00 Z" fill="#f89c5b" fill-rule="nonzero" group-id="1" node-id="233" stroke="none" target-height="40.9" target-width="41.600006" target-x="80.7" target-y="75.5"></path><path d="M 85.70 79.10 L 92.40 87.60 L 107.10 75.50 L 85.70 79.10 Z" fill="url(#radial-gradient-3)" fill-rule="nonzero" group-id="1" node-id="235" stroke="none" target-height="12.099998" target-width="21.400002" target-x="85.7" target-y="75.5"></path><path d="M 85.30 78.50 L 85.70 79.10" fill="none" group-id="1" node-id="237" stroke="none" target-height="0.5999985" target-width="0.3999939" target-x="85.3" target-y="78.5"></path></g></svg>