<?xml version="1.0" standalone="no"?><!DOCTYPE svg PUBLIC "-//W3C//DTD SVG 1.1//EN" "http://www.w3.org/Graphics/SVG/1.1/DTD/svg11.dtd"><svg height="228" node-id="1" sillyvg="true" template-height="228" template-width="172" version="1.1" viewBox="0 0 172 228" width="172" xmlns="http://www.w3.org/2000/svg" xmlns:xlink="http://www.w3.org/1999/xlink"><defs node-id="88"></defs><g node-id="257"><path d="M 112.20 167.50 L 111.50 157.80 L 110.30 150.80 L 109.20 146.30 L 106.50 137.80 L 103.50 130.60 L 99.90 123.60 L 96.90 118.70 L 93.60 114.00 L 75.70 118.00 L 74.90 130.30 L 74.60 144.80 L 74.20 130.30 L 73.40 118.00 L 55.60 113.90 L 52.20 118.60 L 49.20 123.50 L 46.60 128.60 L 42.70 137.60 L 41.20 142.00 L 38.90 150.70 L 37.60 157.70 L 36.90 166.90 L 37.10 175.10 L 68.20 175.10 L 68.20 176.60 L 74.00 176.60 L 74.00 187.40 L 74.10 190.50 L 74.50 192.00 L 75.00 187.40 L 75.00 176.60 L 81.00 176.60 L 81.00 175.10 L 112.10 175.10 L 112.20 167.50 Z" fill="#4380bc" fill-rule="nonzero" group-id="1" node-id="92" stroke="none" target-height="78.1" target-width="75.299995" target-x="36.9" target-y="113.9"></path><path d="M 19.90 156.20 L 16.00 158.30 L 14.00 158.20 L 10.00 155.60 L 7.80 153.70 L 3.90 149.20 L 1.00 144.70 L 0.20 142.70 L 0.00 141.30 L 1.50 139.00 L 4.70 135.50 Z" fill="#fac99f" fill-rule="nonzero" group-id="1" node-id="94" stroke="none" target-height="22.800003" target-width="19.9" target-x="0" target-y="135.5"></path><path d="M 35.10 143.90 L 32.50 146.00 L 33.00 146.20 L 19.90 156.20 L 4.70 135.50 L 8.30 132.60 L 12.10 130.10 L 16.10 128.00 L 21.60 125.50 L 21.60 125.30 L 26.80 123.30 L 29.10 130.40 L 30.60 134.10 L 33.90 139.50 L 37.10 142.30 Z" fill="#4380bc" fill-rule="nonzero" group-id="1" node-id="96" stroke="none" target-height="32.899994" target-width="32.399998" target-x="4.7" target-y="123.3"></path><g node-id="258"><path d="M 35.80 126.70 L 33.80 121.10 L 26.80 123.30 L 29.00 130.40 L 30.60 134.10 L 33.90 139.50 L 37.10 142.30 L 43.60 136.90 L 40.50 134.40 L 39.10 132.70 L 35.80 126.70 Z" fill="#fffdfe" fill-opacity="0.64" fill-rule="nonzero" group-id="1,2" node-id="100" stroke="none" target-height="21.200005" target-width="16.8" target-x="26.8" target-y="121.1"></path></g><path d="M 53.30 116.60 L 45.10 118.30 L 34.70 121.00 L 36.90 126.80 L 40.10 132.70 L 41.50 134.40 L 44.50 136.80 L 58.70 124.60 Z" fill="#4380bc" fill-rule="nonzero" group-id="1" node-id="103" stroke="none" target-height="20.200005" target-width="24" target-x="34.7" target-y="116.6"></path><path d="M 30.80 148.10 L 19.90 156.20 L 4.70 135.50 L 8.30 132.60 L 12.10 130.10 L 16.10 128.00 Z" fill="#8d6474" fill-rule="nonzero" group-id="1" node-id="105" stroke="none" target-height="28.199997" target-width="26.099998" target-x="4.7" target-y="128"></path><path d="M 27.60 150.60 L 23.70 153.50 L 17.70 145.70 L 21.50 142.70 Z" fill="#ef3941" fill-rule="nonzero" group-id="1" node-id="107" stroke="none" target-height="10.800003" target-width="9.9" target-x="17.7" target-y="142.7"></path><path d="M 129.10 155.40 L 132.90 157.60 L 135.00 157.40 L 138.90 154.90 L 141.10 152.90 L 145.00 148.40 L 147.90 144.00 L 148.80 141.90 L 148.90 140.50 L 147.50 138.20 L 144.20 134.70 Z" fill="#fac99f" fill-rule="nonzero" group-id="1" node-id="109" stroke="none" target-height="22.90001" target-width="19.799988" target-x="129.1" target-y="134.7"></path><path d="M 113.80 143.10 L 116.40 145.30 L 115.90 145.50 L 129.10 155.40 L 144.20 134.70 L 140.60 131.80 L 136.80 129.40 L 132.80 127.20 L 127.30 124.70 L 127.30 124.50 L 122.10 122.60 L 119.90 129.70 L 118.30 133.30 L 115.00 138.80 L 111.80 141.60 L 113.80 143.10 Z" fill="#4380bc" fill-rule="nonzero" group-id="1" node-id="111" stroke="none" target-height="32.799995" target-width="32.399994" target-x="111.8" target-y="122.6"></path><g node-id="259"><path d="M 113.10 125.90 L 115.20 120.30 L 122.20 122.60 L 119.90 129.60 L 118.30 133.30 L 115.00 138.70 L 111.80 141.60 L 105.30 136.20 L 108.40 133.60 L 109.80 131.90 L 113.10 125.90 Z" fill="#fffdfe" fill-opacity="0.64" fill-rule="nonzero" group-id="1,3" node-id="115" stroke="none" target-height="21.300003" target-width="16.899994" target-x="105.3" target-y="120.3"></path></g><path d="M 95.60 115.80 L 103.80 117.50 L 114.20 120.20 L 112.10 126.10 L 108.80 131.90 L 107.40 133.60 L 104.40 136.00 L 90.20 123.80 Z" fill="#4380bc" fill-rule="nonzero" group-id="1" node-id="118" stroke="none" target-height="20.199997" target-width="24" target-x="90.2" target-y="115.8"></path><path d="M 118.20 147.30 L 129.10 155.40 L 144.20 134.70 L 140.60 131.80 L 136.80 129.40 L 132.80 127.20 Z" fill="#8d6474" fill-rule="nonzero" group-id="1" node-id="120" stroke="none" target-height="28.199997" target-width="26" target-x="118.2" target-y="127.2"></path><path d="M 121.40 149.80 L 125.20 152.70 L 131.20 144.90 L 127.40 142.00 Z" fill="#ef3941" fill-rule="nonzero" group-id="1" node-id="122" stroke="none" target-height="10.699997" target-width="9.799995" target-x="121.4" target-y="142"></path><path d="M 74.60 194.00 L 74.00 194.40 L 74.60 200.20 L 74.30 202.80 L 72.20 203.10 L 65.20 203.10 L 57.70 202.00 L 49.00 199.40 L 40.30 195.60 L 37.00 175.30 L 68.10 175.30 L 68.10 176.80 L 74.00 176.80 L 74.00 187.60 L 74.10 190.70 L 74.50 192.20 L 73.60 192.90 L 72.80 192.80 L 74.60 194.00 Z" fill="#4380bc" fill-rule="nonzero" group-id="1" node-id="124" stroke="none" target-height="27.800003" target-width="37.6" target-x="37" target-y="175.3"></path><path d="M 74.30 202.80 L 74.00 206.00 L 73.40 206.20 L 71.90 221.60 L 56.10 222.10 L 44.40 221.60 L 39.10 220.50 L 37.90 219.80 L 37.20 217.90 L 38.00 215.30 L 39.10 213.80 L 42.50 210.40 L 40.30 195.50 L 49.00 199.30 L 57.70 201.90 L 62.30 202.80 L 66.60 203.10 L 73.80 202.80 Z" fill="#8d6474" fill-rule="nonzero" group-id="1" node-id="126" stroke="none" target-height="26.600006" target-width="37.100002" target-x="37.2" target-y="195.5"></path><path d="M 112.20 175.40 L 108.70 195.70 L 101.70 198.70 L 92.40 201.60 L 84.80 202.80 L 79.60 203.00 L 74.70 202.60 L 74.40 200.00 L 75.10 194.20 L 74.50 193.80 L 76.20 192.50 L 75.40 192.60 L 74.50 191.90 L 75.00 189.70 L 75.20 176.60 L 81.00 176.70 L 81.00 175.20 Z" fill="#4380bc" fill-rule="nonzero" group-id="1" node-id="128" stroke="none" target-height="27.800003" target-width="37.799995" target-x="74.4" target-y="175.2"></path><path d="M 111.20 219.80 L 110.10 220.50 L 107.60 221.20 L 101.00 221.90 L 93.10 222.00 L 77.20 221.60 L 75.70 206.20 L 75.10 206.00 L 74.80 202.80 L 79.80 203.10 L 85.00 202.90 L 90.10 202.10 L 99.20 199.50 L 108.80 195.40 L 106.60 210.30 L 110.00 213.80 L 111.10 215.30 L 111.90 217.90 L 111.20 219.80 Z" fill="#8d6474" fill-rule="nonzero" group-id="1" node-id="130" stroke="none" target-height="26.600006" target-width="37.1" target-x="74.8" target-y="195.4"></path><path d="M 112.20 167.50 L 112.20 167.00 L 36.90 167.00 L 36.90 171.30 L 37.10 175.20 L 112.10 175.20 L 112.20 167.50 Z" fill="#5e4049" fill-rule="nonzero" group-id="1" node-id="132" stroke="none" target-height="8.199997" target-width="75.299995" target-x="36.9" target-y="167"></path><g node-id="260"><path d="M 112.10 163.60 L 111.50 157.40 L 74.30 153.20 L 37.70 157.40 L 36.90 166.60 L 112.30 166.60 L 112.10 163.60 Z" fill="#fffdfe" fill-opacity="0.52" fill-rule="nonzero" group-id="1,4" node-id="136" stroke="none" target-height="13.400009" target-width="75.4" target-x="36.9" target-y="153.2"></path></g><path d="M 75.50 166.90 L 68.10 166.90 L 68.10 176.80 L 81.00 176.80 L 81.00 166.90 L 75.50 166.90 Z" fill="#fee9dc" fill-rule="nonzero" group-id="1" node-id="139" stroke="none" target-height="9.900009" target-width="12.900002" target-x="68.1" target-y="166.9"></path><path d="M 71.10 117.50 L 80.50 117.50 L 79.50 137.60 L 78.70 144.80 L 66.20 144.80 L 64.50 119.20 Z" fill="#4380bc" fill-rule="nonzero" group-id="1" node-id="141" stroke="none" target-height="27.300003" target-width="16" target-x="64.5" target-y="117.5"></path><path d="M 53.10 133.40 L 93.80 132.50 L 74.30 147.80 Z" fill="none" group-id="1" node-id="143" stroke="#d32d4a" stroke-linecap="butt" stroke-width="2.07" target-height="15.300003" target-width="40.700005" target-x="53.1" target-y="132.5"></path><path d="M 74.00 128.80 L 76.20 135.50 L 83.20 135.50 L 77.60 139.60 L 79.70 146.30 L 74.00 142.10 L 68.40 146.30 L 70.50 139.60 L 64.80 135.50 L 71.90 135.50 L 74.00 128.80 Z" fill="#fffdfe" fill-rule="nonzero" group-id="1" node-id="145" stroke="none" target-height="17.5" target-width="18.399994" target-x="64.8" target-y="128.8"></path><path d="M 61.40 155.00 L 61.40 166.90 L 54.10 166.90 L 54.10 155.80 L 61.40 155.00 Z" fill="#ef3941" fill-rule="nonzero" group-id="1" node-id="147" stroke="none" target-height="11.899994" target-width="7.300003" target-x="54.1" target-y="155"></path><path d="M 46.60 156.60 L 46.60 166.90 L 39.30 166.90 L 39.30 157.40 L 46.60 156.60 Z" fill="#ef3941" fill-rule="nonzero" group-id="1" node-id="149" stroke="none" target-height="10.299988" target-width="7.299999" target-x="39.3" target-y="156.6"></path><path d="M 74.80 153.50 L 70.50 154.00 L 70.50 166.90 L 78.70 166.90 L 78.70 154.00 Z" fill="#ef3941" fill-rule="nonzero" group-id="1" node-id="151" stroke="none" target-height="13.399994" target-width="8.199997" target-x="70.5" target-y="153.5"></path><path d="M 87.70 155.00 L 87.70 166.90 L 95.10 166.90 L 95.10 155.80 L 87.70 155.00 Z" fill="#ef3941" fill-rule="nonzero" group-id="1" node-id="153" stroke="none" target-height="11.899994" target-width="7.4000015" target-x="87.7" target-y="155"></path><path d="M 102.50 156.60 L 102.50 166.90 L 109.80 166.90 L 109.80 157.40 L 102.50 156.60 Z" fill="#b41e30" fill-rule="nonzero" group-id="1" node-id="155" stroke="none" target-height="10.299988" target-width="7.300003" target-x="102.5" target-y="156.6"></path><path d="M 34.90 69.90 L 34.70 77.20 L 35.00 80.30 L 35.70 83.60 L 36.70 86.80 L 38.30 89.60 L 39.70 91.20 L 41.40 92.50 L 43.50 93.50 L 32.70 90.00 L 26.50 87.50 L 25.50 82.60 L 25.00 77.70 L 25.20 39.80 L 25.90 35.50 L 26.90 31.40 L 28.40 27.30 L 30.20 23.50 L 32.40 19.80 L 35.00 16.30 L 37.90 13.10 L 41.10 10.10 L 43.10 13.00 L 44.70 16.20 L 45.90 19.50 L 42.00 24.10 L 40.20 26.90 L 37.50 33.40 L 35.90 41.30 L 35.80 48.10 L 36.20 50.90 L 37.30 54.70 L 38.90 57.90 L 40.80 60.70 L 43.20 63.10 L 45.90 65.20 L 48.90 67.00 L 48.30 74.30 Z" fill="#4380bc" fill-rule="nonzero" group-id="1" node-id="157" stroke="none" target-height="83.4" target-width="23.900002" target-x="25" target-y="10.1"></path><path d="M 60.90 119.50 L 56.80 118.40 L 49.10 115.40 L 45.60 113.30 L 39.10 108.40 L 33.70 102.30 L 31.40 98.90 L 27.80 91.50 L 26.50 87.50 L 32.70 90.00 L 35.50 96.70 L 37.70 100.50 L 40.70 104.50 L 43.00 107.00 L 48.90 111.60 L 52.30 113.40 L 56.20 114.90 L 60.70 116.10 L 60.90 119.50 Z" fill="#8d6474" fill-rule="nonzero" group-id="1" node-id="159" stroke="none" target-height="32" target-width="34.4" target-x="26.5" target-y="87.5"></path><path d="M 50.20 16.10 L 45.90 19.50 L 44.70 16.20 L 43.10 13.00 L 41.10 10.10 L 46.90 6.10 L 50.20 16.10 Z" fill="#3f5fac" fill-rule="nonzero" group-id="1" node-id="161" stroke="none" target-height="13.4" target-width="9.100002" target-x="41.1" target-y="6.1"></path><path d="M 75.30 70.70 L 75.30 92.20 L 74.10 78.50 L 59.40 78.00 L 51.30 75.30 L 52.60 68.60 L 56.30 69.70 L 63.80 71.00 L 71.50 71.10 L 75.30 70.70 Z" fill="#4380bc" fill-rule="nonzero" group-id="1" node-id="163" stroke="none" target-height="23.599998" target-width="24.000004" target-x="51.3" target-y="68.6"></path><path d="M 75.30 92.20 L 74.10 92.80 L 70.30 93.30 L 63.40 92.40 L 58.30 91.20 L 60.40 88.90 L 62.50 85.00 L 64.70 79.70 L 59.40 78.00 L 75.30 78.60 Z" fill="#244254" fill-rule="nonzero" group-id="1" node-id="165" stroke="none" target-height="15.300003" target-width="17.000004" target-x="58.3" target-y="78"></path><path d="M 64.70 79.70 L 62.50 85.00 L 60.40 88.90 L 58.30 91.20 L 54.10 92.90 L 50.70 93.70 L 47.50 94.10 L 43.60 93.50 L 41.50 92.50 L 39.80 91.20 L 38.40 89.60 L 36.80 86.80 L 35.80 83.60 L 35.10 80.30 L 34.80 77.20 L 35.00 70.00 L 59.40 78.00 Z" fill="#2d475b" fill-rule="nonzero" group-id="1" node-id="167" stroke="none" target-height="24.099998" target-width="29.899998" target-x="34.8" target-y="70"></path><path d="M 59.50 81.70 L 56.70 87.70 L 55.30 89.30 L 50.30 90.90 L 48.20 91.20 L 45.60 90.80 L 43.90 89.90 L 42.60 88.80 L 41.60 87.30 L 40.60 84.80 L 39.80 79.40 L 39.90 75.30 L 56.00 80.60 Z" fill="#fac99f" fill-rule="nonzero" group-id="1" node-id="169" stroke="none" target-height="15.899994" target-width="19.7" target-x="39.8" target-y="75.3"></path><path d="M 44.90 93.90 L 43.50 93.50 Z" fill="none" group-id="1" node-id="171" stroke="none" target-height="0.40000153" target-width="1.4000015" target-x="43.5" target-y="93.5"></path><path d="M 76.30 96.50 L 75.30 96.60" fill="none" group-id="1" node-id="173" stroke="none" target-height="0.099998474" target-width="1" target-x="75.3" target-y="96.5"></path><path d="M 61.00 116.20 L 60.70 116.10" fill="none" group-id="1" node-id="175" stroke="none" target-height="0.099998474" target-width="0.29999924" target-x="60.7" target-y="116.1"></path><path d="M 75.30 92.20 L 75.30 92.20" fill="none" group-id="1" node-id="177" stroke="none" target-height="0" target-width="0" target-x="75.3" target-y="92.2"></path><path d="M 48.90 67.00 L 45.90 65.20 L 43.20 63.10 L 40.80 60.70 L 38.90 57.90 L 37.30 54.70 L 36.20 50.90 L 35.60 44.90 L 36.50 37.30 L 38.70 29.90 L 42.00 24.10 L 45.90 19.50 L 47.20 24.00 L 48.40 30.10 L 49.10 36.90 L 49.60 45.70 L 49.50 55.20 L 48.90 67.00 Z" fill="#62addf" fill-rule="nonzero" group-id="1" node-id="179" stroke="none" target-height="47.5" target-width="14" target-x="35.6" target-y="19.5"></path><path d="M 52.60 68.60 L 51.30 75.30 L 48.30 74.30 L 48.90 67.00 L 52.60 68.60 Z" fill="#3f5fac" fill-rule="nonzero" group-id="1" node-id="181" stroke="none" target-height="8.300003" target-width="4.299999" target-x="48.3" target-y="67"></path><path d="M 52.60 68.60 L 48.90 67.00 L 49.50 55.20 L 49.60 45.70 L 49.10 36.90 L 48.30 30.10 L 47.20 24.00 L 45.90 19.50 L 50.20 16.10 L 52.30 25.20 L 53.40 32.40 L 54.10 39.60 L 54.30 46.90 L 54.20 54.20 L 53.60 61.40 L 52.60 68.60 Z" fill="#3f5fac" fill-rule="nonzero" group-id="1" node-id="183" stroke="none" target-height="52.5" target-width="8.399998" target-x="45.9" target-y="16.1"></path><path d="M 52.30 25.20 L 52.30 25.20" fill="none" group-id="1" node-id="185" stroke="none" target-height="0" target-width="0" target-x="52.3" target-y="25.2"></path><path d="M 25.00 77.70 L 23.30 78.00 L 20.70 77.40 L 18.10 75.20 L 16.90 73.20 L 16.10 70.90 L 15.90 68.30 L 16.10 65.70 L 16.90 63.40 L 18.10 61.50 L 20.70 59.30 L 23.30 58.70 L 25.00 58.90 L 25.00 77.70 Z" fill="#fac99f" fill-rule="nonzero" group-id="1" node-id="187" stroke="none" target-height="19.3" target-width="9.1" target-x="15.9" target-y="58.7"></path><path d="M 25.00 58.90 L 25.00 58.90" fill="none" group-id="1" node-id="189" stroke="none" target-height="0" target-width="0" target-x="25" target-y="58.9"></path><path d="M 44.00 79.80 L 55.30 83.20 L 52.50 86.00 L 51.20 86.70 L 48.80 86.90 L 46.80 85.50 L 45.90 84.30 L 44.00 79.80 Z" fill="#7a626a" fill-rule="nonzero" group-id="1" node-id="193" stroke="none" target-height="7.0999985" target-width="11.299999" target-x="44" target-y="79.8"></path><path d="M 111.20 69.90 L 111.40 77.20 L 111.10 80.30 L 110.40 83.60 L 109.30 86.80 L 107.80 89.60 L 106.40 91.20 L 104.70 92.50 L 102.60 93.50 L 113.40 90.00 L 119.60 87.50 L 120.60 82.60 L 121.10 77.70 L 120.80 39.80 L 120.20 35.60 L 119.20 31.40 L 117.70 27.30 L 115.90 23.50 L 113.70 19.80 L 111.10 16.30 L 108.20 13.10 L 105.00 10.10 L 103.00 13.00 L 101.40 16.20 L 100.20 19.50 L 104.60 24.70 L 107.80 30.80 L 108.90 34.00 L 110.20 41.30 L 110.30 48.10 L 109.90 50.90 L 108.80 54.70 L 107.20 57.90 L 105.30 60.70 L 102.90 63.10 L 100.20 65.20 L 97.20 67.00 L 97.80 74.30 Z" fill="#4380bc" fill-rule="nonzero" group-id="1" node-id="195" stroke="none" target-height="83.4" target-width="23.900002" target-x="97.2" target-y="10.1"></path><path d="M 85.20 119.50 L 89.30 118.40 L 97.00 115.40 L 100.50 113.30 L 107.00 108.40 L 112.40 102.30 L 114.70 98.90 L 118.30 91.50 L 119.60 87.50 L 113.40 90.00 L 110.60 96.70 L 108.40 100.50 L 105.40 104.50 L 103.10 107.00 L 97.20 111.60 L 93.80 113.40 L 89.90 114.90 L 85.40 116.10 L 85.20 119.50 Z" fill="#8d6474" fill-rule="nonzero" group-id="1" node-id="197" stroke="none" target-height="32" target-width="34.4" target-x="85.2" target-y="87.5"></path><path d="M 95.80 16.10 L 100.20 19.50 L 101.40 16.20 L 103.00 13.00 L 105.00 10.10 L 99.20 6.10 L 95.80 16.10 Z" fill="#3f5fac" fill-rule="nonzero" group-id="1" node-id="199" stroke="none" target-height="13.4" target-width="9.199997" target-x="95.8" target-y="6.1"></path><path d="M 99.20 6.10 L 95.70 4.20 L 88.40 1.50 L 80.80 0.20 L 76.90 0.00 L 65.30 0.20 L 61.40 0.70 L 54.00 2.70 L 46.90 6.10 L 50.20 16.10 L 54.40 13.70 L 58.50 12.00 L 62.70 10.80 L 66.50 10.10 L 73.10 9.50 L 79.60 10.10 L 83.40 10.80 L 87.60 12.00 L 91.70 13.70 L 95.80 16.10 L 99.20 6.10 Z" fill="#4380bc" fill-rule="nonzero" group-id="1" node-id="201" stroke="none" target-height="16.1" target-width="52.299995" target-x="46.9" target-y="0"></path><path d="M 75.30 9.60 L 70.80 9.40 L 61.10 11.20 L 53.80 14.00 L 50.20 16.10 L 52.30 25.20 L 55.70 22.30 L 61.00 20.10 L 67.80 19.00 L 75.30 18.90 L 81.70 19.40 L 85.10 20.10 L 90.40 22.30 L 93.80 25.20 L 95.80 16.10 L 92.20 14.00 L 85.00 11.20 L 81.50 10.40 L 75.30 9.60 Z" fill="#62addf" fill-rule="nonzero" group-id="1" node-id="203" stroke="none" target-height="15.800001" target-width="45.600002" target-x="50.2" target-y="9.4"></path><path d="M 70.80 70.70 L 70.80 92.20 L 72.00 78.50 L 86.70 78.00 L 94.80 75.30 L 93.50 68.70 L 89.80 69.80 L 82.30 71.00 L 74.60 71.10 L 70.80 70.70 Z" fill="#4380bc" fill-rule="nonzero" group-id="1" node-id="205" stroke="none" target-height="23.5" target-width="24" target-x="70.8" target-y="68.7"></path><path d="M 102.60 93.50 L 94.80 95.30 L 88.40 96.20 L 81.90 96.80 L 75.30 96.80 L 75.30 96.60 L 70.80 96.60 L 70.80 96.80 L 64.30 96.80 L 57.80 96.20 L 51.40 95.30 L 41.40 92.90 L 45.00 93.80 L 32.80 90.00 L 35.60 96.80 L 37.80 100.50 L 40.80 104.50 L 43.10 107.00 L 49.00 111.60 L 52.40 113.40 L 56.30 114.90 L 60.80 116.10 L 61.10 114.70 L 62.00 114.10 L 67.00 113.20 L 79.30 113.20 L 82.80 113.60 L 85.10 114.70 L 85.40 116.10 L 90.00 114.90 L 93.90 113.40 L 97.30 111.60 L 100.40 109.30 L 105.50 104.50 L 108.40 100.50 L 110.60 96.80 L 112.40 93.00 L 113.40 90.00 L 102.60 93.50 Z" fill="#fac99f" fill-rule="nonzero" group-id="1" node-id="207" stroke="none" target-height="26.099998" target-width="80.600006" target-x="32.8" target-y="90"></path><path d="M 70.80 92.20 L 72.00 92.80 L 75.80 93.30 L 82.70 92.40 L 87.80 91.20 L 85.70 88.90 L 83.60 85.00 L 81.40 79.70 L 86.70 78.00 L 70.80 78.60 Z" fill="#244254" fill-rule="nonzero" group-id="1" node-id="209" stroke="none" target-height="15.300003" target-width="17" target-x="70.8" target-y="78"></path><path d="M 81.40 79.70 L 83.60 85.00 L 85.70 88.90 L 87.80 91.20 L 92.00 92.90 L 95.40 93.70 L 98.60 94.10 L 102.60 93.50 L 104.60 92.50 L 106.30 91.20 L 107.70 89.60 L 109.30 86.80 L 110.40 83.60 L 111.10 80.30 L 111.40 77.20 L 111.20 70.00 L 86.70 78.00 Z" fill="#2d475b" fill-rule="nonzero" group-id="1" node-id="211" stroke="none" target-height="24.099998" target-width="30" target-x="81.4" target-y="70"></path><path d="M 86.60 81.70 L 89.40 87.70 L 90.80 89.30 L 95.80 91.00 L 97.90 91.20 L 100.50 90.80 L 102.20 89.90 L 103.50 88.80 L 104.50 87.30 L 105.50 84.80 L 106.30 79.50 L 106.20 75.30 L 90.00 80.60 Z" fill="#fac99f" fill-rule="nonzero" group-id="1" node-id="213" stroke="none" target-height="15.899994" target-width="19.700005" target-x="86.6" target-y="75.3"></path><path d="M 101.20 93.90 L 102.60 93.50 Z" fill="none" group-id="1" node-id="215" stroke="none" target-height="0.40000153" target-width="1.4000015" target-x="101.2" target-y="93.5"></path><path d="M 70.80 96.60 L 69.80 96.50" fill="none" group-id="1" node-id="217" stroke="none" target-height="0.099998474" target-width="1" target-x="69.8" target-y="96.5"></path><path d="M 85.40 116.10 L 85.10 116.20" fill="none" group-id="1" node-id="219" stroke="none" target-height="0.099998474" target-width="0.30000305" target-x="85.1" target-y="116.1"></path><path d="M 85.40 116.10 L 85.10 114.70 L 83.90 114.00 L 82.00 113.50 L 77.60 113.10 L 66.10 113.20 L 62.20 114.00 L 61.10 114.70 L 60.70 117.80 L 61.60 122.30 L 62.70 125.00 L 63.20 125.60 L 64.20 125.90 L 75.30 125.80 L 83.40 125.00 L 85.20 119.40 L 85.40 116.10 Z" fill="#8d6474" fill-rule="nonzero" group-id="1" node-id="221" stroke="none" target-height="12.800003" target-width="24.7" target-x="60.7" target-y="113.1"></path><path d="M 70.80 92.20 L 70.80 92.20" fill="none" group-id="1" node-id="223" stroke="none" target-height="0" target-width="0" target-x="70.8" target-y="92.2"></path><path d="M 93.80 25.20 L 91.90 23.40 L 89.80 22.00 L 87.50 20.90 L 83.70 19.80 L 76.10 18.90 L 70.00 18.90 L 62.40 19.80 L 58.60 20.90 L 56.20 22.00 L 54.10 23.40 L 52.30 25.20 L 53.40 32.40 L 54.10 39.60 L 54.30 46.90 L 54.20 54.20 L 53.60 61.40 L 52.60 68.60 L 57.60 70.10 L 62.70 70.90 L 67.80 71.30 L 73.10 71.00 L 78.20 71.30 L 83.40 71.00 L 88.50 70.10 L 93.50 68.70 L 92.50 61.40 L 91.90 54.20 L 91.80 46.90 L 92.00 39.70 L 92.70 32.40 L 93.80 25.20 Z" fill="#62addf" fill-rule="nonzero" group-id="1" node-id="225" stroke="none" target-height="52.4" target-width="41.500004" target-x="52.3" target-y="18.9"></path><path d="M 97.20 67.00 L 100.20 65.20 L 102.90 63.10 L 105.30 60.70 L 107.20 57.90 L 108.80 54.70 L 109.90 50.90 L 110.50 44.90 L 109.60 37.30 L 107.70 30.70 L 104.50 24.70 L 100.20 19.50 L 98.90 24.00 L 97.70 30.10 L 97.00 36.90 L 96.50 45.70 L 96.60 55.20 L 97.20 67.00 Z" fill="#62addf" fill-rule="nonzero" group-id="1" node-id="227" stroke="none" target-height="47.5" target-width="14" target-x="96.5" target-y="19.5"></path><path d="M 93.50 68.60 L 94.80 75.30 L 97.80 74.30 L 97.20 67.00 L 93.50 68.60 Z" fill="#3f5fac" fill-rule="nonzero" group-id="1" node-id="229" stroke="none" target-height="8.300003" target-width="4.300003" target-x="93.5" target-y="67"></path><path d="M 93.50 68.60 L 97.20 67.00 L 96.60 55.20 L 96.50 45.70 L 97.00 36.90 L 97.70 30.10 L 98.90 24.00 L 100.20 19.50 L 95.90 16.10 L 93.80 25.20 L 92.70 32.40 L 92.00 39.60 L 91.80 46.90 L 91.90 54.20 L 92.50 61.40 L 93.50 68.60 Z" fill="#3f5fac" fill-rule="nonzero" group-id="1" node-id="231" stroke="none" target-height="52.5" target-width="8.399994" target-x="91.8" target-y="16.1"></path><path d="M 93.80 25.20 L 93.80 25.20" fill="none" group-id="1" node-id="233" stroke="none" target-height="0" target-width="0" target-x="93.8" target-y="25.2"></path><path d="M 121.10 77.70 L 122.80 78.00 L 125.40 77.40 L 128.00 75.20 L 129.20 73.20 L 129.90 70.90 L 130.20 68.30 L 129.90 65.70 L 129.20 63.40 L 128.00 61.50 L 125.40 59.30 L 122.80 58.70 L 121.10 58.90 L 121.10 77.70 Z" fill="#fac99f" fill-rule="nonzero" group-id="1" node-id="235" stroke="none" target-height="19.3" target-width="9.099998" target-x="121.1" target-y="58.7"></path><path d="M 121.10 77.70 L 121.10 77.70" fill="none" group-id="1" node-id="239" stroke="none" target-height="0" target-width="0" target-x="121.1" target-y="77.7"></path><path d="M 102.10 79.80 L 90.80 83.20 L 93.60 86.00 L 94.90 86.70 L 97.30 86.90 L 99.30 85.50 L 100.20 84.30 L 102.10 79.80 Z" fill="#7a626a" fill-rule="nonzero" group-id="1" node-id="241" stroke="none" target-height="7.0999985" target-width="11.299995" target-x="90.8" target-y="79.8"></path><path d="M 85.30 56.20 L 76.20 57.40 L 75.10 53.20 L 70.90 53.20 L 69.90 57.40 L 60.50 56.50 L 67.90 31.90 L 78.10 31.40 Z M 74.40 47.60 L 73.00 41.10 L 71.60 47.60 Z" fill="#fffdfe" fill-rule="nonzero" group-id="1" node-id="243" stroke="none" target-height="26.000002" target-width="24.800003" target-x="60.5" target-y="31.4"></path><path d="M 101.20 93.90 L 98.60 94.10 L 95.40 93.80 L 92.00 92.90 L 87.80 91.20 L 80.80 92.80 L 75.30 93.40 L 68.10 93.20 L 58.30 91.20 L 54.10 92.90 L 50.70 93.70 L 47.50 94.10 L 45.00 93.90 L 52.00 95.40 L 58.90 96.40 L 66.00 96.90 L 80.20 96.80 L 87.20 96.40 L 94.20 95.40 L 101.20 93.90 Z" fill="#4380bc" fill-rule="nonzero" group-id="1" node-id="245" stroke="none" target-height="5.7000046" target-width="56.199997" target-x="45" target-y="91.2"></path><path d="M 168.70 182.30 L 168.50 186.70 L 167.80 190.90 L 166.80 194.90 L 165.40 198.80 L 161.40 206.00 L 156.30 212.30 L 150.00 217.40 L 142.80 221.40 L 138.90 222.80 L 134.90 223.80 L 130.70 224.50 L 126.30 224.70 L 121.90 224.50 L 117.70 223.80 L 113.60 222.80 L 109.80 221.40 L 106.00 219.50 L 99.30 215.00 L 93.50 209.20 L 89.00 202.50 L 87.20 198.80 L 85.70 194.90 L 84.70 190.90 L 84.10 186.70 L 83.80 182.30 L 84.10 177.90 L 84.70 173.60 L 85.70 169.60 L 87.20 165.70 L 89.00 162.00 L 93.50 155.30 L 99.30 149.50 L 102.50 147.10 L 109.80 143.20 L 113.60 141.70 L 117.70 140.70 L 121.90 140.10 L 126.30 139.80 L 130.70 140.10 L 134.90 140.70 L 138.90 141.70 L 142.80 143.20 L 150.00 147.10 L 156.30 152.30 L 161.40 158.50 L 165.40 165.70 L 166.80 169.60 L 167.80 173.60 L 168.50 177.90 L 168.70 182.30 Z" fill="#fffdfe" fill-rule="nonzero" group-id="1" node-id="247" stroke="none" target-height="84.899994" target-width="84.899994" target-x="83.8" target-y="139.8"></path><path d="M 148.10 182.30 L 147.90 185.30 L 146.40 190.80 L 145.10 193.30 L 142.90 196.30 L 140.30 198.90 L 137.30 201.10 L 134.80 202.40 L 129.30 203.90 L 126.30 204.10 L 123.20 203.90 L 117.80 202.40 L 115.30 201.10 L 112.20 198.90 L 109.60 196.30 L 107.40 193.30 L 105.20 188.10 L 104.70 185.30 L 104.50 182.30 L 105.20 176.40 L 107.40 171.20 L 109.60 168.20 L 112.20 165.60 L 115.30 163.40 L 117.80 162.20 L 123.20 160.70 L 126.30 160.40 L 129.30 160.70 L 134.80 162.20 L 137.30 163.40 L 140.30 165.60 L 142.90 168.20 L 145.10 171.20 L 146.40 173.80 L 147.90 179.20 L 148.10 182.30 Z" fill="#4380bc" fill-rule="nonzero" group-id="1" node-id="249" stroke="none" target-height="43.700012" target-width="43.600006" target-x="104.5" target-y="160.4"></path><path d="M 126.30 227.80 L 121.70 227.50 L 117.20 226.90 L 112.90 225.80 L 108.80 224.30 L 104.70 222.30 L 101.00 220.10 L 97.50 217.50 L 94.20 214.50 L 91.20 211.20 L 88.50 207.70 L 86.20 203.80 L 84.20 199.70 L 82.70 195.30 L 81.60 191.00 L 80.90 186.60 L 80.70 182.10 L 81.00 177.70 L 81.60 173.40 L 82.70 169.10 L 84.20 164.90 L 86.00 160.90 L 88.30 157.10 L 91.00 153.50 L 94.10 150.10 L 97.50 147.00 L 101.10 144.30 L 104.90 142.00 L 108.90 140.20 L 113.10 138.70 L 117.40 137.60 L 121.70 137.00 L 126.20 136.70 L 130.60 136.90 L 135.00 137.60 L 139.30 138.70 L 143.70 140.20 L 147.90 142.20 L 151.70 144.50 L 155.30 147.20 L 158.50 150.10 L 161.50 153.50 L 164.10 157.00 L 166.40 160.70 L 168.30 164.70 L 169.80 168.90 L 170.90 173.20 L 171.50 177.60 L 171.80 182.30 L 171.50 187.00 L 170.80 191.50 L 169.70 195.80 L 168.20 200.00 L 166.20 204.00 L 164.00 207.70 L 161.40 211.20 L 158.40 214.40 L 155.20 217.40 L 151.70 220.00 L 148.00 222.20 L 144.00 224.20 L 139.80 225.70 L 135.50 226.80 L 131.00 227.50 L 126.30 227.80 Z M 126.30 146.30 L 121.40 146.70 L 116.80 147.60 L 112.40 149.10 L 108.30 151.20 L 104.40 153.70 L 100.90 156.80 L 97.80 160.30 L 95.20 164.20 L 93.10 168.50 L 91.50 173.10 L 90.60 177.70 L 90.30 182.30 L 90.70 187.00 L 91.60 191.50 L 93.00 195.90 L 95.10 200.10 L 97.70 204.00 L 100.90 207.70 L 104.50 210.80 L 108.40 213.40 L 112.60 215.50 L 117.00 217.00 L 121.50 217.90 L 126.20 218.20 L 130.80 217.90 L 135.40 217.00 L 140.00 215.40 L 144.30 213.30 L 148.20 210.70 L 151.70 207.60 L 154.80 204.10 L 157.30 200.30 L 159.40 196.10 L 160.90 191.70 L 161.90 187.10 L 162.20 182.30 L 161.80 177.30 L 160.90 172.70 L 159.30 168.30 L 157.20 164.10 L 154.70 160.30 L 151.60 156.90 L 148.20 153.80 L 144.40 151.30 L 140.20 149.20 L 135.80 147.60 L 131.20 146.70 L 126.30 146.30 Z" fill="#ef3941" fill-rule="nonzero" group-id="1" node-id="251" stroke="none" target-height="91.100006" target-width="91.100006" target-x="80.7" target-y="136.7"></path><path d="M 126.30 210.80 L 122.40 210.50 L 118.80 209.80 L 115.30 208.60 L 112.00 206.90 L 108.90 204.90 L 106.10 202.50 L 103.70 199.70 L 101.60 196.60 L 99.90 193.20 L 98.70 189.50 L 98.00 185.90 L 97.70 182.20 L 98.00 178.50 L 98.70 174.90 L 99.90 171.40 L 101.50 168.10 L 103.60 165.00 L 106.10 162.10 L 109.00 159.60 L 112.10 157.50 L 115.40 155.90 L 118.90 154.70 L 122.50 154.00 L 126.20 153.70 L 129.90 153.90 L 133.50 154.70 L 137.20 155.90 L 140.60 157.60 L 143.70 159.70 L 146.50 162.10 L 148.90 164.90 L 151.00 168.00 L 152.60 171.30 L 153.80 174.80 L 154.50 178.40 L 154.80 182.30 L 154.50 186.20 L 153.80 189.90 L 152.50 193.40 L 150.90 196.70 L 148.80 199.70 L 146.40 202.40 L 143.70 204.80 L 140.70 206.90 L 137.40 208.50 L 133.90 209.80 L 130.20 210.50 L 126.30 210.80 Z M 126.30 161.30 L 123.40 161.50 L 118.10 162.90 L 115.70 164.10 L 112.70 166.20 L 110.20 168.70 L 108.10 171.70 L 106.90 174.10 L 105.50 179.30 L 105.30 182.30 L 105.50 185.20 L 106.90 190.40 L 108.10 192.80 L 110.20 195.80 L 112.70 198.30 L 115.70 200.40 L 118.10 201.60 L 123.40 203.00 L 126.30 203.20 L 129.20 203.00 L 134.50 201.60 L 136.90 200.40 L 139.80 198.30 L 142.30 195.80 L 144.40 192.80 L 145.60 190.40 L 147.10 185.20 L 147.30 182.30 L 147.10 179.30 L 145.60 174.10 L 144.40 171.70 L 142.30 168.70 L 139.80 166.20 L 136.90 164.10 L 134.50 162.90 L 129.20 161.50 L 126.30 161.30 Z" fill="#ef3941" fill-rule="nonzero" group-id="1" node-id="253" stroke="none" target-height="57.100006" target-width="57.100006" target-x="97.7" target-y="153.7"></path><path d="M 126.60 167.90 L 129.70 177.60 L 139.90 177.60 L 131.70 183.60 L 134.80 193.20 L 126.60 187.30 L 118.40 193.20 L 121.50 183.60 L 113.30 177.60 L 123.50 177.60 L 126.60 167.90 Z" fill="#fffdfe" fill-rule="nonzero" group-id="1" node-id="255" stroke="none" target-height="25.300003" target-width="26.59999" target-x="113.3" target-y="167.9"></path></g></svg>