<?xml version="1.0" standalone="no"?><!DOCTYPE svg PUBLIC "-//W3C//DTD SVG 1.1//EN" "http://www.w3.org/Graphics/SVG/1.1/DTD/svg11.dtd"><svg height="207" node-id="1" sillyvg="true" template-height="207" template-width="146" version="1.1" viewBox="0 0 146 207" width="146" xmlns="http://www.w3.org/2000/svg" xmlns:xlink="http://www.w3.org/1999/xlink"><defs node-id="56"></defs><g node-id="177"><path d="M 146.00 170.70 L 136.40 171.60 L 129.10 171.80 L 120.90 171.10 L 118.40 170.50 L 115.50 169.20 L 113.30 166.50 L 112.40 164.50 L 111.40 161.10 L 110.50 153.30 L 110.70 141.00 L 118.90 140.70 L 126.00 141.40 L 129.40 142.40 L 132.20 143.80 L 134.20 145.50 L 135.30 147.00 L 140.00 155.70 L 146.00 170.70 Z" fill="#a8774c" fill-rule="nonzero" group-id="1" node-id="60" stroke="none" target-height="31.100006" target-width="35.5" target-x="110.5" target-y="140.7"></path><path d="M 31.30 123.60 L 22.80 128.80 L 15.20 132.50 L 12.70 133.10 L 10.50 133.20 L 8.60 132.70 L 6.80 131.80 L 4.10 129.10 L 1.80 124.60 L 1.10 121.70 L 0.70 116.60 L 1.00 115.70 L 2.00 114.60 L 3.90 113.30 L 7.20 111.60 L 16.50 108.10 L 31.70 103.50 L 42.40 100.70 L 46.60 108.00 L 47.60 110.30 L 47.30 111.00 L 43.00 115.10 L 31.30 123.60 Z" fill="#a8774c" fill-rule="nonzero" group-id="1" node-id="62" stroke="none" target-height="32.5" target-width="46.899998" target-x="0.7" target-y="100.7"></path><path d="M 31.30 123.60 L 22.80 128.80 L 15.20 132.50 L 12.70 133.10 L 10.50 133.20 L 8.60 132.70 L 6.80 131.80 L 10.40 123.30 L 12.40 120.80 L 13.40 120.50 L 14.30 120.60 L 15.30 121.60 L 15.60 122.70 L 15.40 125.30 L 18.40 121.70 L 21.70 118.80 L 22.30 118.80 L 22.80 119.20 L 24.10 121.80 L 26.20 118.50 L 27.30 117.50 L 28.50 117.00 L 29.10 117.10 L 30.20 118.80 L 31.30 123.60 Z" fill="#f1c3a0" fill-rule="nonzero" group-id="1" node-id="64" stroke="none" target-height="16.199997" target-width="24.5" target-x="6.8" target-y="117"></path><path d="M 112.80 122.20 L 121.30 127.50 L 128.80 131.10 L 131.40 131.70 L 133.50 131.80 L 135.50 131.30 L 137.20 130.40 L 139.90 127.80 L 142.20 123.20 L 143.00 120.30 L 143.40 115.20 L 143.00 114.30 L 142.10 113.30 L 140.10 111.90 L 136.80 110.30 L 127.50 106.70 L 112.40 102.10 L 101.70 99.30 L 97.50 106.60 L 96.50 108.90 L 96.80 109.70 L 101.00 113.70 L 112.80 122.20 Z" fill="#a8774c" fill-rule="nonzero" group-id="1" node-id="66" stroke="none" target-height="32.5" target-width="46.899994" target-x="96.5" target-y="99.3"></path><path d="M 112.80 122.20 L 121.30 127.50 L 128.80 131.10 L 131.40 131.70 L 133.50 131.80 L 135.50 131.30 L 137.20 130.40 L 133.70 121.90 L 131.70 119.40 L 130.70 119.10 L 129.80 119.20 L 128.80 120.20 L 128.50 121.40 L 128.70 123.90 L 125.70 120.30 L 122.30 117.50 L 121.80 117.40 L 121.30 117.90 L 120.00 120.40 L 117.80 117.10 L 115.60 115.50 L 115.00 115.70 L 113.90 117.50 L 112.80 122.20 Z" fill="#f1c3a0" fill-rule="nonzero" group-id="1" node-id="68" stroke="none" target-height="16.300003" target-width="24.399994" target-x="112.8" target-y="115.5"></path><path d="M 64.20 171.90 L 62.20 195.50 L 61.40 202.00 L 60.50 205.30 L 59.50 206.00 L 55.10 206.70 L 52.10 206.70 L 46.00 206.10 L 43.10 205.50 L 40.10 204.30 L 38.60 201.80 L 37.80 199.10 L 35.90 187.70 L 34.50 166.30 Z" fill="#a8774c" fill-rule="nonzero" group-id="1" node-id="70" stroke="none" target-height="40.399994" target-width="29.699997" target-x="34.5" target-y="166.3"></path><path d="M 64.20 171.90 L 63.00 187.60 L 58.50 187.20 L 53.50 186.20 L 48.50 184.70 L 35.10 179.40 L 34.50 166.30 Z" fill="#3672b9" fill-rule="nonzero" group-id="1" node-id="72" stroke="none" target-height="21.300003" target-width="29.699997" target-x="34.5" target-y="166.3"></path><g node-id="178"><path d="M 45.20 173.10 L 55.00 175.40 L 53.70 181.20 L 43.50 179.00 L 44.60 173.40 L 45.20 173.10 Z" fill="#ee8621" fill-rule="nonzero" group-id="1,2" node-id="76" stroke="none" target-height="8.099991" target-width="11.5" target-x="43.5" target-y="173.1"></path></g><path d="M 82.90 171.90 L 84.80 195.50 L 85.70 202.00 L 86.60 205.30 L 87.50 206.00 L 92.00 206.70 L 95.00 206.70 L 101.00 206.10 L 103.90 205.50 L 106.90 204.30 L 108.40 201.80 L 109.30 199.10 L 111.20 187.70 L 112.60 166.30 Z" fill="#a8774c" fill-rule="nonzero" group-id="1" node-id="79" stroke="none" target-height="40.399994" target-width="29.699997" target-x="82.9" target-y="166.3"></path><path d="M 82.90 171.90 L 84.10 187.60 L 88.50 187.20 L 93.50 186.20 L 98.60 184.70 L 111.90 179.40 L 112.60 166.30 Z" fill="#3672b9" fill-rule="nonzero" group-id="1" node-id="81" stroke="none" target-height="21.300003" target-width="29.699997" target-x="82.9" target-y="166.3"></path><g node-id="179"><path d="M 103.20 179.20 L 93.30 181.20 L 92.00 175.40 L 102.20 173.10 L 103.60 178.60 L 103.20 179.20 Z" fill="#ee8621" fill-rule="nonzero" group-id="1,3" node-id="85" stroke="none" target-height="8.099991" target-width="11.599998" target-x="92" target-y="173.1"></path></g><path d="M 111.60 170.50 L 88.70 172.00 L 74.20 172.30 L 57.30 171.90 L 49.20 171.30 L 37.70 169.40 L 31.10 167.20 L 27.40 164.90 L 25.90 162.30 L 25.50 158.20 L 26.40 150.80 L 27.50 145.50 L 30.60 134.20 L 34.50 122.60 L 44.30 96.80 L 99.30 95.90 L 104.10 107.30 L 110.90 125.60 L 115.10 139.40 L 116.70 146.00 L 117.90 152.50 L 118.30 158.00 L 118.30 161.60 L 117.80 164.50 L 117.00 166.70 L 116.10 168.20 L 114.90 169.40 L 113.40 170.10 L 111.60 170.50 Z" fill="#a8774c" fill-rule="nonzero" group-id="1" node-id="88" stroke="none" target-height="76.4" target-width="92.8" target-x="25.5" target-y="95.9"></path><path d="M 75.30 121.90 L 74.80 174.90 L 58.20 174.50 L 44.00 173.30 L 34.20 171.50 L 28.70 169.50 L 26.40 168.10 L 25.00 166.70 L 24.30 165.20 L 23.90 161.50 L 24.10 158.60 L 26.60 146.80 L 33.30 127.00 L 53.80 111.80 Z" fill="#3672b9" fill-rule="nonzero" group-id="1" node-id="90" stroke="none" target-height="63.09999" target-width="51.4" target-x="23.9" target-y="111.8"></path><g node-id="180"><path d="M 42.70 88.20 L 49.50 85.50 L 62.80 118.50 L 56.10 121.20 Z" fill="#3672b9" fill-rule="nonzero" group-id="1,4" node-id="94" stroke="none" target-height="35.699997" target-width="20.099998" target-x="42.7" target-y="85.5"></path></g><g node-id="181"><path d="M 64.40 152.10 L 56.70 152.20 L 55.90 137.40 L 56.20 136.70 L 56.80 136.50 L 64.10 136.30 L 64.90 151.60 L 64.40 152.10 Z" fill="#5e5e5e" fill-rule="nonzero" group-id="1,5" node-id="99" stroke="none" target-height="15.899994" target-width="9" target-x="55.9" target-y="136.3"></path></g><path d="M 63.50 138.90 L 75.30 138.90 L 75.30 142.50 L 63.50 142.50 Z" fill="#5e5e5e" fill-rule="nonzero" group-id="1" node-id="102" stroke="none" target-height="3.600006" target-width="11.800003" target-x="63.5" target-y="138.9"></path><path d="M 63.10 145.00 L 74.90 145.00 L 74.90 148.70 L 63.10 148.70 Z" fill="#5e5e5e" fill-rule="nonzero" group-id="1" node-id="104" stroke="none" target-height="3.699997" target-width="11.800003" target-x="63.1" target-y="145"></path><path d="M 72.20 137.60 L 79.30 137.80 L 79.30 143.20 L 71.80 143.20 L 71.70 138.10 L 72.20 137.60 Z" fill="#7a777a" fill-rule="nonzero" group-id="1" node-id="106" stroke="none" target-height="5.599991" target-width="7.600006" target-x="71.7" target-y="137.6"></path><path d="M 71.90 144.30 L 79.00 144.40 L 79.10 149.50 L 78.70 150.00 L 71.60 149.80 L 71.40 144.70 L 71.90 144.30 Z" fill="#7a777a" fill-rule="nonzero" group-id="1" node-id="108" stroke="none" target-height="5.699997" target-width="7.699997" target-x="71.4" target-y="144.3"></path><path d="M 74.90 158.60 L 74.90 164.30 L 23.90 164.30 L 23.90 158.60 L 74.90 158.60 Z" fill="#7a573f" fill-rule="nonzero" group-id="1" node-id="110" stroke="none" target-height="5.699997" target-width="51" target-x="23.9" target-y="158.6"></path><path d="M 39.30 122.10 L 43.20 128.90 L 32.10 136.40 L 36.80 139.00 L 48.30 130.80 L 43.20 119.30 L 39.30 122.10 Z" fill="#919091" fill-rule="nonzero" group-id="1" node-id="112" stroke="none" target-height="19.699997" target-width="16.2" target-x="32.1" target-y="119.3"></path><path d="M 42.10 138.70 L 40.30 144.10 L 28.30 141.00 L 30.40 134.80 L 30.80 135.00 Z" fill="#673f1c" fill-rule="nonzero" group-id="1" node-id="114" stroke="none" target-height="9.300003" target-width="13.799999" target-x="28.3" target-y="134.8"></path><path d="M 69.40 121.90 L 69.90 174.90 L 86.50 174.50 L 100.70 173.30 L 110.50 171.50 L 116.00 169.50 L 118.30 168.10 L 119.70 166.70 L 120.40 165.20 L 120.80 161.50 L 120.60 158.60 L 118.10 146.80 L 111.40 127.00 L 90.80 111.80 Z" fill="#3672b9" fill-rule="nonzero" group-id="1" node-id="116" stroke="none" target-height="63.09999" target-width="51.4" target-x="69.4" target-y="111.8"></path><g node-id="182"><path d="M 88.70 120.60 L 81.90 117.80 L 95.40 84.70 L 102.20 87.50 Z" fill="#3672b9" fill-rule="nonzero" group-id="1,6" node-id="120" stroke="none" target-height="35.9" target-width="20.299995" target-x="81.9" target-y="84.7"></path></g><g node-id="183"><path d="M 80.80 136.20 L 87.80 136.40 L 88.40 136.70 L 88.70 137.40 L 88.10 151.70 L 87.90 152.20 L 87.40 152.40 L 79.90 151.90 L 80.30 136.60 L 80.80 136.20 Z" fill="#5e5e5e" fill-rule="nonzero" group-id="1,7" node-id="125" stroke="none" target-height="16.199997" target-width="8.799995" target-x="79.9" target-y="136.2"></path></g><g node-id="184"><path d="M 81.20 142.60 L 69.40 142.60 L 69.40 138.90 L 81.20 138.90 Z" fill="#5e5e5e" fill-rule="nonzero" group-id="1,8" node-id="130" stroke="none" target-height="3.7000122" target-width="11.799995" target-x="69.4" target-y="138.9"></path></g><g node-id="185"><path d="M 81.50 148.70 L 69.70 148.70 L 69.70 145.00 L 81.50 145.00 Z" fill="#5e5e5e" fill-rule="nonzero" group-id="1,9" node-id="135" stroke="none" target-height="3.699997" target-width="11.800003" target-x="69.7" target-y="145"></path></g><path d="M 69.80 158.60 L 69.80 164.30 L 120.80 164.30 L 120.80 158.60 L 69.80 158.60 Z" fill="#7a573f" fill-rule="nonzero" group-id="1" node-id="138" stroke="none" target-height="5.699997" target-width="51" target-x="69.8" target-y="158.6"></path><path d="M 105.40 122.10 L 101.50 128.90 L 112.60 136.40 L 107.90 139.00 L 96.40 130.80 L 101.50 119.30 L 105.40 122.10 Z" fill="#919091" fill-rule="nonzero" group-id="1" node-id="140" stroke="none" target-height="19.699997" target-width="16.199997" target-x="96.4" target-y="119.3"></path><path d="M 102.60 138.70 L 104.40 144.10 L 116.40 141.00 L 114.30 134.80 L 113.90 135.00 Z" fill="#673f1c" fill-rule="nonzero" group-id="1" node-id="142" stroke="none" target-height="9.300003" target-width="13.800003" target-x="102.6" target-y="134.8"></path><path d="M 115.90 5.60 L 115.70 13.00 L 114.80 23.00 L 113.60 28.40 L 112.80 29.90 L 111.50 30.70 L 110.80 29.60 L 110.60 28.00 L 110.80 23.20 L 107.00 24.10 L 105.90 24.10 L 105.50 23.80 L 105.30 17.70 L 104.80 17.50 L 99.90 18.80 L 98.90 17.90 L 98.80 17.40 L 99.90 15.80 L 106.60 10.00 L 110.60 6.90 L 113.40 5.60 Z" fill="#cbab90" fill-rule="nonzero" group-id="1" node-id="144" stroke="none" target-height="25.1" target-width="17.099998" target-x="98.8" target-y="5.6"></path><path d="M 46.30 12.20 L 34.00 4.70 L 27.80 1.60 L 22.70 0.10 L 21.40 0.10 L 20.50 0.40 L 20.00 1.00 L 19.10 6.10 L 19.10 14.00 L 19.40 18.40 L 20.70 27.30 L 21.60 30.90 L 22.70 34.20 L 23.90 36.30 L 12.40 41.90 L 7.40 43.80 L 5.40 44.20 L 3.90 44.20 L 3.50 46.00 L 3.70 48.30 L 5.10 55.20 L 6.20 58.90 L 7.50 62.50 L 10.10 67.40 L 11.10 68.60 L 13.30 70.20 L 10.20 70.30 L 0.20 69.20 L 0.00 69.30 L 0.50 73.00 L 1.50 75.50 L 3.00 78.20 L 8.10 83.90 L 15.10 89.30 L 22.40 93.30 L 33.30 97.50 L 47.30 101.20 L 60.20 103.50 L 65.30 104.10 L 72.60 104.40 L 72.60 6.60 L 61.70 6.30 L 54.50 7.40 L 51.30 8.50 L 49.30 9.50 L 46.30 12.20 Z" fill="#a8774c" fill-rule="nonzero" group-id="1" node-id="146" stroke="none" target-height="104.3" target-width="72.6" target-x="0" target-y="0.1"></path><path d="M 94.40 12.20 L 106.70 4.70 L 112.90 1.60 L 118.00 0.10 L 119.30 0.10 L 120.20 0.40 L 120.70 1.00 L 121.60 6.10 L 121.60 14.00 L 121.30 18.40 L 120.00 27.30 L 119.10 30.90 L 117.90 34.20 L 116.80 36.30 L 128.30 41.90 L 133.30 43.80 L 135.30 44.20 L 136.80 44.20 L 137.20 46.00 L 137.00 48.30 L 135.60 55.20 L 134.50 58.90 L 133.20 62.50 L 130.60 67.40 L 129.50 68.60 L 127.40 70.20 L 130.40 70.30 L 140.40 69.20 L 140.70 69.30 L 140.20 73.00 L 139.20 75.50 L 137.60 78.20 L 132.60 83.90 L 125.50 89.30 L 118.30 93.30 L 107.30 97.50 L 93.30 101.20 L 80.40 103.50 L 75.30 104.10 L 68.00 104.40 L 68.00 6.60 L 79.00 6.30 L 86.20 7.40 L 89.40 8.50 L 91.40 9.50 L 94.40 12.20 Z" fill="#a8774c" fill-rule="nonzero" group-id="1" node-id="148" stroke="none" target-height="104.3" target-width="72.7" target-x="68" target-y="0.1"></path><path d="M 25.70 8.40 L 25.90 15.80 L 26.80 25.80 L 28.00 31.20 L 28.80 32.70 L 30.10 33.50 L 30.80 32.40 L 31.00 30.80 L 30.80 26.00 L 34.60 26.90 L 35.70 26.90 L 36.10 26.60 L 36.30 20.50 L 36.80 20.30 L 41.70 21.60 L 42.70 20.70 L 42.80 20.20 L 41.70 18.60 L 35.00 12.80 L 31.00 9.70 L 28.20 8.40 Z" fill="#cbab90" fill-rule="nonzero" group-id="1" node-id="150" stroke="none" target-height="25.1" target-width="17.099998" target-x="25.7" target-y="8.4"></path><path d="M 119.10 7.20 L 118.90 14.60 L 118.00 24.60 L 116.70 30.00 L 116.00 31.50 L 114.70 32.40 L 114.00 31.20 L 113.80 29.60 L 114.00 24.80 L 110.20 25.70 L 109.10 25.70 L 108.70 25.40 L 108.50 19.30 L 107.90 19.10 L 103.10 20.40 L 102.00 19.50 L 101.90 19.00 L 103.10 17.40 L 109.80 11.60 L 113.80 8.50 L 116.60 7.20 Z" fill="#cbab90" fill-rule="nonzero" group-id="1" node-id="152" stroke="none" target-height="25.2" target-width="17.199997" target-x="101.9" target-y="7.2"></path><path d="M 60.10 49.20 L 63.60 53.50 L 65.20 54.80 L 66.80 55.40 L 67.80 55.50 L 68.80 55.10 L 69.90 54.10 L 71.00 52.40 L 72.10 49.40 L 72.10 47.10 L 71.70 45.10 L 69.90 41.50 L 66.70 37.60 L 65.40 36.90 L 65.10 37.30 L 64.70 42.00 L 55.00 36.70 L 50.50 34.60 L 47.40 33.60 L 45.70 33.60 L 43.60 34.20 L 43.40 34.80 L 45.50 35.30 L 48.50 36.70 L 50.30 38.40 L 50.30 38.80 L 48.40 38.90 L 41.70 38.30 L 39.60 38.50 L 32.10 47.60 L 28.20 51.20 L 26.90 51.80 L 20.00 52.60 L 18.20 53.00 L 16.40 54.10 L 16.10 55.50 L 18.90 63.40 L 21.10 67.60 L 24.00 71.40 L 24.20 72.00 L 23.40 73.40 L 22.30 74.20 L 19.50 75.30 L 14.50 76.60 L 13.80 77.20 L 13.60 77.90 L 14.00 78.80 L 14.90 79.80 L 19.60 82.90 L 29.60 91.10 L 32.80 93.10 L 36.30 94.80 L 40.50 96.30 L 44.60 97.10 L 44.80 96.60 L 44.20 95.90 L 36.20 90.30 L 35.70 89.70 L 35.80 89.40 L 38.90 91.50 L 39.40 91.40 L 39.40 91.10 L 38.60 90.10 L 31.80 84.30 L 27.30 79.90 L 26.90 79.10 L 27.00 78.60 L 28.30 77.90 L 31.60 77.90 L 37.10 78.50 L 37.10 78.20 L 28.20 68.80 L 24.70 64.50 L 23.70 62.70 L 23.40 60.30 L 22.40 58.70 L 23.10 58.10 L 24.70 57.60 L 30.20 56.90 L 30.90 55.70 L 35.90 54.40 L 39.90 51.70 L 45.20 47.30 L 47.80 46.70 L 51.40 47.70 L 53.80 49.10 L 61.30 55.10 L 63.00 55.90 L 63.20 55.30 L 63.00 54.40 L 60.10 49.20 Z" fill="#cbab90" fill-rule="nonzero" group-id="1" node-id="154" stroke="none" target-height="63.5" target-width="58.5" target-x="13.6" target-y="33.6"></path><path d="M 84.70 48.10 L 81.20 52.30 L 79.60 53.60 L 78.00 54.30 L 77.00 54.30 L 75.90 53.90 L 74.90 53.00 L 73.80 51.30 L 72.70 48.20 L 72.70 46.00 L 73.10 43.90 L 74.90 40.40 L 78.10 36.40 L 79.40 35.70 L 79.60 36.20 L 80.10 40.80 L 89.80 35.50 L 94.30 33.40 L 97.40 32.40 L 99.10 32.40 L 101.20 33.00 L 101.40 33.60 L 99.30 34.00 L 96.30 35.50 L 94.40 37.10 L 94.50 37.60 L 96.40 37.70 L 103.10 37.10 L 105.10 37.30 L 112.70 46.40 L 116.60 50.00 L 117.90 50.60 L 124.80 51.40 L 126.60 51.80 L 128.40 52.90 L 128.70 54.30 L 125.80 62.20 L 123.70 66.50 L 120.80 70.20 L 120.60 70.80 L 121.40 72.20 L 122.50 73.00 L 125.20 74.10 L 130.30 75.40 L 131.00 76.00 L 131.20 76.70 L 130.80 77.60 L 129.90 78.60 L 125.20 81.70 L 115.20 89.90 L 112.00 91.90 L 108.50 93.60 L 104.30 95.10 L 100.10 95.90 L 100.00 95.40 L 100.60 94.70 L 108.60 89.10 L 109.10 88.50 L 109.00 88.20 L 105.90 90.30 L 105.40 90.20 L 105.40 89.90 L 106.20 88.90 L 113.00 83.10 L 117.50 78.70 L 117.90 77.90 L 117.80 77.40 L 116.50 76.80 L 113.20 76.80 L 107.70 77.30 L 107.70 77.10 L 116.60 67.60 L 120.10 63.40 L 121.10 61.50 L 121.40 59.10 L 122.40 57.60 L 121.70 56.90 L 120.10 56.50 L 114.60 55.70 L 113.90 54.50 L 108.90 53.20 L 104.80 50.60 L 99.60 46.10 L 96.90 45.60 L 93.40 46.60 L 91.00 47.90 L 83.50 54.00 L 81.80 54.80 L 81.50 54.10 L 81.80 53.20 L 84.70 48.10 Z" fill="#cbab90" fill-rule="nonzero" group-id="1" node-id="156" stroke="none" target-height="63.5" target-width="58.5" target-x="72.7" target-y="32.4"></path><path d="M 45.00 60.20 L 60.80 67.20 L 59.40 69.40 L 56.80 71.60 L 55.00 72.10 L 52.20 71.70 L 50.30 70.80 L 48.00 69.00 L 46.50 67.30 L 45.00 63.90 L 45.00 60.20 Z" fill="#474c4c" fill-rule="nonzero" group-id="1" node-id="158" stroke="none" target-height="11.899998" target-width="15.799999" target-x="45" target-y="60.2"></path><path d="M 99.10 60.60 L 83.30 67.60 L 84.70 69.90 L 87.30 72.00 L 89.10 72.60 L 91.90 72.20 L 93.80 71.30 L 96.10 69.50 L 97.60 67.80 L 99.10 64.30 L 99.10 60.60 Z" fill="#474c4c" fill-rule="nonzero" group-id="1" node-id="160" stroke="none" target-height="12" target-width="15.799995" target-x="83.3" target-y="60.6"></path><path d="M 68.10 100.20 L 62.00 99.60 L 59.70 98.90 L 57.70 97.80 L 56.50 96.90 L 55.70 95.70 L 55.30 94.20 L 55.10 90.90 L 55.30 87.70 L 57.00 80.20 L 58.50 81.70 L 60.70 76.20 L 61.80 74.20 L 64.00 71.50 L 65.80 70.70 L 72.70 70.50 L 74.80 70.70 L 77.10 71.70 L 83.00 81.40 L 84.10 79.70 L 86.10 84.80 L 86.60 86.80 L 86.50 90.30 L 84.70 94.80 L 83.30 96.80 L 80.90 98.80 L 77.10 99.80 L 68.10 100.20 Z" fill="#c9a98d" fill-rule="nonzero" group-id="1" node-id="162" stroke="none" target-height="29.699997" target-width="31.5" target-x="55.1" target-y="70.5"></path><path d="M 70.90 74.50 L 67.80 76.60 L 66.00 78.60 L 65.70 79.70 L 66.00 80.60 L 66.90 81.40 L 68.50 82.00 L 72.20 82.30 L 73.90 82.10 L 75.80 81.10 L 75.90 79.90 L 75.10 78.50 L 70.90 74.50 Z" fill="#474c4c" fill-rule="nonzero" group-id="1" node-id="164" stroke="none" target-height="7.800003" target-width="10.200005" target-x="65.7" target-y="74.5"></path><path d="M 62.50 88.80 L 68.30 88.90 L 76.30 88.30 L 80.70 87.10 L 83.40 85.50 L 83.80 85.70 L 84.00 86.40 L 83.60 87.70 L 81.90 89.40 L 78.50 90.70 L 72.80 90.90 L 65.70 90.10 L 62.80 89.40 L 62.30 89.10 L 62.50 88.80 Z" fill="#474c4c" fill-rule="nonzero" group-id="1" node-id="166" stroke="none" target-height="5.4000015" target-width="21.7" target-x="62.3" target-y="85.5"></path><g node-id="186"><path d="M 132.70 150.00 L 133.00 150.90 L 132.70 151.80 L 132.10 152.50 L 131.20 152.70 L 126.90 152.20 L 130.10 158.50 L 129.50 159.90 L 126.70 160.70 L 129.80 165.40 L 130.00 166.10 L 129.70 167.40 L 123.60 171.50 L 118.50 170.50 L 125.80 165.70 L 122.20 160.30 L 121.90 159.50 L 122.50 158.00 L 125.50 157.20 L 122.20 150.80 L 122.00 149.90 L 122.20 149.00 L 122.80 148.30 L 123.70 148.10 L 127.70 148.60 L 126.50 146.00 L 126.80 145.10 L 127.40 144.40 L 128.30 144.20 L 132.30 143.80 L 134.30 145.50 L 135.40 147.00 L 131.30 147.50 Z" fill="#cbab90" fill-opacity="0.4" fill-rule="nonzero" group-id="1,10" node-id="170" stroke="none" target-height="27.699997" target-width="16.899994" target-x="118.5" target-y="143.8"></path></g><path d="M 141.20 158.40 L 136.40 157.80 L 139.50 164.10 L 138.90 165.60 L 136.20 166.40 L 139.50 171.40 L 134.80 171.70 L 135.20 171.40 L 131.70 166.00 L 131.50 164.40 L 132.00 163.70 L 135.00 163.00 L 131.70 156.50 L 131.50 155.60 L 131.70 154.70 L 132.30 154.00 L 133.20 153.80 L 137.20 154.40 L 136.00 151.90 L 136.50 150.50 L 137.20 150.10 L 141.20 158.40 Z" fill="#cbab90" fill-opacity="0.4" fill-rule="nonzero" group-id="1,11" node-id="175" stroke="none" target-height="21.59999" target-width="9.699997" target-x="131.5" target-y="150.1"></path></g></svg>