<?xml version="1.0" standalone="no"?><!DOCTYPE svg PUBLIC "-//W3C//DTD SVG 1.1//EN" "http://www.w3.org/Graphics/SVG/1.1/DTD/svg11.dtd"><svg height="1024" node-id="1" sillyvg="true" template-height="1024" template-width="1024" version="1.1" viewBox="0 0 1024 1024" width="1024" xmlns="http://www.w3.org/2000/svg" xmlns:xlink="http://www.w3.org/1999/xlink"><defs node-id="31"></defs><g node-id="33"><g node-id="34"><path d="M 0.00 0.00 L 1024.00 0.00 L 1024.00 1024.00 L 0.00 1024.00 Z" fill="#ffffff" fill-opacity="0" fill-rule="evenodd" group-id="1,2" id="矩形" node-id="6" stroke="none" target-height="1024" target-width="1024" target-x="0" target-y="0"></path></g><g node-id="35"><g node-id="36"><path d="M 767.20 700.00 L 772.80 700.20 L 778.30 700.90 L 783.60 702.00 L 788.70 703.50 L 793.70 705.40 L 798.50 707.60 L 803.00 710.20 L 807.40 713.10 L 815.30 719.90 L 822.10 727.80 L 825.00 732.20 L 827.60 736.70 L 829.80 741.50 L 831.70 746.50 L 833.20 751.60 L 834.30 756.90 L 835.00 762.40 L 835.20 768.00 L 835.00 773.60 L 834.30 779.10 L 833.20 784.40 L 831.70 789.50 L 829.80 794.50 L 827.60 799.30 L 825.00 803.80 L 822.10 808.20 L 818.80 812.30 L 815.30 816.10 L 807.40 822.90 L 803.00 825.80 L 798.50 828.40 L 793.70 830.60 L 788.70 832.50 L 783.60 834.00 L 778.30 835.10 L 772.80 835.80 L 767.20 836.00 L 761.70 835.80 L 756.30 835.10 L 751.10 834.10 L 746.10 832.70 L 736.50 828.70 L 727.70 823.30 L 719.80 816.80 L 713.00 809.10 L 707.50 800.50 L 703.20 791.00 L 701.20 795.90 L 696.30 804.90 L 690.10 813.10 L 682.80 820.20 L 674.40 826.20 L 669.90 828.70 L 660.30 832.70 L 655.30 834.10 L 650.10 835.10 L 644.70 835.80 L 639.20 836.00 L 633.70 835.80 L 628.30 835.10 L 623.10 834.10 L 618.10 832.70 L 608.50 828.70 L 599.70 823.30 L 595.60 820.20 L 588.30 813.10 L 582.10 804.90 L 579.50 800.50 L 575.20 791.00 L 570.90 800.50 L 568.30 804.90 L 562.10 813.10 L 554.80 820.20 L 550.70 823.30 L 541.90 828.70 L 532.30 832.70 L 527.30 834.10 L 522.10 835.10 L 516.70 835.80 L 511.20 836.00 L 505.60 835.80 L 500.10 835.10 L 494.80 834.00 L 489.70 832.50 L 484.70 830.60 L 479.90 828.40 L 475.40 825.80 L 466.90 819.60 L 459.60 812.30 L 456.30 808.20 L 453.40 803.80 L 450.80 799.30 L 448.60 794.50 L 446.70 789.50 L 445.20 784.40 L 444.10 779.10 L 443.40 773.60 L 443.20 768.00 L 443.40 762.40 L 444.10 756.90 L 445.20 751.60 L 446.70 746.50 L 448.60 741.50 L 450.80 736.70 L 453.40 732.20 L 456.30 727.80 L 459.60 723.70 L 463.10 719.90 L 466.90 716.40 L 475.40 710.20 L 479.90 707.60 L 484.70 705.40 L 489.70 703.50 L 494.80 702.00 L 500.10 700.90 L 505.60 700.20 L 511.20 700.00 L 516.70 700.20 L 522.10 700.90 L 527.30 701.90 L 532.30 703.30 L 541.90 707.30 L 550.70 712.60 L 554.80 715.80 L 562.10 722.90 L 568.30 731.10 L 570.90 735.50 L 575.20 745.00 L 579.50 735.50 L 582.10 731.10 L 588.30 722.90 L 595.60 715.80 L 599.70 712.70 L 608.50 707.30 L 618.10 703.30 L 623.10 701.90 L 628.30 700.90 L 633.70 700.20 L 639.20 700.00 L 644.70 700.20 L 650.10 700.90 L 655.30 701.90 L 660.30 703.30 L 669.90 707.30 L 674.40 709.80 L 682.80 715.80 L 690.10 722.90 L 696.30 731.10 L 701.20 740.10 L 703.20 745.00 L 707.50 735.50 L 713.00 726.90 L 719.80 719.20 L 727.70 712.70 L 736.50 707.30 L 746.10 703.30 L 751.10 701.90 L 756.30 700.90 L 761.70 700.20 L 767.20 700.00 Z M 639.20 708.00 L 629.40 708.80 L 624.80 709.70 L 615.80 712.70 L 607.60 717.00 L 603.80 719.60 L 599.00 723.50 L 594.70 727.80 L 590.80 732.60 L 585.90 740.40 L 583.90 744.60 L 580.90 753.60 L 580.00 758.20 L 579.20 768.00 L 580.00 777.80 L 580.90 782.40 L 583.90 791.40 L 588.20 799.60 L 590.80 803.40 L 594.70 808.20 L 599.00 812.50 L 603.80 816.40 L 611.60 821.30 L 615.80 823.30 L 624.80 826.30 L 629.40 827.20 L 639.20 828.00 L 649.00 827.20 L 653.60 826.30 L 662.60 823.30 L 670.80 819.00 L 674.60 816.40 L 679.40 812.50 L 683.70 808.20 L 687.60 803.40 L 692.50 795.60 L 694.50 791.40 L 697.50 782.50 L 698.40 777.80 L 699.20 768.00 L 698.90 762.10 L 698.30 757.30 L 695.90 748.30 L 693.60 742.60 L 690.70 737.20 L 687.30 732.10 L 683.40 727.40 L 679.10 723.20 L 674.30 719.30 L 669.20 716.00 L 663.80 713.20 L 658.00 711.00 L 653.50 709.70 L 644.10 708.20 L 639.20 708.00 Z M 767.20 708.00 L 757.40 708.80 L 752.80 709.70 L 743.80 712.70 L 735.60 717.00 L 731.80 719.60 L 727.00 723.50 L 722.70 727.80 L 718.80 732.60 L 713.90 740.40 L 711.90 744.60 L 708.90 753.60 L 708.00 758.20 L 707.20 768.00 L 708.00 777.80 L 708.90 782.40 L 711.90 791.40 L 716.20 799.60 L 718.80 803.40 L 722.70 808.20 L 727.00 812.50 L 731.80 816.40 L 739.60 821.30 L 743.80 823.30 L 752.80 826.30 L 757.40 827.20 L 767.20 828.00 L 777.00 827.20 L 781.60 826.30 L 790.60 823.30 L 798.80 819.00 L 802.60 816.40 L 807.40 812.50 L 811.70 808.20 L 815.60 803.40 L 820.50 795.60 L 822.50 791.40 L 825.50 782.40 L 826.40 777.80 L 827.20 768.00 L 826.40 758.20 L 825.50 753.60 L 822.50 744.60 L 818.20 736.40 L 815.60 732.60 L 811.70 727.80 L 807.40 723.50 L 802.60 719.60 L 794.80 714.70 L 790.60 712.70 L 781.60 709.70 L 777.00 708.80 L 767.20 708.00 Z M 511.20 708.00 L 501.40 708.80 L 496.80 709.70 L 487.80 712.70 L 479.60 717.00 L 475.80 719.60 L 471.00 723.50 L 466.70 727.80 L 462.80 732.60 L 457.90 740.40 L 455.90 744.60 L 452.90 753.60 L 452.00 758.20 L 451.20 768.00 L 452.00 777.80 L 452.90 782.40 L 455.90 791.40 L 460.20 799.60 L 462.80 803.40 L 466.70 808.20 L 471.00 812.50 L 475.80 816.40 L 483.60 821.30 L 487.80 823.30 L 496.80 826.30 L 501.40 827.20 L 511.20 828.00 L 521.00 827.20 L 525.60 826.30 L 534.60 823.30 L 542.80 819.00 L 546.60 816.40 L 551.40 812.50 L 555.70 808.20 L 559.60 803.40 L 564.50 795.60 L 566.50 791.40 L 569.50 782.50 L 570.40 777.80 L 571.20 768.00 L 570.90 762.10 L 570.30 757.30 L 567.90 748.30 L 565.60 742.60 L 562.70 737.20 L 559.30 732.10 L 555.40 727.40 L 551.10 723.20 L 546.30 719.30 L 541.20 716.00 L 535.80 713.20 L 530.00 711.00 L 525.50 709.70 L 516.10 708.20 L 511.20 708.00 Z" fill="#dedaff" fill-rule="nonzero" group-id="1,3,4" id="形状结合" node-id="9" stroke="none" target-height="136" target-width="392" target-x="443.2" target-y="700"></path><path d="M 767.20 572.00 L 772.80 572.20 L 778.30 572.90 L 783.60 574.00 L 788.70 575.50 L 793.70 577.40 L 798.50 579.60 L 803.00 582.20 L 807.40 585.10 L 815.30 591.90 L 822.10 599.80 L 825.00 604.20 L 827.60 608.70 L 829.80 613.50 L 831.70 618.50 L 833.20 623.60 L 834.30 628.90 L 835.00 634.40 L 835.20 640.00 L 835.00 645.60 L 834.30 651.10 L 833.20 656.40 L 831.70 661.50 L 829.80 666.50 L 827.60 671.30 L 825.00 675.80 L 822.10 680.20 L 815.30 688.10 L 807.40 694.90 L 803.00 697.80 L 798.50 700.40 L 793.70 702.60 L 788.70 704.50 L 783.60 706.00 L 778.30 707.10 L 772.80 707.80 L 767.20 708.00 L 761.70 707.80 L 756.30 707.10 L 751.10 706.10 L 746.10 704.70 L 736.50 700.70 L 727.70 695.30 L 719.80 688.80 L 713.00 681.10 L 707.50 672.50 L 703.20 663.00 L 701.20 667.90 L 696.30 676.90 L 690.10 685.10 L 682.80 692.20 L 674.40 698.20 L 669.90 700.70 L 660.30 704.70 L 655.30 706.10 L 650.10 707.10 L 644.70 707.80 L 639.20 708.00 L 633.70 707.80 L 628.30 707.10 L 623.10 706.10 L 618.10 704.70 L 608.50 700.70 L 599.70 695.30 L 595.60 692.20 L 588.30 685.10 L 582.10 676.90 L 579.50 672.50 L 575.20 663.00 L 570.90 672.50 L 568.30 676.90 L 562.10 685.10 L 554.80 692.20 L 550.70 695.30 L 541.90 700.70 L 532.30 704.70 L 527.30 706.10 L 522.10 707.10 L 516.70 707.80 L 511.20 708.00 L 505.60 707.80 L 500.10 707.10 L 494.80 706.00 L 489.70 704.50 L 484.70 702.60 L 479.90 700.40 L 475.40 697.80 L 471.00 694.90 L 466.90 691.60 L 459.60 684.30 L 456.30 680.20 L 453.40 675.80 L 450.80 671.30 L 448.60 666.50 L 446.70 661.50 L 445.20 656.40 L 444.10 651.10 L 443.40 645.60 L 443.20 640.00 L 443.40 634.40 L 444.10 628.90 L 445.20 623.60 L 446.70 618.50 L 448.60 613.50 L 450.80 608.70 L 453.40 604.20 L 456.30 599.80 L 459.60 595.70 L 466.90 588.40 L 475.40 582.20 L 479.90 579.60 L 484.70 577.40 L 489.70 575.50 L 494.80 574.00 L 500.10 572.90 L 505.60 572.20 L 511.20 572.00 L 516.70 572.20 L 522.10 572.90 L 527.30 573.90 L 532.30 575.30 L 541.90 579.30 L 550.70 584.60 L 554.80 587.80 L 562.10 594.90 L 568.30 603.10 L 570.90 607.50 L 575.20 617.00 L 579.50 607.50 L 582.10 603.10 L 588.30 594.90 L 595.60 587.80 L 599.70 584.70 L 608.50 579.30 L 618.10 575.30 L 623.10 573.90 L 628.30 572.90 L 633.70 572.20 L 639.20 572.00 L 644.70 572.20 L 650.10 572.90 L 655.30 573.90 L 660.30 575.30 L 669.90 579.30 L 674.40 581.80 L 682.80 587.80 L 690.10 594.90 L 696.30 603.10 L 701.20 612.10 L 703.20 617.00 L 707.50 607.50 L 713.00 598.90 L 719.80 591.20 L 727.70 584.70 L 736.50 579.30 L 746.10 575.30 L 751.10 573.90 L 756.30 572.90 L 761.70 572.20 L 767.20 572.00 Z M 639.20 580.00 L 629.40 580.80 L 624.80 581.70 L 615.80 584.70 L 607.60 589.00 L 603.80 591.60 L 599.00 595.50 L 594.70 599.80 L 590.80 604.60 L 585.90 612.40 L 583.90 616.60 L 580.90 625.60 L 580.00 630.20 L 579.20 640.00 L 580.00 649.80 L 580.90 654.40 L 583.90 663.40 L 585.90 667.60 L 590.80 675.40 L 594.70 680.20 L 599.00 684.50 L 603.80 688.40 L 607.60 691.00 L 615.80 695.30 L 624.80 698.30 L 629.40 699.20 L 639.20 700.00 L 649.00 699.20 L 653.60 698.30 L 662.60 695.30 L 670.80 691.00 L 674.60 688.40 L 679.40 684.50 L 683.70 680.20 L 687.60 675.40 L 692.50 667.60 L 694.50 663.40 L 697.50 654.50 L 698.40 649.80 L 699.20 640.00 L 698.90 634.10 L 698.30 629.30 L 695.90 620.30 L 693.60 614.60 L 690.70 609.20 L 687.30 604.10 L 683.40 599.40 L 679.10 595.20 L 674.30 591.30 L 669.20 588.00 L 663.80 585.20 L 658.00 583.00 L 653.50 581.70 L 644.10 580.20 L 639.20 580.00 Z M 767.20 580.00 L 757.40 580.80 L 752.80 581.70 L 743.80 584.70 L 735.60 589.00 L 731.80 591.60 L 727.00 595.50 L 722.70 599.80 L 718.80 604.60 L 713.90 612.40 L 711.90 616.60 L 708.90 625.60 L 708.00 630.20 L 707.20 640.00 L 708.00 649.80 L 708.90 654.40 L 711.90 663.40 L 716.20 671.60 L 718.80 675.40 L 722.70 680.20 L 727.00 684.50 L 731.80 688.40 L 739.60 693.30 L 743.80 695.30 L 752.80 698.30 L 757.40 699.20 L 767.20 700.00 L 777.00 699.20 L 781.60 698.30 L 790.60 695.30 L 798.80 691.00 L 802.60 688.40 L 807.40 684.50 L 811.70 680.20 L 815.60 675.40 L 820.50 667.60 L 822.50 663.40 L 825.50 654.40 L 826.40 649.80 L 827.20 640.00 L 826.40 630.20 L 825.50 625.60 L 822.50 616.60 L 818.20 608.40 L 815.60 604.60 L 811.70 599.80 L 807.40 595.50 L 802.60 591.60 L 794.80 586.70 L 790.60 584.70 L 781.60 581.70 L 777.00 580.80 L 767.20 580.00 Z M 511.20 580.00 L 501.40 580.80 L 496.80 581.70 L 487.80 584.70 L 483.60 586.70 L 475.80 591.60 L 471.00 595.50 L 466.70 599.80 L 462.80 604.60 L 460.20 608.40 L 455.90 616.60 L 452.90 625.60 L 452.00 630.20 L 451.20 640.00 L 452.00 649.80 L 452.90 654.40 L 455.90 663.40 L 460.20 671.60 L 462.80 675.40 L 466.70 680.20 L 471.00 684.50 L 475.80 688.40 L 483.60 693.30 L 487.80 695.30 L 496.80 698.30 L 501.40 699.20 L 511.20 700.00 L 521.00 699.20 L 525.60 698.30 L 534.60 695.30 L 542.80 691.00 L 546.60 688.40 L 551.40 684.50 L 555.70 680.20 L 559.60 675.40 L 564.50 667.60 L 566.50 663.40 L 569.50 654.50 L 570.40 649.80 L 571.20 640.00 L 570.90 634.10 L 570.30 629.30 L 567.90 620.30 L 565.60 614.60 L 562.70 609.20 L 559.30 604.10 L 555.40 599.40 L 551.10 595.20 L 546.30 591.30 L 541.20 588.00 L 535.80 585.20 L 530.00 583.00 L 525.50 581.70 L 516.10 580.20 L 511.20 580.00 Z" fill="#dedaff" fill-rule="nonzero" group-id="1,3,4" id="形状结合" node-id="10" stroke="none" target-height="136" target-width="392" target-x="443.2" target-y="572"></path><path d="M 514.00 783.50 L 514.00 960.00 L 506.00 960.00 L 506.00 783.50 L 510.00 784.00 L 514.00 783.50 Z M 770.00 783.50 L 770.00 960.00 L 762.00 960.00 L 762.00 783.50 L 766.00 784.00 L 770.00 783.50 Z M 642.00 783.50 L 642.00 960.00 L 634.00 960.00 L 634.00 783.50 L 638.00 784.00 L 642.00 783.50 Z M 781.50 764.00 L 958.00 764.00 L 958.00 772.00 L 781.50 772.00 L 782.00 768.00 L 781.50 764.00 Z M 750.00 768.00 L 750.50 772.00 L 653.50 772.00 L 654.00 768.00 L 653.50 764.00 L 750.50 764.00 L 750.00 768.00 Z M 622.00 768.00 L 622.50 772.00 L 525.50 772.00 L 526.00 768.00 L 525.50 764.00 L 622.50 764.00 L 622.00 768.00 Z M 494.00 768.00 L 494.50 772.00 L 62.00 772.00 L 62.00 764.00 L 494.50 764.00 L 494.00 768.00 Z M 514.00 64.00 L 514.00 508.00 L 634.00 508.00 L 634.00 64.00 L 642.00 64.00 L 642.00 508.00 L 762.00 508.00 L 762.00 64.00 L 770.00 64.00 L 770.00 508.00 L 958.00 508.00 L 958.00 516.00 L 770.00 516.00 L 770.00 624.50 L 766.00 624.00 L 762.00 624.50 L 762.00 516.00 L 642.00 516.00 L 642.00 636.00 L 750.50 636.00 L 750.00 640.00 L 750.50 644.00 L 642.00 644.00 L 642.00 752.50 L 638.00 752.00 L 634.00 752.50 L 634.00 644.00 L 514.00 644.00 L 514.00 752.50 L 510.00 752.00 L 506.00 752.50 L 506.00 644.00 L 62.00 644.00 L 62.00 636.00 L 506.00 636.00 L 506.00 516.00 L 62.00 516.00 L 62.00 508.00 L 506.00 508.00 L 506.00 64.00 L 514.00 64.00 Z M 770.00 655.50 L 770.00 752.50 L 766.00 752.00 L 762.00 752.50 L 762.00 655.50 L 766.00 656.00 L 770.00 655.50 Z M 781.50 636.00 L 958.00 636.00 L 958.00 644.00 L 781.50 644.00 L 782.00 640.00 L 781.50 636.00 Z M 634.00 516.00 L 514.00 516.00 L 514.00 636.00 L 634.00 636.00 L 634.00 516.00 Z" fill="#f3f3f3" fill-rule="evenodd" group-id="1,3,4" id="形状结合" node-id="11" stroke="none" target-height="896" target-width="896" target-x="62" target-y="64"></path></g><g node-id="37"><g node-id="38"><path d="M 825.60 192.00 L 825.60 576.00 L 551.30 576.00 L 546.20 575.60 L 541.80 574.70 L 537.50 573.30 L 533.40 571.40 L 529.50 569.10 L 525.80 566.40 L 522.40 563.30 L 519.10 559.70 L 516.20 555.80 L 513.70 551.70 L 511.40 547.20 L 509.40 542.30 L 507.90 537.40 L 506.70 532.20 L 505.90 526.80 L 505.60 521.10 L 505.60 192.00 L 825.60 192.00 Z" fill="#eeeeff" fill-rule="evenodd" group-id="1,3,5,6" id="形状结合" node-id="14" stroke="none" target-height="384" target-width="319.99997" target-x="505.6" target-y="192"></path><path d="M 785.60 196.00 L 825.60 196.00 L 825.60 576.00 L 785.60 576.00 Z" fill="#beb9ff" fill-rule="evenodd" group-id="1,3,5,6" id="矩形" node-id="15" stroke="none" target-height="380" target-width="40" target-x="785.6" target-y="196"></path><path d="M 505.60 192.00 L 825.60 192.00 L 825.60 232.00 L 505.60 232.00 Z" fill="#beb9ff" fill-rule="evenodd" group-id="1,3,5,6" id="矩形" node-id="16" stroke="none" target-height="40" target-width="319.99997" target-x="505.6" target-y="192"></path><path d="M 785.60 192.00 L 825.60 192.00 L 825.60 232.00 L 785.60 232.00 Z" fill="#160a45" fill-rule="evenodd" group-id="1,3,5,6" id="矩形" node-id="17" stroke="none" target-height="40" target-width="40" target-x="785.6" target-y="192"></path><path d="M 533.60 224.00 L 537.80 223.20 L 539.70 222.40 L 542.80 219.70 L 544.80 216.20 L 545.60 212.00 L 544.80 207.80 L 542.80 204.30 L 539.70 201.60 L 535.80 200.20 L 533.60 200.00 L 531.40 200.20 L 529.40 200.80 L 525.90 202.80 L 523.20 205.90 L 522.40 207.80 L 521.60 212.00 L 522.40 216.20 L 524.40 219.70 L 527.50 222.40 L 529.40 223.20 L 533.60 224.00 Z M 573.60 224.00 L 577.80 223.20 L 581.30 221.20 L 584.00 218.10 L 584.80 216.20 L 585.60 212.00 L 584.80 207.80 L 582.80 204.30 L 579.70 201.60 L 575.80 200.20 L 573.60 200.00 L 571.40 200.20 L 569.40 200.80 L 565.90 202.80 L 563.20 205.90 L 562.40 207.80 L 561.60 212.00 L 562.40 216.20 L 564.40 219.70 L 567.50 222.40 L 569.40 223.20 L 573.60 224.00 Z" fill="#160a45" fill-rule="evenodd" group-id="1,3,5,6" id="形状结合" node-id="18" stroke="none" target-height="24" target-width="64" target-x="521.6" target-y="200"></path><path d="M 625.60 212.00 L 624.80 216.20 L 622.80 219.70 L 619.70 222.40 L 617.80 223.20 L 613.60 224.00 L 609.40 223.20 L 605.90 221.20 L 603.20 218.10 L 601.80 214.20 L 601.60 212.00 L 601.80 209.80 L 602.40 207.80 L 604.40 204.30 L 607.50 201.60 L 609.40 200.80 L 613.60 200.00 L 617.80 200.80 L 621.30 202.80 L 624.00 205.90 L 624.80 207.80 L 625.60 212.00 Z" fill="#ffffff" fill-rule="evenodd" group-id="1,3,5,6" id="椭圆形" node-id="19" stroke="none" target-height="24" target-width="24" target-x="601.6" target-y="200"></path></g><path d="M 697.60 320.00 L 729.60 320.00 L 729.60 576.00 L 697.60 576.00 Z" fill="#beb9ff" fill-rule="evenodd" group-id="1,3,5" id="矩形" node-id="20" stroke="none" target-height="256" target-width="32" target-x="697.6" target-y="320"></path><g node-id="39"><path d="M 377.60 320.00 L 697.60 320.00 L 697.60 704.00 L 377.60 703.80 L 377.60 649.10 Z" fill="#806eff" fill-rule="evenodd" group-id="1,3,5,7" id="矩形" node-id="22" stroke="none" target-height="384" target-width="319.99997" target-x="377.6" target-y="320"></path><path d="M 377.60 320.00 L 697.60 320.00 L 697.60 360.00 L 377.60 360.00 Z" fill="#dedaff" fill-rule="evenodd" group-id="1,3,5,7" id="矩形" node-id="23" stroke="none" target-height="40" target-width="319.99997" target-x="377.6" target-y="320"></path></g><path d="M 569.60 448.00 L 601.60 448.00 L 601.60 704.00 L 569.60 704.00 Z" fill="#6448f4" fill-rule="evenodd" group-id="1,3,5" id="矩形" node-id="24" stroke="none" target-height="256" target-width="32" target-x="569.6" target-y="448"></path><g node-id="40"><g node-id="42"><path d="M 249.40 768.30 L 249.40 448.00 L 569.40 448.00 L 569.40 832.00 L 313.40 832.00 L 307.70 831.80 L 302.30 831.20 L 297.20 830.20 L 292.30 828.80 L 287.60 827.20 L 281.90 824.50 L 276.70 821.40 L 271.80 817.80 L 267.40 813.80 L 263.40 809.30 L 259.80 804.50 L 256.80 799.20 L 254.20 793.60 L 252.10 787.80 L 250.70 781.60 L 249.70 775.20 L 249.40 768.30 Z" fill="#eeeeff" fill-opacity="0.8" fill-rule="evenodd" group-id="1,3,5,8,10" id="形状结合" node-id="27" stroke="none" target-height="384" target-width="320.00003" target-x="249.4" target-y="448"></path></g><path d="M 249.60 448.00 L 569.60 448.00 L 569.60 488.00 L 249.60 488.00 Z" fill="#a199ff" fill-rule="evenodd" group-id="1,3,5,8" id="矩形" node-id="28" stroke="none" target-height="40" target-width="319.99997" target-x="249.6" target-y="448"></path></g><path d="M 313.60 768.00 L 313.60 832.00 L 306.50 831.70 L 299.90 830.80 L 293.60 829.30 L 287.80 827.30 L 282.00 824.70 L 276.80 821.60 L 272.00 818.10 L 267.50 814.10 L 263.50 809.60 L 260.00 804.80 L 256.90 799.60 L 254.30 793.80 L 252.30 788.00 L 250.80 781.70 L 249.90 775.10 L 249.60 768.00 L 313.60 768.00 Z" fill="#dedaff" fill-rule="evenodd" group-id="1,3,5,9" id="椭圆形" node-id="29" stroke="none" target-height="64" target-width="64" target-x="249.6" target-y="768"></path></g></g></g></svg>