<?xml version="1.0" standalone="no"?><!DOCTYPE svg PUBLIC "-//W3C//DTD SVG 1.1//EN" "http://www.w3.org/Graphics/SVG/1.1/DTD/svg11.dtd"><svg height="1024" node-id="1" sillyvg="true" template-height="1024" template-width="1024" version="1.1" viewBox="0 0 1024 1024" width="1024" xmlns="http://www.w3.org/2000/svg" xmlns:xlink="http://www.w3.org/1999/xlink"><defs node-id="91"><linearGradient gradientUnits="objectBoundingBox" id="linearGradient-10" node-id="29" spreadMethod="pad" x1="0.5" x2="0.5" y1="1" y2="0"><stop offset="0" stop-color="#639bff"></stop><stop offset="1" stop-color="#e0eaff"></stop></linearGradient><linearGradient gradientUnits="objectBoundingBox" id="linearGradient-11" node-id="32" spreadMethod="pad" x1="0.5" x2="0.5" y1="1" y2="0"><stop offset="0" stop-color="#e0eaff"></stop><stop offset="1" stop-color="#639bff"></stop></linearGradient><linearGradient gradientUnits="objectBoundingBox" id="linearGradient-12" node-id="35" spreadMethod="pad" x1="0.5" x2="0.5" y1="1" y2="0"><stop offset="0" stop-color="#639bff"></stop><stop offset="1" stop-color="#e0eaff"></stop></linearGradient><linearGradient gradientUnits="objectBoundingBox" id="linearGradient-13" node-id="38" spreadMethod="pad" x1="0.5" x2="0.5" y1="1" y2="0"><stop offset="0" stop-color="#639bff"></stop><stop offset="1" stop-color="#e0eaff"></stop></linearGradient><linearGradient gradientUnits="objectBoundingBox" id="linearGradient-14" node-id="41" spreadMethod="pad" x1="0.5" x2="0.5" y1="1" y2="0"><stop offset="0" stop-color="#639bff"></stop><stop offset="1" stop-color="#e0eaff"></stop></linearGradient><linearGradient gradientUnits="objectBoundingBox" id="linearGradient-15" node-id="44" spreadMethod="pad" x1="0.5" x2="0.5" y1="1" y2="0"><stop offset="0" stop-color="#639bff"></stop><stop offset="1" stop-color="#e0eaff"></stop></linearGradient><linearGradient gradientUnits="objectBoundingBox" id="linearGradient-16" node-id="47" spreadMethod="pad" x1="0.5" x2="0.5" y1="1" y2="0"><stop offset="0" stop-color="#639bff"></stop><stop offset="1" stop-color="#e4ecfc"></stop></linearGradient><linearGradient gradientUnits="objectBoundingBox" id="linearGradient-18" node-id="52" spreadMethod="pad" x1="0.5" x2="0.5" y1="0" y2="1"><stop offset="0" stop-color="#9cbcfa" stop-opacity="0"></stop><stop offset="1" stop-color="#92abff"></stop></linearGradient><filter height="1032.192" id="filter-2" node-id="6" width="1032.192" x="-4.096" y="-4.096"><feGaussianBlur color-interpolation-filters="linearRGB" in="SourceAlpha" result="shadowBlurInner1" stdDeviation="4 4"></feGaussianBlur><feOffset color-interpolation-filters="linearRGB" dx="0" dy="0" in="shadowBlurInner1" result="shadowOffsetInner1"></feOffset><feComposite color-interpolation-filters="linearRGB" in="shadowOffsetInner1" in2="SourceAlpha" k1="0" k2="-1" k3="1" k4="0" operator="arithmetic" result="shadowInnerInner1"></feComposite><feColorMatrix color-interpolation-filters="linearRGB" in="shadowInnerInner1" result="result4" type="matrix" values="0 0 0 0 0.5349466 0 0 0 0 0.7029659 0 0 0 0 1 0 0 0 0.5 0"></feColorMatrix></filter><filter height="897.9018" id="filter-5" node-id="12" width="897.9018" x="63.487995" y="63.487995"><feGaussianBlur color-interpolation-filters="linearRGB" in="SourceAlpha" result="shadowBlurInner1" stdDeviation="8 8"></feGaussianBlur><feOffset color-interpolation-filters="linearRGB" dx="0" dy="4" in="shadowBlurInner1" result="shadowOffsetInner1"></feOffset><feComposite color-interpolation-filters="linearRGB" in="shadowOffsetInner1" in2="SourceAlpha" k1="0" k2="-1" k3="1" k4="0" operator="arithmetic" result="shadowInnerInner1"></feComposite><feColorMatrix color-interpolation-filters="linearRGB" in="shadowInnerInner1" result="result4" type="matrix" values="0 0 0 0 0.5349466 0 0 0 0 0.7029659 0 0 0 0 1 0 0 0 0.60145324 0"></feColorMatrix></filter><filter height="424.7552" id="filter-7" node-id="18" width="737.55304" x="-7.9384384" y="298.00793"><feMorphology color-interpolation-filters="linearRGB" in="SourceAlpha" operator="dilate" radius="0.5 0.5" result="shadowSpreadOuter1"></feMorphology><feOffset color-interpolation-filters="linearRGB" dx="0" dy="2" in="shadowSpreadOuter1" result="shadowOffsetOuter1"></feOffset><feGaussianBlur color-interpolation-filters="linearRGB" in="shadowOffsetOuter1" result="shadowBlurOuter1" stdDeviation="2 2"></feGaussianBlur><feComposite color-interpolation-filters="linearRGB" in="shadowBlurOuter1" in2="SourceAlpha" operator="out" result="shadowBlurOuter1"></feComposite><feColorMatrix color-interpolation-filters="linearRGB" in="shadowBlurOuter1" result="result5" type="matrix" values="0 0 0 0 0.7607843 0 0 0 0 0.85490197 0 0 0 0 0.99607843 0 0 0 0.4 0"></feColorMatrix></filter><filter height="328.1579" id="filter-9" node-id="25" width="573.7813" x="80.4942" y="313.3465"><feOffset color-interpolation-filters="linearRGB" dx="0" dy="2" in="SourceAlpha" result="shadowOffsetOuter1"></feOffset><feGaussianBlur color-interpolation-filters="linearRGB" in="shadowOffsetOuter1" result="shadowBlurOuter1" stdDeviation="2 2"></feGaussianBlur><feColorMatrix color-interpolation-filters="linearRGB" in="shadowBlurOuter1" result="result3" type="matrix" values="0 0 0 0 0.7607843 0 0 0 0 0.85490197 0 0 0 0 0.99607843 0 0 0 0.4 0"></feColorMatrix></filter><filter height="28.487679" id="filter-17" node-id="50" width="132.83327" x="212.8864" y="50.680023"><feGaussianBlur color-interpolation-filters="linearRGB" in="SourceGraphic" result="result1" stdDeviation="1 1"></feGaussianBlur></filter><mask height="1109.5056" id="mask-4" maskUnits="userSpaceOnUse" node-id="60" width="1115.2576" x="2663.0063" y="1175.2466"><path d="M 3628.90 1568.80 L 3633.80 1582.60 L 3638.40 1596.30 L 3642.40 1610.20 L 3646.00 1624.10 L 3649.10 1638.10 L 3651.70 1652.20 L 3653.90 1666.40 L 3655.60 1680.60 L 3656.90 1694.80 L 3657.70 1709.00 L 3658.00 1723.30 L 3657.80 1737.60 L 3657.20 1751.90 L 3656.20 1766.10 L 3654.60 1780.30 L 3652.70 1794.40 L 3650.20 1808.50 L 3647.30 1822.60 L 3643.90 1836.50 L 3640.10 1850.30 L 3635.80 1864.00 L 3631.00 1877.70 L 3625.80 1891.20 L 3620.10 1904.60 L 3613.90 1917.80 L 3607.30 1930.80 L 3600.40 1943.40 L 3593.10 1955.80 L 3585.40 1967.90 L 3577.30 1979.70 L 3568.80 1991.30 L 3560.00 2002.60 L 3550.80 2013.50 L 3541.30 2024.10 L 3531.40 2034.40 L 3521.20 2044.40 L 3510.70 2054.10 L 3499.90 2063.40 L 3488.80 2072.40 L 3477.40 2080.90 L 3465.70 2089.20 L 3453.70 2097.00 L 3441.40 2104.50 L 3428.90 2111.60 L 3416.20 2118.20 L 3403.20 2124.50 L 3390.00 2130.40 L 3376.40 2135.80 L 3362.70 2140.80 L 3348.90 2145.30 L 3335.10 2149.40 L 3321.20 2153.00 L 3307.20 2156.10 L 3293.10 2158.70 L 3278.90 2160.90 L 3264.70 2162.60 L 3250.40 2163.80 L 3236.20 2164.60 L 3221.90 2165.00 L 3207.70 2164.80 L 3193.40 2164.20 L 3179.20 2163.10 L 3165.00 2161.60 L 3150.90 2159.60 L 3136.80 2157.20 L 3122.70 2154.20 L 3108.70 2150.90 L 3094.90 2147.00 L 3081.20 2142.70 L 3067.60 2138.00 L 3054.10 2132.70 L 3040.60 2127.00 L 3027.40 2120.90 L 3014.50 2114.30 L 3001.80 2107.40 L 2989.50 2100.10 L 2977.40 2092.40 L 2965.50 2084.30 L 2953.90 2075.80 L 2942.70 2066.90 L 2931.70 2057.80 L 2921.10 2048.30 L 2910.80 2038.40 L 2900.80 2028.20 L 2891.10 2017.70 L 2881.80 2006.90 L 2872.90 1995.80 L 2864.30 1984.40 L 2856.10 1972.70 L 2848.20 1960.60 L 2840.70 1948.40 L 2833.70 1935.90 L 2827.00 1923.20 L 2820.80 1910.20 L 2814.90 1896.90 L 2809.40 1883.40 L 2804.40 1869.70 L 2799.90 1855.90 L 2795.90 1842.00 L 2792.30 1828.10 L 2789.20 1814.10 L 2786.60 1800.00 L 2784.40 1785.80 L 2782.70 1771.60 L 2781.40 1757.40 L 2780.60 1743.20 L 2780.30 1728.90 L 2780.40 1714.60 L 2781.00 1700.30 L 2782.10 1686.10 L 2783.60 1671.90 L 2785.60 1657.80 L 2788.10 1643.70 L 2791.00 1629.70 L 2794.40 1615.70 L 2798.20 1601.90 L 2802.50 1588.20 L 2807.30 1574.60 L 2812.50 1561.00 L 2818.20 1547.60 L 2824.40 1534.40 L 2830.90 1521.40 L 2837.90 1508.80 L 2845.20 1496.40 L 2852.90 1484.30 L 2861.00 1472.50 L 2869.50 1460.90 L 2878.30 1449.60 L 2887.50 1438.70 L 2897.00 1428.10 L 2906.80 1417.80 L 2917.10 1407.80 L 2927.60 1398.10 L 2938.40 1388.80 L 2949.50 1379.90 L 2960.90 1371.30 L 2972.60 1363.10 L 2984.60 1355.20 L 2996.90 1347.70 L 3009.30 1340.60 L 3022.10 1334.00 L 3035.10 1327.70 L 3048.30 1321.90 L 3061.90 1316.40 L 3075.60 1311.40 L 3089.40 1306.90 L 3103.20 1302.80 L 3117.10 1299.30 L 3131.10 1296.20 L 3145.20 1293.50 L 3159.40 1291.30 L 3173.60 1289.60 L 3187.80 1288.40 L 3202.10 1287.60 L 3216.30 1287.30 L 3230.60 1287.40 L 3244.90 1288.00 L 3259.10 1289.10 L 3273.30 1290.60 L 3287.40 1292.60 L 3301.50 1295.10 L 3315.60 1298.00 L 3329.50 1301.40 L 3343.40 1305.20 L 3357.10 1309.50 L 3370.70 1314.30 L 3384.20 1319.50 L 3397.60 1325.20 L 3410.90 1331.40 L 3423.80 1337.90 L 3436.50 1344.80 L 3448.80 1352.20 L 3460.90 1359.90 L 3472.80 1368.00 L 3484.30 1376.50 L 3495.60 1385.30 L 3506.50 1394.50 L 3517.20 1404.00 L 3527.50 1413.80 L 3537.50 1424.00 L 3547.10 1434.50 L 3556.40 1445.40 L 3565.40 1456.50 L 3574.00 1467.90 L 3582.20 1479.60 L 3590.10 1491.60 L 3597.50 1503.80 L 3604.60 1516.30 L 3611.30 1529.00 L 3617.50 1542.00 L 3623.40 1555.30 L 3628.90 1568.80 Z" fill="#ffffff" fill-rule="evenodd" node-id="188" stroke="none" target-height="877.69995" target-width="877.69995" target-x="2780.3" target-y="1287.3"></path></mask><mask height="256.78992" id="mask1" maskUnits="userSpaceOnUse" node-id="192" width="877.53357" x="70.2322" y="313.10748"><path d="M 950.90 512.00 L 950.60 526.60 L 949.90 541.10 L 948.70 555.50 L 947.00 569.70 L 944.90 583.90 L 942.30 598.00 L 939.30 612.10 L 935.80 625.90 L 931.90 639.70 L 927.50 653.20 L 922.70 666.70 L 917.50 679.90 L 911.80 693.10 L 905.70 705.90 L 899.20 718.60 L 892.20 731.10 L 884.90 743.40 L 877.10 755.50 L 869.00 767.30 L 860.40 778.80 L 851.50 790.10 L 842.20 801.10 L 832.50 811.80 L 822.30 822.30 L 811.80 832.50 L 801.10 842.20 L 790.10 851.50 L 778.80 860.40 L 767.30 869.00 L 755.50 877.10 L 743.40 884.90 L 731.10 892.20 L 718.60 899.20 L 705.90 905.70 L 693.10 911.80 L 679.90 917.50 L 666.70 922.70 L 653.20 927.50 L 639.70 931.90 L 625.90 935.80 L 612.10 939.30 L 598.00 942.30 L 583.90 944.90 L 569.70 947.00 L 555.50 948.70 L 541.10 949.90 L 526.60 950.60 L 512.00 950.90 L 497.40 950.60 L 482.90 949.90 L 468.50 948.70 L 454.30 947.00 L 440.10 944.90 L 426.00 942.30 L 411.90 939.30 L 398.10 935.80 L 384.30 931.90 L 370.80 927.50 L 357.30 922.70 L 344.10 917.50 L 330.90 911.80 L 318.10 905.70 L 305.40 899.20 L 292.90 892.20 L 280.60 884.90 L 268.50 877.10 L 256.70 869.00 L 245.20 860.40 L 233.90 851.50 L 222.90 842.20 L 212.20 832.50 L 201.70 822.30 L 191.50 811.80 L 181.80 801.10 L 172.50 790.10 L 163.60 778.80 L 155.00 767.30 L 146.90 755.50 L 139.10 743.40 L 131.80 731.10 L 124.80 718.60 L 118.30 705.90 L 112.20 693.10 L 106.50 679.90 L 101.30 666.70 L 96.50 653.20 L 92.10 639.70 L 88.20 625.90 L 84.70 612.10 L 81.70 598.00 L 79.10 583.90 L 77.00 569.70 L 75.30 555.50 L 74.10 541.10 L 73.40 526.60 L 73.10 512.00 L 73.40 497.40 L 74.10 482.90 L 75.30 468.50 L 77.00 454.30 L 79.10 440.10 L 81.70 426.00 L 84.70 411.90 L 88.20 398.10 L 92.10 384.30 L 96.50 370.80 L 101.30 357.30 L 106.50 344.10 L 112.20 330.90 L 118.30 318.10 L 124.80 305.40 L 131.80 292.90 L 139.10 280.60 L 146.90 268.50 L 155.00 256.70 L 163.60 245.20 L 172.50 233.90 L 181.80 222.90 L 191.50 212.20 L 201.70 201.70 L 212.20 191.50 L 222.90 181.80 L 233.90 172.50 L 245.20 163.60 L 256.70 155.00 L 268.50 146.90 L 280.60 139.10 L 292.90 131.80 L 305.40 124.80 L 318.10 118.30 L 330.90 112.20 L 344.10 106.50 L 357.30 101.30 L 370.80 96.50 L 384.30 92.10 L 398.10 88.20 L 411.90 84.70 L 426.00 81.70 L 440.10 79.10 L 454.30 77.00 L 468.50 75.30 L 482.90 74.10 L 497.40 73.40 L 512.00 73.10 L 526.60 73.40 L 541.10 74.10 L 555.50 75.30 L 569.70 77.00 L 583.90 79.10 L 598.00 81.70 L 612.10 84.70 L 625.90 88.20 L 639.70 92.10 L 653.20 96.50 L 666.70 101.30 L 679.90 106.50 L 693.10 112.20 L 705.90 118.30 L 718.60 124.80 L 731.10 131.80 L 743.40 139.10 L 755.50 146.90 L 767.30 155.00 L 778.80 163.60 L 790.10 172.50 L 801.10 181.80 L 811.80 191.50 L 822.30 201.70 L 832.50 212.20 L 842.20 222.90 L 851.50 233.90 L 860.40 245.20 L 869.00 256.70 L 877.10 268.50 L 884.90 280.60 L 892.20 292.90 L 899.20 305.40 L 905.70 318.10 L 911.80 330.90 L 917.50 344.10 L 922.70 357.30 L 927.50 370.80 L 931.90 384.30 L 935.80 398.10 L 939.30 411.90 L 942.30 426.00 L 944.90 440.10 L 947.00 454.30 L 948.70 468.50 L 949.90 482.90 L 950.60 497.40 L 950.90 512.00 Z" fill="#ffffff" fill-rule="evenodd" node-id="196" stroke="none" target-height="877.80005" target-width="877.80005" target-x="73.1" target-y="73.1"></path></mask></defs><g node-id="252"><g node-id="253"><g node-id="257"><path d="M 1024.00 512.00 L 1023.70 528.30 L 1023.00 544.50 L 1021.70 560.60 L 1019.90 576.70 L 1017.60 592.60 L 1014.80 608.40 L 1011.60 624.20 L 1007.80 639.70 L 1003.60 655.20 L 998.90 670.40 L 993.70 685.60 L 988.00 700.50 L 981.90 715.30 L 975.30 729.80 L 968.30 744.20 L 960.80 758.40 L 952.90 772.30 L 944.60 785.90 L 935.80 799.40 L 926.50 812.60 L 916.90 825.40 L 906.80 838.00 L 896.30 850.30 L 885.40 862.30 L 874.00 874.00 L 862.30 885.40 L 850.30 896.30 L 838.00 906.80 L 825.40 916.90 L 812.60 926.50 L 799.40 935.80 L 785.90 944.60 L 772.30 952.90 L 758.40 960.80 L 744.20 968.30 L 729.80 975.30 L 715.30 981.90 L 700.50 988.00 L 685.60 993.70 L 670.40 998.90 L 655.20 1003.60 L 639.70 1007.80 L 624.20 1011.60 L 608.40 1014.80 L 592.60 1017.60 L 576.70 1019.90 L 560.60 1021.70 L 544.50 1023.00 L 528.30 1023.70 L 512.00 1024.00 L 495.70 1023.70 L 479.50 1023.00 L 463.40 1021.70 L 447.30 1019.90 L 431.40 1017.60 L 415.60 1014.80 L 399.80 1011.60 L 384.30 1007.80 L 368.80 1003.60 L 353.60 998.90 L 338.40 993.70 L 323.50 988.00 L 308.70 981.90 L 294.20 975.30 L 279.80 968.30 L 265.60 960.80 L 251.70 952.90 L 238.10 944.60 L 224.60 935.80 L 211.40 926.50 L 198.60 916.90 L 186.00 906.80 L 173.70 896.30 L 161.70 885.40 L 150.00 874.00 L 138.60 862.30 L 127.70 850.30 L 117.20 838.00 L 107.10 825.40 L 97.50 812.60 L 88.20 799.40 L 79.40 785.90 L 71.10 772.30 L 63.20 758.40 L 55.70 744.20 L 48.70 729.80 L 42.10 715.30 L 36.00 700.50 L 30.30 685.60 L 25.10 670.40 L 20.40 655.20 L 16.20 639.70 L 12.40 624.20 L 9.20 608.40 L 6.40 592.60 L 4.10 576.70 L 2.30 560.60 L 1.00 544.50 L 0.30 528.30 L 0.00 512.00 L 0.30 495.70 L 1.00 479.50 L 2.30 463.40 L 4.10 447.30 L 6.40 431.40 L 9.20 415.60 L 12.40 399.80 L 16.20 384.30 L 20.40 368.80 L 25.10 353.60 L 30.30 338.40 L 36.00 323.50 L 42.10 308.70 L 48.70 294.20 L 55.70 279.80 L 63.20 265.60 L 71.10 251.70 L 79.40 238.10 L 88.20 224.60 L 97.50 211.40 L 107.10 198.60 L 117.20 186.00 L 127.70 173.70 L 138.60 161.70 L 150.00 150.00 L 161.70 138.60 L 173.70 127.70 L 186.00 117.20 L 198.60 107.10 L 211.40 97.50 L 224.60 88.20 L 238.10 79.40 L 251.70 71.10 L 265.60 63.20 L 279.80 55.70 L 294.20 48.70 L 308.70 42.10 L 323.50 36.00 L 338.40 30.30 L 353.60 25.10 L 368.80 20.40 L 384.30 16.20 L 399.80 12.40 L 415.60 9.20 L 431.40 6.40 L 447.30 4.10 L 463.40 2.30 L 479.50 1.00 L 495.70 0.30 L 512.00 0.00 L 528.30 0.30 L 544.50 1.00 L 560.60 2.30 L 576.70 4.10 L 592.60 6.40 L 608.40 9.20 L 624.20 12.40 L 639.70 16.20 L 655.20 20.40 L 670.40 25.10 L 685.60 30.30 L 700.50 36.00 L 715.30 42.10 L 729.80 48.70 L 744.20 55.70 L 758.40 63.20 L 772.30 71.10 L 785.90 79.40 L 799.40 88.20 L 812.60 97.50 L 825.40 107.10 L 838.00 117.20 L 850.30 127.70 L 862.30 138.60 L 874.00 150.00 L 885.40 161.70 L 896.30 173.70 L 906.80 186.00 L 916.90 198.60 L 926.50 211.40 L 935.80 224.60 L 944.60 238.10 L 952.90 251.70 L 960.80 265.60 L 968.30 279.80 L 975.30 294.20 L 981.90 308.70 L 988.00 323.50 L 993.70 338.40 L 998.90 353.60 L 1003.60 368.80 L 1007.80 384.30 L 1011.60 399.80 L 1014.80 415.60 L 1017.60 431.40 L 1019.90 447.30 L 1021.70 463.40 L 1023.00 479.50 L 1023.70 495.70 L 1024.00 512.00 Z" fill="#ffffff" fill-rule="evenodd" group-id="1,2,6" node-id="206" stroke="none" target-height="1024" target-width="1024" target-x="0" target-y="0"></path></g><path d="M 1024.00 512.00 L 1023.70 528.30 L 1023.00 544.50 L 1021.70 560.60 L 1019.90 576.70 L 1017.60 592.60 L 1014.80 608.40 L 1011.60 624.20 L 1007.80 639.70 L 1003.60 655.20 L 998.90 670.40 L 993.70 685.60 L 988.00 700.50 L 981.90 715.30 L 975.30 729.80 L 968.30 744.20 L 960.80 758.40 L 952.90 772.30 L 944.60 785.90 L 935.80 799.40 L 926.50 812.60 L 916.90 825.40 L 906.80 838.00 L 896.30 850.30 L 885.40 862.30 L 874.00 874.00 L 862.30 885.40 L 850.30 896.30 L 838.00 906.80 L 825.40 916.90 L 812.60 926.50 L 799.40 935.80 L 785.90 944.60 L 772.30 952.90 L 758.40 960.80 L 744.20 968.30 L 729.80 975.30 L 715.30 981.90 L 700.50 988.00 L 685.60 993.70 L 670.40 998.90 L 655.20 1003.60 L 639.70 1007.80 L 624.20 1011.60 L 608.40 1014.80 L 592.60 1017.60 L 576.70 1019.90 L 560.60 1021.70 L 544.50 1023.00 L 528.30 1023.70 L 512.00 1024.00 L 495.70 1023.70 L 479.50 1023.00 L 463.40 1021.70 L 447.30 1019.90 L 431.40 1017.60 L 415.60 1014.80 L 399.80 1011.60 L 384.30 1007.80 L 368.80 1003.60 L 353.60 998.90 L 338.40 993.70 L 323.50 988.00 L 308.70 981.90 L 294.20 975.30 L 279.80 968.30 L 265.60 960.80 L 251.70 952.90 L 238.10 944.60 L 224.60 935.80 L 211.40 926.50 L 198.60 916.90 L 186.00 906.80 L 173.70 896.30 L 161.70 885.40 L 150.00 874.00 L 138.60 862.30 L 127.70 850.30 L 117.20 838.00 L 107.10 825.40 L 97.50 812.60 L 88.20 799.40 L 79.40 785.90 L 71.10 772.30 L 63.20 758.40 L 55.70 744.20 L 48.70 729.80 L 42.10 715.30 L 36.00 700.50 L 30.30 685.60 L 25.10 670.40 L 20.40 655.20 L 16.20 639.70 L 12.40 624.20 L 9.20 608.40 L 6.40 592.60 L 4.10 576.70 L 2.30 560.60 L 1.00 544.50 L 0.30 528.30 L 0.00 512.00 L 0.30 495.70 L 1.00 479.50 L 2.30 463.40 L 4.10 447.30 L 6.40 431.40 L 9.20 415.60 L 12.40 399.80 L 16.20 384.30 L 20.40 368.80 L 25.10 353.60 L 30.30 338.40 L 36.00 323.50 L 42.10 308.70 L 48.70 294.20 L 55.70 279.80 L 63.20 265.60 L 71.10 251.70 L 79.40 238.10 L 88.20 224.60 L 97.50 211.40 L 107.10 198.60 L 117.20 186.00 L 127.70 173.70 L 138.60 161.70 L 150.00 150.00 L 161.70 138.60 L 173.70 127.70 L 186.00 117.20 L 198.60 107.10 L 211.40 97.50 L 224.60 88.20 L 238.10 79.40 L 251.70 71.10 L 265.60 63.20 L 279.80 55.70 L 294.20 48.70 L 308.70 42.10 L 323.50 36.00 L 338.40 30.30 L 353.60 25.10 L 368.80 20.40 L 384.30 16.20 L 399.80 12.40 L 415.60 9.20 L 431.40 6.40 L 447.30 4.10 L 463.40 2.30 L 479.50 1.00 L 495.70 0.30 L 512.00 0.00 L 528.30 0.30 L 544.50 1.00 L 560.60 2.30 L 576.70 4.10 L 592.60 6.40 L 608.40 9.20 L 624.20 12.40 L 639.70 16.20 L 655.20 20.40 L 670.40 25.10 L 685.60 30.30 L 700.50 36.00 L 715.30 42.10 L 729.80 48.70 L 744.20 55.70 L 758.40 63.20 L 772.30 71.10 L 785.90 79.40 L 799.40 88.20 L 812.60 97.50 L 825.40 107.10 L 838.00 117.20 L 850.30 127.70 L 862.30 138.60 L 874.00 150.00 L 885.40 161.70 L 896.30 173.70 L 906.80 186.00 L 916.90 198.60 L 926.50 211.40 L 935.80 224.60 L 944.60 238.10 L 952.90 251.70 L 960.80 265.60 L 968.30 279.80 L 975.30 294.20 L 981.90 308.70 L 988.00 323.50 L 993.70 338.40 L 998.90 353.60 L 1003.60 368.80 L 1007.80 384.30 L 1011.60 399.80 L 1014.80 415.60 L 1017.60 431.40 L 1019.90 447.30 L 1021.70 463.40 L 1023.00 479.50 L 1023.70 495.70 L 1024.00 512.00 Z" fill="#000000" fill-rule="evenodd" filter="url(#filter-2)" group-id="1,2,7" node-id="211" stroke="none" target-height="1024" target-width="1024" target-x="0" target-y="0"></path></g><g node-id="254"><g node-id="259"><path d="M 950.90 512.00 L 950.60 526.60 L 949.90 541.10 L 948.70 555.50 L 947.00 569.70 L 944.90 583.90 L 942.30 598.00 L 939.30 612.10 L 935.80 625.90 L 931.90 639.70 L 927.50 653.20 L 922.70 666.70 L 917.50 679.90 L 911.80 693.10 L 905.70 705.90 L 899.20 718.60 L 892.20 731.10 L 884.90 743.40 L 877.10 755.50 L 869.00 767.30 L 860.40 778.80 L 851.50 790.10 L 842.20 801.10 L 832.50 811.80 L 822.30 822.30 L 811.80 832.50 L 801.10 842.20 L 790.10 851.50 L 778.80 860.40 L 767.30 869.00 L 755.50 877.10 L 743.40 884.90 L 731.10 892.20 L 718.60 899.20 L 705.90 905.70 L 693.10 911.80 L 679.90 917.50 L 666.70 922.70 L 653.20 927.50 L 639.70 931.90 L 625.90 935.80 L 612.10 939.30 L 598.00 942.30 L 583.90 944.90 L 569.70 947.00 L 555.50 948.70 L 541.10 949.90 L 526.60 950.60 L 512.00 950.90 L 497.40 950.60 L 482.90 949.90 L 468.50 948.70 L 454.30 947.00 L 440.10 944.90 L 426.00 942.30 L 411.90 939.30 L 398.10 935.80 L 384.30 931.90 L 370.80 927.50 L 357.30 922.70 L 344.10 917.50 L 330.90 911.80 L 318.10 905.70 L 305.40 899.20 L 292.90 892.20 L 280.60 884.90 L 268.50 877.10 L 256.70 869.00 L 245.20 860.40 L 233.90 851.50 L 222.90 842.20 L 212.20 832.50 L 201.70 822.30 L 191.50 811.80 L 181.80 801.10 L 172.50 790.10 L 163.60 778.80 L 155.00 767.30 L 146.90 755.50 L 139.10 743.40 L 131.80 731.10 L 124.80 718.60 L 118.30 705.90 L 112.20 693.10 L 106.50 679.90 L 101.30 666.70 L 96.50 653.20 L 92.10 639.70 L 88.20 625.90 L 84.70 612.10 L 81.70 598.00 L 79.10 583.90 L 77.00 569.70 L 75.30 555.50 L 74.10 541.10 L 73.40 526.60 L 73.10 512.00 L 73.40 497.40 L 74.10 482.90 L 75.30 468.50 L 77.00 454.30 L 79.10 440.10 L 81.70 426.00 L 84.70 411.90 L 88.20 398.10 L 92.10 384.30 L 96.50 370.80 L 101.30 357.30 L 106.50 344.10 L 112.20 330.90 L 118.30 318.10 L 124.80 305.40 L 131.80 292.90 L 139.10 280.60 L 146.90 268.50 L 155.00 256.70 L 163.60 245.20 L 172.50 233.90 L 181.80 222.90 L 191.50 212.20 L 201.70 201.70 L 212.20 191.50 L 222.90 181.80 L 233.90 172.50 L 245.20 163.60 L 256.70 155.00 L 268.50 146.90 L 280.60 139.10 L 292.90 131.80 L 305.40 124.80 L 318.10 118.30 L 330.90 112.20 L 344.10 106.50 L 357.30 101.30 L 370.80 96.50 L 384.30 92.10 L 398.10 88.20 L 411.90 84.70 L 426.00 81.70 L 440.10 79.10 L 454.30 77.00 L 468.50 75.30 L 482.90 74.10 L 497.40 73.40 L 512.00 73.10 L 526.60 73.40 L 541.10 74.10 L 555.50 75.30 L 569.70 77.00 L 583.90 79.10 L 598.00 81.70 L 612.10 84.70 L 625.90 88.20 L 639.70 92.10 L 653.20 96.50 L 666.70 101.30 L 679.90 106.50 L 693.10 112.20 L 705.90 118.30 L 718.60 124.80 L 731.10 131.80 L 743.40 139.10 L 755.50 146.90 L 767.30 155.00 L 778.80 163.60 L 790.10 172.50 L 801.10 181.80 L 811.80 191.50 L 822.30 201.70 L 832.50 212.20 L 842.20 222.90 L 851.50 233.90 L 860.40 245.20 L 869.00 256.70 L 877.10 268.50 L 884.90 280.60 L 892.20 292.90 L 899.20 305.40 L 905.70 318.10 L 911.80 330.90 L 917.50 344.10 L 922.70 357.30 L 927.50 370.80 L 931.90 384.30 L 935.80 398.10 L 939.30 411.90 L 942.30 426.00 L 944.90 440.10 L 947.00 454.30 L 948.70 468.50 L 949.90 482.90 L 950.60 497.40 L 950.90 512.00 Z" fill="#316cd4" fill-rule="evenodd" group-id="1,3,8" node-id="218" stroke="none" target-height="877.80005" target-width="877.80005" target-x="73.1" target-y="73.1"></path></g><path d="M 950.90 512.00 L 950.60 526.60 L 949.90 541.10 L 948.70 555.50 L 947.00 569.70 L 944.90 583.90 L 942.30 598.00 L 939.30 612.10 L 935.80 625.90 L 931.90 639.70 L 927.50 653.20 L 922.70 666.70 L 917.50 679.90 L 911.80 693.10 L 905.70 705.90 L 899.20 718.60 L 892.20 731.10 L 884.90 743.40 L 877.10 755.50 L 869.00 767.30 L 860.40 778.80 L 851.50 790.10 L 842.20 801.10 L 832.50 811.80 L 822.30 822.30 L 811.80 832.50 L 801.10 842.20 L 790.10 851.50 L 778.80 860.40 L 767.30 869.00 L 755.50 877.10 L 743.40 884.90 L 731.10 892.20 L 718.60 899.20 L 705.90 905.70 L 693.10 911.80 L 679.90 917.50 L 666.70 922.70 L 653.20 927.50 L 639.70 931.90 L 625.90 935.80 L 612.10 939.30 L 598.00 942.30 L 583.90 944.90 L 569.70 947.00 L 555.50 948.70 L 541.10 949.90 L 526.60 950.60 L 512.00 950.90 L 497.40 950.60 L 482.90 949.90 L 468.50 948.70 L 454.30 947.00 L 440.10 944.90 L 426.00 942.30 L 411.90 939.30 L 398.10 935.80 L 384.30 931.90 L 370.80 927.50 L 357.30 922.70 L 344.10 917.50 L 330.90 911.80 L 318.10 905.70 L 305.40 899.20 L 292.90 892.20 L 280.60 884.90 L 268.50 877.10 L 256.70 869.00 L 245.20 860.40 L 233.90 851.50 L 222.90 842.20 L 212.20 832.50 L 201.70 822.30 L 191.50 811.80 L 181.80 801.10 L 172.50 790.10 L 163.60 778.80 L 155.00 767.30 L 146.90 755.50 L 139.10 743.40 L 131.80 731.10 L 124.80 718.60 L 118.30 705.90 L 112.20 693.10 L 106.50 679.90 L 101.30 666.70 L 96.50 653.20 L 92.10 639.70 L 88.20 625.90 L 84.70 612.10 L 81.70 598.00 L 79.10 583.90 L 77.00 569.70 L 75.30 555.50 L 74.10 541.10 L 73.40 526.60 L 73.10 512.00 L 73.40 497.40 L 74.10 482.90 L 75.30 468.50 L 77.00 454.30 L 79.10 440.10 L 81.70 426.00 L 84.70 411.90 L 88.20 398.10 L 92.10 384.30 L 96.50 370.80 L 101.30 357.30 L 106.50 344.10 L 112.20 330.90 L 118.30 318.10 L 124.80 305.40 L 131.80 292.90 L 139.10 280.60 L 146.90 268.50 L 155.00 256.70 L 163.60 245.20 L 172.50 233.90 L 181.80 222.90 L 191.50 212.20 L 201.70 201.70 L 212.20 191.50 L 222.90 181.80 L 233.90 172.50 L 245.20 163.60 L 256.70 155.00 L 268.50 146.90 L 280.60 139.10 L 292.90 131.80 L 305.40 124.80 L 318.10 118.30 L 330.90 112.20 L 344.10 106.50 L 357.30 101.30 L 370.80 96.50 L 384.30 92.10 L 398.10 88.20 L 411.90 84.70 L 426.00 81.70 L 440.10 79.10 L 454.30 77.00 L 468.50 75.30 L 482.90 74.10 L 497.40 73.40 L 512.00 73.10 L 526.60 73.40 L 541.10 74.10 L 555.50 75.30 L 569.70 77.00 L 583.90 79.10 L 598.00 81.70 L 612.10 84.70 L 625.90 88.20 L 639.70 92.10 L 653.20 96.50 L 666.70 101.30 L 679.90 106.50 L 693.10 112.20 L 705.90 118.30 L 718.60 124.80 L 731.10 131.80 L 743.40 139.10 L 755.50 146.90 L 767.30 155.00 L 778.80 163.60 L 790.10 172.50 L 801.10 181.80 L 811.80 191.50 L 822.30 201.70 L 832.50 212.20 L 842.20 222.90 L 851.50 233.90 L 860.40 245.20 L 869.00 256.70 L 877.10 268.50 L 884.90 280.60 L 892.20 292.90 L 899.20 305.40 L 905.70 318.10 L 911.80 330.90 L 917.50 344.10 L 922.70 357.30 L 927.50 370.80 L 931.90 384.30 L 935.80 398.10 L 939.30 411.90 L 942.30 426.00 L 944.90 440.10 L 947.00 454.30 L 948.70 468.50 L 949.90 482.90 L 950.60 497.40 L 950.90 512.00 Z" fill="#000000" fill-rule="evenodd" filter="url(#filter-5)" group-id="1,3,9" node-id="223" stroke="none" target-height="877.80005" target-width="877.80005" target-x="73.1" target-y="73.1"></path></g><g node-id="255"><g node-id="261"><g node-id="262"><g node-id="268"><path d="M 151.20 670.70 L 515.90 463.20 L 872.80 670.70 L 512.00 872.80 Z" fill="#000000" fill-rule="evenodd" filter="url(#filter-7)" group-id="1,4,10,11,17" node-id="233" stroke="none" target-height="409.59998" target-width="721.6" target-x="151.2" target-y="463.2"></path></g><path d="M 151.20 670.70 L 515.90 463.20 L 872.80 670.70 L 512.00 872.80 Z" fill="#ffffff" fill-rule="evenodd" group-id="1,4,10,11,18" node-id="238" stroke="#c2dafe" stroke-linecap="butt" stroke-width="1" target-height="409.59998" target-width="721.6" target-x="151.2" target-y="463.2"></path></g><g node-id="263"><g node-id="270"><path d="M 238.90 636.90 L 521.90 477.90 L 798.70 636.90 L 518.80 791.90 Z" fill="#000000" fill-rule="evenodd" filter="url(#filter-9)" group-id="1,4,10,12,19" node-id="245" stroke="none" target-height="314.00003" target-width="559.80005" target-x="238.9" target-y="477.9"></path></g><path d="M 238.90 636.90 L 521.90 477.90 L 798.70 636.90 L 518.80 791.90 Z" fill="#c2dafe" fill-rule="evenodd" group-id="1,4,10,12,20" node-id="250" stroke="none" target-height="314.00003" target-width="559.80005" target-x="238.9" target-y="477.9"></path></g><g node-id="264"><path d="M 511.50 695.40 L 526.70 695.20 L 541.40 694.50 L 555.70 693.30 L 569.60 691.80 L 583.50 689.70 L 596.90 687.30 L 609.60 684.60 L 621.70 681.50 L 634.00 677.90 L 645.40 674.00 L 656.00 669.90 L 665.90 665.60 L 675.90 660.60 L 684.80 655.50 L 692.90 650.30 L 700.10 644.90 L 705.80 640.10 L 710.80 635.30 L 715.10 630.40 L 718.90 625.50 L 722.10 620.60 L 725.00 615.20 L 727.10 609.90 L 728.70 604.50 L 729.60 599.00 L 729.90 593.50 L 730.90 538.90 L 708.00 530.60 L 686.10 523.30 L 665.00 516.80 L 644.90 511.10 L 625.60 506.30 L 607.10 502.20 L 589.40 498.80 L 572.50 496.10 L 556.20 494.10 L 540.70 492.60 L 525.80 491.80 L 511.50 491.50 L 500.10 491.80 L 488.00 492.60 L 475.10 493.90 L 461.40 495.90 L 446.90 498.50 L 431.50 501.80 L 415.10 505.90 L 397.70 510.70 L 379.30 516.40 L 359.70 523.00 L 339.10 530.50 L 317.20 539.00 L 294.00 548.60 L 293.00 593.50 L 293.40 599.00 L 294.30 604.50 L 295.80 609.90 L 298.00 615.20 L 300.80 620.60 L 304.10 625.50 L 307.80 630.40 L 312.20 635.30 L 317.20 640.10 L 322.90 644.90 L 330.10 650.30 L 338.10 655.50 L 347.10 660.60 L 357.00 665.60 L 366.90 669.90 L 377.60 674.00 L 389.00 677.90 L 401.20 681.50 L 413.40 684.60 L 426.10 687.30 L 439.40 689.70 L 453.40 691.80 L 467.30 693.30 L 481.60 694.50 L 496.30 695.20 L 511.50 695.40 Z" fill="url(#linearGradient-10)" fill-rule="evenodd" group-id="1,4,10,13" id="椭圆形" node-id="74" stroke="none" target-height="203.90002" target-width="437.90002" target-x="293" target-y="491.5"></path><path d="M 729.90 538.90 L 729.60 544.40 L 728.70 549.90 L 727.10 555.30 L 725.00 560.60 L 722.10 566.00 L 718.90 570.90 L 715.10 575.80 L 710.80 580.70 L 705.80 585.50 L 700.10 590.30 L 692.90 595.70 L 684.80 600.90 L 675.90 606.00 L 665.90 610.90 L 656.00 615.30 L 645.40 619.40 L 634.00 623.30 L 621.70 626.90 L 609.60 630.00 L 596.90 632.70 L 583.50 635.10 L 569.60 637.20 L 555.70 638.70 L 541.40 639.80 L 526.70 640.50 L 511.50 640.80 L 496.30 640.50 L 481.60 639.80 L 467.30 638.70 L 453.40 637.20 L 439.40 635.10 L 426.10 632.70 L 413.40 630.00 L 401.20 626.90 L 389.00 623.30 L 377.60 619.40 L 366.90 615.30 L 357.00 610.90 L 347.10 606.00 L 338.10 600.90 L 330.10 595.70 L 322.90 590.30 L 317.20 585.50 L 312.20 580.70 L 307.80 575.80 L 304.10 570.90 L 300.80 566.00 L 298.00 560.60 L 295.80 555.30 L 294.30 549.90 L 293.40 544.40 L 293.00 538.90 L 293.40 533.30 L 294.30 527.80 L 295.80 522.40 L 298.00 517.10 L 300.80 511.80 L 304.10 506.80 L 307.80 501.90 L 312.20 497.00 L 317.20 492.20 L 322.90 487.40 L 330.10 482.00 L 338.10 476.80 L 347.10 471.70 L 357.00 466.80 L 366.90 462.40 L 377.60 458.30 L 389.00 454.40 L 401.20 450.80 L 413.40 447.70 L 426.10 445.00 L 439.40 442.60 L 453.40 440.50 L 467.30 439.00 L 481.60 437.90 L 496.30 437.20 L 511.50 436.90 L 526.70 437.20 L 541.40 437.90 L 555.70 439.00 L 569.60 440.50 L 583.50 442.60 L 596.90 445.00 L 609.60 447.70 L 621.70 450.80 L 634.00 454.40 L 645.40 458.30 L 656.00 462.40 L 665.90 466.80 L 675.90 471.70 L 684.80 476.80 L 692.90 482.00 L 700.10 487.40 L 705.80 492.20 L 710.80 497.00 L 715.10 501.90 L 718.90 506.80 L 722.10 511.80 L 725.00 517.10 L 727.10 522.40 L 728.70 527.80 L 729.60 533.30 L 729.90 538.90 Z" fill="url(#linearGradient-11)" fill-rule="evenodd" group-id="1,4,10,13" id="椭圆形" node-id="75" stroke="none" target-height="203.9" target-width="436.90002" target-x="293" target-y="436.9"></path></g><g node-id="265"><path d="M 418.60 482.30 L 433.60 448.50 L 423.60 444.70 L 408.60 478.50 L 403.10 477.40 L 398.60 477.30 L 394.80 477.50 L 387.80 478.90 L 384.40 480.10 L 380.20 482.30 L 376.40 484.80 L 372.90 487.90 L 369.80 491.40 L 367.20 495.20 L 365.10 499.50 L 363.90 502.80 L 362.50 509.80 L 362.30 513.60 L 362.50 517.30 L 363.90 524.30 L 365.10 527.50 L 367.20 531.60 L 369.80 535.30 L 372.90 538.60 L 376.40 541.50 L 380.20 544.00 L 384.40 546.00 L 388.90 547.40 L 393.60 548.30 L 398.60 548.60 L 402.30 548.40 L 409.40 547.00 L 412.70 545.80 L 416.90 543.60 L 420.70 541.10 L 424.20 538.00 L 427.30 534.50 L 429.90 530.70 L 432.00 526.40 L 433.20 523.10 L 434.70 516.10 L 434.90 512.30 L 434.60 508.20 L 434.00 504.20 L 432.90 500.40 L 431.40 496.70 L 429.50 493.30 L 427.30 490.10 L 424.70 487.20 L 421.80 484.60 L 418.60 482.30 Z" fill="url(#linearGradient-12)" fill-rule="evenodd" group-id="1,4,10,14" id="路径" node-id="77" stroke="none" target-height="103.89996" target-width="72.600006" target-x="362.3" target-y="444.7"></path><path d="M 626.30 248.20 L 619.00 249.00 L 612.20 251.10 L 608.00 253.20 L 604.20 255.80 L 600.70 258.90 L 597.60 262.40 L 595.00 266.20 L 592.90 270.40 L 590.80 277.20 L 590.10 284.50 L 590.80 291.90 L 592.90 298.70 L 595.00 302.90 L 597.60 306.70 L 600.70 310.20 L 604.20 313.30 L 608.00 315.90 L 612.20 318.00 L 619.00 320.10 L 626.30 320.80 L 633.70 320.10 L 640.50 318.00 L 644.70 315.90 L 648.50 313.30 L 652.00 310.20 L 655.10 306.70 L 657.70 302.90 L 659.80 298.70 L 661.90 291.90 L 662.60 284.50 L 661.90 277.20 L 659.80 270.40 L 657.70 266.20 L 655.10 262.40 L 652.00 258.90 L 648.50 255.80 L 644.70 253.20 L 640.50 251.10 L 633.70 249.00 L 626.30 248.20 Z" fill="url(#linearGradient-13)" fill-rule="evenodd" group-id="1,4,10,14" id="路径" node-id="78" stroke="none" target-height="72.59999" target-width="72.5" target-x="590.1" target-y="248.2"></path><path d="M 617.40 494.00 L 613.60 494.30 L 610.10 495.00 L 606.70 496.20 L 603.60 497.70 L 600.70 499.70 L 598.10 502.00 L 595.70 504.60 L 593.80 507.50 L 592.20 510.70 L 591.00 514.00 L 590.30 517.60 L 590.10 521.30 L 590.30 525.10 L 591.00 528.60 L 592.20 531.90 L 593.80 535.10 L 595.70 538.00 L 598.10 540.60 L 600.70 542.90 L 603.60 544.90 L 606.70 546.50 L 610.10 547.60 L 613.60 548.40 L 617.40 548.60 L 621.10 548.40 L 624.60 547.60 L 628.00 546.50 L 631.10 544.90 L 634.00 542.90 L 636.70 540.60 L 639.00 538.00 L 640.90 535.10 L 642.50 531.90 L 643.70 528.60 L 644.40 525.10 L 644.70 521.30 L 644.40 517.60 L 643.70 514.00 L 642.50 510.70 L 640.90 507.50 L 639.00 504.60 L 636.70 502.00 L 634.00 499.70 L 631.10 497.70 L 628.00 496.20 L 624.60 495.00 L 621.10 494.30 L 617.40 494.00 Z" fill="#ffffff" fill-rule="evenodd" group-id="1,4,10,14" id="路径" node-id="79" stroke="none" target-height="54.599976" target-width="54.600037" target-x="590.1" target-y="494"></path><path d="M 617.40 487.20 L 613.60 487.40 L 610.10 488.20 L 606.70 489.30 L 603.60 490.90 L 600.70 492.90 L 598.10 495.20 L 595.70 497.80 L 593.80 500.70 L 592.20 503.90 L 591.00 507.20 L 590.30 510.70 L 590.10 514.50 L 590.30 518.20 L 591.00 521.80 L 592.20 525.10 L 593.80 528.30 L 595.70 531.20 L 598.10 533.80 L 600.70 536.10 L 603.60 538.00 L 606.70 539.60 L 610.10 540.80 L 613.60 541.50 L 617.40 541.80 L 621.10 541.50 L 624.60 540.80 L 628.00 539.60 L 631.10 538.00 L 634.00 536.10 L 636.70 533.80 L 639.00 531.20 L 640.90 528.30 L 642.50 525.10 L 643.70 521.80 L 644.40 518.20 L 644.70 514.50 L 644.40 510.70 L 643.70 507.20 L 642.50 503.90 L 640.90 500.70 L 639.00 497.80 L 636.70 495.20 L 634.00 492.90 L 631.10 490.90 L 628.00 489.30 L 624.60 488.20 L 621.10 487.40 L 617.40 487.20 Z" fill="#46eff8" fill-rule="evenodd" group-id="1,4,10,14" id="路径" node-id="80" stroke="none" target-height="54.599976" target-width="54.600037" target-x="590.1" target-y="487.2"></path><path d="M 357.90 357.50 L 354.20 357.70 L 350.70 358.40 L 347.30 359.60 L 344.20 361.20 L 341.30 363.20 L 338.60 365.50 L 336.30 368.10 L 334.40 371.00 L 332.80 374.20 L 331.60 377.50 L 330.90 381.00 L 330.60 384.80 L 330.90 388.50 L 331.60 392.10 L 332.80 395.40 L 334.40 398.60 L 336.30 401.50 L 338.60 404.10 L 341.30 406.40 L 344.20 408.30 L 347.30 409.90 L 350.70 411.10 L 354.20 411.80 L 357.90 412.10 L 361.70 411.80 L 365.20 411.10 L 368.60 409.90 L 371.70 408.30 L 374.60 406.40 L 377.20 404.10 L 379.60 401.50 L 381.50 398.60 L 383.10 395.40 L 384.30 392.10 L 385.00 388.50 L 385.30 384.80 L 385.00 381.00 L 384.30 377.50 L 383.10 374.20 L 381.50 371.00 L 379.60 368.10 L 377.20 365.50 L 374.60 363.20 L 371.70 361.20 L 368.60 359.60 L 365.20 358.40 L 361.70 357.70 L 357.90 357.50 Z" fill="#ffffff" fill-rule="evenodd" group-id="1,4,10,14" id="路径" node-id="81" stroke="none" target-height="54.600006" target-width="54.69998" target-x="330.6" target-y="357.5"></path><path d="M 357.90 350.60 L 354.20 350.90 L 350.70 351.60 L 347.30 352.80 L 344.20 354.40 L 341.30 356.30 L 338.60 358.60 L 336.30 361.30 L 334.40 364.20 L 332.80 367.30 L 331.60 370.70 L 330.90 374.20 L 330.60 377.90 L 330.90 381.70 L 331.60 385.20 L 332.80 388.60 L 334.40 391.70 L 336.30 394.60 L 338.60 397.30 L 341.30 399.60 L 344.20 401.50 L 347.30 403.10 L 350.70 404.30 L 354.20 405.00 L 357.90 405.30 L 361.70 405.00 L 365.20 404.30 L 368.60 403.10 L 371.70 401.50 L 374.60 399.60 L 377.20 397.30 L 379.60 394.60 L 381.50 391.70 L 383.10 388.60 L 384.30 385.20 L 385.00 381.70 L 385.30 377.90 L 385.00 374.20 L 384.30 370.70 L 383.10 367.30 L 381.50 364.20 L 379.60 361.30 L 377.20 358.60 L 374.60 356.30 L 371.70 354.40 L 368.60 352.80 L 365.20 351.60 L 361.70 350.90 L 357.90 350.60 Z" fill="#46eff8" fill-rule="evenodd" group-id="1,4,10,14" id="路径" node-id="82" stroke="none" target-height="54.69998" target-width="54.69998" target-x="330.6" target-y="350.6"></path><path d="M 501.30 248.20 L 497.60 248.50 L 494.00 249.20 L 490.70 250.40 L 487.50 252.00 L 484.60 253.90 L 482.00 256.20 L 479.70 258.90 L 477.70 261.80 L 476.10 264.90 L 475.00 268.30 L 474.30 271.80 L 474.00 275.50 L 474.30 279.30 L 475.00 282.80 L 476.10 286.20 L 477.70 289.30 L 479.70 292.20 L 482.00 294.90 L 484.60 297.20 L 487.50 299.10 L 490.70 300.70 L 494.00 301.90 L 497.60 302.60 L 501.30 302.90 L 505.10 302.60 L 508.60 301.90 L 511.90 300.70 L 515.10 299.10 L 518.00 297.20 L 520.60 294.90 L 522.90 292.20 L 524.90 289.30 L 526.50 286.20 L 527.60 282.80 L 528.40 279.30 L 528.60 275.50 L 528.40 271.80 L 527.60 268.30 L 526.50 264.90 L 524.90 261.80 L 522.90 258.90 L 520.60 256.20 L 518.00 253.90 L 515.10 252.00 L 511.90 250.40 L 508.60 249.20 L 505.10 248.50 L 501.30 248.20 Z" fill="#ffffff" fill-rule="evenodd" group-id="1,4,10,14" id="路径" node-id="83" stroke="none" target-height="54.699997" target-width="54.599976" target-x="474" target-y="248.2"></path><path d="M 501.30 241.40 L 497.60 241.70 L 494.00 242.40 L 490.70 243.60 L 487.50 245.20 L 484.60 247.10 L 482.00 249.40 L 479.70 252.00 L 477.70 254.90 L 476.10 258.10 L 475.00 261.40 L 474.30 265.00 L 474.00 268.70 L 474.30 272.50 L 475.00 276.00 L 476.10 279.30 L 477.70 282.50 L 479.70 285.40 L 482.00 288.00 L 484.60 290.30 L 487.50 292.30 L 490.70 293.90 L 494.00 295.10 L 497.60 295.80 L 501.30 296.00 L 505.10 295.80 L 508.60 295.10 L 511.90 293.90 L 515.10 292.30 L 518.00 290.30 L 520.60 288.00 L 522.90 285.40 L 524.90 282.50 L 526.50 279.30 L 527.60 276.00 L 528.40 272.50 L 528.60 268.70 L 528.40 265.00 L 527.60 261.40 L 526.50 258.10 L 524.90 254.90 L 522.90 252.00 L 520.60 249.40 L 518.00 247.10 L 515.10 245.20 L 511.90 243.60 L 508.60 242.40 L 505.10 241.70 L 501.30 241.40 Z" fill="#46eff8" fill-rule="evenodd" group-id="1,4,10,14" id="路径" node-id="84" stroke="none" target-height="54.600006" target-width="54.599976" target-x="474" target-y="241.4"></path><path d="M 449.90 362.10 L 442.50 362.90 L 435.80 365.00 L 431.50 367.10 L 427.70 369.70 L 424.20 372.80 L 421.10 376.30 L 418.60 380.10 L 416.40 384.30 L 414.30 391.10 L 413.60 398.40 L 414.30 405.80 L 416.40 412.50 L 418.60 416.80 L 421.10 420.60 L 424.20 424.10 L 427.70 427.20 L 431.50 429.70 L 435.80 431.90 L 442.50 434.00 L 446.10 434.50 L 449.90 434.70 L 454.50 434.40 L 458.90 433.60 L 463.10 432.30 L 467.10 430.50 L 470.80 428.30 L 474.10 425.70 L 477.20 422.60 L 479.80 419.30 L 482.10 415.70 L 483.90 411.80 L 485.30 407.80 L 486.20 403.40 L 522.50 403.40 L 522.50 393.40 L 486.20 393.40 L 485.30 389.10 L 483.90 385.00 L 482.10 381.10 L 479.80 377.50 L 477.20 374.20 L 474.10 371.20 L 470.80 368.60 L 467.10 366.40 L 463.10 364.60 L 458.90 363.20 L 454.50 362.40 L 449.90 362.10 Z" fill="url(#linearGradient-14)" fill-rule="evenodd" group-id="1,4,10,14" id="路径" node-id="85" stroke="none" target-height="72.600006" target-width="108.899994" target-x="413.6" target-y="362.1"></path><path d="M 595.10 368.40 L 610.10 334.60 L 600.10 330.80 L 585.00 364.60 L 579.60 363.50 L 575.00 363.40 L 571.30 363.60 L 564.20 365.00 L 560.90 366.20 L 556.70 368.40 L 552.90 370.90 L 549.40 374.00 L 546.30 377.50 L 543.70 381.30 L 541.60 385.60 L 540.40 388.90 L 538.90 395.90 L 538.70 399.70 L 538.90 403.40 L 540.40 410.50 L 541.60 413.80 L 543.70 418.00 L 546.30 421.80 L 549.40 425.30 L 552.90 428.40 L 556.70 431.00 L 560.90 433.10 L 564.20 434.30 L 571.30 435.80 L 575.00 436.00 L 578.80 435.80 L 585.80 434.30 L 589.20 433.10 L 593.40 431.00 L 597.20 428.40 L 600.70 425.30 L 603.80 421.80 L 606.40 418.00 L 608.50 413.80 L 609.70 410.50 L 611.10 403.40 L 611.30 399.70 L 611.00 395.10 L 610.30 390.80 L 609.10 386.80 L 607.40 383.00 L 605.40 379.50 L 600.60 373.20 L 595.10 368.40 Z" fill="url(#linearGradient-15)" fill-rule="evenodd" group-id="1,4,10,14" id="路径" node-id="86" stroke="none" target-height="105.20001" target-width="72.599976" target-x="538.7" target-y="330.8"></path></g><g node-id="266"><path d="M 730.90 541.80 L 727.30 549.90 L 723.30 557.60 L 718.80 564.90 L 713.90 571.90 L 708.40 578.60 L 702.50 585.00 L 696.00 591.00 L 689.00 596.80 L 681.40 602.20 L 673.20 607.30 L 664.40 612.20 L 654.90 616.70 L 644.70 620.90 L 633.70 624.80 L 622.00 628.30 L 609.30 631.40 L 595.80 634.10 L 581.30 636.40 L 565.70 638.30 L 549.10 639.70 L 531.40 640.50 L 512.50 640.80 L 493.50 640.50 L 475.80 639.70 L 459.20 638.30 L 443.70 636.40 L 429.10 634.10 L 415.60 631.40 L 403.00 628.30 L 391.20 624.80 L 380.20 620.90 L 370.00 616.70 L 360.50 612.20 L 351.70 607.30 L 343.50 602.20 L 335.90 596.80 L 328.90 591.00 L 322.40 585.00 L 316.50 578.60 L 311.10 571.90 L 306.10 564.90 L 301.60 557.60 L 297.60 549.90 L 294.00 541.80 L 294.00 328.20 L 294.30 320.20 L 295.00 312.30 L 296.10 304.60 L 297.70 297.00 L 299.80 289.50 L 302.30 282.10 L 305.10 274.90 L 308.40 267.80 L 312.10 260.80 L 316.20 254.00 L 321.80 245.80 L 327.90 237.80 L 334.70 230.10 L 342.00 222.70 L 349.70 215.70 L 357.90 209.00 L 366.60 202.60 L 375.80 196.50 L 385.30 191.00 L 395.20 185.80 L 405.60 181.00 L 416.40 176.60 L 427.30 172.80 L 438.60 169.40 L 450.30 166.40 L 462.40 164.00 L 474.50 162.00 L 486.80 160.60 L 499.50 159.80 L 512.50 159.50 L 525.40 159.80 L 538.10 160.60 L 550.50 162.00 L 562.50 164.00 L 574.60 166.40 L 586.30 169.40 L 597.60 172.80 L 608.50 176.60 L 619.30 181.00 L 629.70 185.80 L 639.60 191.00 L 649.10 196.50 L 658.30 202.60 L 667.00 209.00 L 675.20 215.70 L 682.90 222.70 L 690.20 230.10 L 697.00 237.80 L 703.10 245.80 L 708.70 254.00 L 712.80 260.80 L 716.50 267.80 L 719.80 274.90 L 722.70 282.10 L 725.10 289.50 L 727.20 297.00 L 728.80 304.60 L 730.00 312.30 L 730.70 320.20 L 730.90 328.20 L 730.90 541.80 Z" fill="url(#linearGradient-16)" fill-opacity="0.3" fill-rule="evenodd" group-id="1,4,10,15" id="路径" node-id="87" stroke="none" target-height="481.3" target-width="436.90002" target-x="294" target-y="159.5"></path></g><path d="M 376.80 257.00 L 376.40 255.00 L 376.50 252.90 L 377.10 250.50 L 378.50 247.80 L 380.80 244.60 L 384.00 241.00 L 388.40 237.00 L 398.70 229.70 L 405.10 225.90 L 419.00 219.10 L 426.90 215.90 L 434.90 213.00 L 449.80 208.80 L 457.10 207.30 L 469.60 205.90 L 475.50 205.90 L 480.30 206.40 L 484.20 207.20 L 487.00 208.40 L 489.10 209.70 L 490.60 211.20 L 491.60 213.00" fill="none" filter="url(#filter-17)" group-id="1,4,10,16" id="路径" node-id="88" stroke="#ffffff" stroke-linecap="butt" stroke-opacity="0.5905251" stroke-width="3.9999998" target-height="51.100006" target-width="115.20001" target-x="376.4" target-y="205.9"></path></g></g><path d="M 345.80 338.40 L 327.60 341.30 L 294.10 347.90 L 278.70 351.50 L 263.00 355.60 L 248.50 359.80 L 235.10 364.20 L 222.70 368.60 L 210.10 373.70 L 198.90 378.80 L 188.90 384.00 L 180.10 389.10 L 172.90 393.90 L 166.70 398.60 L 161.30 403.20 L 156.70 407.80 L 152.90 412.40 L 149.90 416.60 L 147.50 420.90 L 145.70 425.00 L 144.40 429.20 L 143.60 433.40 L 143.40 437.60 L 143.60 441.90 L 144.40 446.10 L 145.70 450.30 L 147.60 454.50 L 150.00 458.70 L 153.00 463.00 L 156.90 467.60 L 161.50 472.20 L 166.90 476.90 L 173.30 481.60 L 180.50 486.40 L 189.50 491.60 L 199.60 496.70 L 211.00 501.90 L 223.70 507.00 L 236.20 511.50 L 249.80 515.80 L 264.50 520.10 L 280.30 524.10 L 295.90 527.70 L 329.80 534.30 L 348.20 537.20 L 385.20 542.00 L 404.80 543.90 L 445.30 546.80 L 466.00 547.70 L 509.00 548.50 L 530.80 548.30 L 552.00 547.70 L 592.80 545.60 L 613.20 543.90 L 651.70 539.70 L 688.20 534.30 L 705.60 531.10 L 737.70 524.10 L 753.50 520.10 L 768.20 515.80 L 781.80 511.50 L 794.30 507.00 L 807.00 501.90 L 818.40 496.70 L 828.50 491.60 L 837.50 486.40 L 844.70 481.60 L 851.00 476.90 L 856.50 472.20 L 861.10 467.60 L 865.00 463.00 L 868.00 458.70 L 870.40 454.50 L 872.30 450.30 L 873.60 446.10 L 874.40 441.90 L 874.60 437.60 L 874.30 433.00 L 873.40 428.50 L 871.90 424.00 L 869.80 419.50 L 866.90 414.90 L 863.80 410.70 L 860.10 406.50 L 855.70 402.30 L 850.60 398.00 L 844.80 393.70 L 837.60 388.90 L 829.40 384.20 L 820.20 379.40 L 809.90 374.60 L 799.70 370.40 L 776.70 362.10 L 750.90 354.50 L 723.00 347.70 L 707.80 344.50 L 687.60 340.80 L 666.30 337.50 L 643.70 334.50" fill="none" group-id="1,5" id="路径" node-id="89" stroke="url(#linearGradient-18)" stroke-linecap="round" stroke-width="2" target-height="214" target-width="731.19995" target-x="143.4" target-y="334.5"></path></g></svg>