<?xml version="1.0" standalone="no"?><!DOCTYPE svg PUBLIC "-//W3C//DTD SVG 1.1//EN" "http://www.w3.org/Graphics/SVG/1.1/DTD/svg11.dtd"><svg height="222" node-id="1" sillyvg="true" template-height="222" template-width="166" version="1.1" viewBox="0 0 166 222" width="166" xmlns="http://www.w3.org/2000/svg" xmlns:xlink="http://www.w3.org/1999/xlink"><defs node-id="52"></defs><g node-id="143"><path d="M 54.90 100.10 L 25.00 119.30 L 58.20 128.30 L 73.80 133.50 L 79.20 136.10 L 80.50 137.50 L 84.30 137.50 Z" fill="#ee2d55" fill-rule="nonzero" group-id="1" node-id="56" stroke="none" target-height="37.4" target-width="59.300003" target-x="25" target-y="100.1"></path><path d="M 115.50 97.10 L 145.30 116.30 L 112.10 125.30 L 96.60 130.60 L 91.20 133.10 L 89.80 134.50 L 86.10 134.50 Z" fill="#ee2d55" fill-rule="nonzero" group-id="1" node-id="58" stroke="none" target-height="37.4" target-width="59.200005" target-x="86.1" target-y="97.1"></path><path d="M 52.10 125.60 L 34.60 139.60 L 14.80 156.30 L 3.30 167.40 L 1.20 169.90 L 0.20 171.50 L 0.00 172.50 L 0.20 173.10 L 1.60 174.00 L 14.00 179.90 L 38.10 189.90 L 60.40 198.80 L 127.40 197.20 L 166.20 174.70 L 112.40 125.60 Z" fill="#ee2d55" fill-rule="nonzero" group-id="1" node-id="60" stroke="none" target-height="73.200005" target-width="166.2" target-x="0" target-y="125.6"></path><path d="M 28.70 159.70 L 24.90 161.80 L 22.80 161.60 L 18.90 159.10 L 16.70 157.10 L 12.70 152.70 L 9.80 148.20 L 9.00 146.10 L 8.90 144.80 L 10.30 142.50 L 13.60 138.90 Z" fill="#fac99f" fill-rule="nonzero" group-id="1" node-id="62" stroke="none" target-height="22.90001" target-width="19.800001" target-x="8.9" target-y="138.9"></path><path d="M 44.00 147.40 L 41.40 149.50 L 41.90 149.70 L 28.70 159.70 L 13.60 138.90 L 17.20 136.10 L 21.00 133.60 L 25.00 131.50 L 30.50 129.00 L 30.50 128.70 L 35.70 126.80 L 38.00 133.90 L 39.50 137.60 L 42.80 143.00 L 46.00 145.80 L 44.00 147.40 Z" fill="#346eb6" fill-rule="nonzero" group-id="1" node-id="64" stroke="none" target-height="32.899994" target-width="32.4" target-x="13.6" target-y="126.8"></path><path d="M 44.70 130.10 L 42.60 124.60 L 35.60 126.80 L 37.90 133.90 L 39.50 137.60 L 42.80 143.00 L 45.90 145.80 L 52.40 140.40 L 49.40 137.90 L 48.00 136.10 L 44.70 130.10 Z" fill="#346eb6" fill-rule="nonzero" group-id="1" node-id="66" stroke="none" target-height="21.200005" target-width="16.800003" target-x="35.6" target-y="124.6"></path><path d="M 62.20 120.00 L 54.00 121.70 L 43.50 124.40 L 45.70 130.20 L 49.00 136.10 L 50.40 137.80 L 53.40 140.20 L 67.60 128.00 Z" fill="#346eb6" fill-rule="nonzero" group-id="1" node-id="68" stroke="none" target-height="20.199997" target-width="24.099998" target-x="43.5" target-y="120"></path><path d="M 39.60 151.50 L 28.70 159.70 L 13.50 138.90 L 17.10 136.10 L 20.90 133.60 L 24.90 131.50 Z" fill="#6780bb" fill-rule="nonzero" group-id="1" node-id="70" stroke="none" target-height="28.199997" target-width="26.099998" target-x="13.5" target-y="131.5"></path><path d="M 138.90 159.00 L 142.00 160.80 L 143.30 161.30 L 144.80 161.00 L 148.70 158.50 L 150.90 156.50 L 154.90 152.00 L 157.70 147.50 L 158.60 145.50 L 158.70 144.10 L 157.30 141.80 L 154.00 138.30 Z" fill="#fac99f" fill-rule="nonzero" group-id="1" node-id="72" stroke="none" target-height="23" target-width="19.800003" target-x="138.9" target-y="138.3"></path><path d="M 123.60 146.70 L 126.20 148.90 L 125.70 149.10 L 138.90 159.00 L 154.00 138.30 L 150.40 135.40 L 146.60 132.90 L 142.60 130.80 L 137.10 128.30 L 137.10 128.10 L 131.90 126.20 L 129.70 133.20 L 128.10 136.90 L 124.80 142.30 L 121.60 145.20 L 123.60 146.70 Z" fill="#346eb6" fill-rule="nonzero" group-id="1" node-id="74" stroke="none" target-height="32.800003" target-width="32.4" target-x="121.6" target-y="126.2"></path><path d="M 122.90 129.50 L 124.90 123.90 L 131.90 126.20 L 129.60 133.20 L 128.10 136.90 L 124.80 142.30 L 121.60 145.20 L 115.10 139.70 L 118.20 137.20 L 119.60 135.50 L 122.90 129.50 Z" fill="#346eb6" fill-rule="nonzero" group-id="1" node-id="76" stroke="none" target-height="21.299995" target-width="16.799995" target-x="115.1" target-y="123.9"></path><path d="M 105.40 119.40 L 113.70 121.10 L 124.10 123.80 L 121.90 129.60 L 118.60 135.50 L 117.20 137.20 L 114.20 139.60 L 100.00 127.40 Z" fill="#346eb6" fill-rule="nonzero" group-id="1" node-id="78" stroke="none" target-height="20.200005" target-width="24.099998" target-x="100" target-y="119.4"></path><path d="M 128.10 150.90 L 138.90 159.00 L 154.10 138.30 L 150.50 135.50 L 146.70 133.00 L 142.70 130.90 Z" fill="#6780bb" fill-rule="nonzero" group-id="1" node-id="80" stroke="none" target-height="28.100006" target-width="26" target-x="128.1" target-y="130.9"></path><path d="M 52.30 208.70 L 48.90 212.40 L 48.00 214.00 L 47.60 215.70 L 48.10 217.90 L 49.00 219.00 L 50.70 220.00 L 53.30 220.70 L 59.50 221.40 L 66.10 221.40 L 73.30 220.90 L 74.70 202.40 L 69.50 199.20 L 62.40 196.60 L 58.30 195.70 L 50.90 194.70 Z" fill="#43437a" fill-rule="nonzero" group-id="1" node-id="82" stroke="none" target-height="26.699997" target-width="27.099998" target-x="47.6" target-y="194.7"></path><path d="M 75.20 186.90 L 60.00 180.10 L 53.60 178.30 L 50.30 178.40 L 49.30 178.90 L 50.90 194.80 L 58.30 195.70 L 62.50 196.70 L 69.50 199.30 L 74.70 202.40 L 75.40 189.10 L 75.20 186.90 Z" fill="#32588e" fill-rule="nonzero" group-id="1" node-id="84" stroke="none" target-height="24.09999" target-width="26.100002" target-x="49.3" target-y="178.3"></path><path d="M 115.00 209.40 L 117.20 211.60 L 119.30 214.70 L 119.70 216.40 L 119.70 217.50 L 118.30 219.60 L 116.60 220.60 L 111.10 221.80 L 101.20 222.00 L 94.00 221.60 L 92.60 203.00 L 97.80 199.80 L 104.90 197.20 L 109.00 196.30 L 116.40 195.40 Z" fill="#43437a" fill-rule="nonzero" group-id="1" node-id="86" stroke="none" target-height="26.600006" target-width="27.099998" target-x="92.6" target-y="195.4"></path><path d="M 92.10 187.60 L 107.20 180.80 L 113.70 178.90 L 117.00 179.00 L 118.00 179.60 L 116.30 195.50 L 108.90 196.40 L 104.80 197.40 L 97.70 200.00 L 92.50 203.10 L 91.90 189.70 L 92.10 187.60 Z" fill="#32588e" fill-rule="nonzero" group-id="1" node-id="88" stroke="none" target-height="24.200012" target-width="26.099998" target-x="91.9" target-y="178.9"></path><path d="M 119.70 177.60 L 119.30 185.10 L 113.50 187.20 L 106.20 189.10 L 101.70 190.00 L 95.60 190.80 L 82.00 191.20 L 74.80 190.90 L 63.00 189.20 L 55.00 186.80 L 51.40 185.20 L 48.50 183.30 L 46.30 181.10 L 45.10 179.40 L 44.30 177.60 L 43.60 174.50 L 43.30 171.50 L 43.80 165.30 L 45.00 159.20 L 48.60 148.00 L 53.00 137.10 L 57.40 127.90 L 62.00 119.10 L 104.30 118.30 L 108.50 123.00 L 110.30 125.90 L 112.60 130.60 L 114.60 136.00 L 116.10 141.60 L 117.40 147.50 L 119.00 159.20 L 119.70 171.40 L 119.70 177.60 Z" fill="#346eb6" fill-rule="nonzero" group-id="1" node-id="90" stroke="none" target-height="72.899994" target-width="76.399994" target-x="43.3" target-y="118.3"></path><path d="M 102.60 159.20 L 104.70 159.20 L 104.70 165.30 L 102.60 165.30 Z" fill="#e6e5eb" fill-rule="nonzero" group-id="1" node-id="92" stroke="none" target-height="6.100006" target-width="2.0999985" target-x="102.6" target-y="159.2"></path><path d="M 72.70 189.60 L 70.10 189.60 L 70.10 151.40 L 81.40 142.60 L 83.00 144.60 L 72.70 152.70 L 72.70 189.60 Z" fill="#37375b" fill-rule="nonzero" group-id="1" node-id="94" stroke="none" target-height="47" target-width="12.900002" target-x="70.1" target-y="142.6"></path><path d="M 119.50 165.30 L 43.90 165.30 L 45.10 159.20 L 119.00 159.20 L 119.50 165.30 Z" fill="#89766f" fill-rule="nonzero" group-id="1" node-id="96" stroke="none" target-height="6.100006" target-width="75.6" target-x="43.9" target-y="159.2"></path><path d="M 119.70 171.40 L 43.40 171.40 L 43.90 165.30 L 119.50 165.30 L 119.70 171.40 Z" fill="#7d5e55" fill-rule="nonzero" group-id="1" node-id="98" stroke="none" target-height="6.099991" target-width="76.299995" target-x="43.4" target-y="165.3"></path><path d="M 60.40 159.20 L 62.50 159.20 L 62.50 165.30 L 60.40 165.30 Z" fill="#e6e5eb" fill-rule="nonzero" group-id="1" node-id="100" stroke="none" target-height="6.100006" target-width="2.0999985" target-x="60.4" target-y="159.2"></path><path d="M 89.50 164.90 L 91.60 164.90 L 91.60 171.00 L 89.50 171.00 Z" fill="#e6e5eb" fill-rule="nonzero" group-id="1" node-id="102" stroke="none" target-height="6.100006" target-width="2.0999985" target-x="89.5" target-y="164.9"></path><path d="M 93.70 159.20 L 106.40 159.20 L 107.20 159.50 L 107.60 160.30 L 107.60 171.90 L 106.90 173.00 L 93.70 173.10 L 92.90 172.70 L 92.50 171.90 L 92.50 160.30 L 92.90 159.50 L 93.70 159.20 Z" fill="#54403e" fill-rule="nonzero" group-id="1" node-id="104" stroke="none" target-height="13.900009" target-width="15.099998" target-x="92.5" target-y="159.2"></path><path d="M 90.50 141.00 L 90.30 142.20 L 89.70 143.30 L 88.50 144.40 L 85.50 145.60 L 83.70 145.80 L 81.80 145.60 L 78.80 144.40 L 77.70 143.30 L 77.00 142.20 L 76.80 141.00 L 77.00 139.80 L 77.70 138.70 L 78.80 137.60 L 81.80 136.40 L 83.70 136.20 L 85.50 136.40 L 88.50 137.60 L 89.70 138.70 L 90.30 139.80 L 90.50 141.00 Z" fill="#eba569" fill-rule="nonzero" group-id="1" node-id="106" stroke="none" target-height="9.600006" target-width="13.699997" target-x="76.8" target-y="136.2"></path><path d="M 87.70 141.00 L 87.40 142.10 L 86.50 143.00 L 85.30 143.60 L 83.70 143.80 L 82.10 143.60 L 80.80 143.00 L 79.90 142.10 L 79.60 141.00 L 79.90 139.90 L 80.80 139.00 L 82.10 138.40 L 83.70 138.20 L 85.30 138.40 L 86.50 139.00 L 87.40 139.90 L 87.70 141.00 Z" fill="#e6e5eb" fill-rule="nonzero" group-id="1" node-id="108" stroke="none" target-height="5.600006" target-width="8.099998" target-x="79.6" target-y="138.2"></path><g node-id="144"><path d="M 130.80 22.30 L 130.80 120.70 L 130.60 122.70 L 129.80 124.50 L 128.70 126.00 L 127.10 127.10 L 125.40 127.90 L 123.40 128.10 L 46.30 128.10 L 44.30 127.90 L 42.60 127.10 L 41.10 126.00 L 39.90 124.50 L 39.20 122.70 L 38.90 120.70 L 38.90 22.10 L 39.20 20.10 L 39.90 18.40 L 41.10 16.90 L 42.60 15.70 L 44.30 14.90 L 46.30 14.70 L 123.20 14.70 L 125.20 15.00 L 127.10 15.70 L 128.60 16.90 L 129.80 18.50 L 130.60 20.30 L 130.80 22.30 Z" fill="#fbcaa1" fill-rule="nonzero" group-id="1,2" node-id="112" stroke="none" target-height="113.40001" target-width="91.9" target-x="38.9" target-y="14.7"></path></g><path d="M 94.80 83.00 L 110.60 76.00 L 110.50 79.10 L 109.60 82.90 L 108.60 84.60 L 106.70 86.30 L 105.30 86.70 L 101.50 86.60 L 97.70 85.10 L 94.80 83.00 Z" fill="#513c2e" fill-rule="nonzero" group-id="1" node-id="115" stroke="none" target-height="10.699997" target-width="15.799995" target-x="94.8" target-y="76"></path><path d="M 90.20 76.00 L 110.60 64.70 L 114.50 69.60 L 92.40 76.00 L 90.20 76.00 Z" fill="#513c2e" fill-rule="nonzero" group-id="1" node-id="117" stroke="none" target-height="11.300003" target-width="24.300003" target-x="90.2" target-y="64.7"></path><path d="M 70.40 83.80 L 54.60 76.80 L 54.70 79.80 L 55.60 83.70 L 56.60 85.40 L 58.60 87.00 L 60.00 87.50 L 63.80 87.40 L 67.60 85.90 L 70.40 83.80 Z" fill="#513c2e" fill-rule="nonzero" group-id="1" node-id="119" stroke="none" target-height="10.699997" target-width="15.800003" target-x="54.6" target-y="76.8"></path><path d="M 75.10 76.80 L 54.60 65.50 L 50.70 70.40 L 72.90 76.80 L 75.10 76.80 Z" fill="#513c2e" fill-rule="nonzero" group-id="1" node-id="121" stroke="none" target-height="11.300003" target-width="24.399998" target-x="50.7" target-y="65.5"></path><path d="M 72.20 119.60 L 74.40 122.50 L 83.70 140.30 L 94.80 118.40 L 92.70 118.00 L 87.10 118.20 L 72.20 119.60 Z" fill="#fbcaa1" fill-rule="nonzero" group-id="1" node-id="123" stroke="none" target-height="22.300003" target-width="22.600006" target-x="72.2" target-y="118"></path><path d="M 19.70 37.70 L 19.20 37.30 Z" fill="#3a2d24" fill-rule="nonzero" group-id="1" node-id="125" stroke="none" target-height="0.40000153" target-width="0.5" target-x="19.2" target-y="37.3"></path><path d="M 136.00 46.20 L 135.70 54.10 L 134.60 62.60 L 132.10 73.70 L 130.90 77.20 L 130.70 75.30 L 130.10 73.10 L 127.80 68.30 L 124.30 62.60 L 119.40 55.60 L 118.40 43.40 L 118.00 41.30 L 117.30 39.90 L 115.10 38.00 L 111.80 37.30 L 109.00 37.30 L 105.80 37.80 L 94.00 41.00 L 87.70 41.70 L 79.60 41.60 L 63.20 40.40 L 57.70 40.50 L 55.70 41.50 L 54.70 44.00 L 54.90 48.40 L 56.90 55.60 L 52.90 54.90 L 49.00 52.70 L 47.20 51.10 L 44.80 48.10 L 44.00 46.70 L 44.40 45.40 L 43.90 44.50 L 41.60 45.10 L 37.80 47.20 L 36.40 47.50 L 32.60 47.00 L 28.00 44.60 L 19.70 37.70 L 20.80 37.70 L 24.70 36.20 L 29.50 32.50 L 32.10 30.00 L 38.90 21.80 L 41.20 17.60 L 43.60 14.00 L 46.10 11.00 L 48.70 8.40 L 51.70 6.20 L 57.80 2.80 L 61.00 1.70 L 65.50 0.70 L 69.90 0.10 L 78.90 0.30 L 87.30 1.60 L 93.30 3.10 L 98.40 4.80 L 106.10 7.90 L 109.00 9.40 L 118.90 17.70 L 126.60 22.50 L 128.60 24.00 L 130.60 26.20 L 133.10 30.90 L 135.00 37.90 L 136.00 46.20 Z" fill="#513c2e" fill-rule="nonzero" group-id="1" node-id="127" stroke="none" target-height="77.1" target-width="116.3" target-x="19.7" target-y="0.1"></path><path d="M 105.70 100.10 L 104.40 99.10 L 99.90 97.40 L 91.40 95.70 L 86.10 95.20 L 86.10 94.90 L 81.30 94.90 L 81.30 95.20 L 70.20 96.70 L 65.00 98.10 L 63.00 99.10 L 61.70 100.10 L 59.80 102.60 L 58.30 105.60 L 57.70 107.70 L 57.20 112.00 L 57.50 114.10 L 59.10 118.00 L 61.20 120.50 L 64.10 123.00 L 67.40 125.10 L 71.30 126.80 L 74.00 127.50 L 79.70 128.10 L 87.60 128.10 L 90.50 128.00 L 96.10 126.80 L 99.90 125.10 L 103.30 123.00 L 106.20 120.50 L 108.30 118.00 L 109.30 116.10 L 110.10 112.00 L 109.70 107.70 L 109.00 105.60 L 107.60 102.60 L 105.70 100.10 Z M 101.50 115.40 L 100.70 116.50 L 99.30 117.30 L 97.50 117.70 L 91.20 117.90 L 86.30 117.30 L 86.30 110.60 L 81.00 110.60 L 81.00 117.30 L 76.20 117.90 L 71.90 117.90 L 68.00 117.30 L 66.60 116.50 L 65.80 115.40 L 65.10 113.70 L 64.30 109.60 L 64.30 107.50 L 64.80 105.50 L 65.70 103.70 L 67.90 101.80 L 69.60 101.00 L 74.20 99.90 L 78.90 99.10 L 83.60 98.80 L 88.40 99.10 L 93.00 99.90 L 97.60 101.00 L 100.60 102.70 L 101.60 103.70 L 102.50 105.50 L 103.00 107.50 L 103.00 109.60 L 102.70 111.70 L 101.50 115.40 Z" fill="#513c2e" fill-rule="nonzero" group-id="1" node-id="129" stroke="none" target-height="33.200005" target-width="52.899998" target-x="57.2" target-y="94.9"></path><path d="M 136.00 47.30 L 135.90 51.90 L 119.00 51.90 L 118.60 47.30 Z" fill="#e9e7e8" fill-rule="nonzero" group-id="1" node-id="131" stroke="none" target-height="4.6000023" target-width="17.400002" target-x="118.6" target-y="47.3"></path><path d="M 135.60 55.60 L 135.00 59.80 L 122.30 59.80 L 119.30 56.80 L 119.20 55.60 Z" fill="#e9e7e8" fill-rule="nonzero" group-id="1" node-id="133" stroke="none" target-height="4.200001" target-width="16.40001" target-x="119.2" target-y="55.6"></path><path d="M 134.50 63.80 L 133.40 68.30 L 127.80 68.30 L 124.30 63.80 Z" fill="#e9e7e8" fill-rule="nonzero" group-id="1" node-id="135" stroke="none" target-height="4.500004" target-width="10.199997" target-x="124.3" target-y="63.8"></path><path d="M 70.40 108.40 L 78.60 107.70 L 85.40 107.60 L 91.70 107.70 L 94.30 108.00 L 96.50 108.70 L 95.00 107.80 L 90.10 106.00 L 86.80 105.30 L 83.40 105.00 L 79.70 105.20 L 75.40 106.10 L 71.30 107.50 L 70.40 108.40 Z" fill="#513c2e" fill-rule="nonzero" group-id="1" node-id="137" stroke="none" target-height="3.699997" target-width="26.099998" target-x="70.4" target-y="105"></path><path d="M 40.30 69.90 L 40.20 91.00 L 37.20 90.20 L 34.50 89.00 L 32.30 87.30 L 30.60 85.30 L 29.80 83.80 L 29.20 80.40 L 29.80 77.10 L 30.70 75.60 L 32.40 73.60 L 34.60 71.90 L 37.30 70.60 L 40.30 69.90 Z" fill="#fbcaa1" fill-rule="nonzero" group-id="1" node-id="139" stroke="none" target-height="21.099998" target-width="11.099998" target-x="29.2" target-y="69.9"></path><path d="M 127.40 71.60 L 127.60 92.70 L 130.60 92.00 L 133.20 90.70 L 135.50 89.00 L 137.10 87.00 L 137.90 85.50 L 138.60 82.20 L 137.90 78.90 L 137.10 77.30 L 135.40 75.30 L 133.10 73.60 L 130.50 72.40 L 127.40 71.60 Z" fill="#fbcaa1" fill-rule="nonzero" group-id="1" node-id="141" stroke="none" target-height="21.099998" target-width="11.200005" target-x="127.4" target-y="71.6"></path></g></svg>