<?xml version="1.0" standalone="no"?><!DOCTYPE svg PUBLIC "-//W3C//DTD SVG 1.1//EN" "http://www.w3.org/Graphics/SVG/1.1/DTD/svg11.dtd"><svg height="207" node-id="1" sillyvg="true" template-height="207" template-width="145" version="1.1" viewBox="0 0 145 207" width="145" xmlns="http://www.w3.org/2000/svg" xmlns:xlink="http://www.w3.org/1999/xlink"><defs node-id="127"></defs><g node-id="374"><path d="M 37.30 122.70 L 38.90 123.50 L 41.00 123.90 L 44.30 123.50 L 46.50 122.70 L 44.30 123.50 L 41.00 123.90 L 38.90 123.50 L 37.30 122.70 Z" fill="none" group-id="1" node-id="131" stroke="none" target-height="1.2000046" target-width="9.200001" target-x="37.3" target-y="122.7"></path><path d="M 31.30 124.90 L 29.90 120.10 L 19.30 122.90 L 13.10 125.50 L 19.60 134.80 L 22.10 139.20 L 24.20 143.80 L 27.70 141.40 L 27.30 141.20 L 37.20 134.00 L 35.40 132.40 L 33.70 130.20 L 31.30 124.90 Z" fill="#748289" fill-rule="nonzero" group-id="1" node-id="133" stroke="none" target-height="23.700005" target-width="24.1" target-x="13.1" target-y="120.1"></path><path d="M 18.80 147.40 L 13.20 150.40 L 12.10 150.70 L 11.10 150.40 L 8.40 148.70 L 6.40 146.70 L 2.50 141.60 L 0.20 136.70 L 0.10 135.20 L 3.10 131.70 L 7.50 128.40 L 14.30 138.20 L 17.10 143.00 L 18.30 145.90 L 18.70 147.40 Z" fill="#627177" fill-rule="nonzero" group-id="1" node-id="135" stroke="none" target-height="22.300003" target-width="18.699999" target-x="0.1" target-y="128.4"></path><path d="M 37.30 122.70 L 38.90 123.50 L 41.00 123.90 L 42.50 123.90 L 46.50 122.70 L 49.00 121.30 L 46.80 117.40 L 34.60 119.20 L 35.70 121.10 L 37.30 122.70 Z" fill="#d81c42" fill-rule="nonzero" group-id="1" node-id="137" stroke="none" target-height="6.5" target-width="14.400002" target-x="34.6" target-y="117.4"></path><path d="M 49.80 122.80 L 44.90 124.80 L 43.00 125.20 L 40.20 125.20 L 37.90 124.70 L 36.00 123.80 L 34.40 122.60 L 32.20 119.70 L 30.70 120.00 L 32.20 125.10 L 34.60 130.30 L 36.20 132.50 L 38.10 134.00 L 50.80 124.60 Z" fill="#627177" fill-rule="nonzero" group-id="1" node-id="139" stroke="none" target-height="14.300003" target-width="20.099998" target-x="30.7" target-y="119.7"></path><path d="M 49.80 122.80 L 49.00 121.30 L 44.30 123.50 L 41.00 123.90 L 38.90 123.50 L 37.30 122.70 L 35.70 121.10 L 34.60 119.20 L 32.20 119.70 L 34.40 122.60 L 36.00 123.80 L 37.90 124.70 L 40.20 125.20 L 43.00 125.20 L 44.90 124.80 L 49.80 122.80 Z" fill="#8ca2b1" fill-rule="nonzero" group-id="1" node-id="141" stroke="none" target-height="6" target-width="17.599998" target-x="32.2" target-y="119.2"></path><path d="M 46.50 122.70 L 49.00 121.30 Z" fill="#8ca2b1" fill-rule="nonzero" group-id="1" node-id="143" stroke="none" target-height="1.3999939" target-width="2.5" target-x="46.5" target-y="121.3"></path><path d="M 37.30 122.70 L 35.70 121.10 L 34.50 119.20 L 35.70 121.10 L 37.30 122.70 Z" fill="#8ca2b1" fill-rule="nonzero" group-id="1" node-id="145" stroke="none" target-height="3.5" target-width="2.7999992" target-x="34.5" target-y="119.2"></path><path d="M 24.20 143.80 L 18.60 147.40 L 17.90 145.00 L 16.10 141.30 L 12.50 135.60 L 7.50 128.40 L 13.20 125.50 L 19.50 134.80 L 22.00 139.00 L 24.20 143.70 Z" fill="#8ca2b1" fill-rule="nonzero" group-id="1" node-id="147" stroke="none" target-height="21.899994" target-width="16.7" target-x="7.5" target-y="125.5"></path><path d="M 107.40 119.30 L 105.80 120.20 L 103.70 120.60 L 100.40 120.20 L 98.20 119.30 L 100.40 120.20 L 103.70 120.60 L 105.80 120.20 L 107.40 119.30 Z" fill="none" group-id="1" node-id="149" stroke="none" target-height="1.2999954" target-width="9.200005" target-x="98.2" target-y="119.3"></path><path d="M 113.40 121.60 L 114.80 116.80 L 125.40 119.60 L 131.60 122.20 L 125.10 131.50 L 122.60 135.90 L 120.50 140.50 L 117.00 138.10 L 117.40 137.90 L 107.40 130.80 L 109.30 129.10 L 111.00 126.90 L 113.40 121.60 Z" fill="#748289" fill-rule="nonzero" group-id="1" node-id="151" stroke="none" target-height="23.699997" target-width="24.200005" target-x="107.4" target-y="116.8"></path><path d="M 125.90 144.10 L 130.70 146.80 L 132.60 147.40 L 133.60 147.10 L 136.30 145.40 L 138.30 143.40 L 142.20 138.30 L 144.50 133.40 L 144.70 131.90 L 141.70 128.40 L 137.20 125.10 L 130.40 134.90 L 127.70 139.70 L 126.40 142.60 L 126.10 144.10 Z" fill="#627177" fill-rule="nonzero" group-id="1" node-id="153" stroke="none" target-height="22.299995" target-width="18.799995" target-x="125.9" target-y="125.1"></path><path d="M 107.40 119.30 L 105.80 120.20 L 103.70 120.60 L 102.20 120.60 L 98.20 119.30 L 95.70 118.00 L 98.00 114.10 L 110.20 115.90 L 109.00 117.80 L 107.40 119.30 Z" fill="#d81c42" fill-rule="nonzero" group-id="1" node-id="155" stroke="none" target-height="6.5" target-width="14.5" target-x="95.7" target-y="114.1"></path><path d="M 94.90 119.50 L 99.80 121.50 L 101.70 121.80 L 104.50 121.90 L 106.80 121.40 L 108.70 120.50 L 110.30 119.30 L 112.50 116.40 L 114.00 116.70 L 111.40 124.50 L 110.10 127.00 L 108.50 129.10 L 106.60 130.70 L 93.90 121.30 Z" fill="#627177" fill-rule="nonzero" group-id="1" node-id="157" stroke="none" target-height="14.299995" target-width="20.099998" target-x="93.9" target-y="116.4"></path><path d="M 94.90 119.50 L 95.70 118.00 L 100.40 120.20 L 103.70 120.60 L 105.80 120.20 L 107.40 119.30 L 109.00 117.80 L 110.20 115.90 L 112.50 116.40 L 110.30 119.30 L 108.70 120.50 L 106.80 121.40 L 104.50 121.90 L 101.70 121.90 L 99.80 121.50 L 94.90 119.50 Z" fill="#8ca2b1" fill-rule="nonzero" group-id="1" node-id="159" stroke="none" target-height="6" target-width="17.599998" target-x="94.9" target-y="115.9"></path><path d="M 98.20 119.30 L 95.70 118.00 Z" fill="#8ca2b1" fill-rule="nonzero" group-id="1" node-id="161" stroke="none" target-height="1.300003" target-width="2.5" target-x="95.7" target-y="118"></path><path d="M 107.40 119.30 L 109.00 117.80 L 110.20 115.90 L 109.00 117.80 L 107.40 119.30 Z" fill="#8ca2b1" fill-rule="nonzero" group-id="1" node-id="163" stroke="none" target-height="3.4000015" target-width="2.7999954" target-x="107.4" target-y="115.9"></path><path d="M 120.50 140.50 L 126.10 144.10 L 126.80 141.70 L 128.60 138.00 L 132.20 132.30 L 137.20 125.10 L 131.50 122.20 L 125.10 131.50 L 122.70 135.70 L 120.50 140.50 Z" fill="#8ca2b1" fill-rule="nonzero" group-id="1" node-id="165" stroke="none" target-height="21.90001" target-width="16.699997" target-x="120.5" target-y="122.2"></path><path d="M 68.60 179.70 L 61.80 172.70 L 55.30 167.40 L 52.90 165.90 L 48.20 163.90 L 46.00 163.50 L 43.90 163.60 L 47.10 195.70 L 44.20 200.60 L 43.70 203.70 L 44.10 205.10 L 45.60 206.20 L 49.70 207.10 L 59.20 207.30 L 66.50 206.90 L 67.50 191.50 L 67.80 191.30 Z" fill="#4d5f66" fill-rule="nonzero" group-id="1" node-id="167" stroke="none" target-height="43.800003" target-width="24.899998" target-x="43.7" target-y="163.5"></path><path d="M 79.10 179.70 L 85.90 172.70 L 92.40 167.40 L 94.80 165.90 L 99.50 163.90 L 101.60 163.50 L 103.80 163.60 L 100.60 195.70 L 103.50 200.60 L 104.00 203.70 L 103.60 205.10 L 102.00 206.20 L 97.90 207.10 L 88.50 207.30 L 81.20 206.90 L 80.20 191.50 L 79.90 191.30 Z" fill="#4d5f66" fill-rule="nonzero" group-id="1" node-id="169" stroke="none" target-height="43.800003" target-width="24.900002" target-x="79.1" target-y="163.5"></path><path d="M 75.20 175.50 L 75.00 178.90 L 74.60 180.30 L 74.00 180.70 L 73.10 180.70 L 67.10 177.80 L 57.80 174.20 L 48.20 171.70 L 43.20 170.90 L 40.30 169.90 L 38.20 167.70 L 37.60 166.30 L 37.00 160.10 L 37.00 155.50 L 42.60 155.80 L 45.70 156.50 L 48.70 157.70 L 50.50 158.80 L 52.10 160.30 L 55.60 165.00 L 58.20 167.50 L 61.10 169.60 L 67.30 172.90 L 75.20 175.50 Z" fill="#84949e" fill-rule="nonzero" group-id="1" node-id="171" stroke="none" target-height="25.199997" target-width="38.199997" target-x="37" target-y="155.5"></path><path d="M 74.50 130.80 L 61.80 118.70 L 74.10 118.40 L 74.40 126.70 Z" fill="#cc1e37" fill-rule="nonzero" group-id="1" node-id="173" stroke="none" target-height="12.400002" target-width="12.700001" target-x="61.8" target-y="118.4"></path><path d="M 50.10 137.40 L 48.80 157.70 L 45.80 156.50 L 42.70 155.80 L 37.00 155.50 L 38.10 143.70 L 40.10 134.20 L 41.60 129.10 Z" fill="#627177" fill-rule="nonzero" group-id="1" node-id="175" stroke="none" target-height="28.59999" target-width="13.099998" target-x="37" target-y="129.1"></path><path d="M 75.20 171.90 L 75.20 175.50 L 70.20 174.00 L 64.10 171.40 L 58.20 167.50 L 55.60 165.00 L 52.20 160.30 L 50.60 158.90 L 48.80 157.70 L 50.10 137.40 L 41.60 129.20 L 44.80 120.70 L 46.70 116.60 L 56.60 124.10 L 62.20 129.20 L 64.50 131.70 L 65.80 133.70 L 66.30 135.10 L 65.50 144.00 L 65.60 149.30 L 66.70 155.70 L 67.40 157.60 L 69.30 160.40 L 71.90 161.80 L 74.80 161.70 L 75.20 163.90 L 75.20 171.90 Z" fill="#84949e" fill-rule="nonzero" group-id="1" node-id="177" stroke="none" target-height="58.9" target-width="33.6" target-x="41.6" target-y="116.6"></path><path d="M 75.20 163.90 L 75.20 166.10 L 71.20 166.10 L 67.70 164.80 L 66.20 163.60 L 64.60 161.60 L 63.30 159.10 L 62.20 155.70 L 61.40 151.50 L 61.20 142.30 L 61.80 135.40 L 60.90 134.10 L 57.10 130.40 L 51.60 125.70 L 44.90 120.70 L 46.70 116.60 L 56.60 124.10 L 62.30 129.20 L 64.60 131.70 L 65.90 133.80 L 66.30 135.10 L 65.60 144.10 L 65.70 149.30 L 66.80 155.70 L 67.50 157.60 L 69.30 160.40 L 71.90 161.80 L 74.90 161.70 Z" fill="#8ca2b1" fill-rule="nonzero" group-id="1" node-id="179" stroke="none" target-height="49.500008" target-width="30.299995" target-x="44.9" target-y="116.6"></path><path d="M 74.10 119.00 L 52.00 105.90" fill="none" group-id="1" node-id="181" stroke="#8ca2b1" stroke-linecap="butt" stroke-width="2.85" target-height="13.099998" target-width="22.099998" target-x="52" target-y="105.9"></path><path d="M 48.80 157.70 L 48.80 158.00" fill="none" group-id="1" node-id="183" stroke="#8ca2b1" stroke-linecap="butt" stroke-width="1.55" target-height="0.30000305" target-width="0" target-x="48.8" target-y="157.7"></path><path d="M 75.20 175.50 L 67.30 172.90 L 61.10 169.60 L 58.20 167.50 L 55.60 165.00 L 52.10 160.30 L 50.50 158.80 L 48.70 157.70 L 45.70 156.50 L 42.60 155.80 L 37.00 155.50 L 37.10 152.00 L 43.70 152.40 L 48.50 153.70 L 50.80 154.80 L 53.00 156.20 L 54.90 158.00 L 58.00 162.40 L 62.00 166.00 L 65.40 168.10 L 68.90 169.70 L 75.20 171.90 L 75.20 175.50 Z" fill="#84949e" fill-rule="nonzero" group-id="1" node-id="185" stroke="none" target-height="23.5" target-width="38.199997" target-x="37" target-y="152"></path><g node-id="375"><path d="M 35.70 153.70 L 69.90 159.90 L 68.30 168.70 L 34.10 162.60 Z" fill="#474747" fill-rule="nonzero" group-id="1,2" node-id="189" stroke="#8da2b0" stroke-linecap="butt" stroke-width="1.04" target-height="15" target-width="35.800003" target-x="34.1" target-y="153.7"></path></g><path d="M 83.00 165.10 L 82.70 167.30 L 81.80 169.20 L 80.60 170.80 L 78.90 172.10 L 77.00 172.90 L 74.90 173.20 L 72.70 172.90 L 70.80 172.10 L 69.10 170.80 L 67.90 169.20 L 67.10 167.30 L 66.80 165.10 L 67.10 162.90 L 67.90 161.00 L 69.10 159.40 L 70.80 158.10 L 72.70 157.30 L 74.90 157.00 L 77.00 157.30 L 78.90 158.10 L 80.60 159.40 L 81.80 161.00 L 82.70 162.90 L 83.00 165.10 Z" fill="#474747" fill-rule="nonzero" group-id="1" node-id="192" stroke="none" target-height="16.199997" target-width="16.199997" target-x="66.8" target-y="157"></path><path d="M 79.90 165.10 L 79.70 166.50 L 78.40 168.60 L 76.20 169.90 L 74.90 170.10 L 72.30 169.40 L 70.50 167.60 L 70.10 166.50 L 69.90 165.10 L 70.50 162.60 L 72.30 160.80 L 74.90 160.10 L 76.20 160.30 L 78.40 161.60 L 79.70 163.70 L 79.90 165.10 Z" fill="#ac1d33" fill-rule="nonzero" group-id="1" node-id="194" stroke="none" target-height="10" target-width="10" target-x="69.9" target-y="160.1"></path><path d="M 32.40 149.30 L 39.50 149.30 L 39.50 165.10 L 32.40 165.10 Z" fill="#474747" fill-rule="nonzero" group-id="1" node-id="196" stroke="none" target-height="15.800003" target-width="7.0999985" target-x="32.4" target-y="149.3"></path><path d="M 72.50 175.50 L 72.70 178.90 L 73.10 180.30 L 73.70 180.70 L 74.60 180.70 L 80.60 177.80 L 89.90 174.20 L 99.50 171.70 L 104.50 170.90 L 107.40 169.90 L 109.50 167.70 L 110.10 166.30 L 110.70 160.10 L 110.70 155.50 L 105.00 155.80 L 102.00 156.50 L 99.00 157.70 L 97.10 158.80 L 95.60 160.30 L 92.10 165.00 L 89.50 167.50 L 86.60 169.60 L 80.40 172.90 L 72.50 175.50 Z" fill="#84949e" fill-rule="nonzero" group-id="1" node-id="198" stroke="none" target-height="25.199997" target-width="38.199997" target-x="72.5" target-y="155.5"></path><path d="M 73.20 130.80 L 85.90 118.70 L 73.60 118.40 L 73.30 126.70 Z" fill="#cc1e37" fill-rule="nonzero" group-id="1" node-id="200" stroke="none" target-height="12.400002" target-width="12.700005" target-x="73.2" target-y="118.4"></path><path d="M 72.60 146.60 L 72.60 148.20 L 73.40 146.50 L 73.90 146.30 L 74.40 146.50 L 75.10 148.20 L 75.10 146.60 L 78.00 146.30 L 80.50 145.20 L 82.30 144.10 L 81.90 138.20 L 78.40 138.80 L 75.00 139.90 L 75.00 138.30 L 74.00 140.30 L 72.90 138.30 L 72.90 139.90 L 69.50 138.80 L 66.00 138.20 L 65.60 144.10 L 67.30 145.20 L 69.80 146.30 L 72.60 146.60 Z" fill="#e02c4f" fill-rule="nonzero" group-id="1" node-id="202" stroke="none" target-height="10" target-width="16.700005" target-x="65.6" target-y="138.2"></path><path d="M 75.20 151.00 L 75.20 150.50 L 73.80 150.90 L 72.50 150.50 L 72.50 151.00 L 69.80 150.80 L 65.60 149.30 L 66.00 152.70 L 67.40 157.60 L 69.20 160.40 L 70.70 161.40 L 72.40 161.80 L 72.40 163.80 L 72.80 161.80 L 74.80 161.80 L 75.20 163.80 L 75.20 161.80 L 76.90 161.40 L 78.40 160.40 L 80.20 157.60 L 80.90 155.70 L 82.00 149.30 L 77.90 150.80 L 75.70 151.00 Z" fill="#e02c4f" fill-rule="nonzero" group-id="1" node-id="204" stroke="none" target-height="14.5" target-width="16.400002" target-x="65.6" target-y="149.3"></path><path d="M 97.60 137.40 L 98.90 157.70 L 101.90 156.50 L 105.00 155.80 L 110.70 155.50 L 109.60 143.70 L 107.60 134.20 L 106.10 129.10 Z" fill="#627177" fill-rule="nonzero" group-id="1" node-id="206" stroke="none" target-height="28.59999" target-width="13.099998" target-x="97.6" target-y="129.1"></path><path d="M 72.50 171.90 L 72.50 175.50 L 77.50 174.00 L 83.60 171.40 L 89.50 167.50 L 92.10 165.00 L 95.50 160.30 L 97.10 158.90 L 98.90 157.70 L 97.60 137.40 L 106.10 129.20 L 102.90 120.70 L 101.00 116.60 L 91.10 124.10 L 85.50 129.20 L 83.20 131.70 L 81.90 133.70 L 81.40 135.10 L 82.20 144.00 L 82.10 149.30 L 81.00 155.70 L 80.30 157.60 L 78.40 160.40 L 75.80 161.80 L 72.90 161.70 L 72.50 163.90 L 72.50 171.90 Z" fill="#84949e" fill-rule="nonzero" group-id="1" node-id="208" stroke="none" target-height="58.9" target-width="33.6" target-x="72.5" target-y="116.6"></path><path d="M 95.10 106.30 L 92.00 101.90 L 74.20 106.10 L 73.80 112.50 L 73.50 106.10 L 55.70 102.00 L 52.60 106.30 L 46.70 116.70 L 56.60 124.10 L 62.20 129.20 L 64.50 131.80 L 65.80 133.80 L 66.30 135.20 L 65.90 138.20 L 71.20 139.30 L 73.80 140.40 L 76.30 139.30 L 81.70 138.20 L 81.30 135.20 L 81.70 133.80 L 83.00 131.80 L 85.30 129.20 L 91.00 124.10 L 100.90 116.70 L 95.10 106.30 Z" fill="#e02c4f" fill-rule="nonzero" group-id="1" node-id="210" stroke="none" target-height="38.499992" target-width="54.2" target-x="46.7" target-y="101.9"></path><path d="M 74.40 146.50 L 74.20 146.20 L 71.80 146.60 L 70.20 146.40 L 67.50 145.30 L 65.50 144.10 L 65.60 149.30 L 67.70 150.20 L 72.00 151.00 L 77.90 150.80 L 82.00 149.30 L 82.10 144.10 L 80.20 145.30 L 77.50 146.40 L 74.40 146.50 Z" fill="#e02c4f" fill-rule="nonzero" group-id="1" node-id="212" stroke="none" target-height="6.899994" target-width="16.599998" target-x="65.5" target-y="144.1"></path><path d="M 72.50 163.90 L 72.50 166.10 L 76.40 166.10 L 79.90 164.80 L 81.50 163.60 L 83.00 161.60 L 84.40 159.00 L 85.50 155.70 L 86.20 151.50 L 86.50 142.30 L 85.90 135.40 L 86.80 134.10 L 90.50 130.40 L 96.10 125.70 L 102.80 120.70 L 101.00 116.60 L 91.00 124.10 L 85.40 129.20 L 83.10 131.70 L 81.80 133.80 L 81.40 135.10 L 82.10 144.10 L 82.00 149.30 L 80.90 155.70 L 80.20 157.60 L 78.40 160.40 L 75.80 161.80 L 72.80 161.70 Z" fill="#8ca2b1" fill-rule="nonzero" group-id="1" node-id="214" stroke="none" target-height="49.500008" target-width="30.300003" target-x="72.5" target-y="116.6"></path><path d="M 95.70 105.90 L 73.60 119.00" fill="none" group-id="1" node-id="216" stroke="#8ca2b1" stroke-linecap="butt" stroke-width="2.85" target-height="13.099998" target-width="22.099998" target-x="73.6" target-y="105.9"></path><path d="M 98.90 158.00 L 98.90 157.70" fill="none" group-id="1" node-id="218" stroke="#8ca2b1" stroke-linecap="butt" stroke-width="1.55" target-height="0.30000305" target-width="0" target-x="98.9" target-y="157.7"></path><path d="M 72.50 175.50 L 80.40 172.90 L 86.60 169.60 L 89.50 167.50 L 92.10 165.00 L 95.60 160.30 L 97.10 158.80 L 99.00 157.70 L 102.00 156.50 L 105.00 155.80 L 110.70 155.50 L 110.50 152.00 L 104.00 152.40 L 99.20 153.70 L 96.90 154.80 L 94.70 156.20 L 92.80 158.00 L 89.60 162.40 L 85.70 166.00 L 82.30 168.10 L 78.80 169.70 L 72.50 171.90 L 72.50 175.50 Z" fill="#84949e" fill-rule="nonzero" group-id="1" node-id="220" stroke="none" target-height="23.5" target-width="38.199997" target-x="72.5" target-y="152"></path><g node-id="376"><path d="M 113.60 162.50 L 79.40 168.70 L 77.80 159.80 L 112.00 153.70 Z" fill="#474747" fill-rule="nonzero" group-id="1,3" node-id="224" stroke="#8da2b0" stroke-linecap="butt" stroke-width="1.04" target-height="15" target-width="35.799995" target-x="77.8" target-y="153.7"></path></g><path d="M 80.90 165.10 L 80.60 167.30 L 79.80 169.20 L 78.60 170.80 L 76.90 172.10 L 75.00 172.90 L 72.80 173.20 L 70.70 172.90 L 68.70 172.10 L 67.10 170.80 L 65.80 169.20 L 65.00 167.30 L 64.70 165.10 L 65.00 162.90 L 65.80 161.00 L 67.10 159.40 L 68.70 158.10 L 70.70 157.30 L 72.80 157.00 L 75.00 157.30 L 76.90 158.10 L 78.60 159.40 L 79.80 161.00 L 80.60 162.90 L 80.90 165.10 Z" fill="#474747" fill-rule="nonzero" group-id="1" node-id="227" stroke="none" target-height="16.199997" target-width="16.200005" target-x="64.7" target-y="157"></path><path d="M 77.80 165.10 L 77.60 166.50 L 76.40 168.60 L 74.20 169.90 L 72.80 170.10 L 70.30 169.40 L 68.50 167.60 L 68.00 166.50 L 67.80 165.10 L 68.50 162.60 L 70.30 160.80 L 72.80 160.10 L 74.20 160.30 L 76.40 161.60 L 77.60 163.70 L 77.80 165.10 Z" fill="#ac1d33" fill-rule="nonzero" group-id="1" node-id="229" stroke="none" target-height="10" target-width="10" target-x="67.8" target-y="160.1"></path><g node-id="377"><path d="M 115.30 165.10 L 108.20 165.10 L 108.20 149.30 L 115.30 149.30 Z" fill="#474747" fill-rule="nonzero" group-id="1,4" node-id="233" stroke="none" target-height="15.800003" target-width="7.100006" target-x="108.2" target-y="149.3"></path></g><path d="M 74.10 120.20 L 74.10 128.70" fill="none" group-id="1" node-id="236" stroke="none" target-height="8.5" target-width="0" target-x="74.1" target-y="120.2"></path><path d="M 74.80 121.00 L 76.60 120.80 L 78.10 120.20 L 79.40 119.20 L 80.40 117.90 L 81.00 116.40 L 81.30 114.70 L 81.10 113.00 L 80.50 111.50 L 79.50 110.20 L 78.20 109.10 L 76.70 108.50 L 75.00 108.20" fill="none" group-id="1" node-id="238" stroke="none" target-height="12.800003" target-width="6.5" target-x="74.8" target-y="108.2"></path><path d="M 74.80 91.30 L 74.80 15.80 L 47.80 15.80 L 55.30 66.60 M 39.90 14.70 L 39.80 13.60 L 43.10 10.50 L 46.60 7.80 M 44.50 45.30 L 40.90 21.00 M 47.60 66.50 L 47.20 63.70" fill="none" group-id="1" node-id="240" stroke="none" target-height="83.5" target-width="35.000004" target-x="39.8" target-y="7.8"></path><path d="M 74.80 91.30 L 74.80 120.40 L 66.80 120.10 L 63.00 119.60 L 55.80 117.50 L 48.90 114.20 L 51.80 113.20 L 53.90 111.10 L 54.90 108.30 L 54.50 105.30 L 57.10 102.50 L 63.60 97.50 L 74.80 91.30 Z" fill="#627177" fill-rule="nonzero" group-id="1" node-id="242" stroke="none" target-height="29.099998" target-width="25.900002" target-x="48.9" target-y="91.3"></path><path d="M 74.80 0.10 L 74.80 1.60 L 70.20 2.00 L 65.80 2.90 L 61.50 4.40 L 57.40 6.30 L 53.60 8.80 L 50.00 11.70 L 47.20 11.70 L 46.60 7.80 L 50.40 5.50 L 54.40 3.60 L 58.50 2.10 L 62.70 1.00 L 67.00 0.40 L 71.50 0.10 Z" fill="#748289" fill-rule="nonzero" group-id="1" node-id="244" stroke="none" target-height="11.599999" target-width="28.200005" target-x="46.6" target-y="0.1"></path><path d="M 74.80 88.00 L 74.80 91.30 L 63.60 97.50 L 57.10 102.50 L 54.50 105.30 L 52.80 102.70 L 50.20 101.20 L 47.10 101.10 L 44.30 102.30 L 42.40 104.60 L 41.90 106.00 L 41.90 108.90 L 38.50 105.60 L 35.60 102.00 L 33.20 98.20 L 31.10 94.10 L 29.40 89.80 L 28.20 85.40 L 27.50 80.90 L 27.30 76.20 L 27.50 40.00 L 28.10 35.80 L 29.10 31.70 L 30.50 27.70 L 32.30 23.90 L 34.40 20.30 L 36.90 16.80 L 39.80 13.60 L 39.90 14.70 L 37.50 16.90 L 35.40 19.70 L 32.20 25.80 L 30.30 31.80 L 29.10 38.10 L 40.90 21.00 L 41.20 23.00 L 38.90 28.00 L 37.20 33.10 L 36.20 38.30 L 35.80 43.70 L 35.90 49.00 L 36.70 54.20 L 38.10 59.40 L 40.10 64.40 L 42.70 69.20 L 35.70 77.10 L 36.20 80.70 L 37.00 83.70 L 38.00 86.00 L 40.80 90.00 L 44.90 93.00 L 49.60 94.60 L 52.90 95.00 L 65.30 86.60 L 70.00 87.60 L 74.80 88.00 Z" fill="#748289" fill-rule="nonzero" group-id="1" node-id="246" stroke="none" target-height="95.3" target-width="47.500004" target-x="27.3" target-y="13.6"></path><path d="M 74.80 128.90 L 74.80 120.40" fill="none" group-id="1" node-id="248" stroke="none" target-height="8.499992" target-width="0" target-x="74.8" target-y="120.4"></path><path d="M 74.80 15.80 L 74.80 11.70" fill="none" group-id="1" node-id="250" stroke="none" target-height="4.1000004" target-width="0" target-x="74.8" target-y="11.7"></path><path d="M 55.30 66.50 L 47.60 66.50" fill="none" group-id="1" node-id="252" stroke="none" target-height="0" target-width="7.700001" target-x="47.6" target-y="66.5"></path><path d="M 55.30 66.50 L 47.60 66.50 L 39.80 13.60 L 43.10 10.50 L 46.70 7.80 L 50.20 31.80 Z" fill="#de3168" fill-rule="nonzero" group-id="1" node-id="254" stroke="none" target-height="58.7" target-width="15.5" target-x="39.8" target-y="7.8"></path><path d="M 74.80 100.60 L 74.80 128.90 L 71.80 128.50 L 69.10 127.60 L 66.50 126.20 L 64.40 124.30 L 62.60 121.90 L 61.40 119.20 L 60.70 114.70 L 60.90 112.20 L 61.60 109.80 L 62.60 107.60 L 64.00 105.60 L 65.70 103.90 L 67.70 102.50 L 69.90 101.50 L 72.20 100.80 L 74.80 100.60 Z" fill="#6c8097" fill-rule="nonzero" group-id="1" node-id="256" stroke="none" target-height="28.299995" target-width="14.100002" target-x="60.7" target-y="100.6"></path><path d="M 74.10 121.10 L 72.30 120.90 L 70.80 120.30 L 69.50 119.30 L 68.50 118.00 L 67.90 116.50 L 67.60 114.80 L 67.80 113.10 L 68.40 111.60 L 69.40 110.30 L 70.70 109.30 L 72.20 108.60 L 73.90 108.40" fill="none" group-id="1" node-id="258" stroke="none" target-height="12.699997" target-width="6.5" target-x="67.6" target-y="108.4"></path><path d="M 71.50 121.60 L 69.70 121.30 L 68.20 120.70 L 66.80 119.70 L 65.80 118.30 L 65.10 116.80 L 64.80 115.00 L 65.10 113.20 L 65.70 111.70 L 66.70 110.30 L 68.00 109.30 L 69.60 108.60 L 71.40 108.40 L 71.40 110.90 L 69.80 111.30 L 68.60 112.10 L 67.80 113.40 L 67.50 115.00 L 67.80 116.50 L 68.70 117.80 L 69.90 118.60 L 71.50 118.90 Z" fill="#2d3a4a" fill-rule="nonzero" group-id="1" node-id="260" stroke="none" target-height="13.199997" target-width="6.699997" target-x="64.8" target-y="108.4"></path><path d="M 45.20 11.70 L 75.70 11.70 L 75.70 15.80 L 45.20 15.80 Z" fill="#4d5f66" fill-rule="nonzero" group-id="1" node-id="262" stroke="none" target-height="4.1000004" target-width="30.499996" target-x="45.2" target-y="11.7"></path><path d="M 40.90 21.00 L 29.10 38.10 L 31.10 28.90 L 33.70 22.70 L 35.40 19.70 L 37.50 16.90 L 39.90 14.70 Z" fill="#748289" fill-rule="nonzero" group-id="1" node-id="264" stroke="none" target-height="23.399998" target-width="11.800001" target-x="29.1" target-y="14.7"></path><path d="M 42.00 19.30 L 40.90 21.00 L 39.90 14.70 L 41.40 13.70 Z" fill="#de3168" fill-rule="nonzero" group-id="1" node-id="266" stroke="none" target-height="7.3" target-width="2.0999985" target-x="39.9" target-y="13.7"></path><path d="M 18.10 37.00 L 18.10 50.20 L 13.60 48.50 L 12.90 40.00 L 18.10 37.00 Z" fill="#b82253" fill-rule="nonzero" group-id="1" node-id="268" stroke="none" target-height="13.200001" target-width="5.200001" target-x="12.9" target-y="37"></path><path d="M 74.80 19.50 L 74.80 81.00 L 70.10 80.70 L 70.10 75.80 L 55.70 66.50 L 55.30 66.50 L 50.20 31.80 L 52.60 29.00 L 55.10 26.60 L 58.00 24.50 L 61.00 22.70 L 64.30 21.30 L 67.70 20.30 L 71.20 19.70 L 74.80 19.50 Z" fill="#afcad7" fill-rule="nonzero" group-id="1" node-id="270" stroke="none" target-height="61.5" target-width="24.600002" target-x="50.2" target-y="19.5"></path><path d="M 47.20 63.70 L 45.80 60.50 L 44.20 53.70 L 44.00 50.20 L 44.50 45.30 Z" fill="#90a0ac" fill-rule="nonzero" group-id="1" node-id="272" stroke="none" target-height="18.400002" target-width="3.2000008" target-x="44" target-y="45.3"></path><path d="M 44.50 45.30 L 45.30 41.70 L 46.50 38.20 L 48.20 34.90 L 50.20 31.80" fill="none" group-id="1" node-id="274" stroke="none" target-height="13.5" target-width="5.700001" target-x="44.5" target-y="31.8"></path><path d="M 48.70 66.50 L 47.20 63.70" fill="none" group-id="1" node-id="276" stroke="none" target-height="2.7999992" target-width="1.5" target-x="47.2" target-y="63.7"></path><path d="M 47.60 66.50 L 45.10 66.50 L 42.70 69.20 L 40.10 64.50 L 38.20 59.70 L 36.80 54.60 L 36.00 49.50 L 35.70 44.30 L 36.10 39.10 L 37.00 34.00 L 38.50 28.90 L 41.20 23.00 L 44.40 45.30 L 44.00 50.20 L 44.20 53.70 L 45.80 60.40 L 47.20 63.70 Z" fill="#84949e" fill-rule="nonzero" group-id="1" node-id="278" stroke="none" target-height="46.199997" target-width="11.899998" target-x="35.7" target-y="23"></path><path d="M 74.80 15.80 L 74.80 19.50 L 71.20 19.70 L 67.70 20.30 L 64.30 21.30 L 61.00 22.70 L 58.00 24.50 L 55.10 26.60 L 52.60 29.00 L 50.20 31.80 L 47.80 15.80 Z" fill="#9aadb5" fill-rule="nonzero" group-id="1" node-id="280" stroke="none" target-height="15.999999" target-width="27.000004" target-x="47.8" target-y="15.8"></path><path d="M 74.80 1.60 L 74.80 11.70 L 50.00 11.70 L 53.60 8.80 L 57.40 6.30 L 61.50 4.40 L 65.80 2.90 L 70.20 2.00 L 74.80 1.60 Z" fill="#afcad7" fill-rule="nonzero" group-id="1" node-id="282" stroke="none" target-height="10.099999" target-width="24.800003" target-x="50" target-y="1.6"></path><path d="M 41.20 23.00 L 43.40 19.30 L 46.00 15.80 L 49.90 11.70" fill="none" group-id="1" node-id="284" stroke="none" target-height="11.3" target-width="8.700001" target-x="41.2" target-y="11.7"></path><path d="M 74.80 81.00 L 74.80 88.00 L 70.00 87.60 L 65.30 86.60 L 70.10 83.30 L 70.10 80.60 L 74.80 81.00 Z" fill="#84949e" fill-rule="nonzero" group-id="1" node-id="286" stroke="none" target-height="7.4000015" target-width="9.5" target-x="65.3" target-y="80.6"></path><path d="M 36.00 116.70 L 33.40 116.50 L 31.00 116.00 L 28.60 115.00 L 26.40 113.70 L 24.30 111.90 L 22.40 109.70 L 20.80 107.20 L 19.00 103.10 L 17.60 98.60 L 16.00 89.30 L 15.70 80.70 L 16.10 71.30 L 20.10 71.80 L 19.60 82.70 L 20.40 92.20 L 22.30 100.70 L 23.80 104.50 L 25.20 106.90 L 26.80 108.90 L 28.70 110.50 L 30.90 111.70 L 33.30 112.50 L 36.10 112.70 L 39.30 112.40 L 43.10 111.40 L 47.50 109.70 L 49.20 113.30 L 44.20 115.30 L 39.80 116.40 L 36.00 116.70 Z" fill="#a3b5d6" fill-rule="nonzero" group-id="1" node-id="288" stroke="none" target-height="45.399994" target-width="33.5" target-x="15.7" target-y="71.3"></path><path d="M 54.80 105.20 L 54.10 103.70 L 51.70 101.50 L 48.70 100.50 L 47.00 100.60 L 45.40 101.10 L 42.80 103.10 L 41.40 105.90 L 41.40 109.10 L 42.70 112.00 L 45.10 113.90 L 48.30 114.70 L 50.60 114.30 L 52.10 113.50 L 53.40 112.40 L 54.40 111.00 L 55.00 109.40 L 55.30 107.70 L 54.80 105.20 Z M 48.30 111.80 L 46.60 111.40 L 45.30 110.60 L 44.40 109.30 L 44.10 107.60 L 44.40 106.00 L 45.30 104.70 L 46.60 103.80 L 48.30 103.50 L 49.90 103.80 L 51.20 104.70 L 52.10 106.00 L 52.40 107.60 L 52.10 109.30 L 51.20 110.60 L 49.90 111.40 L 48.30 111.80 Z" fill="#a2b4c4" fill-rule="nonzero" group-id="1" node-id="290" stroke="none" target-height="14.199997" target-width="13.899998" target-x="41.4" target-y="100.5"></path><path d="M 52.40 107.60 L 52.10 109.30 L 51.20 110.60 L 49.90 111.40 L 48.30 111.80 L 46.60 111.40 L 45.30 110.60 L 44.40 109.30 L 44.10 107.60 L 44.40 106.00 L 45.30 104.70 L 46.60 103.80 L 48.30 103.50 L 49.90 103.80 L 51.20 104.70 L 52.10 106.00 L 52.40 107.60 Z" fill="#8ca2b1" fill-rule="nonzero" group-id="1" node-id="292" stroke="none" target-height="8.300003" target-width="8.300003" target-x="44.1" target-y="103.5"></path><path d="M 27.20 75.90 L 22.70 76.40 L 18.40 75.70 L 16.20 74.80 L 14.10 73.30 L 12.90 72.00 L 10.80 68.10 L 9.90 65.20 L 9.00 59.00 L 9.00 54.40 L 9.70 46.30 L 10.80 40.90 L 12.90 39.70 L 13.60 48.20 L 18.10 49.90 L 18.10 36.70 L 20.10 8.40 L 22.70 8.40 L 22.70 33.20 L 27.30 37.20 Z" fill="#a3b6c1" fill-rule="nonzero" group-id="1" node-id="294" stroke="none" target-height="68" target-width="18.3" target-x="9" target-y="8.4"></path><path d="M 47.30 67.60 L 44.80 67.60 L 35.40 78.20 L 35.90 81.80 L 36.70 84.80 L 37.70 87.10 L 39.10 89.30 L 42.10 92.40 L 44.60 94.10 L 47.00 95.10 L 49.30 95.70 L 52.70 96.10 L 69.80 84.40 L 69.80 76.90 L 55.10 67.60 Z" fill="#c82653" fill-rule="nonzero" group-id="1" node-id="296" stroke="#253441" stroke-linecap="butt" stroke-width="1.55" target-height="28.5" target-width="34.4" target-x="35.4" target-y="67.6"></path><path d="M 59.90 83.00 L 54.00 83.60 L 47.50 82.90 L 42.10 81.10 L 38.00 78.40 L 46.20 69.10 L 52.30 69.10 L 53.40 72.70 L 54.90 76.00 L 56.80 79.20 L 59.90 83.00 Z" fill="#e1305d" fill-rule="nonzero" group-id="1" node-id="298" stroke="none" target-height="14.5" target-width="21.900002" target-x="38" target-y="69.1"></path><path d="M 45.20 11.70 L 45.20 15.80 L 27.30 48.00 L 27.30 39.30 L 45.20 11.70 Z" fill="#4d5f66" fill-rule="nonzero" group-id="1" node-id="300" stroke="none" target-height="36.3" target-width="17.900002" target-x="27.3" target-y="11.7"></path><path d="M 68.20 79.80 L 68.20 83.90 L 64.10 86.70 L 59.90 83.00 L 65.60 81.20 L 68.20 79.80 Z" fill="#ac1d33" fill-rule="nonzero" group-id="1" node-id="302" stroke="none" target-height="6.899994" target-width="8.299995" target-x="59.9" target-y="79.8"></path><path d="M 68.20 77.30 L 68.20 79.80 L 65.60 81.20 L 59.90 83.00 L 56.90 79.20 L 54.90 76.00 L 53.40 72.70 L 52.40 69.10 L 55.30 69.10 Z" fill="#d81c42" fill-rule="nonzero" group-id="1" node-id="304" stroke="none" target-height="13.900002" target-width="15.799995" target-x="52.4" target-y="69.1"></path><path d="M 42.60 80.70 L 42.50 81.50 L 41.80 82.40 L 40.70 82.40 L 39.90 81.50 L 39.90 80.00 L 40.70 79.00 L 41.80 79.00 L 42.50 80.00 L 42.60 80.70 Z" fill="#f8fcfa" fill-rule="nonzero" group-id="1" node-id="306" stroke="none" target-height="3.4000015" target-width="2.699997" target-x="39.9" target-y="79"></path><path d="M 42.90 77.00 L 42.50 77.70 L 41.70 78.00 L 40.50 77.40 L 40.80 76.30 L 41.70 76.00 L 42.50 76.30 L 42.90 77.00 Z" fill="#f8fcfa" fill-rule="nonzero" group-id="1" node-id="308" stroke="none" target-height="2" target-width="2.4000015" target-x="40.5" target-y="76"></path><path d="M 93.60 66.40 L 101.10 15.70 L 74.10 15.70 L 74.10 91.10 M 102.30 7.70 L 105.80 10.40 L 109.10 13.50 L 109.00 14.60 M 108.00 20.90 L 104.40 45.20 M 101.70 63.60 L 101.30 66.50" fill="none" group-id="1" node-id="310" stroke="none" target-height="83.4" target-width="35" target-x="74.1" target-y="7.7"></path><path d="M 74.10 91.10 L 74.10 120.20 L 82.10 120.00 L 85.90 119.40 L 93.20 117.30 L 100.00 114.00 L 96.90 112.90 L 94.80 110.60 L 94.00 107.40 L 94.40 105.10 L 91.90 102.40 L 85.30 97.30 L 74.10 91.10 Z" fill="#627177" fill-rule="nonzero" group-id="1" node-id="312" stroke="none" target-height="29.099998" target-width="25.900002" target-x="74.1" target-y="91.1"></path><path d="M 74.10 0.00 L 74.10 1.50 L 78.70 1.90 L 83.10 2.80 L 87.40 4.20 L 91.50 6.20 L 95.40 8.60 L 98.90 11.60 L 101.70 11.60 L 102.30 7.70 L 98.50 5.40 L 94.50 3.50 L 90.40 2.00 L 86.20 0.90 L 81.90 0.20 L 77.40 0.00 Z" fill="#748289" fill-rule="nonzero" group-id="1" node-id="314" stroke="none" target-height="11.6" target-width="28.200005" target-x="74.1" target-y="0"></path><path d="M 74.10 87.80 L 74.10 91.10 L 85.30 97.30 L 91.80 102.40 L 94.40 105.10 L 96.10 102.60 L 98.70 101.10 L 101.80 100.90 L 104.60 102.10 L 106.50 104.40 L 107.00 105.80 L 107.00 108.80 L 110.40 105.40 L 113.30 101.90 L 115.70 98.00 L 117.80 93.90 L 119.50 89.60 L 120.70 85.20 L 121.40 80.70 L 121.70 76.00 L 121.40 39.90 L 120.80 35.70 L 119.80 31.60 L 118.40 27.60 L 116.60 23.80 L 114.50 20.10 L 112.00 16.70 L 109.10 13.50 L 109.00 14.60 L 111.40 16.80 L 113.50 19.50 L 116.60 25.70 L 118.60 31.60 L 119.80 38.00 L 108.00 20.90 L 107.70 22.80 L 110.00 27.90 L 111.60 33.00 L 112.70 38.20 L 113.10 43.50 L 112.90 48.80 L 112.10 54.10 L 110.70 59.20 L 108.80 64.20 L 106.10 69.10 L 113.10 77.00 L 112.70 80.60 L 111.90 83.50 L 110.90 85.90 L 108.10 89.80 L 104.00 92.80 L 99.30 94.50 L 96.00 94.90 L 83.60 86.40 L 78.90 87.40 L 74.10 87.80 Z" fill="#748289" fill-rule="nonzero" group-id="1" node-id="316" stroke="none" target-height="95.3" target-width="47.6" target-x="74.1" target-y="13.5"></path><path d="M 74.10 11.60 L 74.10 15.70" fill="none" group-id="1" node-id="318" stroke="none" target-height="4.0999994" target-width="0" target-x="74.1" target-y="11.6"></path><path d="M 101.30 66.40 L 93.60 66.40" fill="none" group-id="1" node-id="320" stroke="none" target-height="0" target-width="7.7000046" target-x="93.6" target-y="66.4"></path><path d="M 93.60 66.40 L 101.30 66.40 L 107.70 23.00 L 109.10 13.60 L 105.80 10.50 L 102.20 7.80 L 98.70 31.70 Z" fill="#de3168" fill-rule="nonzero" group-id="1" node-id="322" stroke="none" target-height="58.600002" target-width="15.5" target-x="93.6" target-y="7.8"></path><path d="M 74.10 100.50 L 74.10 128.70 L 77.10 128.40 L 79.80 127.50 L 82.40 126.10 L 84.50 124.10 L 86.20 121.80 L 87.50 119.10 L 88.20 114.60 L 88.00 112.00 L 87.30 109.70 L 86.30 107.50 L 84.90 105.50 L 83.20 103.80 L 81.20 102.40 L 79.00 101.40 L 76.70 100.70 L 74.10 100.50 Z" fill="#6c8097" fill-rule="nonzero" group-id="1" node-id="324" stroke="none" target-height="28.199997" target-width="14.099998" target-x="74.1" target-y="100.5"></path><path d="M 77.40 121.40 L 79.20 121.20 L 80.70 120.60 L 82.10 119.50 L 83.10 118.20 L 83.80 116.70 L 84.10 114.90 L 83.80 113.10 L 83.20 111.60 L 82.20 110.20 L 80.90 109.20 L 79.30 108.50 L 77.50 108.20 L 77.50 110.80 L 79.00 111.10 L 80.30 112.00 L 81.10 113.30 L 81.40 114.80 L 81.10 116.40 L 80.20 117.70 L 79.00 118.50 L 77.40 118.80 Z" fill="#2d3a4a" fill-rule="nonzero" group-id="1" node-id="326" stroke="none" target-height="13.200005" target-width="6.699997" target-x="77.4" target-y="108.2"></path><path d="M 73.20 11.60 L 103.70 11.60 L 103.70 15.70 L 73.20 15.70 Z" fill="#4d5f66" fill-rule="nonzero" group-id="1" node-id="328" stroke="none" target-height="4.0999994" target-width="30.5" target-x="73.2" target-y="11.6"></path><path d="M 108.00 20.90 L 119.80 38.00 L 117.80 28.80 L 115.20 22.60 L 113.50 19.60 L 111.40 16.80 L 109.00 14.60 Z" fill="#748289" fill-rule="nonzero" group-id="1" node-id="330" stroke="none" target-height="23.4" target-width="11.800003" target-x="108" target-y="14.6"></path><path d="M 130.80 36.80 L 130.80 50.10 L 135.30 48.30 L 136.00 39.80 L 130.80 36.80 Z" fill="#b82253" fill-rule="nonzero" group-id="1" node-id="332" stroke="none" target-height="13.299999" target-width="5.199997" target-x="130.8" target-y="36.8"></path><path d="M 74.10 19.30 L 74.10 80.80 L 78.80 80.50 L 78.80 75.70 L 93.20 66.40 L 93.60 66.40 L 98.70 31.70 L 96.30 28.90 L 93.80 26.40 L 90.90 24.30 L 87.90 22.60 L 84.60 21.20 L 81.20 20.20 L 77.70 19.60 L 74.10 19.30 Z" fill="#afcad7" fill-rule="nonzero" group-id="1" node-id="334" stroke="none" target-height="61.500004" target-width="24.599998" target-x="74.1" target-y="19.3"></path><path d="M 101.70 63.60 L 103.10 60.30 L 104.60 53.60 L 104.80 50.10 L 104.50 45.10 Z" fill="#afcad7" fill-rule="nonzero" group-id="1" node-id="336" stroke="none" target-height="18.5" target-width="3.100006" target-x="101.7" target-y="45.1"></path><path d="M 98.70 31.70 L 100.70 34.70 L 102.40 38.00 L 103.60 41.50 L 104.50 45.10" fill="none" group-id="1" node-id="338" stroke="none" target-height="13.399998" target-width="5.800003" target-x="98.7" target-y="31.7"></path><path d="M 101.70 63.60 L 100.20 66.40" fill="none" group-id="1" node-id="340" stroke="none" target-height="2.800003" target-width="1.5" target-x="100.2" target-y="63.6"></path><path d="M 101.30 66.40 L 103.80 66.40 L 106.20 69.10 L 108.70 64.40 L 110.70 59.50 L 112.10 54.50 L 112.90 49.30 L 113.10 44.20 L 112.80 39.00 L 111.90 33.80 L 110.40 28.80 L 107.70 22.90 L 104.50 45.20 L 104.90 50.10 L 104.70 53.70 L 103.10 60.40 L 101.70 63.60 Z" fill="#9aadb5" fill-rule="nonzero" group-id="1" node-id="342" stroke="none" target-height="46.199997" target-width="11.799995" target-x="101.3" target-y="22.9"></path><path d="M 74.10 15.70 L 74.10 19.30 L 77.70 19.60 L 81.20 20.20 L 84.60 21.20 L 87.90 22.60 L 90.90 24.30 L 93.80 26.40 L 96.30 28.90 L 98.70 31.70 L 101.10 15.70 Z" fill="#9aadb5" fill-rule="nonzero" group-id="1" node-id="344" stroke="none" target-height="16" target-width="27" target-x="74.1" target-y="15.7"></path><path d="M 74.10 1.50 L 74.10 11.60 L 98.90 11.60 L 95.40 8.60 L 91.50 6.20 L 87.40 4.20 L 83.10 2.80 L 78.70 1.90 L 74.10 1.50 Z" fill="#afcad7" fill-rule="nonzero" group-id="1" node-id="346" stroke="none" target-height="10.1" target-width="24.800003" target-x="74.1" target-y="1.5"></path><path d="M 98.90 11.60 L 102.90 15.70 L 105.50 19.10 L 107.70 22.90" fill="none" group-id="1" node-id="348" stroke="none" target-height="11.299999" target-width="8.799995" target-x="98.9" target-y="11.6"></path><path d="M 74.10 80.80 L 74.10 87.80 L 78.90 87.40 L 83.60 86.40 L 78.80 83.20 L 78.80 80.50 L 74.10 80.80 Z" fill="#84949e" fill-rule="nonzero" group-id="1" node-id="350" stroke="none" target-height="7.300003" target-width="9.5" target-x="74.1" target-y="80.5"></path><path d="M 112.90 116.60 L 115.50 116.40 L 118.00 115.90 L 120.30 114.90 L 122.60 113.60 L 124.70 111.70 L 126.50 109.60 L 128.10 107.10 L 130.00 103.00 L 131.40 98.50 L 132.90 89.20 L 133.30 80.50 L 132.80 71.20 L 128.80 71.60 L 129.30 82.60 L 128.60 92.10 L 126.70 100.50 L 125.10 104.40 L 123.70 106.80 L 122.10 108.70 L 120.30 110.40 L 118.10 111.60 L 115.60 112.40 L 112.80 112.60 L 109.60 112.30 L 105.80 111.30 L 101.40 109.50 L 99.80 113.10 L 106.20 115.60 L 112.90 116.60 Z" fill="#a3b5d6" fill-rule="nonzero" group-id="1" node-id="352" stroke="none" target-height="45.4" target-width="33.5" target-x="99.8" target-y="71.2"></path><path d="M 93.60 107.50 L 93.90 109.30 L 94.50 110.90 L 95.50 112.20 L 96.70 113.40 L 98.20 114.10 L 100.60 114.50 L 102.30 114.30 L 105.10 112.90 L 107.00 110.50 L 107.70 107.50 L 106.90 104.30 L 104.90 101.80 L 101.90 100.50 L 100.20 100.40 L 98.60 100.70 L 95.90 102.30 L 94.10 105.00 L 93.60 107.50 Z M 96.50 107.50 L 96.70 106.30 L 98.00 104.30 L 100.30 103.40 L 102.60 103.80 L 103.60 104.60 L 104.70 106.70 L 104.50 109.10 L 103.80 110.10 L 101.90 111.50 L 100.60 111.60 L 99.00 111.30 L 97.70 110.40 L 96.80 109.10 L 96.50 107.50 Z" fill="#a2b4c4" fill-rule="nonzero" group-id="1" node-id="354" stroke="none" target-height="14.099998" target-width="14.099998" target-x="93.6" target-y="100.4"></path><path d="M 96.50 107.50 L 96.70 108.70 L 98.00 110.70 L 100.30 111.60 L 102.60 111.20 L 103.60 110.40 L 104.70 108.30 L 104.50 105.90 L 103.80 104.90 L 101.90 103.50 L 100.60 103.40 L 99.00 103.70 L 97.70 104.60 L 96.80 105.90 L 96.50 107.50 Z" fill="#8ca2b1" fill-rule="nonzero" group-id="1" node-id="356" stroke="none" target-height="8.199997" target-width="8.199997" target-x="96.5" target-y="103.4"></path><path d="M 121.70 75.70 L 126.20 76.30 L 130.50 75.60 L 132.70 74.70 L 134.80 73.20 L 136.00 71.90 L 138.10 68.00 L 139.00 65.10 L 139.90 59.00 L 139.90 54.30 L 139.20 46.20 L 138.10 40.80 L 136.00 39.50 L 135.30 48.00 L 130.80 49.80 L 130.80 36.60 L 128.80 8.30 L 126.20 8.30 L 126.20 33.00 L 121.60 37.00 Z" fill="#a3b6c1" fill-rule="nonzero" group-id="1" node-id="358" stroke="none" target-height="68" target-width="18.299995" target-x="121.6" target-y="8.3"></path><path d="M 93.80 67.50 L 79.10 76.80 L 79.10 84.30 L 96.30 96.00 L 99.60 95.60 L 101.90 95.00 L 104.30 94.00 L 108.30 91.00 L 111.10 87.00 L 112.20 84.70 L 112.90 81.70 L 113.40 78.10 L 104.00 67.50 L 93.80 67.50 Z" fill="#c82653" fill-rule="nonzero" group-id="1" node-id="360" stroke="#253441" stroke-linecap="butt" stroke-width="1.55" target-height="28.5" target-width="34.300003" target-x="79.1" target-y="67.5"></path><path d="M 102.50 82.90 L 96.60 83.50 L 90.80 82.80 L 85.30 80.70 L 80.40 77.50 L 94.20 68.80 L 95.70 68.80 L 97.00 73.90 L 98.00 76.50 L 99.50 79.10 L 102.50 82.90 Z" fill="#e1305d" fill-rule="nonzero" group-id="1" node-id="362" stroke="none" target-height="14.699997" target-width="22.099998" target-x="80.4" target-y="68.8"></path><path d="M 103.70 11.60 L 103.70 15.70 L 121.60 47.90 L 121.60 39.20 L 103.70 11.60 Z" fill="#4d5f66" fill-rule="nonzero" group-id="1" node-id="364" stroke="none" target-height="36.300003" target-width="17.900002" target-x="103.7" target-y="11.6"></path><path d="M 111.90 80.10 L 111.10 84.20 L 106.80 86.60 L 102.50 82.90 L 107.60 81.80 L 111.90 80.10 Z" fill="#ac1d33" fill-rule="nonzero" group-id="1" node-id="366" stroke="none" target-height="6.5" target-width="9.400002" target-x="102.5" target-y="80.1"></path><path d="M 111.90 78.50 L 111.90 80.10 L 110.00 81.10 L 102.50 82.90 L 100.20 79.60 L 98.30 76.20 L 96.80 72.60 L 95.70 68.90 L 103.50 68.90 Z" fill="#d81c42" fill-rule="nonzero" group-id="1" node-id="368" stroke="none" target-height="14" target-width="16.200005" target-x="95.7" target-y="68.9"></path><path d="M 88.00 81.20 L 87.80 82.00 L 87.10 82.90 L 86.00 82.90 L 85.20 82.00 L 85.20 80.50 L 86.00 79.50 L 87.10 79.50 L 87.80 80.50 L 88.00 81.20 Z" fill="#f8fcfa" fill-rule="nonzero" group-id="1" node-id="370" stroke="none" target-height="3.4000015" target-width="2.800003" target-x="85.2" target-y="79.5"></path><path d="M 87.30 77.50 L 86.90 78.20 L 86.10 78.50 L 85.20 78.20 L 84.80 77.50 L 85.20 76.80 L 86.10 76.50 L 86.90 76.80 L 87.30 77.50 Z" fill="#f8fcfa" fill-rule="nonzero" group-id="1" node-id="372" stroke="none" target-height="2" target-width="2.5" target-x="84.8" target-y="76.5"></path></g></svg>