<?xml version="1.0" standalone="no"?><!DOCTYPE svg PUBLIC "-//W3C//DTD SVG 1.1//EN" "http://www.w3.org/Graphics/SVG/1.1/DTD/svg11.dtd"><svg height="1024" node-id="1" sillyvg="true" template-height="1024" template-width="1024" version="1.1" viewBox="0 0 1024 1024" width="1024" xmlns="http://www.w3.org/2000/svg" xmlns:xlink="http://www.w3.org/1999/xlink"><defs node-id="68"><linearGradient gradientUnits="objectBoundingBox" id="linearGradient-8" node-id="24" spreadMethod="pad" x1="0.5" x2="-0.35895714" y1="0.6110832" y2="0.33673027"><stop offset="0" stop-color="#a1c5fd"></stop><stop offset="1" stop-color="#639bff"></stop></linearGradient><linearGradient gradientUnits="objectBoundingBox" id="linearGradient-11" node-id="28" spreadMethod="pad" x1="0.6624359" x2="0.2557004" y1="0.5487473" y2="0.6483214"><stop offset="0" stop-color="#c2dafe"></stop><stop offset="1" stop-color="#639bff"></stop></linearGradient><linearGradient gradientUnits="objectBoundingBox" id="linearGradient-12" node-id="31" spreadMethod="pad" x1="0" x2="0.9402231" y1="0.5" y2="0.5"><stop offset="0" stop-color="#e0eaff"></stop><stop offset="1" stop-color="#639bff"></stop></linearGradient><linearGradient gradientUnits="objectBoundingBox" id="linearGradient-13" node-id="34" spreadMethod="pad" x1="0.5" x2="0.5" y1="0" y2="1"><stop offset="0" stop-color="#9cbcfa" stop-opacity="0"></stop><stop offset="1" stop-color="#92abff"></stop></linearGradient><filter height="1032.192" id="filter-2" node-id="6" width="1032.192" x="-4.096" y="-4.096"><feGaussianBlur color-interpolation-filters="linearRGB" in="SourceAlpha" result="shadowBlurInner1" stdDeviation="4 4"></feGaussianBlur><feOffset color-interpolation-filters="linearRGB" dx="0" dy="0" in="shadowBlurInner1" result="shadowOffsetInner1"></feOffset><feComposite color-interpolation-filters="linearRGB" in="shadowOffsetInner1" in2="SourceAlpha" k1="0" k2="-1" k3="1" k4="0" operator="arithmetic" result="shadowInnerInner1"></feComposite><feColorMatrix color-interpolation-filters="linearRGB" in="shadowInnerInner1" result="result4" type="matrix" values="0 0 0 0 0.5349466 0 0 0 0 0.7029659 0 0 0 0 1 0 0 0 0.5 0"></feColorMatrix></filter><filter height="897.9018" id="filter-5" node-id="12" width="897.9018" x="63.487995" y="63.487995"><feGaussianBlur color-interpolation-filters="linearRGB" in="SourceAlpha" result="shadowBlurInner1" stdDeviation="8 8"></feGaussianBlur><feOffset color-interpolation-filters="linearRGB" dx="0" dy="4" in="shadowBlurInner1" result="shadowOffsetInner1"></feOffset><feComposite color-interpolation-filters="linearRGB" in="shadowOffsetInner1" in2="SourceAlpha" k1="0" k2="-1" k3="1" k4="0" operator="arithmetic" result="shadowInnerInner1"></feComposite><feColorMatrix color-interpolation-filters="linearRGB" in="shadowInnerInner1" result="result4" type="matrix" values="0 0 0 0 0.5349466 0 0 0 0 0.7029659 0 0 0 0 1 0 0 0 0.60145324 0"></feColorMatrix></filter><filter height="424.75516" id="filter-7" node-id="18" width="737.55304" x="-7.9384384" y="287.33713"><feMorphology color-interpolation-filters="linearRGB" in="SourceAlpha" operator="dilate" radius="0.5 0.5" result="shadowSpreadOuter1"></feMorphology><feOffset color-interpolation-filters="linearRGB" dx="0" dy="2" in="shadowSpreadOuter1" result="shadowOffsetOuter1"></feOffset><feGaussianBlur color-interpolation-filters="linearRGB" in="shadowOffsetOuter1" result="shadowBlurOuter1" stdDeviation="2 2"></feGaussianBlur><feComposite color-interpolation-filters="linearRGB" in="shadowBlurOuter1" in2="SourceAlpha" operator="out" result="shadowBlurOuter1"></feComposite><feColorMatrix color-interpolation-filters="linearRGB" in="shadowBlurOuter1" result="result5" type="matrix" values="0 0 0 0 0.7607843 0 0 0 0 0.85490197 0 0 0 0 0.99607843 0 0 0 0.4 0"></feColorMatrix></filter><mask height="843.2058" id="mask-4" maskUnits="userSpaceOnUse" node-id="42" width="866.0112" x="-1432.1968" y="-664.6623"><path d="M -1438.00 -233.60 L -1437.80 -248.20 L -1437.10 -262.60 L -1435.90 -277.00 L -1434.20 -291.30 L -1432.10 -305.50 L -1429.50 -319.60 L -1426.50 -333.60 L -1423.00 -347.50 L -1419.10 -361.20 L -1414.70 -374.80 L -1409.90 -388.20 L -1404.60 -401.50 L -1399.00 -414.60 L -1392.90 -427.50 L -1386.40 -440.20 L -1379.40 -452.70 L -1372.10 -464.90 L -1364.30 -477.00 L -1356.20 -488.80 L -1347.60 -500.40 L -1338.70 -511.60 L -1329.40 -522.60 L -1319.70 -533.40 L -1309.50 -543.90 L -1299.00 -554.00 L -1288.30 -563.80 L -1277.30 -573.10 L -1266.00 -582.00 L -1254.50 -590.50 L -1242.70 -598.70 L -1230.60 -606.50 L -1218.30 -613.80 L -1205.80 -620.70 L -1193.10 -627.20 L -1180.20 -633.30 L -1167.10 -639.00 L -1153.80 -644.30 L -1140.40 -649.10 L -1126.80 -653.40 L -1113.10 -657.40 L -1099.30 -660.90 L -1085.20 -663.90 L -1071.10 -666.50 L -1056.90 -668.60 L -1042.60 -670.30 L -1028.30 -671.40 L -1013.80 -672.20 L -999.20 -672.40 L -984.60 -672.20 L -970.10 -671.40 L -955.70 -670.30 L -941.50 -668.60 L -927.30 -666.50 L -913.20 -663.90 L -899.10 -660.90 L -885.30 -657.40 L -871.50 -653.40 L -858.00 -649.10 L -844.50 -644.30 L -831.20 -639.00 L -818.10 -633.30 L -805.20 -627.20 L -792.60 -620.70 L -780.10 -613.80 L -767.80 -606.50 L -755.70 -598.70 L -743.90 -590.50 L -732.40 -582.00 L -721.10 -573.10 L -710.10 -563.80 L -699.40 -554.00 L -688.90 -543.90 L -678.70 -533.40 L -669.00 -522.60 L -659.70 -511.60 L -650.70 -500.40 L -642.20 -488.80 L -634.10 -477.00 L -626.30 -464.90 L -618.90 -452.70 L -612.00 -440.20 L -605.50 -427.50 L -599.40 -414.60 L -593.70 -401.50 L -588.50 -388.20 L -583.70 -374.80 L -579.30 -361.20 L -575.40 -347.50 L -571.90 -333.60 L -568.80 -319.60 L -566.30 -305.50 L -564.10 -291.30 L -562.50 -277.00 L -561.30 -262.60 L -560.60 -248.20 L -560.30 -233.60 L -560.60 -219.00 L -561.30 -204.50 L -562.50 -190.10 L -564.10 -175.80 L -566.30 -161.60 L -568.80 -147.50 L -571.90 -133.50 L -575.40 -119.60 L -579.30 -105.90 L -583.70 -92.30 L -588.50 -78.90 L -593.70 -65.60 L -599.40 -52.50 L -605.50 -39.60 L -612.00 -26.90 L -618.90 -14.40 L -626.30 -2.20 L -634.10 9.90 L -642.20 21.70 L -650.70 33.20 L -659.70 44.50 L -669.00 55.50 L -678.70 66.30 L -688.90 76.80 L -699.40 86.90 L -710.10 96.60 L -721.10 106.00 L -732.40 114.90 L -743.90 123.40 L -755.70 131.60 L -767.80 139.30 L -780.10 146.70 L -792.60 153.60 L -805.20 160.10 L -818.10 166.20 L -831.20 171.90 L -844.50 177.10 L -858.00 182.00 L -871.50 186.30 L -885.30 190.30 L -899.10 193.70 L -913.20 196.80 L -927.30 199.40 L -941.50 201.50 L -955.70 203.10 L -970.10 204.30 L -984.60 205.10 L -999.20 205.30 L -1013.80 205.10 L -1028.30 204.30 L -1042.60 203.10 L -1056.90 201.50 L -1071.10 199.40 L -1085.20 196.80 L -1099.30 193.70 L -1113.10 190.30 L -1126.80 186.30 L -1140.40 182.00 L -1153.80 177.10 L -1167.10 171.90 L -1180.20 166.20 L -1193.10 160.10 L -1205.80 153.60 L -1218.30 146.70 L -1230.60 139.30 L -1242.70 131.60 L -1254.50 123.40 L -1266.00 114.90 L -1277.30 106.00 L -1288.30 96.60 L -1299.00 86.90 L -1309.50 76.80 L -1319.70 66.30 L -1329.40 55.50 L -1338.70 44.50 L -1347.60 33.20 L -1356.20 21.70 L -1364.30 9.90 L -1372.10 -2.20 L -1379.40 -14.40 L -1386.40 -26.90 L -1392.90 -39.60 L -1399.00 -52.50 L -1404.60 -65.60 L -1409.90 -78.90 L -1414.70 -92.30 L -1419.10 -105.90 L -1423.00 -119.60 L -1426.50 -133.50 L -1429.50 -147.50 L -1432.10 -161.60 L -1434.20 -175.80 L -1435.90 -190.10 L -1437.10 -204.50 L -1437.80 -219.00 L -1438.00 -233.60 Z" fill="#ffffff" fill-rule="evenodd" node-id="129" stroke="none" target-height="877.7" target-width="877.7" target-x="-1438" target-y="-672.4"></path></mask><mask height="538.3315" id="mask-10" maskUnits="userSpaceOnUse" node-id="54" width="306.83557" x="235.61024" y="-44.860954"><path d="M 0.00 309.30 L 258.40 448.60 L 516.90 309.30 L 516.90 0.00 L 0.00 0.00 Z" fill="#ffffff" fill-rule="evenodd" node-id="136" stroke="none" target-height="448.6" target-width="516.9" target-x="0" target-y="0"></path></mask><mask height="183.82826" id="mask1" maskUnits="userSpaceOnUse" node-id="140" width="620.2514" x="-51.68762" y="129.64732"><path d="M 0.00 309.30 L 258.40 448.60 L 516.90 309.30 L 516.90 0.00 L 0.00 0.00 Z" fill="#ffffff" fill-rule="evenodd" node-id="144" stroke="none" target-height="448.6" target-width="516.9" target-x="0" target-y="0"></path></mask><mask height="256.78983" id="mask2" maskUnits="userSpaceOnUse" node-id="148" width="877.53345" x="67.67221" y="358.3342"><path d="M 950.90 512.00 L 950.60 526.60 L 949.90 541.10 L 948.70 555.50 L 947.00 569.70 L 944.90 583.90 L 942.30 598.00 L 939.30 612.10 L 935.80 625.90 L 931.90 639.70 L 927.50 653.20 L 922.70 666.70 L 917.50 679.90 L 911.80 693.10 L 905.70 705.90 L 899.20 718.60 L 892.20 731.10 L 884.90 743.40 L 877.10 755.50 L 869.00 767.30 L 860.40 778.80 L 851.50 790.10 L 842.20 801.10 L 832.50 811.80 L 822.30 822.30 L 811.80 832.50 L 801.10 842.20 L 790.10 851.50 L 778.80 860.40 L 767.30 869.00 L 755.50 877.10 L 743.40 884.90 L 731.10 892.20 L 718.60 899.20 L 705.90 905.70 L 693.10 911.80 L 679.90 917.50 L 666.70 922.70 L 653.20 927.50 L 639.70 931.90 L 625.90 935.80 L 612.10 939.30 L 598.00 942.30 L 583.90 944.90 L 569.70 947.00 L 555.50 948.70 L 541.10 949.90 L 526.60 950.60 L 512.00 950.90 L 497.40 950.60 L 482.90 949.90 L 468.50 948.70 L 454.30 947.00 L 440.10 944.90 L 426.00 942.30 L 411.90 939.30 L 398.10 935.80 L 384.30 931.90 L 370.80 927.50 L 357.30 922.70 L 344.10 917.50 L 330.90 911.80 L 318.10 905.70 L 305.40 899.20 L 292.90 892.20 L 280.60 884.90 L 268.50 877.10 L 256.70 869.00 L 245.20 860.40 L 233.90 851.50 L 222.90 842.20 L 212.20 832.50 L 201.70 822.30 L 191.50 811.80 L 181.80 801.10 L 172.50 790.10 L 163.60 778.80 L 155.00 767.30 L 146.90 755.50 L 139.10 743.40 L 131.80 731.10 L 124.80 718.60 L 118.30 705.90 L 112.20 693.10 L 106.50 679.90 L 101.30 666.70 L 96.50 653.20 L 92.10 639.70 L 88.20 625.90 L 84.70 612.10 L 81.70 598.00 L 79.10 583.90 L 77.00 569.70 L 75.30 555.50 L 74.10 541.10 L 73.40 526.60 L 73.10 512.00 L 73.40 497.40 L 74.10 482.90 L 75.30 468.50 L 77.00 454.30 L 79.10 440.10 L 81.70 426.00 L 84.70 411.90 L 88.20 398.10 L 92.10 384.30 L 96.50 370.80 L 101.30 357.30 L 106.50 344.10 L 112.20 330.90 L 118.30 318.10 L 124.80 305.40 L 131.80 292.90 L 139.10 280.60 L 146.90 268.50 L 155.00 256.70 L 163.60 245.20 L 172.50 233.90 L 181.80 222.90 L 191.50 212.20 L 201.70 201.70 L 212.20 191.50 L 222.90 181.80 L 233.90 172.50 L 245.20 163.60 L 256.70 155.00 L 268.50 146.90 L 280.60 139.10 L 292.90 131.80 L 305.40 124.80 L 318.10 118.30 L 330.90 112.20 L 344.10 106.50 L 357.30 101.30 L 370.80 96.50 L 384.30 92.10 L 398.10 88.20 L 411.90 84.70 L 426.00 81.70 L 440.10 79.10 L 454.30 77.00 L 468.50 75.30 L 482.90 74.10 L 497.40 73.40 L 512.00 73.10 L 526.60 73.40 L 541.10 74.10 L 555.50 75.30 L 569.70 77.00 L 583.90 79.10 L 598.00 81.70 L 612.10 84.70 L 625.90 88.20 L 639.70 92.10 L 653.20 96.50 L 666.70 101.30 L 679.90 106.50 L 693.10 112.20 L 705.90 118.30 L 718.60 124.80 L 731.10 131.80 L 743.40 139.10 L 755.50 146.90 L 767.30 155.00 L 778.80 163.60 L 790.10 172.50 L 801.10 181.80 L 811.80 191.50 L 822.30 201.70 L 832.50 212.20 L 842.20 222.90 L 851.50 233.90 L 860.40 245.20 L 869.00 256.70 L 877.10 268.50 L 884.90 280.60 L 892.20 292.90 L 899.20 305.40 L 905.70 318.10 L 911.80 330.90 L 917.50 344.10 L 922.70 357.30 L 927.50 370.80 L 931.90 384.30 L 935.80 398.10 L 939.30 411.90 L 942.30 426.00 L 944.90 440.10 L 947.00 454.30 L 948.70 468.50 L 949.90 482.90 L 950.60 497.40 L 950.90 512.00 Z" fill="#ffffff" fill-rule="evenodd" node-id="152" stroke="none" target-height="877.80005" target-width="877.80005" target-x="73.1" target-y="73.1"></path></mask></defs><g node-id="208"><g node-id="209"><g node-id="213"><path d="M 1024.00 512.00 L 1023.70 528.30 L 1023.00 544.50 L 1021.70 560.60 L 1019.90 576.70 L 1017.60 592.60 L 1014.80 608.40 L 1011.60 624.20 L 1007.80 639.70 L 1003.60 655.20 L 998.90 670.40 L 993.70 685.60 L 988.00 700.50 L 981.90 715.30 L 975.30 729.80 L 968.30 744.20 L 960.80 758.40 L 952.90 772.30 L 944.60 785.90 L 935.80 799.40 L 926.50 812.60 L 916.90 825.40 L 906.80 838.00 L 896.30 850.30 L 885.40 862.30 L 874.00 874.00 L 862.30 885.40 L 850.30 896.30 L 838.00 906.80 L 825.40 916.90 L 812.60 926.50 L 799.40 935.80 L 785.90 944.60 L 772.30 952.90 L 758.40 960.80 L 744.20 968.30 L 729.80 975.30 L 715.30 981.90 L 700.50 988.00 L 685.60 993.70 L 670.40 998.90 L 655.20 1003.60 L 639.70 1007.80 L 624.20 1011.60 L 608.40 1014.80 L 592.60 1017.60 L 576.70 1019.90 L 560.60 1021.70 L 544.50 1023.00 L 528.30 1023.70 L 512.00 1024.00 L 495.70 1023.70 L 479.50 1023.00 L 463.40 1021.70 L 447.30 1019.90 L 431.40 1017.60 L 415.60 1014.80 L 399.80 1011.60 L 384.30 1007.80 L 368.80 1003.60 L 353.60 998.90 L 338.40 993.70 L 323.50 988.00 L 308.70 981.90 L 294.20 975.30 L 279.80 968.30 L 265.60 960.80 L 251.70 952.90 L 238.10 944.60 L 224.60 935.80 L 211.40 926.50 L 198.60 916.90 L 186.00 906.80 L 173.70 896.30 L 161.70 885.40 L 150.00 874.00 L 138.60 862.30 L 127.70 850.30 L 117.20 838.00 L 107.10 825.40 L 97.50 812.60 L 88.20 799.40 L 79.40 785.90 L 71.10 772.30 L 63.20 758.40 L 55.70 744.20 L 48.70 729.80 L 42.10 715.30 L 36.00 700.50 L 30.30 685.60 L 25.10 670.40 L 20.40 655.20 L 16.20 639.70 L 12.40 624.20 L 9.20 608.40 L 6.40 592.60 L 4.10 576.70 L 2.30 560.60 L 1.00 544.50 L 0.30 528.30 L 0.00 512.00 L 0.30 495.70 L 1.00 479.50 L 2.30 463.40 L 4.10 447.30 L 6.40 431.40 L 9.20 415.60 L 12.40 399.80 L 16.20 384.30 L 20.40 368.80 L 25.10 353.60 L 30.30 338.40 L 36.00 323.50 L 42.10 308.70 L 48.70 294.20 L 55.70 279.80 L 63.20 265.60 L 71.10 251.70 L 79.40 238.10 L 88.20 224.60 L 97.50 211.40 L 107.10 198.60 L 117.20 186.00 L 127.70 173.70 L 138.60 161.70 L 150.00 150.00 L 161.70 138.60 L 173.70 127.70 L 186.00 117.20 L 198.60 107.10 L 211.40 97.50 L 224.60 88.20 L 238.10 79.40 L 251.70 71.10 L 265.60 63.20 L 279.80 55.70 L 294.20 48.70 L 308.70 42.10 L 323.50 36.00 L 338.40 30.30 L 353.60 25.10 L 368.80 20.40 L 384.30 16.20 L 399.80 12.40 L 415.60 9.20 L 431.40 6.40 L 447.30 4.10 L 463.40 2.30 L 479.50 1.00 L 495.70 0.30 L 512.00 0.00 L 528.30 0.30 L 544.50 1.00 L 560.60 2.30 L 576.70 4.10 L 592.60 6.40 L 608.40 9.20 L 624.20 12.40 L 639.70 16.20 L 655.20 20.40 L 670.40 25.10 L 685.60 30.30 L 700.50 36.00 L 715.30 42.10 L 729.80 48.70 L 744.20 55.70 L 758.40 63.20 L 772.30 71.10 L 785.90 79.40 L 799.40 88.20 L 812.60 97.50 L 825.40 107.10 L 838.00 117.20 L 850.30 127.70 L 862.30 138.60 L 874.00 150.00 L 885.40 161.70 L 896.30 173.70 L 906.80 186.00 L 916.90 198.60 L 926.50 211.40 L 935.80 224.60 L 944.60 238.10 L 952.90 251.70 L 960.80 265.60 L 968.30 279.80 L 975.30 294.20 L 981.90 308.70 L 988.00 323.50 L 993.70 338.40 L 998.90 353.60 L 1003.60 368.80 L 1007.80 384.30 L 1011.60 399.80 L 1014.80 415.60 L 1017.60 431.40 L 1019.90 447.30 L 1021.70 463.40 L 1023.00 479.50 L 1023.70 495.70 L 1024.00 512.00 Z" fill="#ffffff" fill-rule="evenodd" group-id="1,2,6" node-id="162" stroke="none" target-height="1024" target-width="1024" target-x="0" target-y="0"></path></g><path d="M 1024.00 512.00 L 1023.70 528.30 L 1023.00 544.50 L 1021.70 560.60 L 1019.90 576.70 L 1017.60 592.60 L 1014.80 608.40 L 1011.60 624.20 L 1007.80 639.70 L 1003.60 655.20 L 998.90 670.40 L 993.70 685.60 L 988.00 700.50 L 981.90 715.30 L 975.30 729.80 L 968.30 744.20 L 960.80 758.40 L 952.90 772.30 L 944.60 785.90 L 935.80 799.40 L 926.50 812.60 L 916.90 825.40 L 906.80 838.00 L 896.30 850.30 L 885.40 862.30 L 874.00 874.00 L 862.30 885.40 L 850.30 896.30 L 838.00 906.80 L 825.40 916.90 L 812.60 926.50 L 799.40 935.80 L 785.90 944.60 L 772.30 952.90 L 758.40 960.80 L 744.20 968.30 L 729.80 975.30 L 715.30 981.90 L 700.50 988.00 L 685.60 993.70 L 670.40 998.90 L 655.20 1003.60 L 639.70 1007.80 L 624.20 1011.60 L 608.40 1014.80 L 592.60 1017.60 L 576.70 1019.90 L 560.60 1021.70 L 544.50 1023.00 L 528.30 1023.70 L 512.00 1024.00 L 495.70 1023.70 L 479.50 1023.00 L 463.40 1021.70 L 447.30 1019.90 L 431.40 1017.60 L 415.60 1014.80 L 399.80 1011.60 L 384.30 1007.80 L 368.80 1003.60 L 353.60 998.90 L 338.40 993.70 L 323.50 988.00 L 308.70 981.90 L 294.20 975.30 L 279.80 968.30 L 265.60 960.80 L 251.70 952.90 L 238.10 944.60 L 224.60 935.80 L 211.40 926.50 L 198.60 916.90 L 186.00 906.80 L 173.70 896.30 L 161.70 885.40 L 150.00 874.00 L 138.60 862.30 L 127.70 850.30 L 117.20 838.00 L 107.10 825.40 L 97.50 812.60 L 88.20 799.40 L 79.40 785.90 L 71.10 772.30 L 63.20 758.40 L 55.70 744.20 L 48.70 729.80 L 42.10 715.30 L 36.00 700.50 L 30.30 685.60 L 25.10 670.40 L 20.40 655.20 L 16.20 639.70 L 12.40 624.20 L 9.20 608.40 L 6.40 592.60 L 4.10 576.70 L 2.30 560.60 L 1.00 544.50 L 0.30 528.30 L 0.00 512.00 L 0.30 495.70 L 1.00 479.50 L 2.30 463.40 L 4.10 447.30 L 6.40 431.40 L 9.20 415.60 L 12.40 399.80 L 16.20 384.30 L 20.40 368.80 L 25.10 353.60 L 30.30 338.40 L 36.00 323.50 L 42.10 308.70 L 48.70 294.20 L 55.70 279.80 L 63.20 265.60 L 71.10 251.70 L 79.40 238.10 L 88.20 224.60 L 97.50 211.40 L 107.10 198.60 L 117.20 186.00 L 127.70 173.70 L 138.60 161.70 L 150.00 150.00 L 161.70 138.60 L 173.70 127.70 L 186.00 117.20 L 198.60 107.10 L 211.40 97.50 L 224.60 88.20 L 238.10 79.40 L 251.70 71.10 L 265.60 63.20 L 279.80 55.70 L 294.20 48.70 L 308.70 42.10 L 323.50 36.00 L 338.40 30.30 L 353.60 25.10 L 368.80 20.40 L 384.30 16.20 L 399.80 12.40 L 415.60 9.20 L 431.40 6.40 L 447.30 4.10 L 463.40 2.30 L 479.50 1.00 L 495.70 0.30 L 512.00 0.00 L 528.30 0.30 L 544.50 1.00 L 560.60 2.30 L 576.70 4.10 L 592.60 6.40 L 608.40 9.20 L 624.20 12.40 L 639.70 16.20 L 655.20 20.40 L 670.40 25.10 L 685.60 30.30 L 700.50 36.00 L 715.30 42.10 L 729.80 48.70 L 744.20 55.70 L 758.40 63.20 L 772.30 71.10 L 785.90 79.40 L 799.40 88.20 L 812.60 97.50 L 825.40 107.10 L 838.00 117.20 L 850.30 127.70 L 862.30 138.60 L 874.00 150.00 L 885.40 161.70 L 896.30 173.70 L 906.80 186.00 L 916.90 198.60 L 926.50 211.40 L 935.80 224.60 L 944.60 238.10 L 952.90 251.70 L 960.80 265.60 L 968.30 279.80 L 975.30 294.20 L 981.90 308.70 L 988.00 323.50 L 993.70 338.40 L 998.90 353.60 L 1003.60 368.80 L 1007.80 384.30 L 1011.60 399.80 L 1014.80 415.60 L 1017.60 431.40 L 1019.90 447.30 L 1021.70 463.40 L 1023.00 479.50 L 1023.70 495.70 L 1024.00 512.00 Z" fill="#000000" fill-rule="evenodd" filter="url(#filter-2)" group-id="1,2,7" node-id="167" stroke="none" target-height="1024" target-width="1024" target-x="0" target-y="0"></path></g><g node-id="210"><g node-id="215"><path d="M 950.90 512.00 L 950.60 526.60 L 949.90 541.10 L 948.70 555.50 L 947.00 569.70 L 944.90 583.90 L 942.30 598.00 L 939.30 612.10 L 935.80 625.90 L 931.90 639.70 L 927.50 653.20 L 922.70 666.70 L 917.50 679.90 L 911.80 693.10 L 905.70 705.90 L 899.20 718.60 L 892.20 731.10 L 884.90 743.40 L 877.10 755.50 L 869.00 767.30 L 860.40 778.80 L 851.50 790.10 L 842.20 801.10 L 832.50 811.80 L 822.30 822.30 L 811.80 832.50 L 801.10 842.20 L 790.10 851.50 L 778.80 860.40 L 767.30 869.00 L 755.50 877.10 L 743.40 884.90 L 731.10 892.20 L 718.60 899.20 L 705.90 905.70 L 693.10 911.80 L 679.90 917.50 L 666.70 922.70 L 653.20 927.50 L 639.70 931.90 L 625.90 935.80 L 612.10 939.30 L 598.00 942.30 L 583.90 944.90 L 569.70 947.00 L 555.50 948.70 L 541.10 949.90 L 526.60 950.60 L 512.00 950.90 L 497.40 950.60 L 482.90 949.90 L 468.50 948.70 L 454.30 947.00 L 440.10 944.90 L 426.00 942.30 L 411.90 939.30 L 398.10 935.80 L 384.30 931.90 L 370.80 927.50 L 357.30 922.70 L 344.10 917.50 L 330.90 911.80 L 318.10 905.70 L 305.40 899.20 L 292.90 892.20 L 280.60 884.90 L 268.50 877.10 L 256.70 869.00 L 245.20 860.40 L 233.90 851.50 L 222.90 842.20 L 212.20 832.50 L 201.70 822.30 L 191.50 811.80 L 181.80 801.10 L 172.50 790.10 L 163.60 778.80 L 155.00 767.30 L 146.90 755.50 L 139.10 743.40 L 131.80 731.10 L 124.80 718.60 L 118.30 705.90 L 112.20 693.10 L 106.50 679.90 L 101.30 666.70 L 96.50 653.20 L 92.10 639.70 L 88.20 625.90 L 84.70 612.10 L 81.70 598.00 L 79.10 583.90 L 77.00 569.70 L 75.30 555.50 L 74.10 541.10 L 73.40 526.60 L 73.10 512.00 L 73.40 497.40 L 74.10 482.90 L 75.30 468.50 L 77.00 454.30 L 79.10 440.10 L 81.70 426.00 L 84.70 411.90 L 88.20 398.10 L 92.10 384.30 L 96.50 370.80 L 101.30 357.30 L 106.50 344.10 L 112.20 330.90 L 118.30 318.10 L 124.80 305.40 L 131.80 292.90 L 139.10 280.60 L 146.90 268.50 L 155.00 256.70 L 163.60 245.20 L 172.50 233.90 L 181.80 222.90 L 191.50 212.20 L 201.70 201.70 L 212.20 191.50 L 222.90 181.80 L 233.90 172.50 L 245.20 163.60 L 256.70 155.00 L 268.50 146.90 L 280.60 139.10 L 292.90 131.80 L 305.40 124.80 L 318.10 118.30 L 330.90 112.20 L 344.10 106.50 L 357.30 101.30 L 370.80 96.50 L 384.30 92.10 L 398.10 88.20 L 411.90 84.70 L 426.00 81.70 L 440.10 79.10 L 454.30 77.00 L 468.50 75.30 L 482.90 74.10 L 497.40 73.40 L 512.00 73.10 L 526.60 73.40 L 541.10 74.10 L 555.50 75.30 L 569.70 77.00 L 583.90 79.10 L 598.00 81.70 L 612.10 84.70 L 625.90 88.20 L 639.70 92.10 L 653.20 96.50 L 666.70 101.30 L 679.90 106.50 L 693.10 112.20 L 705.90 118.30 L 718.60 124.80 L 731.10 131.80 L 743.40 139.10 L 755.50 146.90 L 767.30 155.00 L 778.80 163.60 L 790.10 172.50 L 801.10 181.80 L 811.80 191.50 L 822.30 201.70 L 832.50 212.20 L 842.20 222.90 L 851.50 233.90 L 860.40 245.20 L 869.00 256.70 L 877.10 268.50 L 884.90 280.60 L 892.20 292.90 L 899.20 305.40 L 905.70 318.10 L 911.80 330.90 L 917.50 344.10 L 922.70 357.30 L 927.50 370.80 L 931.90 384.30 L 935.80 398.10 L 939.30 411.90 L 942.30 426.00 L 944.90 440.10 L 947.00 454.30 L 948.70 468.50 L 949.90 482.90 L 950.60 497.40 L 950.90 512.00 Z" fill="#316cd4" fill-rule="evenodd" group-id="1,3,8" node-id="174" stroke="none" target-height="877.80005" target-width="877.80005" target-x="73.1" target-y="73.1"></path></g><path d="M 950.90 512.00 L 950.60 526.60 L 949.90 541.10 L 948.70 555.50 L 947.00 569.70 L 944.90 583.90 L 942.30 598.00 L 939.30 612.10 L 935.80 625.90 L 931.90 639.70 L 927.50 653.20 L 922.70 666.70 L 917.50 679.90 L 911.80 693.10 L 905.70 705.90 L 899.20 718.60 L 892.20 731.10 L 884.90 743.40 L 877.10 755.50 L 869.00 767.30 L 860.40 778.80 L 851.50 790.10 L 842.20 801.10 L 832.50 811.80 L 822.30 822.30 L 811.80 832.50 L 801.10 842.20 L 790.10 851.50 L 778.80 860.40 L 767.30 869.00 L 755.50 877.10 L 743.40 884.90 L 731.10 892.20 L 718.60 899.20 L 705.90 905.70 L 693.10 911.80 L 679.90 917.50 L 666.70 922.70 L 653.20 927.50 L 639.70 931.90 L 625.90 935.80 L 612.10 939.30 L 598.00 942.30 L 583.90 944.90 L 569.70 947.00 L 555.50 948.70 L 541.10 949.90 L 526.60 950.60 L 512.00 950.90 L 497.40 950.60 L 482.90 949.90 L 468.50 948.70 L 454.30 947.00 L 440.10 944.90 L 426.00 942.30 L 411.90 939.30 L 398.10 935.80 L 384.30 931.90 L 370.80 927.50 L 357.30 922.70 L 344.10 917.50 L 330.90 911.80 L 318.10 905.70 L 305.40 899.20 L 292.90 892.20 L 280.60 884.90 L 268.50 877.10 L 256.70 869.00 L 245.20 860.40 L 233.90 851.50 L 222.90 842.20 L 212.20 832.50 L 201.70 822.30 L 191.50 811.80 L 181.80 801.10 L 172.50 790.10 L 163.60 778.80 L 155.00 767.30 L 146.90 755.50 L 139.10 743.40 L 131.80 731.10 L 124.80 718.60 L 118.30 705.90 L 112.20 693.10 L 106.50 679.90 L 101.30 666.70 L 96.50 653.20 L 92.10 639.70 L 88.20 625.90 L 84.70 612.10 L 81.70 598.00 L 79.10 583.90 L 77.00 569.70 L 75.30 555.50 L 74.10 541.10 L 73.40 526.60 L 73.10 512.00 L 73.40 497.40 L 74.10 482.90 L 75.30 468.50 L 77.00 454.30 L 79.10 440.10 L 81.70 426.00 L 84.70 411.90 L 88.20 398.10 L 92.10 384.30 L 96.50 370.80 L 101.30 357.30 L 106.50 344.10 L 112.20 330.90 L 118.30 318.10 L 124.80 305.40 L 131.80 292.90 L 139.10 280.60 L 146.90 268.50 L 155.00 256.70 L 163.60 245.20 L 172.50 233.90 L 181.80 222.90 L 191.50 212.20 L 201.70 201.70 L 212.20 191.50 L 222.90 181.80 L 233.90 172.50 L 245.20 163.60 L 256.70 155.00 L 268.50 146.90 L 280.60 139.10 L 292.90 131.80 L 305.40 124.80 L 318.10 118.30 L 330.90 112.20 L 344.10 106.50 L 357.30 101.30 L 370.80 96.50 L 384.30 92.10 L 398.10 88.20 L 411.90 84.70 L 426.00 81.70 L 440.10 79.10 L 454.30 77.00 L 468.50 75.30 L 482.90 74.10 L 497.40 73.40 L 512.00 73.10 L 526.60 73.40 L 541.10 74.10 L 555.50 75.30 L 569.70 77.00 L 583.90 79.10 L 598.00 81.70 L 612.10 84.70 L 625.90 88.20 L 639.70 92.10 L 653.20 96.50 L 666.70 101.30 L 679.90 106.50 L 693.10 112.20 L 705.90 118.30 L 718.60 124.80 L 731.10 131.80 L 743.40 139.10 L 755.50 146.90 L 767.30 155.00 L 778.80 163.60 L 790.10 172.50 L 801.10 181.80 L 811.80 191.50 L 822.30 201.70 L 832.50 212.20 L 842.20 222.90 L 851.50 233.90 L 860.40 245.20 L 869.00 256.70 L 877.10 268.50 L 884.90 280.60 L 892.20 292.90 L 899.20 305.40 L 905.70 318.10 L 911.80 330.90 L 917.50 344.10 L 922.70 357.30 L 927.50 370.80 L 931.90 384.30 L 935.80 398.10 L 939.30 411.90 L 942.30 426.00 L 944.90 440.10 L 947.00 454.30 L 948.70 468.50 L 949.90 482.90 L 950.60 497.40 L 950.90 512.00 Z" fill="#000000" fill-rule="evenodd" filter="url(#filter-5)" group-id="1,3,9" node-id="179" stroke="none" target-height="877.80005" target-width="877.80005" target-x="73.1" target-y="73.1"></path></g><g node-id="211"><g node-id="217"><g node-id="218"><g node-id="223"><path d="M 151.20 670.70 L 515.90 463.20 L 872.80 670.70 L 512.00 872.80 Z" fill="#000000" fill-rule="evenodd" filter="url(#filter-7)" group-id="1,4,10,11,16" node-id="189" stroke="none" target-height="409.59998" target-width="721.6" target-x="151.2" target-y="463.2"></path></g><path d="M 151.20 670.70 L 515.90 463.20 L 872.80 670.70 L 512.00 872.80 Z" fill="#ffffff" fill-rule="evenodd" group-id="1,4,10,11,17" node-id="194" stroke="#c2dafe" stroke-linecap="butt" stroke-width="1" target-height="409.59998" target-width="721.6" target-x="151.2" target-y="463.2"></path></g><path d="M 228.50 635.90 L 511.50 476.90 L 788.30 635.90 L 508.40 790.90 Z" fill="#c2dafe" fill-rule="evenodd" group-id="1,4,10" id="路径-9" node-id="52" stroke="none" target-height="314.00003" target-width="559.8" target-x="228.5" target-y="476.9"></path><g node-id="219"><g node-id="225"><path d="M 248.70 587.20 L 507.10 726.60 L 765.60 587.20 L 765.60 277.90 L 248.70 277.90 Z" fill="url(#linearGradient-8)" fill-rule="evenodd" group-id="1,4,10,12,18" node-id="201" stroke="none" target-height="448.69998" target-width="516.89996" target-x="248.7" target-y="277.9"></path></g><g node-id="226"><path d="M 509.90 726.60 L 765.60 587.20 L 765.60 277.90 L 509.90 419.20 Z" fill="url(#linearGradient-11)" fill-rule="evenodd" group-id="1,4,10,12,19" node-id="206" stroke="none" target-height="448.69998" target-width="255.69998" target-x="509.9" target-y="277.9"></path></g><path d="M 248.70 422.90 L 509.90 576.10 L 765.60 422.90" fill="none" group-id="1,4,10,12,20" id="路径-11" node-id="58" stroke="#eaf7ff" stroke-linecap="butt" stroke-width="1" target-height="153.19998" target-width="516.89996" target-x="248.7" target-y="422.9"></path></g><path d="M 284.10 338.80 L 495.60 457.10 L 491.60 486.00 L 280.20 367.70 Z" fill="#6da1ff" fill-rule="evenodd" group-id="1,4,10" id="矩形备份-7" node-id="59" stroke="none" target-height="147.20001" target-width="215.4" target-x="280.2" target-y="338.8"></path><g node-id="220"><path d="M 735.40 345.60 L 524.00 463.90 L 527.90 492.80 L 739.40 374.50 Z" fill="#ffffff" fill-rule="evenodd" group-id="1,4,10,13" id="矩形备份-9" node-id="60" stroke="none" target-height="147.19998" target-width="215.40002" target-x="524" target-y="345.6"></path></g><g node-id="221"><path d="M 735.40 338.80 L 524.00 457.10 L 527.90 486.00 L 739.40 367.70 Z" fill="#44f1f8" fill-rule="evenodd" group-id="1,4,10,14" id="矩形备份-9" node-id="61" stroke="none" target-height="147.20001" target-width="215.40002" target-x="524" target-y="338.8"></path></g><g node-id="222"><path d="M 735.40 524.10 L 524.00 642.40 L 527.90 671.30 L 739.40 553.00 Z" fill="#6da1ff" fill-rule="evenodd" group-id="1,4,10,15" id="矩形备份-10" node-id="62" stroke="none" target-height="147.20001" target-width="215.40002" target-x="524" target-y="524.1"></path></g><path d="M 254.90 482.20 L 466.30 600.50 L 462.40 629.30 L 250.90 511.10 Z" fill="#ffffff" fill-rule="evenodd" group-id="1,4,10" id="矩形备份-8" node-id="63" stroke="none" target-height="147.09998" target-width="215.4" target-x="250.9" target-y="482.2"></path><path d="M 254.90 475.40 L 466.30 593.60 L 462.40 622.50 L 250.90 504.20 Z" fill="#44f1f8" fill-rule="evenodd" group-id="1,4,10" id="矩形备份-8" node-id="64" stroke="none" target-height="147.1" target-width="215.4" target-x="250.9" target-y="475.4"></path><path d="M 248.70 278.10 L 509.90 170.20 L 765.60 278.10 L 509.80 421.20 Z" fill="url(#linearGradient-12)" fill-rule="evenodd" group-id="1,4,10" id="路径-9" node-id="65" stroke="none" target-height="251.00002" target-width="516.89996" target-x="248.7" target-y="170.2"></path></g></g><path d="M 343.30 383.60 L 325.10 386.50 L 291.50 393.10 L 276.10 396.70 L 260.40 400.80 L 245.90 405.00 L 232.50 409.40 L 220.10 413.90 L 207.60 419.00 L 196.30 424.10 L 186.30 429.20 L 177.50 434.40 L 170.30 439.10 L 164.10 443.80 L 158.70 448.50 L 154.20 453.00 L 150.30 457.60 L 147.30 461.90 L 144.90 466.10 L 143.10 470.30 L 141.80 474.40 L 141.10 478.60 L 140.80 482.80 L 141.10 487.10 L 141.90 491.30 L 143.20 495.50 L 145.00 499.70 L 147.40 504.00 L 150.50 508.30 L 154.30 512.80 L 159.00 517.40 L 164.40 522.10 L 170.70 526.80 L 178.00 531.60 L 186.90 536.80 L 197.00 542.00 L 208.40 547.10 L 221.10 552.20 L 233.60 556.70 L 247.20 561.00 L 261.90 565.30 L 277.80 569.40 L 293.30 573.00 L 327.20 579.50 L 345.60 582.50 L 382.60 587.20 L 402.20 589.20 L 442.80 592.10 L 463.40 593.00 L 506.40 593.70 L 528.20 593.50 L 549.40 593.00 L 590.30 590.80 L 610.60 589.20 L 649.10 585.00 L 685.60 579.50 L 703.00 576.30 L 735.10 569.40 L 751.00 565.30 L 765.70 561.00 L 779.20 556.70 L 791.80 552.20 L 804.50 547.10 L 815.90 542.00 L 826.00 536.80 L 834.90 531.60 L 842.20 526.80 L 848.50 522.10 L 853.90 517.40 L 858.50 512.80 L 862.40 508.30 L 865.50 504.00 L 867.90 499.70 L 869.70 495.50 L 871.00 491.30 L 871.80 487.10 L 872.10 482.80 L 871.80 478.30 L 870.90 473.70 L 869.40 469.20 L 867.20 464.70 L 864.40 460.10 L 861.20 455.90 L 857.50 451.80 L 853.10 447.50 L 848.10 443.30 L 842.30 438.90 L 835.00 434.20 L 826.90 429.40 L 817.70 424.60 L 807.30 419.80 L 797.20 415.60 L 774.10 407.30 L 748.40 399.70 L 720.50 392.90 L 705.20 389.80 L 685.10 386.10 L 663.70 382.70 L 641.20 379.70" fill="none" group-id="1,5" id="路径" node-id="66" stroke="url(#linearGradient-13)" stroke-linecap="round" stroke-width="2" target-height="214" target-width="731.3" target-x="140.8" target-y="379.7"></path></g></svg>