<?xml version="1.0" standalone="no"?><!DOCTYPE svg PUBLIC "-//W3C//DTD SVG 1.1//EN" "http://www.w3.org/Graphics/SVG/1.1/DTD/svg11.dtd"><svg height="1024" node-id="1" sillyvg="true" template-height="1024" template-width="1024" version="1.1" viewBox="0 0 1024 1024" width="1024" xmlns="http://www.w3.org/2000/svg" xmlns:xlink="http://www.w3.org/1999/xlink"><defs node-id="91"><linearGradient gradientUnits="objectBoundingBox" id="linearGradient1" node-id="93" spreadMethod="pad" x1="0.5" x2="0.28875" y1="0.64746344" y2="0.40035838"><stop offset="0" stop-color="#a1c5fd"></stop><stop offset="1" stop-color="#639bff"></stop></linearGradient><linearGradient gradientUnits="objectBoundingBox" id="linearGradient-11" node-id="32" spreadMethod="pad" x1="0.9999994" x2="0.00000043193074" y1="0.5000005" y2="0.5000005"><stop offset="0" stop-color="#38ffff"></stop><stop offset="1" stop-color="#2a79ff"></stop></linearGradient><linearGradient gradientUnits="objectBoundingBox" id="linearGradient-10" node-id="29" spreadMethod="pad" x1="0.5" x2="0.28875" y1="0.64746344" y2="0.40035838"><stop offset="0" stop-color="#a1c5fd"></stop><stop offset="1" stop-color="#639bff"></stop></linearGradient><linearGradient gradientUnits="objectBoundingBox" id="linearGradient-14" node-id="36" spreadMethod="pad" x1="-0.000008648811" x2="1.0000118" y1="0.50000364" y2="0.50000364"><stop offset="0" stop-color="#38ffff"></stop><stop offset="1" stop-color="#2a79ff"></stop></linearGradient><linearGradient gradientUnits="objectBoundingBox" id="linearGradient-17" node-id="40" spreadMethod="pad" x1="0.0000058267883" x2="0.99999547" y1="0.4999992" y2="0.4999992"><stop offset="0" stop-color="#38ffff"></stop><stop offset="1" stop-color="#2a79ff"></stop></linearGradient><linearGradient gradientUnits="objectBoundingBox" id="linearGradient-18" node-id="43" spreadMethod="pad" x1="1.0000004" x2="0.00000018235795" y1="0.49999976" y2="0.49999976"><stop offset="0" stop-color="#38ffff"></stop><stop offset="1" stop-color="#2a79ff"></stop></linearGradient><linearGradient gradientUnits="objectBoundingBox" id="linearGradient-19" node-id="46" spreadMethod="pad" x1="0.0000069009325" x2="0.99997497" y1="0.5000016" y2="0.5000016"><stop offset="0" stop-color="#38ffff"></stop><stop offset="1" stop-color="#2a79ff"></stop></linearGradient><linearGradient gradientUnits="objectBoundingBox" id="linearGradient-20" node-id="49" spreadMethod="pad" x1="0.5" x2="0.5" y1="0" y2="1"><stop offset="0" stop-color="#9cbcfa" stop-opacity="0"></stop><stop offset="1" stop-color="#92abff"></stop></linearGradient><filter height="1032.192" id="filter-2" node-id="6" width="1032.192" x="-4.096" y="-4.096"><feGaussianBlur color-interpolation-filters="linearRGB" in="SourceAlpha" result="shadowBlurInner1" stdDeviation="4 4"></feGaussianBlur><feOffset color-interpolation-filters="linearRGB" dx="0" dy="0" in="shadowBlurInner1" result="shadowOffsetInner1"></feOffset><feComposite color-interpolation-filters="linearRGB" in="shadowOffsetInner1" in2="SourceAlpha" k1="0" k2="-1" k3="1" k4="0" operator="arithmetic" result="shadowInnerInner1"></feComposite><feColorMatrix color-interpolation-filters="linearRGB" in="shadowInnerInner1" result="result4" type="matrix" values="0 0 0 0 0.5349466 0 0 0 0 0.7029659 0 0 0 0 1 0 0 0 0.5 0"></feColorMatrix></filter><filter height="897.9018" id="filter-5" node-id="12" width="897.9018" x="63.487995" y="63.487995"><feGaussianBlur color-interpolation-filters="linearRGB" in="SourceAlpha" result="shadowBlurInner1" stdDeviation="8 8"></feGaussianBlur><feOffset color-interpolation-filters="linearRGB" dx="0" dy="4" in="shadowBlurInner1" result="shadowOffsetInner1"></feOffset><feComposite color-interpolation-filters="linearRGB" in="shadowOffsetInner1" in2="SourceAlpha" k1="0" k2="-1" k3="1" k4="0" operator="arithmetic" result="shadowInnerInner1"></feComposite><feColorMatrix color-interpolation-filters="linearRGB" in="shadowInnerInner1" result="result4" type="matrix" values="0 0 0 0 0.5349466 0 0 0 0 0.7029659 0 0 0 0 1 0 0 0 1 0"></feColorMatrix></filter><filter height="424.7552" id="filter-7" node-id="18" width="737.55304" x="135.42157" y="478.95892"><feMorphology color-interpolation-filters="linearRGB" in="SourceAlpha" operator="dilate" radius="0.5 0.5" result="shadowSpreadOuter1"></feMorphology><feOffset color-interpolation-filters="linearRGB" dx="0" dy="2" in="shadowSpreadOuter1" result="shadowOffsetOuter1"></feOffset><feGaussianBlur color-interpolation-filters="linearRGB" in="shadowOffsetOuter1" result="shadowBlurOuter1" stdDeviation="2 2"></feGaussianBlur><feComposite color-interpolation-filters="linearRGB" in="shadowBlurOuter1" in2="SourceAlpha" operator="out" result="shadowBlurOuter1"></feComposite><feColorMatrix color-interpolation-filters="linearRGB" in="shadowBlurOuter1" result="result5" type="matrix" values="0 0 0 0 0.7607843 0 0 0 0 0.85490197 0 0 0 0 0.99607843 0 0 0 0.4 0"></feColorMatrix></filter><filter height="328.15784" id="filter-9" node-id="25" width="573.78125" x="218.00278" y="493.32227"><feOffset color-interpolation-filters="linearRGB" dx="0" dy="2" in="SourceAlpha" result="shadowOffsetOuter1"></feOffset><feGaussianBlur color-interpolation-filters="linearRGB" in="shadowOffsetOuter1" result="shadowBlurOuter1" stdDeviation="2 2"></feGaussianBlur><feColorMatrix color-interpolation-filters="linearRGB" in="shadowBlurOuter1" result="result3" type="matrix" values="0 0 0 0 0.7607843 0 0 0 0 0.85490197 0 0 0 0 0.99607843 0 0 0 0.4 0"></feColorMatrix></filter><mask height="491.52002" id="mask-4" maskUnits="userSpaceOnUse" node-id="57" width="866.0115" x="71.192375" y="443.73334"><path d="M 950.90 512.00 L 950.60 526.60 L 949.90 541.10 L 948.70 555.50 L 947.00 569.70 L 944.90 583.90 L 942.30 598.00 L 939.30 612.10 L 935.80 625.90 L 931.90 639.70 L 927.50 653.20 L 922.70 666.70 L 917.50 679.90 L 911.80 693.10 L 905.70 705.90 L 899.20 718.60 L 892.20 731.10 L 884.90 743.40 L 877.10 755.50 L 869.00 767.30 L 860.40 778.80 L 851.50 790.10 L 842.20 801.10 L 832.50 811.80 L 822.30 822.30 L 811.80 832.50 L 801.10 842.20 L 790.10 851.50 L 778.80 860.40 L 767.30 869.00 L 755.50 877.10 L 743.40 884.90 L 731.10 892.20 L 718.60 899.20 L 705.90 905.70 L 693.10 911.80 L 679.90 917.50 L 666.70 922.70 L 653.20 927.50 L 639.70 931.90 L 625.90 935.80 L 612.10 939.30 L 598.00 942.30 L 583.90 944.90 L 569.70 947.00 L 555.50 948.70 L 541.10 949.90 L 526.60 950.60 L 512.00 950.90 L 497.40 950.60 L 482.90 949.90 L 468.50 948.70 L 454.30 947.00 L 440.10 944.90 L 426.00 942.30 L 411.90 939.30 L 398.10 935.80 L 384.30 931.90 L 370.80 927.50 L 357.30 922.70 L 344.10 917.50 L 330.90 911.80 L 318.10 905.70 L 305.40 899.20 L 292.90 892.20 L 280.60 884.90 L 268.50 877.10 L 256.70 869.00 L 245.20 860.40 L 233.90 851.50 L 222.90 842.20 L 212.20 832.50 L 201.70 822.30 L 191.50 811.80 L 181.80 801.10 L 172.50 790.10 L 163.60 778.80 L 155.00 767.30 L 146.90 755.50 L 139.10 743.40 L 131.80 731.10 L 124.80 718.60 L 118.30 705.90 L 112.20 693.10 L 106.50 679.90 L 101.30 666.70 L 96.50 653.20 L 92.10 639.70 L 88.20 625.90 L 84.70 612.10 L 81.70 598.00 L 79.10 583.90 L 77.00 569.70 L 75.30 555.50 L 74.10 541.10 L 73.40 526.60 L 73.10 512.00 L 73.40 497.40 L 74.10 482.90 L 75.30 468.50 L 77.00 454.30 L 79.10 440.10 L 81.70 426.00 L 84.70 411.90 L 88.20 398.10 L 92.10 384.30 L 96.50 370.80 L 101.30 357.30 L 106.50 344.10 L 112.20 330.90 L 118.30 318.10 L 124.80 305.40 L 131.80 292.90 L 139.10 280.60 L 146.90 268.50 L 155.00 256.70 L 163.60 245.20 L 172.50 233.90 L 181.80 222.90 L 191.50 212.20 L 201.70 201.70 L 212.20 191.50 L 222.90 181.80 L 233.90 172.50 L 245.20 163.60 L 256.70 155.00 L 268.50 146.90 L 280.60 139.10 L 292.90 131.80 L 305.40 124.80 L 318.10 118.30 L 330.90 112.20 L 344.10 106.50 L 357.30 101.30 L 370.80 96.50 L 384.30 92.10 L 398.10 88.20 L 411.90 84.70 L 426.00 81.70 L 440.10 79.10 L 454.30 77.00 L 468.50 75.30 L 482.90 74.10 L 497.40 73.40 L 512.00 73.10 L 526.60 73.40 L 541.10 74.10 L 555.50 75.30 L 569.70 77.00 L 583.90 79.10 L 598.00 81.70 L 612.10 84.70 L 625.90 88.20 L 639.70 92.10 L 653.20 96.50 L 666.70 101.30 L 679.90 106.50 L 693.10 112.20 L 705.90 118.30 L 718.60 124.80 L 731.10 131.80 L 743.40 139.10 L 755.50 146.90 L 767.30 155.00 L 778.80 163.60 L 790.10 172.50 L 801.10 181.80 L 811.80 191.50 L 822.30 201.70 L 832.50 212.20 L 842.20 222.90 L 851.50 233.90 L 860.40 245.20 L 869.00 256.70 L 877.10 268.50 L 884.90 280.60 L 892.20 292.90 L 899.20 305.40 L 905.70 318.10 L 911.80 330.90 L 917.50 344.10 L 922.70 357.30 L 927.50 370.80 L 931.90 384.30 L 935.80 398.10 L 939.30 411.90 L 942.30 426.00 L 944.90 440.10 L 947.00 454.30 L 948.70 468.50 L 949.90 482.90 L 950.60 497.40 L 950.90 512.00 Z" fill="#ffffff" fill-rule="evenodd" node-id="185" stroke="none" target-height="877.80005" target-width="877.80005" target-x="73.1" target-y="73.1"></path></mask><mask height="376.832" id="mask1" maskUnits="userSpaceOnUse" node-id="189" width="671.74396" x="169.30133" y="466.944"><path d="M 950.90 512.00 L 950.60 526.60 L 949.90 541.10 L 948.70 555.50 L 947.00 569.70 L 944.90 583.90 L 942.30 598.00 L 939.30 612.10 L 935.80 625.90 L 931.90 639.70 L 927.50 653.20 L 922.70 666.70 L 917.50 679.90 L 911.80 693.10 L 905.70 705.90 L 899.20 718.60 L 892.20 731.10 L 884.90 743.40 L 877.10 755.50 L 869.00 767.30 L 860.40 778.80 L 851.50 790.10 L 842.20 801.10 L 832.50 811.80 L 822.30 822.30 L 811.80 832.50 L 801.10 842.20 L 790.10 851.50 L 778.80 860.40 L 767.30 869.00 L 755.50 877.10 L 743.40 884.90 L 731.10 892.20 L 718.60 899.20 L 705.90 905.70 L 693.10 911.80 L 679.90 917.50 L 666.70 922.70 L 653.20 927.50 L 639.70 931.90 L 625.90 935.80 L 612.10 939.30 L 598.00 942.30 L 583.90 944.90 L 569.70 947.00 L 555.50 948.70 L 541.10 949.90 L 526.60 950.60 L 512.00 950.90 L 497.40 950.60 L 482.90 949.90 L 468.50 948.70 L 454.30 947.00 L 440.10 944.90 L 426.00 942.30 L 411.90 939.30 L 398.10 935.80 L 384.30 931.90 L 370.80 927.50 L 357.30 922.70 L 344.10 917.50 L 330.90 911.80 L 318.10 905.70 L 305.40 899.20 L 292.90 892.20 L 280.60 884.90 L 268.50 877.10 L 256.70 869.00 L 245.20 860.40 L 233.90 851.50 L 222.90 842.20 L 212.20 832.50 L 201.70 822.30 L 191.50 811.80 L 181.80 801.10 L 172.50 790.10 L 163.60 778.80 L 155.00 767.30 L 146.90 755.50 L 139.10 743.40 L 131.80 731.10 L 124.80 718.60 L 118.30 705.90 L 112.20 693.10 L 106.50 679.90 L 101.30 666.70 L 96.50 653.20 L 92.10 639.70 L 88.20 625.90 L 84.70 612.10 L 81.70 598.00 L 79.10 583.90 L 77.00 569.70 L 75.30 555.50 L 74.10 541.10 L 73.40 526.60 L 73.10 512.00 L 73.40 497.40 L 74.10 482.90 L 75.30 468.50 L 77.00 454.30 L 79.10 440.10 L 81.70 426.00 L 84.70 411.90 L 88.20 398.10 L 92.10 384.30 L 96.50 370.80 L 101.30 357.30 L 106.50 344.10 L 112.20 330.90 L 118.30 318.10 L 124.80 305.40 L 131.80 292.90 L 139.10 280.60 L 146.90 268.50 L 155.00 256.70 L 163.60 245.20 L 172.50 233.90 L 181.80 222.90 L 191.50 212.20 L 201.70 201.70 L 212.20 191.50 L 222.90 181.80 L 233.90 172.50 L 245.20 163.60 L 256.70 155.00 L 268.50 146.90 L 280.60 139.10 L 292.90 131.80 L 305.40 124.80 L 318.10 118.30 L 330.90 112.20 L 344.10 106.50 L 357.30 101.30 L 370.80 96.50 L 384.30 92.10 L 398.10 88.20 L 411.90 84.70 L 426.00 81.70 L 440.10 79.10 L 454.30 77.00 L 468.50 75.30 L 482.90 74.10 L 497.40 73.40 L 512.00 73.10 L 526.60 73.40 L 541.10 74.10 L 555.50 75.30 L 569.70 77.00 L 583.90 79.10 L 598.00 81.70 L 612.10 84.70 L 625.90 88.20 L 639.70 92.10 L 653.20 96.50 L 666.70 101.30 L 679.90 106.50 L 693.10 112.20 L 705.90 118.30 L 718.60 124.80 L 731.10 131.80 L 743.40 139.10 L 755.50 146.90 L 767.30 155.00 L 778.80 163.60 L 790.10 172.50 L 801.10 181.80 L 811.80 191.50 L 822.30 201.70 L 832.50 212.20 L 842.20 222.90 L 851.50 233.90 L 860.40 245.20 L 869.00 256.70 L 877.10 268.50 L 884.90 280.60 L 892.20 292.90 L 899.20 305.40 L 905.70 318.10 L 911.80 330.90 L 917.50 344.10 L 922.70 357.30 L 927.50 370.80 L 931.90 384.30 L 935.80 398.10 L 939.30 411.90 L 942.30 426.00 L 944.90 440.10 L 947.00 454.30 L 948.70 468.50 L 949.90 482.90 L 950.60 497.40 L 950.90 512.00 Z" fill="#ffffff" fill-rule="evenodd" node-id="193" stroke="none" target-height="877.80005" target-width="877.80005" target-x="73.1" target-y="73.1"></path></mask><mask height="799.3716" id="mask2" maskUnits="userSpaceOnUse" node-id="197" width="552.583" x="3476.1646" y="4756.285"><path d="M 4180.70 5208.90 L 4180.40 5223.50 L 4178.50 5252.40 L 4176.90 5266.60 L 4174.70 5280.80 L 4172.20 5294.90 L 4169.10 5309.00 L 4165.60 5322.90 L 4161.70 5336.60 L 4157.30 5350.10 L 4152.50 5363.60 L 4147.30 5376.90 L 4141.60 5390.00 L 4135.50 5402.90 L 4129.00 5415.60 L 4122.10 5428.00 L 4114.70 5440.30 L 4106.90 5452.40 L 4098.80 5464.20 L 4090.30 5475.70 L 4081.30 5487.00 L 4072.00 5498.00 L 4062.30 5508.70 L 4052.10 5519.20 L 4041.60 5529.40 L 4030.90 5539.10 L 4019.90 5548.40 L 4008.60 5557.40 L 3997.10 5565.90 L 3985.30 5574.00 L 3973.20 5581.80 L 3960.90 5589.20 L 3948.40 5596.10 L 3935.80 5602.60 L 3922.90 5608.70 L 3909.80 5614.40 L 3896.50 5619.60 L 3883.00 5624.40 L 3869.50 5628.80 L 3855.80 5632.70 L 3841.90 5636.20 L 3827.80 5639.30 L 3813.70 5641.90 L 3799.50 5644.00 L 3785.30 5645.60 L 3770.90 5646.80 L 3756.40 5647.50 L 3741.80 5647.80 L 3727.20 5647.50 L 3712.70 5646.80 L 3698.40 5645.60 L 3684.10 5644.00 L 3669.90 5641.90 L 3655.80 5639.30 L 3641.80 5636.20 L 3614.20 5628.80 L 3600.60 5624.40 L 3587.20 5619.60 L 3573.90 5614.40 L 3560.80 5608.70 L 3547.90 5602.60 L 3535.20 5596.10 L 3522.70 5589.20 L 3510.40 5581.80 L 3498.30 5574.00 L 3486.50 5565.90 L 3475.00 5557.40 L 3463.70 5548.40 L 3452.70 5539.10 L 3442.00 5529.40 L 3431.50 5519.20 L 3421.40 5508.70 L 3411.60 5498.00 L 3402.30 5487.00 L 3393.40 5475.70 L 3384.80 5464.20 L 3376.70 5452.40 L 3368.90 5440.30 L 3361.60 5428.00 L 3354.60 5415.60 L 3348.10 5402.90 L 3342.00 5390.00 L 3336.40 5376.90 L 3326.30 5350.10 L 3318.00 5322.90 L 3314.50 5309.00 L 3311.50 5294.90 L 3308.90 5280.80 L 3306.80 5266.60 L 3303.90 5238.00 L 3303.20 5223.50 L 3303.00 5208.90 L 3303.20 5194.30 L 3303.90 5179.80 L 3305.10 5165.50 L 3306.80 5151.20 L 3308.90 5137.00 L 3311.50 5122.90 L 3314.50 5108.90 L 3318.00 5095.00 L 3321.90 5081.30 L 3326.30 5067.70 L 3331.10 5054.30 L 3342.00 5027.90 L 3348.10 5015.00 L 3354.60 5002.30 L 3361.60 4989.80 L 3368.90 4977.50 L 3376.70 4965.40 L 3384.80 4953.60 L 3393.40 4942.10 L 3402.30 4930.80 L 3411.60 4919.80 L 3421.40 4909.10 L 3431.50 4898.60 L 3442.00 4888.50 L 3452.70 4878.70 L 3463.70 4869.40 L 3475.00 4860.50 L 3486.50 4851.90 L 3498.30 4843.80 L 3510.40 4836.00 L 3522.70 4828.70 L 3535.20 4821.80 L 3547.90 4815.20 L 3560.80 4809.20 L 3573.90 4803.50 L 3587.20 4798.20 L 3600.60 4793.40 L 3614.20 4789.00 L 3627.90 4785.10 L 3641.80 4781.60 L 3655.80 4778.60 L 3669.90 4776.00 L 3684.10 4773.90 L 3698.40 4772.20 L 3712.70 4771.00 L 3727.20 4770.30 L 3741.80 4770.10 L 3756.40 4770.30 L 3770.90 4771.00 L 3785.30 4772.20 L 3799.50 4773.90 L 3813.70 4776.00 L 3827.80 4778.60 L 3841.90 4781.60 L 3855.80 4785.10 L 3869.50 4789.00 L 3883.00 4793.40 L 3896.50 4798.20 L 3909.80 4803.50 L 3922.90 4809.20 L 3935.80 4815.20 L 3948.40 4821.80 L 3960.90 4828.70 L 3973.20 4836.00 L 3985.30 4843.80 L 3997.10 4851.90 L 4008.60 4860.50 L 4019.90 4869.40 L 4030.90 4878.70 L 4041.60 4888.50 L 4052.10 4898.60 L 4062.30 4909.10 L 4081.30 4930.80 L 4098.80 4953.60 L 4106.90 4965.40 L 4114.70 4977.50 L 4122.10 4989.80 L 4129.00 5002.30 L 4141.60 5027.90 L 4147.30 5041.00 L 4152.50 5054.30 L 4157.30 5067.70 L 4161.70 5081.30 L 4165.60 5095.00 L 4169.10 5108.90 L 4172.20 5122.90 L 4174.70 5137.00 L 4176.90 5151.20 L 4178.50 5165.50 L 4179.70 5179.80 L 4180.40 5194.30 L 4180.70 5208.90 Z" fill="#ffffff" fill-rule="evenodd" node-id="201" stroke="none" target-height="877.6997" target-width="877.7002" target-x="3303" target-y="4770.1"></path></mask><mask height="35.108574" id="mask-13" maskUnits="userSpaceOnUse" node-id="77" width="35.108574" x="-2.9257143" y="-2.9257143"><path d="M 0.00 19.90 L 0.00 29.30 L 29.30 9.30 L 29.30 0.00 Z" fill="#ffffff" fill-rule="evenodd" node-id="208" stroke="none" target-height="29.3" target-width="29.3" target-x="0" target-y="0"></path></mask><mask height="52.66286" id="mask-16" maskUnits="userSpaceOnUse" node-id="82" width="70.21715" x="-5.8514285" y="-4.3885717"><path d="M 0.00 34.80 L 0.00 43.90 L 58.50 9.10 L 58.50 0.00 Z" fill="#ffffff" fill-rule="evenodd" node-id="215" stroke="none" target-height="43.9" target-width="58.5" target-x="0" target-y="0"></path></mask><mask height="229.77975" id="mask3" maskUnits="userSpaceOnUse" node-id="219" width="386.19427" x="362.78857" y="418.39713"><path d="M 950.90 512.00 L 950.60 526.60 L 949.90 541.10 L 948.70 555.50 L 947.00 569.70 L 944.90 583.90 L 942.30 598.00 L 939.30 612.10 L 935.80 625.90 L 931.90 639.70 L 927.50 653.20 L 922.70 666.70 L 917.50 679.90 L 911.80 693.10 L 905.70 705.90 L 899.20 718.60 L 892.20 731.10 L 884.90 743.40 L 877.10 755.50 L 869.00 767.30 L 860.40 778.80 L 851.50 790.10 L 842.20 801.10 L 832.50 811.80 L 822.30 822.30 L 811.80 832.50 L 801.10 842.20 L 790.10 851.50 L 778.80 860.40 L 767.30 869.00 L 755.50 877.10 L 743.40 884.90 L 731.10 892.20 L 718.60 899.20 L 705.90 905.70 L 693.10 911.80 L 679.90 917.50 L 666.70 922.70 L 653.20 927.50 L 639.70 931.90 L 625.90 935.80 L 612.10 939.30 L 598.00 942.30 L 583.90 944.90 L 569.70 947.00 L 555.50 948.70 L 541.10 949.90 L 526.60 950.60 L 512.00 950.90 L 497.40 950.60 L 482.90 949.90 L 468.50 948.70 L 454.30 947.00 L 440.10 944.90 L 426.00 942.30 L 411.90 939.30 L 398.10 935.80 L 384.30 931.90 L 370.80 927.50 L 357.30 922.70 L 344.10 917.50 L 330.90 911.80 L 318.10 905.70 L 305.40 899.20 L 292.90 892.20 L 280.60 884.90 L 268.50 877.10 L 256.70 869.00 L 245.20 860.40 L 233.90 851.50 L 222.90 842.20 L 212.20 832.50 L 201.70 822.30 L 191.50 811.80 L 181.80 801.10 L 172.50 790.10 L 163.60 778.80 L 155.00 767.30 L 146.90 755.50 L 139.10 743.40 L 131.80 731.10 L 124.80 718.60 L 118.30 705.90 L 112.20 693.10 L 106.50 679.90 L 101.30 666.70 L 96.50 653.20 L 92.10 639.70 L 88.20 625.90 L 84.70 612.10 L 81.70 598.00 L 79.10 583.90 L 77.00 569.70 L 75.30 555.50 L 74.10 541.10 L 73.40 526.60 L 73.10 512.00 L 73.40 497.40 L 74.10 482.90 L 75.30 468.50 L 77.00 454.30 L 79.10 440.10 L 81.70 426.00 L 84.70 411.90 L 88.20 398.10 L 92.10 384.30 L 96.50 370.80 L 101.30 357.30 L 106.50 344.10 L 112.20 330.90 L 118.30 318.10 L 124.80 305.40 L 131.80 292.90 L 139.10 280.60 L 146.90 268.50 L 155.00 256.70 L 163.60 245.20 L 172.50 233.90 L 181.80 222.90 L 191.50 212.20 L 201.70 201.70 L 212.20 191.50 L 222.90 181.80 L 233.90 172.50 L 245.20 163.60 L 256.70 155.00 L 268.50 146.90 L 280.60 139.10 L 292.90 131.80 L 305.40 124.80 L 318.10 118.30 L 330.90 112.20 L 344.10 106.50 L 357.30 101.30 L 370.80 96.50 L 384.30 92.10 L 398.10 88.20 L 411.90 84.70 L 426.00 81.70 L 440.10 79.10 L 454.30 77.00 L 468.50 75.30 L 482.90 74.10 L 497.40 73.40 L 512.00 73.10 L 526.60 73.40 L 541.10 74.10 L 555.50 75.30 L 569.70 77.00 L 583.90 79.10 L 598.00 81.70 L 612.10 84.70 L 625.90 88.20 L 639.70 92.10 L 653.20 96.50 L 666.70 101.30 L 679.90 106.50 L 693.10 112.20 L 705.90 118.30 L 718.60 124.80 L 731.10 131.80 L 743.40 139.10 L 755.50 146.90 L 767.30 155.00 L 778.80 163.60 L 790.10 172.50 L 801.10 181.80 L 811.80 191.50 L 822.30 201.70 L 832.50 212.20 L 842.20 222.90 L 851.50 233.90 L 860.40 245.20 L 869.00 256.70 L 877.10 268.50 L 884.90 280.60 L 892.20 292.90 L 899.20 305.40 L 905.70 318.10 L 911.80 330.90 L 917.50 344.10 L 922.70 357.30 L 927.50 370.80 L 931.90 384.30 L 935.80 398.10 L 939.30 411.90 L 942.30 426.00 L 944.90 440.10 L 947.00 454.30 L 948.70 468.50 L 949.90 482.90 L 950.60 497.40 L 950.90 512.00 Z" fill="#ffffff" fill-rule="evenodd" node-id="223" stroke="none" target-height="877.80005" target-width="877.80005" target-x="73.1" target-y="73.1"></path></mask><mask height="256.78983" id="mask4" maskUnits="userSpaceOnUse" node-id="227" width="877.53345" x="74.49887" y="360.8942"><path d="M 950.90 512.00 L 950.60 526.60 L 949.90 541.10 L 948.70 555.50 L 947.00 569.70 L 944.90 583.90 L 942.30 598.00 L 939.30 612.10 L 935.80 625.90 L 931.90 639.70 L 927.50 653.20 L 922.70 666.70 L 917.50 679.90 L 911.80 693.10 L 905.70 705.90 L 899.20 718.60 L 892.20 731.10 L 884.90 743.40 L 877.10 755.50 L 869.00 767.30 L 860.40 778.80 L 851.50 790.10 L 842.20 801.10 L 832.50 811.80 L 822.30 822.30 L 811.80 832.50 L 801.10 842.20 L 790.10 851.50 L 778.80 860.40 L 767.30 869.00 L 755.50 877.10 L 743.40 884.90 L 731.10 892.20 L 718.60 899.20 L 705.90 905.70 L 693.10 911.80 L 679.90 917.50 L 666.70 922.70 L 653.20 927.50 L 639.70 931.90 L 625.90 935.80 L 612.10 939.30 L 598.00 942.30 L 583.90 944.90 L 569.70 947.00 L 555.50 948.70 L 541.10 949.90 L 526.60 950.60 L 512.00 950.90 L 497.40 950.60 L 482.90 949.90 L 468.50 948.70 L 454.30 947.00 L 440.10 944.90 L 426.00 942.30 L 411.90 939.30 L 398.10 935.80 L 384.30 931.90 L 370.80 927.50 L 357.30 922.70 L 344.10 917.50 L 330.90 911.80 L 318.10 905.70 L 305.40 899.20 L 292.90 892.20 L 280.60 884.90 L 268.50 877.10 L 256.70 869.00 L 245.20 860.40 L 233.90 851.50 L 222.90 842.20 L 212.20 832.50 L 201.70 822.30 L 191.50 811.80 L 181.80 801.10 L 172.50 790.10 L 163.60 778.80 L 155.00 767.30 L 146.90 755.50 L 139.10 743.40 L 131.80 731.10 L 124.80 718.60 L 118.30 705.90 L 112.20 693.10 L 106.50 679.90 L 101.30 666.70 L 96.50 653.20 L 92.10 639.70 L 88.20 625.90 L 84.70 612.10 L 81.70 598.00 L 79.10 583.90 L 77.00 569.70 L 75.30 555.50 L 74.10 541.10 L 73.40 526.60 L 73.10 512.00 L 73.40 497.40 L 74.10 482.90 L 75.30 468.50 L 77.00 454.30 L 79.10 440.10 L 81.70 426.00 L 84.70 411.90 L 88.20 398.10 L 92.10 384.30 L 96.50 370.80 L 101.30 357.30 L 106.50 344.10 L 112.20 330.90 L 118.30 318.10 L 124.80 305.40 L 131.80 292.90 L 139.10 280.60 L 146.90 268.50 L 155.00 256.70 L 163.60 245.20 L 172.50 233.90 L 181.80 222.90 L 191.50 212.20 L 201.70 201.70 L 212.20 191.50 L 222.90 181.80 L 233.90 172.50 L 245.20 163.60 L 256.70 155.00 L 268.50 146.90 L 280.60 139.10 L 292.90 131.80 L 305.40 124.80 L 318.10 118.30 L 330.90 112.20 L 344.10 106.50 L 357.30 101.30 L 370.80 96.50 L 384.30 92.10 L 398.10 88.20 L 411.90 84.70 L 426.00 81.70 L 440.10 79.10 L 454.30 77.00 L 468.50 75.30 L 482.90 74.10 L 497.40 73.40 L 512.00 73.10 L 526.60 73.40 L 541.10 74.10 L 555.50 75.30 L 569.70 77.00 L 583.90 79.10 L 598.00 81.70 L 612.10 84.70 L 625.90 88.20 L 639.70 92.10 L 653.20 96.50 L 666.70 101.30 L 679.90 106.50 L 693.10 112.20 L 705.90 118.30 L 718.60 124.80 L 731.10 131.80 L 743.40 139.10 L 755.50 146.90 L 767.30 155.00 L 778.80 163.60 L 790.10 172.50 L 801.10 181.80 L 811.80 191.50 L 822.30 201.70 L 832.50 212.20 L 842.20 222.90 L 851.50 233.90 L 860.40 245.20 L 869.00 256.70 L 877.10 268.50 L 884.90 280.60 L 892.20 292.90 L 899.20 305.40 L 905.70 318.10 L 911.80 330.90 L 917.50 344.10 L 922.70 357.30 L 927.50 370.80 L 931.90 384.30 L 935.80 398.10 L 939.30 411.90 L 942.30 426.00 L 944.90 440.10 L 947.00 454.30 L 948.70 468.50 L 949.90 482.90 L 950.60 497.40 L 950.90 512.00 Z" fill="#ffffff" fill-rule="evenodd" node-id="231" stroke="none" target-height="877.80005" target-width="877.80005" target-x="73.1" target-y="73.1"></path></mask></defs><g node-id="284"><g node-id="285"><g node-id="292"><path d="M 1024.00 512.00 L 1023.70 528.30 L 1023.00 544.50 L 1021.70 560.60 L 1019.90 576.70 L 1017.60 592.60 L 1014.80 608.40 L 1011.60 624.20 L 1007.80 639.70 L 1003.60 655.20 L 998.90 670.40 L 993.70 685.60 L 988.00 700.50 L 981.90 715.30 L 975.30 729.80 L 968.30 744.20 L 960.80 758.40 L 952.90 772.30 L 944.60 785.90 L 935.80 799.40 L 926.50 812.60 L 916.90 825.40 L 906.80 838.00 L 896.30 850.30 L 885.40 862.30 L 874.00 874.00 L 862.30 885.40 L 850.30 896.30 L 838.00 906.80 L 825.40 916.90 L 812.60 926.50 L 799.40 935.80 L 785.90 944.60 L 772.30 952.90 L 758.40 960.80 L 744.20 968.30 L 729.80 975.30 L 715.30 981.90 L 700.50 988.00 L 685.60 993.70 L 670.40 998.90 L 655.20 1003.60 L 639.70 1007.80 L 624.20 1011.60 L 608.40 1014.80 L 592.60 1017.60 L 576.70 1019.90 L 560.60 1021.70 L 544.50 1023.00 L 528.30 1023.70 L 512.00 1024.00 L 495.70 1023.70 L 479.50 1023.00 L 463.40 1021.70 L 447.30 1019.90 L 431.40 1017.60 L 415.60 1014.80 L 399.80 1011.60 L 384.30 1007.80 L 368.80 1003.60 L 353.60 998.90 L 338.40 993.70 L 323.50 988.00 L 308.70 981.90 L 294.20 975.30 L 279.80 968.30 L 265.60 960.80 L 251.70 952.90 L 238.10 944.60 L 224.60 935.80 L 211.40 926.50 L 198.60 916.90 L 186.00 906.80 L 173.70 896.30 L 161.70 885.40 L 150.00 874.00 L 138.60 862.30 L 127.70 850.30 L 117.20 838.00 L 107.10 825.40 L 97.50 812.60 L 88.20 799.40 L 79.40 785.90 L 71.10 772.30 L 63.20 758.40 L 55.70 744.20 L 48.70 729.80 L 42.10 715.30 L 36.00 700.50 L 30.30 685.60 L 25.10 670.40 L 20.40 655.20 L 16.20 639.70 L 12.40 624.20 L 9.20 608.40 L 6.40 592.60 L 4.10 576.70 L 2.30 560.60 L 1.00 544.50 L 0.30 528.30 L 0.00 512.00 L 0.30 495.70 L 1.00 479.50 L 2.30 463.40 L 4.10 447.30 L 6.40 431.40 L 9.20 415.60 L 12.40 399.80 L 16.20 384.30 L 20.40 368.80 L 25.10 353.60 L 30.30 338.40 L 36.00 323.50 L 42.10 308.70 L 48.70 294.20 L 55.70 279.80 L 63.20 265.60 L 71.10 251.70 L 79.40 238.10 L 88.20 224.60 L 97.50 211.40 L 107.10 198.60 L 117.20 186.00 L 127.70 173.70 L 138.60 161.70 L 150.00 150.00 L 161.70 138.60 L 173.70 127.70 L 186.00 117.20 L 198.60 107.10 L 211.40 97.50 L 224.60 88.20 L 238.10 79.40 L 251.70 71.10 L 265.60 63.20 L 279.80 55.70 L 294.20 48.70 L 308.70 42.10 L 323.50 36.00 L 338.40 30.30 L 353.60 25.10 L 368.80 20.40 L 384.30 16.20 L 399.80 12.40 L 415.60 9.20 L 431.40 6.40 L 447.30 4.10 L 463.40 2.30 L 479.50 1.00 L 495.70 0.30 L 512.00 0.00 L 528.30 0.30 L 544.50 1.00 L 560.60 2.30 L 576.70 4.10 L 592.60 6.40 L 608.40 9.20 L 624.20 12.40 L 639.70 16.20 L 655.20 20.40 L 670.40 25.10 L 685.60 30.30 L 700.50 36.00 L 715.30 42.10 L 729.80 48.70 L 744.20 55.70 L 758.40 63.20 L 772.30 71.10 L 785.90 79.40 L 799.40 88.20 L 812.60 97.50 L 825.40 107.10 L 838.00 117.20 L 850.30 127.70 L 862.30 138.60 L 874.00 150.00 L 885.40 161.70 L 896.30 173.70 L 906.80 186.00 L 916.90 198.60 L 926.50 211.40 L 935.80 224.60 L 944.60 238.10 L 952.90 251.70 L 960.80 265.60 L 968.30 279.80 L 975.30 294.20 L 981.90 308.70 L 988.00 323.50 L 993.70 338.40 L 998.90 353.60 L 1003.60 368.80 L 1007.80 384.30 L 1011.60 399.80 L 1014.80 415.60 L 1017.60 431.40 L 1019.90 447.30 L 1021.70 463.40 L 1023.00 479.50 L 1023.70 495.70 L 1024.00 512.00 Z" fill="#ffffff" fill-rule="evenodd" group-id="1,2,9" node-id="241" stroke="none" target-height="1024" target-width="1024" target-x="0" target-y="0"></path></g><path d="M 1024.00 512.00 L 1023.70 528.30 L 1023.00 544.50 L 1021.70 560.60 L 1019.90 576.70 L 1017.60 592.60 L 1014.80 608.40 L 1011.60 624.20 L 1007.80 639.70 L 1003.60 655.20 L 998.90 670.40 L 993.70 685.60 L 988.00 700.50 L 981.90 715.30 L 975.30 729.80 L 968.30 744.20 L 960.80 758.40 L 952.90 772.30 L 944.60 785.90 L 935.80 799.40 L 926.50 812.60 L 916.90 825.40 L 906.80 838.00 L 896.30 850.30 L 885.40 862.30 L 874.00 874.00 L 862.30 885.40 L 850.30 896.30 L 838.00 906.80 L 825.40 916.90 L 812.60 926.50 L 799.40 935.80 L 785.90 944.60 L 772.30 952.90 L 758.40 960.80 L 744.20 968.30 L 729.80 975.30 L 715.30 981.90 L 700.50 988.00 L 685.60 993.70 L 670.40 998.90 L 655.20 1003.60 L 639.70 1007.80 L 624.20 1011.60 L 608.40 1014.80 L 592.60 1017.60 L 576.70 1019.90 L 560.60 1021.70 L 544.50 1023.00 L 528.30 1023.70 L 512.00 1024.00 L 495.70 1023.70 L 479.50 1023.00 L 463.40 1021.70 L 447.30 1019.90 L 431.40 1017.60 L 415.60 1014.80 L 399.80 1011.60 L 384.30 1007.80 L 368.80 1003.60 L 353.60 998.90 L 338.40 993.70 L 323.50 988.00 L 308.70 981.90 L 294.20 975.30 L 279.80 968.30 L 265.60 960.80 L 251.70 952.90 L 238.10 944.60 L 224.60 935.80 L 211.40 926.50 L 198.60 916.90 L 186.00 906.80 L 173.70 896.30 L 161.70 885.40 L 150.00 874.00 L 138.60 862.30 L 127.70 850.30 L 117.20 838.00 L 107.10 825.40 L 97.50 812.60 L 88.20 799.40 L 79.40 785.90 L 71.10 772.30 L 63.20 758.40 L 55.70 744.20 L 48.70 729.80 L 42.10 715.30 L 36.00 700.50 L 30.30 685.60 L 25.10 670.40 L 20.40 655.20 L 16.20 639.70 L 12.40 624.20 L 9.20 608.40 L 6.40 592.60 L 4.10 576.70 L 2.30 560.60 L 1.00 544.50 L 0.30 528.30 L 0.00 512.00 L 0.30 495.70 L 1.00 479.50 L 2.30 463.40 L 4.10 447.30 L 6.40 431.40 L 9.20 415.60 L 12.40 399.80 L 16.20 384.30 L 20.40 368.80 L 25.10 353.60 L 30.30 338.40 L 36.00 323.50 L 42.10 308.70 L 48.70 294.20 L 55.70 279.80 L 63.20 265.60 L 71.10 251.70 L 79.40 238.10 L 88.20 224.60 L 97.50 211.40 L 107.10 198.60 L 117.20 186.00 L 127.70 173.70 L 138.60 161.70 L 150.00 150.00 L 161.70 138.60 L 173.70 127.70 L 186.00 117.20 L 198.60 107.10 L 211.40 97.50 L 224.60 88.20 L 238.10 79.40 L 251.70 71.10 L 265.60 63.20 L 279.80 55.70 L 294.20 48.70 L 308.70 42.10 L 323.50 36.00 L 338.40 30.30 L 353.60 25.10 L 368.80 20.40 L 384.30 16.20 L 399.80 12.40 L 415.60 9.20 L 431.40 6.40 L 447.30 4.10 L 463.40 2.30 L 479.50 1.00 L 495.70 0.30 L 512.00 0.00 L 528.30 0.30 L 544.50 1.00 L 560.60 2.30 L 576.70 4.10 L 592.60 6.40 L 608.40 9.20 L 624.20 12.40 L 639.70 16.20 L 655.20 20.40 L 670.40 25.10 L 685.60 30.30 L 700.50 36.00 L 715.30 42.10 L 729.80 48.70 L 744.20 55.70 L 758.40 63.20 L 772.30 71.10 L 785.90 79.40 L 799.40 88.20 L 812.60 97.50 L 825.40 107.10 L 838.00 117.20 L 850.30 127.70 L 862.30 138.60 L 874.00 150.00 L 885.40 161.70 L 896.30 173.70 L 906.80 186.00 L 916.90 198.60 L 926.50 211.40 L 935.80 224.60 L 944.60 238.10 L 952.90 251.70 L 960.80 265.60 L 968.30 279.80 L 975.30 294.20 L 981.90 308.70 L 988.00 323.50 L 993.70 338.40 L 998.90 353.60 L 1003.60 368.80 L 1007.80 384.30 L 1011.60 399.80 L 1014.80 415.60 L 1017.60 431.40 L 1019.90 447.30 L 1021.70 463.40 L 1023.00 479.50 L 1023.70 495.70 L 1024.00 512.00 Z" fill="#000000" fill-rule="evenodd" filter="url(#filter-2)" group-id="1,2,10" node-id="246" stroke="none" target-height="1024" target-width="1024" target-x="0" target-y="0"></path></g><g node-id="286"><g node-id="294"><path d="M 950.90 512.00 L 950.60 526.60 L 949.90 541.10 L 948.70 555.50 L 947.00 569.70 L 944.90 583.90 L 942.30 598.00 L 939.30 612.10 L 935.80 625.90 L 931.90 639.70 L 927.50 653.20 L 922.70 666.70 L 917.50 679.90 L 911.80 693.10 L 905.70 705.90 L 899.20 718.60 L 892.20 731.10 L 884.90 743.40 L 877.10 755.50 L 869.00 767.30 L 860.40 778.80 L 851.50 790.10 L 842.20 801.10 L 832.50 811.80 L 822.30 822.30 L 811.80 832.50 L 801.10 842.20 L 790.10 851.50 L 778.80 860.40 L 767.30 869.00 L 755.50 877.10 L 743.40 884.90 L 731.10 892.20 L 718.60 899.20 L 705.90 905.70 L 693.10 911.80 L 679.90 917.50 L 666.70 922.70 L 653.20 927.50 L 639.70 931.90 L 625.90 935.80 L 612.10 939.30 L 598.00 942.30 L 583.90 944.90 L 569.70 947.00 L 555.50 948.70 L 541.10 949.90 L 526.60 950.60 L 512.00 950.90 L 497.40 950.60 L 482.90 949.90 L 468.50 948.70 L 454.30 947.00 L 440.10 944.90 L 426.00 942.30 L 411.90 939.30 L 398.10 935.80 L 384.30 931.90 L 370.80 927.50 L 357.30 922.70 L 344.10 917.50 L 330.90 911.80 L 318.10 905.70 L 305.40 899.20 L 292.90 892.20 L 280.60 884.90 L 268.50 877.10 L 256.70 869.00 L 245.20 860.40 L 233.90 851.50 L 222.90 842.20 L 212.20 832.50 L 201.70 822.30 L 191.50 811.80 L 181.80 801.10 L 172.50 790.10 L 163.60 778.80 L 155.00 767.30 L 146.90 755.50 L 139.10 743.40 L 131.80 731.10 L 124.80 718.60 L 118.30 705.90 L 112.20 693.10 L 106.50 679.90 L 101.30 666.70 L 96.50 653.20 L 92.10 639.70 L 88.20 625.90 L 84.70 612.10 L 81.70 598.00 L 79.10 583.90 L 77.00 569.70 L 75.30 555.50 L 74.10 541.10 L 73.40 526.60 L 73.10 512.00 L 73.40 497.40 L 74.10 482.90 L 75.30 468.50 L 77.00 454.30 L 79.10 440.10 L 81.70 426.00 L 84.70 411.90 L 88.20 398.10 L 92.10 384.30 L 96.50 370.80 L 101.30 357.30 L 106.50 344.10 L 112.20 330.90 L 118.30 318.10 L 124.80 305.40 L 131.80 292.90 L 139.10 280.60 L 146.90 268.50 L 155.00 256.70 L 163.60 245.20 L 172.50 233.90 L 181.80 222.90 L 191.50 212.20 L 201.70 201.70 L 212.20 191.50 L 222.90 181.80 L 233.90 172.50 L 245.20 163.60 L 256.70 155.00 L 268.50 146.90 L 280.60 139.10 L 292.90 131.80 L 305.40 124.80 L 318.10 118.30 L 330.90 112.20 L 344.10 106.50 L 357.30 101.30 L 370.80 96.50 L 384.30 92.10 L 398.10 88.20 L 411.90 84.70 L 426.00 81.70 L 440.10 79.10 L 454.30 77.00 L 468.50 75.30 L 482.90 74.10 L 497.40 73.40 L 512.00 73.10 L 526.60 73.40 L 541.10 74.10 L 555.50 75.30 L 569.70 77.00 L 583.90 79.10 L 598.00 81.70 L 612.10 84.70 L 625.90 88.20 L 639.70 92.10 L 653.20 96.50 L 666.70 101.30 L 679.90 106.50 L 693.10 112.20 L 705.90 118.30 L 718.60 124.80 L 731.10 131.80 L 743.40 139.10 L 755.50 146.90 L 767.30 155.00 L 778.80 163.60 L 790.10 172.50 L 801.10 181.80 L 811.80 191.50 L 822.30 201.70 L 832.50 212.20 L 842.20 222.90 L 851.50 233.90 L 860.40 245.20 L 869.00 256.70 L 877.10 268.50 L 884.90 280.60 L 892.20 292.90 L 899.20 305.40 L 905.70 318.10 L 911.80 330.90 L 917.50 344.10 L 922.70 357.30 L 927.50 370.80 L 931.90 384.30 L 935.80 398.10 L 939.30 411.90 L 942.30 426.00 L 944.90 440.10 L 947.00 454.30 L 948.70 468.50 L 949.90 482.90 L 950.60 497.40 L 950.90 512.00 Z" fill="#316cd4" fill-rule="evenodd" group-id="1,3,11" node-id="253" stroke="none" target-height="877.80005" target-width="877.80005" target-x="73.1" target-y="73.1"></path></g><path d="M 950.90 512.00 L 950.60 526.60 L 949.90 541.10 L 948.70 555.50 L 947.00 569.70 L 944.90 583.90 L 942.30 598.00 L 939.30 612.10 L 935.80 625.90 L 931.90 639.70 L 927.50 653.20 L 922.70 666.70 L 917.50 679.90 L 911.80 693.10 L 905.70 705.90 L 899.20 718.60 L 892.20 731.10 L 884.90 743.40 L 877.10 755.50 L 869.00 767.30 L 860.40 778.80 L 851.50 790.10 L 842.20 801.10 L 832.50 811.80 L 822.30 822.30 L 811.80 832.50 L 801.10 842.20 L 790.10 851.50 L 778.80 860.40 L 767.30 869.00 L 755.50 877.10 L 743.40 884.90 L 731.10 892.20 L 718.60 899.20 L 705.90 905.70 L 693.10 911.80 L 679.90 917.50 L 666.70 922.70 L 653.20 927.50 L 639.70 931.90 L 625.90 935.80 L 612.10 939.30 L 598.00 942.30 L 583.90 944.90 L 569.70 947.00 L 555.50 948.70 L 541.10 949.90 L 526.60 950.60 L 512.00 950.90 L 497.40 950.60 L 482.90 949.90 L 468.50 948.70 L 454.30 947.00 L 440.10 944.90 L 426.00 942.30 L 411.90 939.30 L 398.10 935.80 L 384.30 931.90 L 370.80 927.50 L 357.30 922.70 L 344.10 917.50 L 330.90 911.80 L 318.10 905.70 L 305.40 899.20 L 292.90 892.20 L 280.60 884.90 L 268.50 877.10 L 256.70 869.00 L 245.20 860.40 L 233.90 851.50 L 222.90 842.20 L 212.20 832.50 L 201.70 822.30 L 191.50 811.80 L 181.80 801.10 L 172.50 790.10 L 163.60 778.80 L 155.00 767.30 L 146.90 755.50 L 139.10 743.40 L 131.80 731.10 L 124.80 718.60 L 118.30 705.90 L 112.20 693.10 L 106.50 679.90 L 101.30 666.70 L 96.50 653.20 L 92.10 639.70 L 88.20 625.90 L 84.70 612.10 L 81.70 598.00 L 79.10 583.90 L 77.00 569.70 L 75.30 555.50 L 74.10 541.10 L 73.40 526.60 L 73.10 512.00 L 73.40 497.40 L 74.10 482.90 L 75.30 468.50 L 77.00 454.30 L 79.10 440.10 L 81.70 426.00 L 84.70 411.90 L 88.20 398.10 L 92.10 384.30 L 96.50 370.80 L 101.30 357.30 L 106.50 344.10 L 112.20 330.90 L 118.30 318.10 L 124.80 305.40 L 131.80 292.90 L 139.10 280.60 L 146.90 268.50 L 155.00 256.70 L 163.60 245.20 L 172.50 233.90 L 181.80 222.90 L 191.50 212.20 L 201.70 201.70 L 212.20 191.50 L 222.90 181.80 L 233.90 172.50 L 245.20 163.60 L 256.70 155.00 L 268.50 146.90 L 280.60 139.10 L 292.90 131.80 L 305.40 124.80 L 318.10 118.30 L 330.90 112.20 L 344.10 106.50 L 357.30 101.30 L 370.80 96.50 L 384.30 92.10 L 398.10 88.20 L 411.90 84.70 L 426.00 81.70 L 440.10 79.10 L 454.30 77.00 L 468.50 75.30 L 482.90 74.10 L 497.40 73.40 L 512.00 73.10 L 526.60 73.40 L 541.10 74.10 L 555.50 75.30 L 569.70 77.00 L 583.90 79.10 L 598.00 81.70 L 612.10 84.70 L 625.90 88.20 L 639.70 92.10 L 653.20 96.50 L 666.70 101.30 L 679.90 106.50 L 693.10 112.20 L 705.90 118.30 L 718.60 124.80 L 731.10 131.80 L 743.40 139.10 L 755.50 146.90 L 767.30 155.00 L 778.80 163.60 L 790.10 172.50 L 801.10 181.80 L 811.80 191.50 L 822.30 201.70 L 832.50 212.20 L 842.20 222.90 L 851.50 233.90 L 860.40 245.20 L 869.00 256.70 L 877.10 268.50 L 884.90 280.60 L 892.20 292.90 L 899.20 305.40 L 905.70 318.10 L 911.80 330.90 L 917.50 344.10 L 922.70 357.30 L 927.50 370.80 L 931.90 384.30 L 935.80 398.10 L 939.30 411.90 L 942.30 426.00 L 944.90 440.10 L 947.00 454.30 L 948.70 468.50 L 949.90 482.90 L 950.60 497.40 L 950.90 512.00 Z" fill="#000000" fill-rule="evenodd" filter="url(#filter-5)" group-id="1,3,12" node-id="258" stroke="none" target-height="877.80005" target-width="877.80005" target-x="73.1" target-y="73.1"></path></g><g node-id="287"><g node-id="296"><path d="M 143.40 692.20 L 508.10 484.70 L 865.00 692.20 L 504.20 894.30 Z" fill="#000000" fill-rule="evenodd" filter="url(#filter-7)" group-id="1,4,13" node-id="265" stroke="none" target-height="409.59998" target-width="721.6" target-x="143.4" target-y="484.7"></path></g><path d="M 143.40 692.20 L 508.10 484.70 L 865.00 692.20 L 504.20 894.30 Z" fill="#ffffff" fill-rule="evenodd" group-id="1,4,14" node-id="270" stroke="#c2dafe" stroke-linecap="butt" stroke-width="1" target-height="409.59998" target-width="721.6" target-x="143.4" target-y="484.7"></path></g><g node-id="288"><g node-id="298"><path d="M 225.30 657.40 L 508.20 498.30 L 785.10 657.40 L 505.20 812.40 Z" fill="#000000" fill-rule="evenodd" filter="url(#filter-9)" group-id="1,5,15" node-id="277" stroke="none" target-height="314.10004" target-width="559.8" target-x="225.3" target-y="498.3"></path></g><path d="M 225.30 657.40 L 508.20 498.30 L 785.10 657.40 L 505.20 812.40 Z" fill="#c2dafe" fill-rule="evenodd" group-id="1,5,16" node-id="282" stroke="none" target-height="314.10004" target-width="559.8" target-x="225.3" target-y="498.3"></path></g><g node-id="289"><g node-id="300"><path d="M 551.10 206.10 L 549.80 207.10 L 548.80 208.50 L 548.20 210.10 L 548.00 211.60 L 548.00 269.80 L 308.30 407.60 L 305.80 409.40 L 303.60 411.80 L 301.80 414.60 L 300.50 417.60 L 299.60 420.70 L 299.40 423.70 L 299.50 712.10 L 300.20 715.60 L 302.00 717.80 L 304.50 718.70 L 307.50 718.30 L 309.20 717.50 L 670.90 509.60 L 673.30 507.80 L 675.50 505.40 L 677.30 502.70 L 678.70 499.70 L 679.50 496.50 L 679.70 493.50 L 679.50 134.90 L 678.50 133.80 L 677.80 133.60 L 676.30 134.00 L 551.10 206.10 Z" fill="url(#linearGradient1)" fill-rule="evenodd" group-id="1,6,17" id="Fill-1" node-id="70" stroke="none" target-height="585.1" target-width="380.30002" target-x="299.4" target-y="133.6"></path><path d="M 668.90 126.00 L 666.90 126.30 L 542.50 198.40 L 541.20 199.40 L 540.20 200.80 L 539.60 202.40 L 539.40 204.00 L 539.40 262.20 L 301.20 400.20 L 298.80 402.00 L 296.60 404.40 L 294.80 407.10 L 293.40 410.20 L 292.60 413.30 L 292.40 416.30 L 292.50 705.00 L 292.70 708.40 L 293.30 711.00 L 295.30 714.80 L 297.80 717.10 L 299.90 718.20 L 303.20 719.00 L 301.90 716.20 L 301.60 714.10 L 301.50 425.40 L 301.70 422.40 L 302.50 419.20 L 303.90 416.20 L 305.70 413.50 L 307.90 411.10 L 310.30 409.30 L 548.50 271.30 L 548.50 213.10 L 548.70 211.50 L 549.30 209.90 L 550.30 208.50 L 551.50 207.50 L 676.00 135.40 L 677.30 135.00 L 678.30 135.20 L 679.00 135.80 L 679.30 137.10 L 679.10 132.70 L 678.50 130.90 L 677.50 129.50 L 676.20 128.30 L 673.30 126.80 L 668.90 126.00 Z" fill="url(#linearGradient-11)" fill-rule="evenodd" group-id="1,6,17" id="Fill-3" node-id="71" stroke="none" target-height="593" target-width="386.9" target-x="292.4" target-y="126"></path><path d="M 749.50 207.20 L 624.20 279.20 L 623.00 280.20 L 622.00 281.60 L 621.30 283.20 L 621.10 284.80 L 621.20 343.00 L 381.40 480.80 L 379.00 482.60 L 376.80 485.00 L 375.00 487.70 L 373.60 490.70 L 372.80 493.90 L 372.60 496.90 L 372.60 785.30 L 373.40 788.80 L 375.10 790.90 L 377.60 791.90 L 380.60 791.40 L 744.00 582.70 L 746.40 580.90 L 748.60 578.60 L 750.50 575.80 L 751.80 572.80 L 752.70 569.70 L 752.90 566.70 L 752.90 209.00 L 752.70 208.00 L 751.70 206.90 L 750.90 206.80 L 749.50 207.20" fill="url(#linearGradient-10)" fill-rule="evenodd" group-id="1,6,17" id="Fill-5" node-id="72" stroke="none" target-height="585.10004" target-width="380.30002" target-x="372.6" target-y="206.8"></path><g node-id="301"><path d="M 485.10 610.20 L 399.00 656.80 L 397.30 658.00 L 396.10 659.60 L 395.30 661.40 L 395.00 663.50 L 395.00 718.80 L 395.20 720.80 L 395.90 722.40 L 396.90 723.80 L 399.80 725.90 L 403.50 726.60 L 405.30 726.30 L 407.20 725.50 L 493.30 679.10 L 495.00 677.90 L 496.30 676.40 L 497.10 674.60 L 497.40 672.60 L 497.40 616.90 L 497.00 614.70 L 496.20 613.00 L 494.90 611.50 L 493.20 610.40 L 491.30 609.80 L 489.20 609.50 L 487.00 609.60 L 485.10 610.20" fill="#ffffff" fill-rule="evenodd" group-id="1,6,17,18" id="Clip-8" node-id="74" stroke="none" target-height="117.099976" target-width="102.399994" target-x="395" target-y="609.5"></path><path d="M 491.90 617.00 L 405.90 663.60 L 404.20 664.90 L 402.90 666.40 L 402.10 668.30 L 401.80 670.30 L 401.80 725.70 L 402.10 727.60 L 402.70 729.20 L 403.80 730.70 L 406.70 732.70 L 410.30 733.40 L 412.10 733.10 L 414.00 732.40 L 500.10 686.00 L 501.80 684.70 L 503.10 683.20 L 503.90 681.40 L 504.20 679.40 L 504.20 623.70 L 503.90 621.60 L 503.00 619.80 L 501.70 618.30 L 500.00 617.30 L 498.10 616.60 L 496.00 616.40 L 493.80 616.40 L 491.90 617.00" fill="#4becf8" fill-rule="evenodd" group-id="1,6,17,18" id="Fill-7" node-id="75" stroke="none" target-height="117" target-width="102.400024" target-x="401.8" target-y="616.4"></path><g node-id="302"><g node-id="305"><path d="M 416.40 680.20 L 416.40 689.50 L 445.70 669.60 L 445.70 660.20 Z" fill="url(#linearGradient-14)" fill-rule="evenodd" group-id="1,6,17,18,19,22" id="Fill-11" node-id="80" stroke="none" target-height="29.299988" target-width="29.300018" target-x="416.4" target-y="660.2"></path></g></g><path d="M 431.10 695.10 L 431.10 704.10 L 489.60 669.30 L 489.60 660.20 Z" fill="url(#linearGradient-17)" fill-rule="evenodd" group-id="1,6,17,18,20,24" id="Fill-13" node-id="85" stroke="none" target-height="43.899963" target-width="58.5" target-x="431.1" target-y="660.2"></path></g><path d="M 615.10 271.50 L 613.90 272.50 L 612.90 273.90 L 612.20 275.50 L 612.10 277.10 L 612.10 335.40 L 343.30 468.70 L 343.30 757.20 L 343.60 761.50 L 344.50 765.50 L 346.00 769.40 L 349.40 774.60 L 351.60 776.80 L 368.90 789.70 L 372.60 791.40 L 376.80 792.10 L 374.50 791.10 L 373.50 790.10 L 372.30 787.50 L 372.10 785.60 L 372.00 496.90 L 372.20 493.90 L 373.10 490.80 L 374.40 487.80 L 376.30 485.00 L 378.50 482.60 L 380.90 480.80 L 621.10 342.90 L 621.10 284.60 L 621.30 283.10 L 621.90 281.50 L 622.90 280.10 L 624.10 279.10 L 749.50 207.00 L 750.80 206.60 L 751.70 206.80 L 752.30 207.50 L 752.50 209.10 L 752.90 208.10 L 752.60 205.90 L 752.00 204.10 L 749.80 201.50 L 746.90 199.90 L 744.60 199.30 L 742.60 199.10 L 740.60 199.50 L 615.10 271.50 Z" fill="url(#linearGradient-18)" fill-rule="evenodd" group-id="1,6,17" id="Fill-9" node-id="86" stroke="none" target-height="593" target-width="409.60004" target-x="343.3" target-y="199.1"></path><path d="M 460.30 664.10 L 460.30 674.90 L 489.60 656.40 L 489.60 645.60 Z" fill="url(#linearGradient-19)" fill-rule="evenodd" group-id="1,6,17" id="Fill-15" node-id="87" stroke="none" target-height="29.300049" target-width="29.300018" target-x="460.3" target-y="645.6"></path></g></g><g node-id="290"><path d="M 395.00 599.80 L 716.80 437.50 L 716.80 466.80 L 395.00 629.00 Z" fill="#ffffff" fill-rule="evenodd" group-id="1,7" id="矩形" node-id="88" stroke="none" target-height="191.5" target-width="321.8" target-x="395" target-y="437.5"></path></g><path d="M 350.10 386.20 L 331.90 389.10 L 298.40 395.70 L 282.90 399.30 L 267.30 403.40 L 252.70 407.60 L 239.30 412.00 L 227.00 416.40 L 214.40 421.50 L 203.20 426.60 L 193.20 431.80 L 184.30 436.90 L 177.10 441.70 L 170.90 446.40 L 165.60 451.00 L 161.00 455.60 L 157.20 460.10 L 154.20 464.40 L 151.80 468.60 L 150.00 472.80 L 148.70 477.00 L 147.90 481.20 L 147.60 485.40 L 147.90 489.70 L 148.70 493.90 L 150.00 498.10 L 151.80 502.30 L 154.20 506.50 L 157.30 510.80 L 161.20 515.40 L 165.80 520.00 L 171.20 524.70 L 177.50 529.40 L 184.80 534.20 L 193.70 539.30 L 203.90 544.50 L 215.20 549.70 L 228.00 554.80 L 240.50 559.20 L 254.00 563.60 L 268.70 567.80 L 284.60 571.90 L 300.20 575.50 L 334.10 582.10 L 352.50 585.00 L 389.50 589.80 L 409.10 591.70 L 449.60 594.60 L 470.30 595.50 L 513.30 596.30 L 535.00 596.10 L 556.30 595.50 L 597.10 593.40 L 617.50 591.70 L 655.90 587.50 L 692.50 582.10 L 709.90 578.90 L 742.00 571.90 L 757.80 567.80 L 772.50 563.60 L 786.10 559.20 L 798.60 554.80 L 811.30 549.70 L 822.70 544.50 L 832.80 539.30 L 841.70 534.20 L 849.00 529.40 L 855.30 524.70 L 860.70 520.00 L 865.40 515.40 L 869.20 510.80 L 872.30 506.50 L 874.70 502.30 L 876.50 498.10 L 877.80 493.90 L 878.60 489.70 L 878.90 485.40 L 878.60 480.80 L 877.70 476.30 L 876.20 471.80 L 874.00 467.20 L 871.20 462.60 L 868.10 458.50 L 864.30 454.30 L 860.00 450.10 L 854.90 445.80 L 849.10 441.50 L 841.90 436.70 L 833.70 431.90 L 824.50 427.20 L 814.20 422.40 L 804.00 418.20 L 781.00 409.90 L 755.20 402.30 L 727.30 395.50 L 712.10 392.30 L 691.90 388.60 L 670.60 385.30 L 648.00 382.30" fill="none" group-id="1,8" id="路径" node-id="89" stroke="url(#linearGradient-20)" stroke-linecap="round" stroke-width="2" target-height="214" target-width="731.30005" target-x="147.6" target-y="382.3"></path></g></svg>